<svg width="131" height="217" viewBox="0 0 131 217" fill="none" xmlns="http://www.w3.org/2000/svg">
<path d="M0.0639648 47.5391L7.00479 34.5176V47.5391H0.0639648Z" fill="#018FB2"/>
<path d="M130.41 47.5391L123.469 34.5176V47.5391H130.41Z" fill="#018FB2"/>
<path d="M120.528 9.37483C118.608 7.4546 115.948 6.25446 113.008 6.25446H41.4889C37.0984 2.40399 31.3377 0.0537109 25.037 0.0537109C11.2453 0.0537109 0.0639648 11.2351 0.0639648 25.0267C0.0639648 31.7275 2.71428 37.8183 7.0148 42.2988V206.359C7.0148 209.299 8.20494 211.959 10.1352 213.879C12.0554 215.8 14.7157 217 17.6561 217H113.018C115.958 217 118.618 215.81 120.538 213.879C122.459 211.959 123.659 209.299 123.659 206.359V16.8957C123.649 13.9554 122.459 11.2951 120.528 9.37483Z" fill="#00B3DF"/>
<path d="M112.918 9.91504H17.5561C14.7858 9.91504 12.2955 11.5652 11.2154 14.1155C10.8553 14.9656 10.6753 15.8658 10.6753 16.7959V206.269C10.6753 208.109 11.3954 209.839 12.6955 211.139C13.9957 212.439 15.7259 213.159 17.5661 213.159H112.928C114.768 213.159 116.498 212.439 117.798 211.139C119.098 209.839 119.818 208.109 119.818 206.269V16.8059C119.818 14.9656 119.098 13.2354 117.798 11.9353C116.488 10.6351 114.758 9.91504 112.918 9.91504Z" fill="white"/>
<path d="M45.5519 29.2619C47.9401 17.8772 40.6469 6.71203 29.2622 4.32387C17.8774 1.93572 6.71229 9.2289 4.32414 20.6136C1.93598 31.9984 9.22916 43.1635 20.6139 45.5517C31.9986 47.9398 43.1638 40.6467 45.5519 29.2619Z" fill="white"/>
<path d="M24.9369 42.159C34.4484 42.159 42.159 34.4484 42.159 24.9369C42.159 15.4254 34.4484 7.71484 24.9369 7.71484C15.4254 7.71484 7.71484 15.4254 7.71484 24.9369C7.71484 34.4484 15.4254 42.159 24.9369 42.159Z" fill="#00B3DF"/>
<path opacity="0.2" d="M24.9369 10.6852C33.948 10.6852 41.3389 17.606 42.089 26.4271C42.129 25.937 42.159 25.447 42.159 24.9369C42.159 15.4258 34.4481 7.71484 24.9369 7.71484C15.4258 7.71484 7.71484 15.4258 7.71484 24.9369C7.71484 25.437 7.74485 25.937 7.78486 26.4271C8.53495 17.606 15.9258 10.6852 24.9369 10.6852Z" fill="#050000"/>
<path d="M130.41 47.54H0.0639648V177.886H130.41V47.54Z" fill="#00B3DF"/>
<path d="M0.0639648 177.886L7.0148 190.917V177.886H0.0639648Z" fill="#018FB2"/>
<path d="M20.3688 122.559C22.2188 122.559 23.0788 121.639 23.0788 120.569C23.0788 117.999 18.8388 119.069 18.8388 117.359C18.8388 116.749 19.3488 116.249 20.5388 116.249C21.1588 116.249 21.8488 116.429 22.4588 116.819L22.7888 116.019C22.2088 115.619 21.3588 115.399 20.5388 115.399C18.6988 115.399 17.8588 116.319 17.8588 117.399C17.8588 119.999 22.0988 118.919 22.0988 120.629C22.0988 121.239 21.5788 121.709 20.3688 121.709C19.4688 121.709 18.5788 121.369 18.0588 120.899L17.6888 121.679C18.2488 122.199 19.2988 122.559 20.3688 122.559ZM29.1897 119.859C29.1897 118.229 28.0997 117.129 26.5697 117.129C25.0397 117.129 23.9097 118.259 23.9097 119.829C23.9097 121.409 25.0497 122.539 26.7597 122.539C27.6397 122.539 28.3697 122.239 28.8497 121.679L28.3197 121.059C27.9297 121.489 27.4097 121.699 26.7897 121.699C25.7397 121.699 24.9897 121.079 24.8697 120.149H29.1697C29.1797 120.059 29.1897 119.939 29.1897 119.859ZM26.5697 117.939C27.4997 117.939 28.1697 118.569 28.2697 119.459H24.8697C24.9697 118.559 25.6497 117.939 26.5697 117.939ZM35.3128 119.859C35.3128 118.229 34.2228 117.129 32.6928 117.129C31.1628 117.129 30.0328 118.259 30.0328 119.829C30.0328 121.409 31.1728 122.539 32.8828 122.539C33.7628 122.539 34.4928 122.239 34.9728 121.679L34.4428 121.059C34.0528 121.489 33.5328 121.699 32.9128 121.699C31.8628 121.699 31.1128 121.079 30.9928 120.149H35.2928C35.3028 120.059 35.3128 119.939 35.3128 119.859ZM32.6928 117.939C33.6228 117.939 34.2928 118.569 34.3928 119.459H30.9928C31.0928 118.559 31.7728 117.939 32.6928 117.939ZM48.4114 115.479L46.4814 121.199L44.5514 115.479H43.6314L41.6614 121.169L39.7714 115.479H38.7414L41.0814 122.479H42.1514L44.0614 116.889L45.9714 122.479H47.0214L49.3614 115.479H48.4114ZM53.4212 117.129C52.6112 117.129 51.9512 117.419 51.5512 117.929V115.059H50.5912V122.479H51.5512V119.749C51.5512 118.599 52.2112 117.989 53.2312 117.989C54.1412 117.989 54.6612 118.499 54.6612 119.539V122.479H55.6212V119.429C55.6212 117.869 54.7112 117.129 53.4212 117.129ZM59.6971 122.539C61.2871 122.539 62.4471 121.409 62.4471 119.829C62.4471 118.249 61.2871 117.129 59.6971 117.129C58.1071 117.129 56.9371 118.249 56.9371 119.829C56.9371 121.409 58.1071 122.539 59.6971 122.539ZM59.6971 121.699C58.6771 121.699 57.9071 120.959 57.9071 119.829C57.9071 118.699 58.6771 117.969 59.6971 117.969C60.7171 117.969 61.4771 118.699 61.4771 119.829C61.4771 120.959 60.7171 121.699 59.6971 121.699ZM66.4603 122.479H67.4203V115.059H66.4603V122.479ZM69.7333 116.159C70.1133 116.159 70.3833 115.879 70.3833 115.519C70.3833 115.179 70.1033 114.909 69.7333 114.909C69.3633 114.909 69.0833 115.189 69.0833 115.539C69.0833 115.889 69.3633 116.159 69.7333 116.159ZM69.2533 122.479H70.2133V117.179H69.2533V122.479ZM76.0962 122.479H77.2762L74.8262 119.369L77.0562 117.179H75.8962L73.0062 119.819V115.059H72.0462V122.479H73.0062V121.029L74.1062 120.009L76.0962 122.479ZM82.7737 119.859C82.7737 118.229 81.6837 117.129 80.1537 117.129C78.6237 117.129 77.4937 118.259 77.4937 119.829C77.4937 121.409 78.6337 122.539 80.3437 122.539C81.2237 122.539 81.9537 122.239 82.4337 121.679L81.9037 121.059C81.5137 121.489 80.9937 121.699 80.3737 121.699C79.3237 121.699 78.5737 121.079 78.4537 120.149H82.7537C82.7637 120.059 82.7737 119.939 82.7737 119.859ZM80.1537 117.939C81.0837 117.939 81.7537 118.569 81.8537 119.459H78.4537C78.5537 118.559 79.2337 117.939 80.1537 117.939ZM85.6268 122.539C87.0368 122.539 87.9168 121.929 87.9168 120.969C87.9168 118.909 84.5568 119.929 84.5568 118.679C84.5568 118.259 84.9668 117.949 85.8068 117.949C86.3268 117.949 86.8568 118.059 87.3368 118.369L87.7468 117.609C87.2868 117.309 86.5068 117.129 85.8168 117.129C84.4568 117.129 83.6068 117.769 83.6068 118.719C83.6068 120.829 86.9568 119.799 86.9568 120.989C86.9568 121.439 86.5868 121.709 85.6968 121.709C85.0068 121.709 84.2868 121.479 83.8368 121.159L83.4368 121.919C83.8768 122.269 84.7468 122.539 85.6268 122.539ZM95.5521 117.179L93.7221 121.419L91.8721 117.179H90.8721L93.2121 122.469L93.0421 122.839C92.7821 123.449 92.4921 123.659 92.0321 123.659C91.6721 123.659 91.3421 123.519 91.0821 123.269L90.6721 123.989C91.0021 124.309 91.5221 124.479 92.0321 124.479C92.8421 124.479 93.4521 124.129 93.9221 123.009L96.4921 117.179H95.5521ZM99.5115 122.539C101.102 122.539 102.262 121.409 102.262 119.829C102.262 118.249 101.102 117.129 99.5115 117.129C97.9215 117.129 96.7515 118.249 96.7515 119.829C96.7515 121.409 97.9215 122.539 99.5115 122.539ZM99.5115 121.699C98.4915 121.699 97.7215 120.959 97.7215 119.829C97.7215 118.699 98.4915 117.969 99.5115 117.969C100.532 117.969 101.292 118.699 101.292 119.829C101.292 120.959 100.532 121.699 99.5115 121.699ZM107.569 117.179V119.919C107.569 121.059 106.929 121.679 105.929 121.679C105.019 121.679 104.499 121.159 104.499 120.119V117.179H103.539V120.229C103.539 121.789 104.449 122.539 105.819 122.539C106.569 122.539 107.229 122.229 107.619 121.679V122.479H108.529V117.179H107.569Z" fill="white"/>
<path d="M15.1864 118.554C15.1864 119.374 14.5264 120.035 13.7063 120.035C12.8862 120.035 12.2261 119.374 12.2261 118.554C12.2261 117.734 12.8862 117.074 13.7063 117.074C14.5264 117.074 15.1864 117.744 15.1864 118.554Z" fill="white"/>
<path d="M130.409 177.886L123.648 190.917V177.886H130.409Z" fill="#018FB2"/>
<path d="M96.1654 204.508H34.3079C32.4477 204.508 30.9375 202.998 30.9375 201.138V189.247C30.9375 187.386 32.4477 185.866 34.3179 185.866H96.1753C98.0356 185.866 99.5558 187.376 99.5558 189.247V201.138C99.5358 202.998 98.0256 204.508 96.1654 204.508Z" fill="#00B3DF"/>
<path d="M51.598 30.9248V23.2448L52.438 24.0848H49.918V22.5248H53.542V30.9248H51.598ZM58.9276 30.9248V22.5248H60.5356L64.1116 28.4528H63.2596L66.7756 22.5248H68.3716L68.3956 30.9248H66.5716L66.5596 25.3208H66.8956L64.0876 30.0368H63.2116L60.3436 25.3208H60.7516V30.9248H58.9276ZM73.3286 31.0208C72.6406 31.0208 72.0286 30.8768 71.4926 30.5888C70.9646 30.3008 70.5446 29.9088 70.2326 29.4128C69.9286 28.9088 69.7766 28.3368 69.7766 27.6968C69.7766 27.0488 69.9286 26.4768 70.2326 25.9808C70.5446 25.4768 70.9646 25.0848 71.4926 24.8048C72.0286 24.5168 72.6406 24.3728 73.3286 24.3728C74.0086 24.3728 74.6166 24.5168 75.1526 24.8048C75.6886 25.0848 76.1086 25.4728 76.4126 25.9688C76.7166 26.4648 76.8686 27.0408 76.8686 27.6968C76.8686 28.3368 76.7166 28.9088 76.4126 29.4128C76.1086 29.9088 75.6886 30.3008 75.1526 30.5888C74.6166 30.8768 74.0086 31.0208 73.3286 31.0208ZM73.3286 29.4848C73.6406 29.4848 73.9206 29.4128 74.1686 29.2688C74.4166 29.1248 74.6126 28.9208 74.7566 28.6568C74.9006 28.3848 74.9726 28.0648 74.9726 27.6968C74.9726 27.3208 74.9006 27.0008 74.7566 26.7368C74.6126 26.4728 74.4166 26.2688 74.1686 26.1248C73.9206 25.9808 73.6406 25.9088 73.3286 25.9088C73.0166 25.9088 72.7366 25.9808 72.4886 26.1248C72.2406 26.2688 72.0406 26.4728 71.8886 26.7368C71.7446 27.0008 71.6726 27.3208 71.6726 27.6968C71.6726 28.0648 71.7446 28.3848 71.8886 28.6568C72.0406 28.9208 72.2406 29.1248 72.4886 29.2688C72.7366 29.4128 73.0166 29.4848 73.3286 29.4848ZM82.0439 24.3728C82.5559 24.3728 83.0119 24.4768 83.4119 24.6848C83.8199 24.8848 84.1399 25.1968 84.3719 25.6208C84.6039 26.0368 84.7199 26.5728 84.7199 27.2288V30.9248H82.8479V27.5168C82.8479 26.9968 82.7319 26.6128 82.4999 26.3648C82.2759 26.1168 81.9559 25.9928 81.5399 25.9928C81.2439 25.9928 80.9759 26.0568 80.7359 26.1848C80.5039 26.3048 80.3199 26.4928 80.1839 26.7488C80.0559 27.0048 79.9919 27.3328 79.9919 27.7328V30.9248H78.1199V24.4688H79.9079V26.2568L79.5719 25.7168C79.8039 25.2848 80.1359 24.9528 80.5679 24.7208C80.9999 24.4888 81.4919 24.3728 82.0439 24.3728ZM89.0567 31.0208C88.2967 31.0208 87.7047 30.8288 87.2807 30.4448C86.8567 30.0528 86.6447 29.4728 86.6447 28.7048V23.0408H88.5167V28.6808C88.5167 28.9528 88.5887 29.1648 88.7327 29.3168C88.8767 29.4608 89.0727 29.5328 89.3207 29.5328C89.6167 29.5328 89.8687 29.4528 90.0767 29.2928L90.5807 30.6128C90.3887 30.7488 90.1567 30.8528 89.8847 30.9248C89.6207 30.9888 89.3447 31.0208 89.0567 31.0208ZM85.6487 26.0528V24.6128H90.1247V26.0528H85.6487ZM95.5556 24.3728C96.0676 24.3728 96.5236 24.4768 96.9236 24.6848C97.3316 24.8848 97.6516 25.1968 97.8836 25.6208C98.1156 26.0368 98.2316 26.5728 98.2316 27.2288V30.9248H96.3596V27.5168C96.3596 26.9968 96.2436 26.6128 96.0116 26.3648C95.7876 26.1168 95.4676 25.9928 95.0516 25.9928C94.7556 25.9928 94.4876 26.0568 94.2476 26.1848C94.0156 26.3048 93.8316 26.4928 93.6956 26.7488C93.5676 27.0048 93.5036 27.3328 93.5036 27.7328V30.9248H91.6316V22.0208H93.5036V26.2568L93.0836 25.7168C93.3156 25.2848 93.6476 24.9528 94.0796 24.7208C94.5116 24.4888 95.0036 24.3728 95.5556 24.3728Z" fill="#071F51"/>
<path d="M52.0494 195.813C52.5054 195.573 52.7934 195.141 52.7934 194.581C52.7934 193.709 52.0734 193.125 50.6734 193.125H47.9374V198.725H50.8334C52.3054 198.725 53.0734 198.165 53.0734 197.197C53.0734 196.493 52.6734 196.013 52.0494 195.813ZM50.5134 194.101C51.1454 194.101 51.4894 194.317 51.4894 194.757C51.4894 195.197 51.1454 195.421 50.5134 195.421H49.2254V194.101H50.5134ZM50.7374 197.749H49.2254V196.365H50.7374C51.4094 196.365 51.7694 196.589 51.7694 197.061C51.7694 197.541 51.4094 197.749 50.7374 197.749ZM57.0546 194.421V196.549C57.0546 197.341 56.6386 197.709 56.0626 197.709C55.5106 197.709 55.1906 197.389 55.1906 196.669V194.421H53.9426V196.853C53.9426 198.181 54.7026 198.789 55.7826 198.789C56.3106 198.789 56.7906 198.589 57.1186 198.213V198.725H58.3026V194.421H57.0546ZM62.5308 194.421L61.3148 197.341L60.1068 194.421H58.8188L60.6828 198.757L60.6668 198.797C60.4988 199.181 60.3068 199.333 59.9628 199.333C59.7148 199.333 59.4508 199.229 59.2588 199.061L58.8028 199.949C59.0828 200.197 59.5628 200.341 60.0028 200.341C60.7788 200.341 61.3708 200.029 61.7868 198.989L63.7308 194.421H62.5308ZM70.4497 193.125V196.525L67.6657 193.125H66.5937V198.725H67.8737V195.325L70.6657 198.725H71.7297V193.125H70.4497ZM75.0146 198.789C76.3826 198.789 77.3746 197.869 77.3746 196.573C77.3746 195.277 76.3826 194.357 75.0146 194.357C73.6466 194.357 72.6466 195.277 72.6466 196.573C72.6466 197.869 73.6466 198.789 75.0146 198.789ZM75.0146 197.765C74.3906 197.765 73.9106 197.317 73.9106 196.573C73.9106 195.829 74.3906 195.381 75.0146 195.381C75.6386 195.381 76.1106 195.829 76.1106 196.573C76.1106 197.317 75.6386 197.765 75.0146 197.765ZM83.8996 194.421L82.8516 197.333L81.8276 194.421H80.7716L79.7156 197.333L78.6996 194.421H77.5236L79.0756 198.725H80.2756L81.2756 196.053L82.2436 198.725H83.4436L85.0036 194.421H83.8996Z" fill="white"/>
<path d="M13.5705 30.4082V22.8882H14.3705V30.4082H13.5705ZM13.8585 29.5442C13.4105 29.5442 12.9812 29.4856 12.5705 29.3682C12.1598 29.2456 11.8292 29.0882 11.5785 28.8962L12.0185 27.9202C12.2585 28.0909 12.5412 28.2322 12.8665 28.3442C13.1972 28.4509 13.5305 28.5042 13.8665 28.5042C14.1225 28.5042 14.3278 28.4802 14.4825 28.4322C14.6425 28.3789 14.7598 28.3069 14.8345 28.2162C14.9092 28.1256 14.9465 28.0216 14.9465 27.9042C14.9465 27.7549 14.8878 27.6376 14.7705 27.5522C14.6532 27.4616 14.4985 27.3896 14.3065 27.3362C14.1145 27.2776 13.9012 27.2242 13.6665 27.1762C13.4372 27.1229 13.2052 27.0589 12.9705 26.9842C12.7412 26.9096 12.5305 26.8136 12.3385 26.6962C12.1465 26.5789 11.9892 26.4242 11.8665 26.2322C11.7492 26.0402 11.6905 25.7949 11.6905 25.4962C11.6905 25.1762 11.7758 24.8856 11.9465 24.6242C12.1225 24.3576 12.3838 24.1469 12.7305 23.9922C13.0825 23.8322 13.5225 23.7522 14.0505 23.7522C14.4025 23.7522 14.7492 23.7949 15.0905 23.8802C15.4318 23.9602 15.7332 24.0829 15.9945 24.2482L15.5945 25.2322C15.3332 25.0829 15.0718 24.9736 14.8105 24.9042C14.5492 24.8296 14.2932 24.7922 14.0425 24.7922C13.7918 24.7922 13.5865 24.8216 13.4265 24.8802C13.2665 24.9389 13.1518 25.0162 13.0825 25.1122C13.0132 25.2029 12.9785 25.3096 12.9785 25.4322C12.9785 25.5762 13.0372 25.6936 13.1545 25.7842C13.2718 25.8696 13.4265 25.9389 13.6185 25.9922C13.8105 26.0456 14.0212 26.0989 14.2505 26.1522C14.4852 26.2056 14.7172 26.2669 14.9465 26.3362C15.1812 26.4056 15.3945 26.4989 15.5865 26.6162C15.7785 26.7336 15.9332 26.8882 16.0505 27.0802C16.1732 27.2722 16.2345 27.5149 16.2345 27.8082C16.2345 28.1229 16.1465 28.4109 15.9705 28.6722C15.7945 28.9336 15.5305 29.1442 15.1785 29.3042C14.8318 29.4642 14.3918 29.5442 13.8585 29.5442ZM17.5539 29.4482V24.3282L18.1139 24.8882H16.4339V23.8482H18.8499V29.4482H17.5539ZM21.7267 29.5442C21.3374 29.5442 20.9507 29.4936 20.5667 29.3922C20.1881 29.2856 19.8627 29.1362 19.5907 28.9442L20.1027 27.9522C20.3161 28.1069 20.5614 28.2296 20.8387 28.3202C21.1214 28.4109 21.4067 28.4562 21.6947 28.4562C22.0201 28.4562 22.2761 28.3922 22.4627 28.2642C22.6494 28.1362 22.7427 27.9576 22.7427 27.7282C22.7427 27.5842 22.7054 27.4562 22.6307 27.3442C22.5561 27.2322 22.4227 27.1469 22.2307 27.0882C22.0441 27.0296 21.7801 27.0002 21.4387 27.0002H20.0067L20.2947 23.8482H23.7107V24.8882H20.7587L21.4307 24.2962L21.2307 26.5442L20.5587 25.9522H21.7427C22.2974 25.9522 22.7427 26.0296 23.0787 26.1842C23.4201 26.3336 23.6681 26.5389 23.8227 26.8002C23.9774 27.0616 24.0547 27.3576 24.0547 27.6882C24.0547 28.0189 23.9721 28.3256 23.8067 28.6082C23.6414 28.8856 23.3854 29.1122 23.0387 29.2882C22.6974 29.4589 22.2601 29.5442 21.7267 29.5442ZM25.3166 29.5122C25.1032 29.5122 24.9192 29.4402 24.7646 29.2962C24.6152 29.1469 24.5406 28.9576 24.5406 28.7282C24.5406 28.4989 24.6152 28.3149 24.7646 28.1762C24.9192 28.0322 25.1032 27.9602 25.3166 27.9602C25.5352 27.9602 25.7192 28.0322 25.8686 28.1762C26.0179 28.3149 26.0926 28.4989 26.0926 28.7282C26.0926 28.9576 26.0179 29.1469 25.8686 29.2962C25.7192 29.4402 25.5352 29.5122 25.3166 29.5122ZM28.6423 23.7522C29.1596 23.7522 29.605 23.8589 29.9783 24.0722C30.3516 24.2856 30.6396 24.5976 30.8423 25.0082C31.045 25.4136 31.1463 25.9202 31.1463 26.5282C31.1463 27.1736 31.0236 27.7202 30.7783 28.1682C30.5383 28.6162 30.205 28.9576 29.7783 29.1922C29.3516 29.4269 28.8556 29.5442 28.2903 29.5442C27.997 29.5442 27.7143 29.5122 27.4423 29.4482C27.1703 29.3842 26.9356 29.2882 26.7383 29.1602L27.2183 28.2082C27.373 28.3149 27.5383 28.3896 27.7143 28.4322C27.8903 28.4696 28.0743 28.4882 28.2663 28.4882C28.7463 28.4882 29.1276 28.3416 29.4103 28.0482C29.6983 27.7549 29.8423 27.3202 29.8423 26.7442C29.8423 26.6482 29.8396 26.5416 29.8343 26.4242C29.829 26.3069 29.8156 26.1896 29.7943 26.0722L30.1463 26.4082C30.0556 26.6162 29.9276 26.7922 29.7623 26.9362C29.597 27.0749 29.405 27.1816 29.1863 27.2562C28.9676 27.3256 28.7223 27.3602 28.4503 27.3602C28.093 27.3602 27.7676 27.2882 27.4743 27.1442C27.1863 27.0002 26.9543 26.7976 26.7783 26.5362C26.6076 26.2749 26.5223 25.9682 26.5223 25.6162C26.5223 25.2322 26.6156 24.9016 26.8023 24.6242C26.9943 24.3469 27.2503 24.1336 27.5703 23.9842C27.8956 23.8296 28.253 23.7522 28.6423 23.7522ZM28.7223 24.7202C28.5356 24.7202 28.373 24.7549 28.2343 24.8242C28.0956 24.8882 27.9863 24.9842 27.9063 25.1122C27.8263 25.2349 27.7863 25.3816 27.7863 25.5522C27.7863 25.8082 27.8716 26.0136 28.0423 26.1682C28.2183 26.3176 28.4503 26.3922 28.7383 26.3922C28.925 26.3922 29.0903 26.3576 29.2343 26.2882C29.3836 26.2136 29.4983 26.1122 29.5783 25.9842C29.6583 25.8562 29.6983 25.7122 29.6983 25.5522C29.6983 25.3922 29.6583 25.2509 29.5783 25.1282C29.5036 25.0002 29.3943 24.9016 29.2503 24.8322C29.1063 24.7576 28.9303 24.7202 28.7223 24.7202ZM33.7361 23.7522C34.2534 23.7522 34.6987 23.8589 35.0721 24.0722C35.4454 24.2856 35.7334 24.5976 35.9361 25.0082C36.1387 25.4136 36.2401 25.9202 36.2401 26.5282C36.2401 27.1736 36.1174 27.7202 35.8721 28.1682C35.6321 28.6162 35.2987 28.9576 34.8721 29.1922C34.4454 29.4269 33.9494 29.5442 33.3841 29.5442C33.0907 29.5442 32.8081 29.5122 32.5361 29.4482C32.2641 29.3842 32.0294 29.2882 31.8321 29.1602L32.3121 28.2082C32.4667 28.3149 32.6321 28.3896 32.8081 28.4322C32.9841 28.4696 33.1681 28.4882 33.3601 28.4882C33.8401 28.4882 34.2214 28.3416 34.5041 28.0482C34.7921 27.7549 34.9361 27.3202 34.9361 26.7442C34.9361 26.6482 34.9334 26.5416 34.9281 26.4242C34.9227 26.3069 34.9094 26.1896 34.8881 26.0722L35.2401 26.4082C35.1494 26.6162 35.0214 26.7922 34.8561 26.9362C34.6907 27.0749 34.4987 27.1816 34.2801 27.2562C34.0614 27.3256 33.8161 27.3602 33.5441 27.3602C33.1867 27.3602 32.8614 27.2882 32.5681 27.1442C32.2801 27.0002 32.0481 26.7976 31.8721 26.5362C31.7014 26.2749 31.6161 25.9682 31.6161 25.6162C31.6161 25.2322 31.7094 24.9016 31.8961 24.6242C32.0881 24.3469 32.3441 24.1336 32.6641 23.9842C32.9894 23.8296 33.3467 23.7522 33.7361 23.7522ZM33.8161 24.7202C33.6294 24.7202 33.4667 24.7549 33.3281 24.8242C33.1894 24.8882 33.0801 24.9842 33.0001 25.1122C32.9201 25.2349 32.8801 25.3816 32.8801 25.5522C32.8801 25.8082 32.9654 26.0136 33.1361 26.1682C33.3121 26.3176 33.5441 26.3922 33.8321 26.3922C34.0187 26.3922 34.1841 26.3576 34.3281 26.2882C34.4774 26.2136 34.5921 26.1122 34.6721 25.9842C34.7521 25.8562 34.7921 25.7122 34.7921 25.5522C34.7921 25.3922 34.7521 25.2509 34.6721 25.1282C34.5974 25.0002 34.4881 24.9016 34.3441 24.8322C34.2001 24.7576 34.0241 24.7202 33.8161 24.7202Z" fill="white"/>
<path d="M52.4117 37.8601C52.0757 37.8601 51.7537 37.8161 51.4457 37.7281C51.1377 37.6361 50.8897 37.5181 50.7017 37.3741L51.0317 36.6421C51.2117 36.7701 51.4237 36.8761 51.6677 36.9601C51.9157 37.0401 52.1657 37.0801 52.4177 37.0801C52.6097 37.0801 52.7637 37.0621 52.8797 37.0261C52.9997 36.9861 53.0877 36.9321 53.1437 36.8641C53.1997 36.7961 53.2277 36.7181 53.2277 36.6301C53.2277 36.5181 53.1837 36.4301 53.0957 36.3661C53.0077 36.2981 52.8917 36.2441 52.7477 36.2041C52.6037 36.1601 52.4437 36.1201 52.2677 36.0841C52.0957 36.0441 51.9217 35.9961 51.7457 35.9401C51.5737 35.8841 51.4157 35.8121 51.2717 35.7241C51.1277 35.6361 51.0097 35.5201 50.9177 35.3761C50.8297 35.2321 50.7857 35.0481 50.7857 34.8241C50.7857 34.5841 50.8497 34.3661 50.9777 34.1701C51.1097 33.9701 51.3057 33.8121 51.5657 33.6961C51.8297 33.5761 52.1597 33.5161 52.5557 33.5161C52.8197 33.5161 53.0797 33.5481 53.3357 33.6121C53.5917 33.6721 53.8177 33.7641 54.0137 33.8881L53.7137 34.6261C53.5177 34.5141 53.3217 34.4321 53.1257 34.3801C52.9297 34.3241 52.7377 34.2961 52.5497 34.2961C52.3617 34.2961 52.2077 34.3181 52.0877 34.3621C51.9677 34.4061 51.8817 34.4641 51.8297 34.5361C51.7777 34.6041 51.7517 34.6841 51.7517 34.7761C51.7517 34.8841 51.7957 34.9721 51.8837 35.0401C51.9717 35.1041 52.0877 35.1561 52.2317 35.1961C52.3757 35.2361 52.5337 35.2761 52.7057 35.3161C52.8817 35.3561 53.0557 35.4021 53.2277 35.4541C53.4037 35.5061 53.5637 35.5761 53.7077 35.6641C53.8517 35.7521 53.9677 35.8681 54.0557 36.0121C54.1477 36.1561 54.1937 36.3381 54.1937 36.5581C54.1937 36.7941 54.1277 37.0101 53.9957 37.2061C53.8637 37.4021 53.6657 37.5601 53.4017 37.6801C53.1417 37.8001 52.8117 37.8601 52.4117 37.8601ZM56.1539 37.8361C55.8859 37.8361 55.6459 37.7841 55.4339 37.6801C55.2259 37.5761 55.0639 37.4181 54.9479 37.2061C54.8319 36.9901 54.7739 36.7161 54.7739 36.3841V34.5601H55.7099V36.2461C55.7099 36.5141 55.7659 36.7121 55.8779 36.8401C55.9939 36.9641 56.1559 37.0261 56.3639 37.0261C56.5079 37.0261 56.6359 36.9961 56.7479 36.9361C56.8599 36.8721 56.9479 36.7761 57.0119 36.6481C57.0759 36.5161 57.1079 36.3521 57.1079 36.1561V34.5601H58.0439V37.7881H57.1559V36.9001L57.3179 37.1581C57.2099 37.3821 57.0499 37.5521 56.8379 37.6681C56.6299 37.7801 56.4019 37.8361 56.1539 37.8361ZM60.819 37.8361C60.535 37.8361 60.291 37.7761 60.087 37.6561C59.883 37.5361 59.727 37.3541 59.619 37.1101C59.511 36.8621 59.457 36.5501 59.457 36.1741C59.457 35.7941 59.513 35.4821 59.625 35.2381C59.741 34.9941 59.901 34.8121 60.105 34.6921C60.309 34.5721 60.547 34.5121 60.819 34.5121C61.123 34.5121 61.395 34.5801 61.635 34.7161C61.879 34.8521 62.071 35.0441 62.211 35.2921C62.355 35.5401 62.427 35.8341 62.427 36.1741C62.427 36.5101 62.355 36.8021 62.211 37.0501C62.071 37.2981 61.879 37.4921 61.635 37.6321C61.395 37.7681 61.123 37.8361 60.819 37.8361ZM58.911 37.7881V33.3361H59.847V35.2141L59.787 36.1681L59.805 37.1281V37.7881H58.911ZM60.657 37.0681C60.813 37.0681 60.951 37.0321 61.071 36.9601C61.195 36.8881 61.293 36.7861 61.365 36.6541C61.441 36.5181 61.479 36.3581 61.479 36.1741C61.479 35.9861 61.441 35.8261 61.365 35.6941C61.293 35.5621 61.195 35.4601 61.071 35.3881C60.951 35.3161 60.813 35.2801 60.657 35.2801C60.501 35.2801 60.361 35.3161 60.237 35.3881C60.113 35.4601 60.015 35.5621 59.943 35.6941C59.871 35.8261 59.835 35.9861 59.835 36.1741C59.835 36.3581 59.871 36.5181 59.943 36.6541C60.015 36.7861 60.113 36.8881 60.237 36.9601C60.361 37.0321 60.501 37.0681 60.657 37.0681ZM64.1396 37.8361C63.8636 37.8361 63.5976 37.8041 63.3416 37.7401C63.0896 37.6721 62.8896 37.5881 62.7416 37.4881L63.0536 36.8161C63.2016 36.9081 63.3756 36.9841 63.5756 37.0441C63.7796 37.1001 63.9796 37.1281 64.1756 37.1281C64.3916 37.1281 64.5436 37.1021 64.6316 37.0501C64.7236 36.9981 64.7696 36.9261 64.7696 36.8341C64.7696 36.7581 64.7336 36.7021 64.6616 36.6661C64.5936 36.6261 64.5016 36.5961 64.3856 36.5761C64.2696 36.5561 64.1416 36.5361 64.0016 36.5161C63.8656 36.4961 63.7276 36.4701 63.5876 36.4381C63.4476 36.4021 63.3196 36.3501 63.2036 36.2821C63.0876 36.2141 62.9936 36.1221 62.9216 36.0061C62.8536 35.8901 62.8196 35.7401 62.8196 35.5561C62.8196 35.3521 62.8776 35.1721 62.9936 35.0161C63.1136 34.8601 63.2856 34.7381 63.5096 34.6501C63.7336 34.5581 64.0016 34.5121 64.3136 34.5121C64.5336 34.5121 64.7576 34.5361 64.9856 34.5841C65.2136 34.6321 65.4036 34.7021 65.5556 34.7941L65.2436 35.4601C65.0876 35.3681 64.9296 35.3061 64.7696 35.2741C64.6136 35.2381 64.4616 35.2201 64.3136 35.2201C64.1056 35.2201 63.9536 35.2481 63.8576 35.3041C63.7616 35.3601 63.7136 35.4321 63.7136 35.5201C63.7136 35.6001 63.7476 35.6601 63.8156 35.7001C63.8876 35.7401 63.9816 35.7721 64.0976 35.7961C64.2136 35.8201 64.3396 35.8421 64.4756 35.8621C64.6156 35.8781 64.7556 35.9041 64.8956 35.9401C65.0356 35.9761 65.1616 36.0281 65.2736 36.0961C65.3896 36.1601 65.4836 36.2501 65.5556 36.3661C65.6276 36.4781 65.6636 36.6261 65.6636 36.8101C65.6636 37.0101 65.6036 37.1881 65.4836 37.3441C65.3636 37.4961 65.1896 37.6161 64.9616 37.7041C64.7376 37.7921 64.4636 37.8361 64.1396 37.8361ZM67.8011 37.8361C67.4531 37.8361 67.1431 37.7661 66.8711 37.6261C66.5991 37.4821 66.3851 37.2841 66.2291 37.0321C66.0771 36.7801 66.0011 36.4941 66.0011 36.1741C66.0011 35.8501 66.0771 35.5641 66.2291 35.3161C66.3851 35.0641 66.5991 34.8681 66.8711 34.7281C67.1431 34.5841 67.4531 34.5121 67.8011 34.5121C68.1411 34.5121 68.4371 34.5841 68.6891 34.7281C68.9411 34.8681 69.1271 35.0701 69.2471 35.3341L68.5211 35.7241C68.4371 35.5721 68.3311 35.4601 68.2031 35.3881C68.0791 35.3161 67.9431 35.2801 67.7951 35.2801C67.6351 35.2801 67.4911 35.3161 67.3631 35.3881C67.2351 35.4601 67.1331 35.5621 67.0571 35.6941C66.9851 35.8261 66.9491 35.9861 66.9491 36.1741C66.9491 36.3621 66.9851 36.5221 67.0571 36.6541C67.1331 36.7861 67.2351 36.8881 67.3631 36.9601C67.4911 37.0321 67.6351 37.0681 67.7951 37.0681C67.9431 37.0681 68.0791 37.0341 68.2031 36.9661C68.3311 36.8941 68.4371 36.7801 68.5211 36.6241L69.2471 37.0201C69.1271 37.2801 68.9411 37.4821 68.6891 37.6261C68.4371 37.7661 68.1411 37.8361 67.8011 37.8361ZM69.786 37.7881V34.5601H70.68V35.4721L70.554 35.2081C70.65 34.9801 70.804 34.8081 71.016 34.6921C71.228 34.5721 71.486 34.5121 71.79 34.5121V35.3761C71.75 35.3721 71.714 35.3701 71.682 35.3701C71.65 35.3661 71.616 35.3641 71.58 35.3641C71.324 35.3641 71.116 35.4381 70.956 35.5861C70.8 35.7301 70.722 35.9561 70.722 36.2641V37.7881H69.786ZM72.3524 37.7881V34.5601H73.2884V37.7881H72.3524ZM72.8204 34.1101C72.6484 34.1101 72.5084 34.0601 72.4004 33.9601C72.2924 33.8601 72.2384 33.7361 72.2384 33.5881C72.2384 33.4401 72.2924 33.3161 72.4004 33.2161C72.5084 33.1161 72.6484 33.0661 72.8204 33.0661C72.9924 33.0661 73.1324 33.1141 73.2404 33.2101C73.3484 33.3021 73.4024 33.4221 73.4024 33.5701C73.4024 33.7261 73.3484 33.8561 73.2404 33.9601C73.1364 34.0601 72.9964 34.1101 72.8204 34.1101ZM76.0651 37.8361C75.7931 37.8361 75.5551 37.7761 75.3511 37.6561C75.1471 37.5361 74.9871 37.3541 74.8711 37.1101C74.7591 36.8621 74.7031 36.5501 74.7031 36.1741C74.7031 35.7941 74.7571 35.4821 74.8651 35.2381C74.9731 34.9941 75.1291 34.8121 75.3331 34.6921C75.5371 34.5721 75.7811 34.5121 76.0651 34.5121C76.3691 34.5121 76.6411 34.5821 76.8811 34.7221C77.1251 34.8581 77.3171 35.0501 77.4571 35.2981C77.6011 35.5461 77.6731 35.8381 77.6731 36.1741C77.6731 36.5141 77.6011 36.8081 77.4571 37.0561C77.3171 37.3041 77.1251 37.4961 76.8811 37.6321C76.6411 37.7681 76.3691 37.8361 76.0651 37.8361ZM74.1571 38.9521V34.5601H75.0511V35.2201L75.0331 36.1801L75.0931 37.1341V38.9521H74.1571ZM75.9031 37.0681C76.0591 37.0681 76.1971 37.0321 76.3171 36.9601C76.4411 36.8881 76.5391 36.7861 76.6111 36.6541C76.6871 36.5181 76.7251 36.3581 76.7251 36.1741C76.7251 35.9861 76.6871 35.8261 76.6111 35.6941C76.5391 35.5621 76.4411 35.4601 76.3171 35.3881C76.1971 35.3161 76.0591 35.2801 75.9031 35.2801C75.7471 35.2801 75.6071 35.3161 75.4831 35.3881C75.3591 35.4601 75.2611 35.5621 75.1891 35.6941C75.1171 35.8261 75.0811 35.9861 75.0811 36.1741C75.0811 36.3581 75.1171 36.5181 75.1891 36.6541C75.2611 36.7861 75.3591 36.8881 75.4831 36.9601C75.6071 37.0321 75.7471 37.0681 75.9031 37.0681ZM79.6197 37.8361C79.2397 37.8361 78.9437 37.7401 78.7317 37.5481C78.5197 37.3521 78.4137 37.0621 78.4137 36.6781V33.8461H79.3497V36.6661C79.3497 36.8021 79.3857 36.9081 79.4577 36.9841C79.5297 37.0561 79.6277 37.0921 79.7517 37.0921C79.8997 37.0921 80.0257 37.0521 80.1297 36.9721L80.3817 37.6321C80.2857 37.7001 80.1697 37.7521 80.0337 37.7881C79.9017 37.8201 79.7637 37.8361 79.6197 37.8361ZM77.9157 35.3521V34.6321H80.1537V35.3521H77.9157ZM80.9071 37.7881V34.5601H81.8431V37.7881H80.9071ZM81.3751 34.1101C81.2031 34.1101 81.0631 34.0601 80.9551 33.9601C80.8471 33.8601 80.7931 33.7361 80.7931 33.5881C80.7931 33.4401 80.8471 33.3161 80.9551 33.2161C81.0631 33.1161 81.2031 33.0661 81.3751 33.0661C81.5471 33.0661 81.6871 33.1141 81.7951 33.2101C81.9031 33.3021 81.9571 33.4221 81.9571 33.5701C81.9571 33.7261 81.9031 33.8561 81.7951 33.9601C81.6911 34.0601 81.5511 34.1101 81.3751 34.1101ZM84.2478 37.8361C83.9038 37.8361 83.5978 37.7641 83.3298 37.6201C83.0658 37.4761 82.8558 37.2801 82.6998 37.0321C82.5478 36.7801 82.4718 36.4941 82.4718 36.1741C82.4718 35.8501 82.5478 35.5641 82.6998 35.3161C82.8558 35.0641 83.0658 34.8681 83.3298 34.7281C83.5978 34.5841 83.9038 34.5121 84.2478 34.5121C84.5878 34.5121 84.8918 34.5841 85.1598 34.7281C85.4278 34.8681 85.6378 35.0621 85.7898 35.3101C85.9418 35.5581 86.0178 35.8461 86.0178 36.1741C86.0178 36.4941 85.9418 36.7801 85.7898 37.0321C85.6378 37.2801 85.4278 37.4761 85.1598 37.6201C84.8918 37.7641 84.5878 37.8361 84.2478 37.8361ZM84.2478 37.0681C84.4038 37.0681 84.5438 37.0321 84.6678 36.9601C84.7918 36.8881 84.8898 36.7861 84.9618 36.6541C85.0338 36.5181 85.0698 36.3581 85.0698 36.1741C85.0698 35.9861 85.0338 35.8261 84.9618 35.6941C84.8898 35.5621 84.7918 35.4601 84.6678 35.3881C84.5438 35.3161 84.4038 35.2801 84.2478 35.2801C84.0918 35.2801 83.9518 35.3161 83.8278 35.3881C83.7038 35.4601 83.6038 35.5621 83.5278 35.6941C83.4558 35.8261 83.4198 35.9861 83.4198 36.1741C83.4198 36.3581 83.4558 36.5181 83.5278 36.6541C83.6038 36.7861 83.7038 36.8881 83.8278 36.9601C83.9518 37.0321 84.0918 37.0681 84.2478 37.0681ZM88.6054 34.5121C88.8614 34.5121 89.0894 34.5641 89.2894 34.6681C89.4934 34.7681 89.6534 34.9241 89.7694 35.1361C89.8854 35.3441 89.9434 35.6121 89.9434 35.9401V37.7881H89.0074V36.0841C89.0074 35.8241 88.9494 35.6321 88.8334 35.5081C88.7214 35.3841 88.5614 35.3221 88.3534 35.3221C88.2054 35.3221 88.0714 35.3541 87.9514 35.4181C87.8354 35.4781 87.7434 35.5721 87.6754 35.7001C87.6114 35.8281 87.5794 35.9921 87.5794 36.1921V37.7881H86.6434V34.5601H87.5374V35.4541L87.3694 35.1841C87.4854 34.9681 87.6514 34.8021 87.8674 34.6861C88.0834 34.5701 88.3294 34.5121 88.6054 34.5121Z" fill="#0A91E5"/>
</svg>
