<svg width="132" height="217" viewBox="0 0 132 217" fill="none" xmlns="http://www.w3.org/2000/svg">
<path d="M0.858887 47.5391L7.79972 34.5176V47.5391H0.858887Z" fill="#018FB2"/>
<path d="M131.205 47.5391L124.264 34.5176V47.5391H131.205Z" fill="#018FB2"/>
<path d="M121.323 9.37483C119.403 7.4546 116.743 6.25446 113.802 6.25446H42.2839C37.8933 2.40399 32.1327 0.0537109 25.8319 0.0537109C12.0402 0.0537109 0.858887 11.2351 0.858887 25.0267C0.858887 31.7275 3.5092 37.8183 7.80972 42.2988V206.359C7.80972 209.299 8.99987 211.959 10.9301 213.879C12.8503 215.8 15.5106 217 18.451 217H113.812C116.753 217 119.413 215.81 121.333 213.879C123.254 211.959 124.454 209.299 124.454 206.359V16.8957C124.444 13.9554 123.254 11.2951 121.323 9.37483Z" fill="#00B3DF"/>
<path d="M113.713 9.91504H18.351C15.5807 9.91504 13.0904 11.5652 12.0103 14.1155C11.6502 14.9656 11.4702 15.8658 11.4702 16.7959V206.269C11.4702 208.109 12.1903 209.839 13.4905 211.139C14.7906 212.439 16.5208 213.159 18.361 213.159H113.723C115.563 213.159 117.293 212.439 118.593 211.139C119.893 209.839 120.613 208.109 120.613 206.269V16.8059C120.613 14.9656 119.893 13.2354 118.593 11.9353C117.283 10.6351 115.553 9.91504 113.713 9.91504Z" fill="white"/>
<path d="M46.3469 29.2619C48.735 17.8772 41.4418 6.71203 30.0571 4.32387C18.6724 1.93572 7.50721 9.2289 5.11906 20.6136C2.7309 31.9984 10.0241 43.1635 21.4088 45.5517C32.7936 47.9398 43.9587 40.6467 46.3469 29.2619Z" fill="white"/>
<path d="M25.7318 42.159C35.2433 42.159 42.9539 34.4484 42.9539 24.9369C42.9539 15.4254 35.2433 7.71484 25.7318 7.71484C16.2204 7.71484 8.50977 15.4254 8.50977 24.9369C8.50977 34.4484 16.2204 42.159 25.7318 42.159Z" fill="#00B3DF"/>
<path opacity="0.2" d="M25.7318 10.6852C34.7429 10.6852 42.1338 17.606 42.8839 26.4271C42.9239 25.937 42.9539 25.447 42.9539 24.9369C42.9539 15.4258 35.243 7.71484 25.7318 7.71484C16.2207 7.71484 8.50977 15.4258 8.50977 24.9369C8.50977 25.437 8.53978 25.937 8.57978 26.4271C9.32987 17.606 16.7208 10.6852 25.7318 10.6852Z" fill="#050000"/>
<path d="M131.205 47.54H0.858887V177.886H131.205V47.54Z" fill="#00B3DF"/>
<path d="M21.0027 100.08C22.8527 100.08 23.9627 99.01 23.9627 96.98V93H22.9927V96.94C22.9927 98.49 22.2727 99.19 21.0127 99.19C19.7527 99.19 19.0427 98.49 19.0427 96.94V93H18.0427V96.98C18.0427 99.01 19.1627 100.08 21.0027 100.08ZM28.7029 94.65C27.8629 94.65 27.1829 94.96 26.7929 95.5V94.7H25.8729V100H26.8329V97.27C26.8329 96.12 27.4929 95.51 28.5129 95.51C29.4229 95.51 29.9429 96.02 29.9429 97.06V100H30.9029V96.95C30.9029 95.39 29.9929 94.65 28.7029 94.65ZM32.6795 100H33.6395V92.58H32.6795V100ZM35.9525 93.68C36.3325 93.68 36.6025 93.4 36.6025 93.04C36.6025 92.7 36.3225 92.43 35.9525 92.43C35.5825 92.43 35.3025 92.71 35.3025 93.06C35.3025 93.41 35.5825 93.68 35.9525 93.68ZM35.4725 100H36.4325V94.7H35.4725V100ZM44.8955 94.65C43.9955 94.65 43.2555 95.03 42.8555 95.63C42.5055 94.97 41.8255 94.65 41.0155 94.65C40.2155 94.65 39.5655 94.95 39.1855 95.49V94.7H38.2655V100H39.2255V97.27C39.2255 96.12 39.8555 95.51 40.8155 95.51C41.6855 95.51 42.1855 96.02 42.1855 97.06V100H43.1455V97.27C43.1455 96.12 43.7755 95.51 44.7355 95.51C45.6055 95.51 46.1055 96.02 46.1055 97.06V100H47.0655V96.95C47.0655 95.39 46.1855 94.65 44.8955 94.65ZM49.3119 93.68C49.6919 93.68 49.9619 93.4 49.9619 93.04C49.9619 92.7 49.6819 92.43 49.3119 92.43C48.9419 92.43 48.6619 92.71 48.6619 93.06C48.6619 93.41 48.9419 93.68 49.3119 93.68ZM48.8319 100H49.7919V94.7H48.8319V100ZM54.3048 99C54.1048 99.16 53.8348 99.25 53.5548 99.25C53.0248 99.25 52.7248 98.93 52.7248 98.36V95.49H54.2448V94.7H52.7248V93.54H51.7648V94.7H50.8648V95.49H51.7648V98.4C51.7648 99.47 52.3748 100.06 53.4448 100.06C53.8748 100.06 54.3148 99.94 54.6048 99.69L54.3048 99ZM60.3797 97.38C60.3797 95.75 59.2897 94.65 57.7597 94.65C56.2297 94.65 55.0997 95.78 55.0997 97.35C55.0997 98.93 56.2397 100.06 57.9497 100.06C58.8297 100.06 59.5597 99.76 60.0397 99.2L59.5097 98.58C59.1197 99.01 58.5997 99.22 57.9797 99.22C56.9297 99.22 56.1797 98.6 56.0597 97.67H60.3597C60.3697 97.58 60.3797 97.46 60.3797 97.38ZM57.7597 95.46C58.6897 95.46 59.3597 96.09 59.4597 96.98H56.0597C56.1597 96.08 56.8397 95.46 57.7597 95.46ZM65.7527 92.58V95.5C65.3127 94.93 64.6527 94.65 63.9027 94.65C62.3527 94.65 61.2227 95.73 61.2227 97.35C61.2227 98.97 62.3527 100.06 63.9027 100.06C64.6827 100.06 65.3627 99.76 65.7927 99.16V100H66.7127V92.58H65.7527ZM63.9827 99.22C62.9627 99.22 62.1927 98.48 62.1927 97.35C62.1927 96.22 62.9627 95.49 63.9827 95.49C64.9927 95.49 65.7627 96.22 65.7627 97.35C65.7627 98.48 64.9927 99.22 63.9827 99.22ZM78.0947 100.07C77.7347 100.47 77.3147 100.67 76.8147 100.67C76.3647 100.67 75.9447 100.47 75.4747 99.97C77.1047 99.59 78.2247 98.24 78.2247 96.5C78.2247 94.44 76.6447 92.92 74.5147 92.92C72.3647 92.92 70.7847 94.45 70.7847 96.5C70.7847 98.47 72.2447 99.96 74.2547 100.07C75.2347 101.08 75.9247 101.46 76.8047 101.46C77.5047 101.46 78.1147 101.17 78.5647 100.64L78.0947 100.07ZM71.7847 96.5C71.7847 94.96 72.9447 93.81 74.5147 93.81C76.0647 93.81 77.2247 94.96 77.2247 96.5C77.2247 98.04 76.0647 99.19 74.5147 99.19C72.9447 99.19 71.7847 98.04 71.7847 96.5ZM83.5931 94.7V97.44C83.5931 98.58 82.9531 99.2 81.9531 99.2C81.0431 99.2 80.5231 98.68 80.5231 97.64V94.7H79.5631V97.75C79.5631 99.31 80.4731 100.06 81.8431 100.06C82.5931 100.06 83.2531 99.75 83.6431 99.2V100H84.5531V94.7H83.5931ZM91.1707 97.38C91.1707 95.75 90.0807 94.65 88.5507 94.65C87.0207 94.65 85.8907 95.78 85.8907 97.35C85.8907 98.93 87.0307 100.06 88.7407 100.06C89.6207 100.06 90.3507 99.76 90.8307 99.2L90.3007 98.58C89.9107 99.01 89.3907 99.22 88.7707 99.22C87.7207 99.22 86.9707 98.6 86.8507 97.67H91.1507C91.1607 97.58 91.1707 97.46 91.1707 97.38ZM88.5507 95.46C89.4807 95.46 90.1507 96.09 90.2507 96.98H86.8507C86.9507 96.08 87.6307 95.46 88.5507 95.46ZM94.0238 100.06C95.4338 100.06 96.3138 99.45 96.3138 98.49C96.3138 96.43 92.9538 97.45 92.9538 96.2C92.9538 95.78 93.3638 95.47 94.2038 95.47C94.7238 95.47 95.2538 95.58 95.7338 95.89L96.1438 95.13C95.6838 94.83 94.9038 94.65 94.2138 94.65C92.8538 94.65 92.0038 95.29 92.0038 96.24C92.0038 98.35 95.3538 97.32 95.3538 98.51C95.3538 98.96 94.9838 99.23 94.0938 99.23C93.4038 99.23 92.6838 99 92.2338 98.68L91.8338 99.44C92.2738 99.79 93.1438 100.06 94.0238 100.06ZM100.194 99C99.9935 99.16 99.7235 99.25 99.4435 99.25C98.9135 99.25 98.6135 98.93 98.6135 98.36V95.49H100.134V94.7H98.6135V93.54H97.6535V94.7H96.7535V95.49H97.6535V98.4C97.6535 99.47 98.2635 100.06 99.3335 100.06C99.7635 100.06 100.204 99.94 100.494 99.69L100.194 99ZM102.134 93.68C102.514 93.68 102.784 93.4 102.784 93.04C102.784 92.7 102.504 92.43 102.134 92.43C101.764 92.43 101.484 92.71 101.484 93.06C101.484 93.41 101.764 93.68 102.134 93.68ZM101.654 100H102.614V94.7H101.654V100ZM106.717 100.06C108.307 100.06 109.467 98.93 109.467 97.35C109.467 95.77 108.307 94.65 106.717 94.65C105.127 94.65 103.957 95.77 103.957 97.35C103.957 98.93 105.127 100.06 106.717 100.06ZM106.717 99.22C105.697 99.22 104.927 98.48 104.927 97.35C104.927 96.22 105.697 95.49 106.717 95.49C107.737 95.49 108.497 96.22 108.497 97.35C108.497 98.48 107.737 99.22 106.717 99.22ZM113.625 94.65C112.785 94.65 112.105 94.96 111.715 95.5V94.7H110.795V100H111.755V97.27C111.755 96.12 112.415 95.51 113.435 95.51C114.345 95.51 114.865 96.02 114.865 97.06V100H115.825V96.95C115.825 95.39 114.915 94.65 113.625 94.65ZM119.121 100.06C120.531 100.06 121.411 99.45 121.411 98.49C121.411 96.43 118.051 97.45 118.051 96.2C118.051 95.78 118.461 95.47 119.301 95.47C119.821 95.47 120.351 95.58 120.831 95.89L121.241 95.13C120.781 94.83 120.001 94.65 119.311 94.65C117.951 94.65 117.101 95.29 117.101 96.24C117.101 98.35 120.451 97.32 120.451 98.51C120.451 98.96 120.081 99.23 119.191 99.23C118.501 99.23 117.781 99 117.331 98.68L116.931 99.44C117.371 99.79 118.241 100.06 119.121 100.06Z" fill="white"/>
<path d="M14.9604 96.0759C14.9604 96.896 14.3003 97.5561 13.4802 97.5561C12.6601 97.5561 12 96.896 12 96.0759C12 95.2558 12.6601 94.5957 13.4802 94.5957C14.3003 94.5957 14.9604 95.2658 14.9604 96.0759Z" fill="white"/>
<path d="M0.858887 177.886L7.80972 190.917V177.886H0.858887Z" fill="#018FB2"/>
<path d="M21.1637 122.559C23.0137 122.559 23.8737 121.639 23.8737 120.569C23.8737 117.999 19.6337 119.069 19.6337 117.359C19.6337 116.749 20.1437 116.249 21.3337 116.249C21.9537 116.249 22.6437 116.429 23.2537 116.819L23.5837 116.019C23.0037 115.619 22.1537 115.399 21.3337 115.399C19.4937 115.399 18.6537 116.319 18.6537 117.399C18.6537 119.999 22.8937 118.919 22.8937 120.629C22.8937 121.239 22.3737 121.709 21.1637 121.709C20.2637 121.709 19.3737 121.369 18.8537 120.899L18.4837 121.679C19.0437 122.199 20.0937 122.559 21.1637 122.559ZM29.9847 119.859C29.9847 118.229 28.8947 117.129 27.3647 117.129C25.8347 117.129 24.7047 118.259 24.7047 119.829C24.7047 121.409 25.8447 122.539 27.5547 122.539C28.4347 122.539 29.1647 122.239 29.6447 121.679L29.1147 121.059C28.7247 121.489 28.2047 121.699 27.5847 121.699C26.5347 121.699 25.7847 121.079 25.6647 120.149H29.9647C29.9747 120.059 29.9847 119.939 29.9847 119.859ZM27.3647 117.939C28.2947 117.939 28.9647 118.569 29.0647 119.459H25.6647C25.7647 118.559 26.4447 117.939 27.3647 117.939ZM36.1077 119.859C36.1077 118.229 35.0177 117.129 33.4877 117.129C31.9577 117.129 30.8277 118.259 30.8277 119.829C30.8277 121.409 31.9677 122.539 33.6777 122.539C34.5577 122.539 35.2877 122.239 35.7677 121.679L35.2377 121.059C34.8477 121.489 34.3277 121.699 33.7077 121.699C32.6577 121.699 31.9077 121.079 31.7877 120.149H36.0877C36.0977 120.059 36.1077 119.939 36.1077 119.859ZM33.4877 117.939C34.4177 117.939 35.0877 118.569 35.1877 119.459H31.7877C31.8877 118.559 32.5677 117.939 33.4877 117.939ZM49.2063 115.479L47.2763 121.199L45.3463 115.479H44.4263L42.4563 121.169L40.5663 115.479H39.5363L41.8763 122.479H42.9463L44.8563 116.889L46.7663 122.479H47.8163L50.1563 115.479H49.2063ZM54.2161 117.129C53.4061 117.129 52.7461 117.419 52.3461 117.929V115.059H51.3861V122.479H52.3461V119.749C52.3461 118.599 53.0061 117.989 54.0261 117.989C54.9361 117.989 55.4561 118.499 55.4561 119.539V122.479H56.4161V119.429C56.4161 117.869 55.5061 117.129 54.2161 117.129ZM60.492 122.539C62.082 122.539 63.242 121.409 63.242 119.829C63.242 118.249 62.082 117.129 60.492 117.129C58.902 117.129 57.732 118.249 57.732 119.829C57.732 121.409 58.902 122.539 60.492 122.539ZM60.492 121.699C59.472 121.699 58.702 120.959 58.702 119.829C58.702 118.699 59.472 117.969 60.492 117.969C61.512 117.969 62.272 118.699 62.272 119.829C62.272 120.959 61.512 121.699 60.492 121.699ZM67.2552 122.479H68.2152V115.059H67.2552V122.479ZM70.5282 116.159C70.9082 116.159 71.1782 115.879 71.1782 115.519C71.1782 115.179 70.8982 114.909 70.5282 114.909C70.1582 114.909 69.8782 115.189 69.8782 115.539C69.8782 115.889 70.1582 116.159 70.5282 116.159ZM70.0482 122.479H71.0082V117.179H70.0482V122.479ZM76.8912 122.479H78.0712L75.6212 119.369L77.8512 117.179H76.6912L73.8012 119.819V115.059H72.8412V122.479H73.8012V121.029L74.9012 120.009L76.8912 122.479ZM83.5687 119.859C83.5687 118.229 82.4787 117.129 80.9487 117.129C79.4187 117.129 78.2887 118.259 78.2887 119.829C78.2887 121.409 79.4287 122.539 81.1387 122.539C82.0187 122.539 82.7487 122.239 83.2287 121.679L82.6987 121.059C82.3087 121.489 81.7887 121.699 81.1687 121.699C80.1187 121.699 79.3687 121.079 79.2487 120.149H83.5487C83.5587 120.059 83.5687 119.939 83.5687 119.859ZM80.9487 117.939C81.8787 117.939 82.5487 118.569 82.6487 119.459H79.2487C79.3487 118.559 80.0287 117.939 80.9487 117.939ZM86.4217 122.539C87.8317 122.539 88.7117 121.929 88.7117 120.969C88.7117 118.909 85.3517 119.929 85.3517 118.679C85.3517 118.259 85.7617 117.949 86.6017 117.949C87.1217 117.949 87.6517 118.059 88.1317 118.369L88.5417 117.609C88.0817 117.309 87.3017 117.129 86.6117 117.129C85.2517 117.129 84.4017 117.769 84.4017 118.719C84.4017 120.829 87.7517 119.799 87.7517 120.989C87.7517 121.439 87.3817 121.709 86.4917 121.709C85.8017 121.709 85.0817 121.479 84.6317 121.159L84.2317 121.919C84.6717 122.269 85.5417 122.539 86.4217 122.539ZM96.347 117.179L94.517 121.419L92.667 117.179H91.667L94.007 122.469L93.837 122.839C93.577 123.449 93.287 123.659 92.827 123.659C92.467 123.659 92.137 123.519 91.877 123.269L91.467 123.989C91.797 124.309 92.317 124.479 92.827 124.479C93.637 124.479 94.247 124.129 94.717 123.009L97.287 117.179H96.347ZM100.306 122.539C101.896 122.539 103.056 121.409 103.056 119.829C103.056 118.249 101.896 117.129 100.306 117.129C98.7165 117.129 97.5465 118.249 97.5465 119.829C97.5465 121.409 98.7165 122.539 100.306 122.539ZM100.306 121.699C99.2865 121.699 98.5165 120.959 98.5165 119.829C98.5165 118.699 99.2865 117.969 100.306 117.969C101.326 117.969 102.086 118.699 102.086 119.829C102.086 120.959 101.326 121.699 100.306 121.699ZM108.364 117.179V119.919C108.364 121.059 107.724 121.679 106.724 121.679C105.814 121.679 105.294 121.159 105.294 120.119V117.179H104.334V120.229C104.334 121.789 105.244 122.539 106.614 122.539C107.364 122.539 108.024 122.229 108.414 121.679V122.479H109.324V117.179H108.364Z" fill="white"/>
<path d="M15.9814 118.554C15.9814 119.374 15.3213 120.035 14.5012 120.035C13.6811 120.035 13.021 119.374 13.021 118.554C13.021 117.734 13.6811 117.074 14.5012 117.074C15.3213 117.074 15.9814 117.744 15.9814 118.554Z" fill="white"/>
<path d="M131.204 177.886L124.443 190.917V177.886H131.204Z" fill="#018FB2"/>
<path d="M96.9603 204.508H35.1028C33.2426 204.508 31.7324 202.998 31.7324 201.138V189.247C31.7324 187.386 33.2426 185.866 35.1128 185.866H96.9703C98.8305 185.866 100.351 187.376 100.351 189.247V201.138C100.331 202.998 98.8205 204.508 96.9603 204.508Z" fill="#00B3DF"/>
<path d="M55.0209 25.9448L56.9169 23.7848V22.5248H51.0369V24.0848H54.6129L52.8849 26.0408V27.3248H53.7729C54.8769 27.3248 55.3449 27.7208 55.3449 28.3568C55.3449 29.0408 54.7449 29.4368 53.7729 29.4368C52.8969 29.4368 52.0089 29.1608 51.3729 28.6808L50.6169 30.1688C51.4329 30.7448 52.6449 31.0688 53.8209 31.0688C56.2089 31.0688 57.3009 29.7728 57.3009 28.3568C57.3009 27.1208 56.5329 26.1848 55.0209 25.9448ZM71.5929 30.9248L71.5689 22.5248H69.9729L66.8769 27.7448L63.7329 22.5248H62.1249V30.9248H63.9489V25.9928L66.4089 30.0368H67.2849L69.7569 25.8848L69.7689 30.9248H71.5929ZM76.5258 31.0208C78.5778 31.0208 80.0658 29.6408 80.0658 27.6968C80.0658 25.7528 78.5778 24.3728 76.5258 24.3728C74.4738 24.3728 72.9738 25.7528 72.9738 27.6968C72.9738 29.6408 74.4738 31.0208 76.5258 31.0208ZM76.5258 29.4848C75.5898 29.4848 74.8698 28.8128 74.8698 27.6968C74.8698 26.5808 75.5898 25.9088 76.5258 25.9088C77.4618 25.9088 78.1698 26.5808 78.1698 27.6968C78.1698 28.8128 77.4618 29.4848 76.5258 29.4848ZM85.2411 24.3728C84.3651 24.3728 83.6091 24.6728 83.1051 25.2248V24.4688H81.3171V30.9248H83.1891V27.7328C83.1891 26.5448 83.8371 25.9928 84.7371 25.9928C85.5651 25.9928 86.0451 26.4728 86.0451 27.5168V30.9248H87.9171V27.2288C87.9171 25.2608 86.7651 24.3728 85.2411 24.3728ZM93.274 29.2928C93.07 29.4488 92.794 29.5328 92.518 29.5328C92.014 29.5328 91.714 29.2328 91.714 28.6808V26.0528H93.322V24.6128H91.714V23.0408H89.842V24.6128H88.846V26.0528H89.842V28.7048C89.842 30.2408 90.73 31.0208 92.254 31.0208C92.83 31.0208 93.394 30.8888 93.778 30.6128L93.274 29.2928ZM98.7528 24.3728C97.9248 24.3728 97.2048 24.6368 96.7008 25.1408V22.0208H94.8288V30.9248H96.7008V27.7328C96.7008 26.5448 97.3488 25.9928 98.2488 25.9928C99.0768 25.9928 99.5568 26.4728 99.5568 27.5168V30.9248H101.429V27.2288C101.429 25.2608 100.277 24.3728 98.7528 24.3728ZM105.298 31.0208C107.23 31.0208 108.346 30.1688 108.346 28.9688C108.346 26.4248 104.446 27.4928 104.446 26.3888C104.446 26.0528 104.806 25.7888 105.646 25.7888C106.234 25.7888 106.87 25.9088 107.506 26.2688L108.13 24.9368C107.518 24.5768 106.534 24.3728 105.646 24.3728C103.762 24.3728 102.658 25.2368 102.658 26.4608C102.658 29.0408 106.558 27.9608 106.558 29.0168C106.558 29.3768 106.234 29.6048 105.37 29.6048C104.578 29.6048 103.702 29.3528 103.126 28.9808L102.502 30.3248C103.102 30.7208 104.206 31.0208 105.298 31.0208Z" fill="#071F51"/>
<path d="M48.7324 198.725V193.125H51.4684C52.1724 193.125 52.7004 193.258 53.0524 193.525C53.4097 193.791 53.5884 194.143 53.5884 194.581C53.5884 194.874 53.5164 195.13 53.3724 195.349C53.2284 195.562 53.031 195.727 52.7804 195.845C52.5297 195.962 52.2417 196.021 51.9164 196.021L52.0684 195.693C52.4204 195.693 52.7324 195.751 53.0044 195.869C53.2764 195.981 53.487 196.149 53.6364 196.373C53.791 196.597 53.8684 196.871 53.8684 197.197C53.8684 197.677 53.679 198.053 53.3004 198.325C52.9217 198.591 52.3644 198.725 51.6284 198.725H48.7324ZM50.0204 197.749H51.5324C51.8684 197.749 52.1217 197.695 52.2924 197.589C52.4684 197.477 52.5564 197.301 52.5564 197.061C52.5564 196.826 52.4684 196.653 52.2924 196.541C52.1217 196.423 51.8684 196.365 51.5324 196.365H49.9244V195.421H51.3084C51.623 195.421 51.863 195.367 52.0284 195.261C52.199 195.149 52.2844 194.981 52.2844 194.757C52.2844 194.538 52.199 194.375 52.0284 194.269C51.863 194.157 51.623 194.101 51.3084 194.101H50.0204V197.749ZM56.5775 198.789C56.2202 198.789 55.9002 198.719 55.6175 198.581C55.3402 198.442 55.1242 198.231 54.9695 197.949C54.8149 197.661 54.7375 197.295 54.7375 196.853V194.421H55.9855V196.669C55.9855 197.026 56.0602 197.29 56.2095 197.461C56.3642 197.626 56.5802 197.709 56.8575 197.709C57.0495 197.709 57.2202 197.669 57.3695 197.589C57.5189 197.503 57.6362 197.375 57.7215 197.205C57.8069 197.029 57.8495 196.81 57.8495 196.549V194.421H59.0975V198.725H57.9135V197.541L58.1295 197.885C57.9855 198.183 57.7722 198.41 57.4895 198.565C57.2122 198.714 56.9082 198.789 56.5775 198.789ZM60.7977 200.341C60.5737 200.341 60.3524 200.306 60.1337 200.237C59.9151 200.167 59.7364 200.071 59.5977 199.949L60.0537 199.061C60.1497 199.146 60.2591 199.213 60.3817 199.261C60.5097 199.309 60.6351 199.333 60.7577 199.333C60.9337 199.333 61.0724 199.29 61.1737 199.205C61.2804 199.125 61.3764 198.989 61.4617 198.797L61.6857 198.269L61.7817 198.133L63.3257 194.421H64.5257L62.5817 198.989C62.4431 199.335 62.2831 199.607 62.1017 199.805C61.9257 200.002 61.7284 200.141 61.5097 200.221C61.2964 200.301 61.0591 200.341 60.7977 200.341ZM61.5337 198.893L59.6137 194.421H60.9017L62.3897 198.021L61.5337 198.893ZM67.3886 198.725V193.125H68.4606L71.7646 197.157H71.2446V193.125H72.5246V198.725H71.4606L68.1486 194.693H68.6686V198.725H67.3886ZM75.8095 198.789C75.3509 198.789 74.9429 198.693 74.5855 198.501C74.2335 198.309 73.9535 198.047 73.7455 197.717C73.5429 197.381 73.4415 196.999 73.4415 196.573C73.4415 196.141 73.5429 195.759 73.7455 195.429C73.9535 195.093 74.2335 194.831 74.5855 194.645C74.9429 194.453 75.3509 194.357 75.8095 194.357C76.2629 194.357 76.6682 194.453 77.0255 194.645C77.3829 194.831 77.6629 195.09 77.8655 195.421C78.0682 195.751 78.1695 196.135 78.1695 196.573C78.1695 196.999 78.0682 197.381 77.8655 197.717C77.6629 198.047 77.3829 198.309 77.0255 198.501C76.6682 198.693 76.2629 198.789 75.8095 198.789ZM75.8095 197.765C76.0175 197.765 76.2042 197.717 76.3695 197.621C76.5349 197.525 76.6655 197.389 76.7615 197.213C76.8575 197.031 76.9055 196.818 76.9055 196.573C76.9055 196.322 76.8575 196.109 76.7615 195.933C76.6655 195.757 76.5349 195.621 76.3695 195.525C76.2042 195.429 76.0175 195.381 75.8095 195.381C75.6015 195.381 75.4149 195.429 75.2495 195.525C75.0842 195.621 74.9509 195.757 74.8495 195.933C74.7535 196.109 74.7055 196.322 74.7055 196.573C74.7055 196.818 74.7535 197.031 74.8495 197.213C74.9509 197.389 75.0842 197.525 75.2495 197.621C75.4149 197.717 75.6015 197.765 75.8095 197.765ZM79.8705 198.725L78.3185 194.421H79.4945L80.7825 198.125H80.2225L81.5665 194.421H82.6225L83.9265 198.125H83.3665L84.6945 194.421H85.7985L84.2385 198.725H83.0305L81.8865 195.549H82.2545L81.0705 198.725H79.8705Z" fill="white"/>
<path d="M14.3654 30.4082V22.8882H15.1654V30.4082H14.3654ZM14.6534 29.5442C14.2054 29.5442 13.7761 29.4856 13.3654 29.3682C12.9547 29.2456 12.6241 29.0882 12.3734 28.8962L12.8134 27.9202C13.0534 28.0909 13.3361 28.2322 13.6614 28.3442C13.9921 28.4509 14.3254 28.5042 14.6614 28.5042C14.9174 28.5042 15.1227 28.4802 15.2774 28.4322C15.4374 28.3789 15.5547 28.3069 15.6294 28.2162C15.7041 28.1256 15.7414 28.0216 15.7414 27.9042C15.7414 27.7549 15.6827 27.6376 15.5654 27.5522C15.4481 27.4616 15.2934 27.3896 15.1014 27.3362C14.9094 27.2776 14.6961 27.2242 14.4614 27.1762C14.2321 27.1229 14.0001 27.0589 13.7654 26.9842C13.5361 26.9096 13.3254 26.8136 13.1334 26.6962C12.9414 26.5789 12.7841 26.4242 12.6614 26.2322C12.5441 26.0402 12.4854 25.7949 12.4854 25.4962C12.4854 25.1762 12.5707 24.8856 12.7414 24.6242C12.9174 24.3576 13.1787 24.1469 13.5254 23.9922C13.8774 23.8322 14.3174 23.7522 14.8454 23.7522C15.1974 23.7522 15.5441 23.7949 15.8854 23.8802C16.2267 23.9602 16.5281 24.0829 16.7894 24.2482L16.3894 25.2322C16.1281 25.0829 15.8667 24.9736 15.6054 24.9042C15.3441 24.8296 15.0881 24.7922 14.8374 24.7922C14.5867 24.7922 14.3814 24.8216 14.2214 24.8802C14.0614 24.9389 13.9467 25.0162 13.8774 25.1122C13.8081 25.2029 13.7734 25.3096 13.7734 25.4322C13.7734 25.5762 13.8321 25.6936 13.9494 25.7842C14.0667 25.8696 14.2214 25.9389 14.4134 25.9922C14.6054 26.0456 14.8161 26.0989 15.0454 26.1522C15.2801 26.2056 15.5121 26.2669 15.7414 26.3362C15.9761 26.4056 16.1894 26.4989 16.3814 26.6162C16.5734 26.7336 16.7281 26.8882 16.8454 27.0802C16.9681 27.2722 17.0294 27.5149 17.0294 27.8082C17.0294 28.1229 16.9414 28.4109 16.7654 28.6722C16.5894 28.9336 16.3254 29.1442 15.9734 29.3042C15.6267 29.4642 15.1867 29.5442 14.6534 29.5442ZM19.3555 29.5442C18.9662 29.5442 18.5795 29.4936 18.1955 29.3922C17.8115 29.2856 17.4862 29.1362 17.2195 28.9442L17.7235 27.9522C17.9369 28.1069 18.1849 28.2296 18.4675 28.3202C18.7502 28.4109 19.0355 28.4562 19.3235 28.4562C19.6489 28.4562 19.9049 28.3922 20.0915 28.2642C20.2782 28.1362 20.3715 27.9602 20.3715 27.7362C20.3715 27.5229 20.2889 27.3549 20.1235 27.2322C19.9582 27.1096 19.6915 27.0482 19.3235 27.0482H18.7315V26.1922L20.2915 24.4242L20.4355 24.8882H17.4995V23.8482H21.4195V24.6882L19.8675 26.4562L19.2115 26.0802H19.5875C20.2755 26.0802 20.7955 26.2349 21.1475 26.5442C21.4995 26.8536 21.6755 27.2509 21.6755 27.7362C21.6755 28.0509 21.5929 28.3469 21.4275 28.6242C21.2622 28.8962 21.0089 29.1176 20.6675 29.2882C20.3262 29.4589 19.8889 29.5442 19.3555 29.5442ZM23.1379 29.4482V24.3282L23.6979 24.8882H22.0179V23.8482H24.4339V29.4482H23.1379ZM26.1427 29.5122C25.9294 29.5122 25.7454 29.4402 25.5907 29.2962C25.4414 29.1469 25.3667 28.9576 25.3667 28.7282C25.3667 28.4989 25.4414 28.3149 25.5907 28.1762C25.7454 28.0322 25.9294 27.9602 26.1427 27.9602C26.3614 27.9602 26.5454 28.0322 26.6947 28.1762C26.8441 28.3149 26.9187 28.4989 26.9187 28.7282C26.9187 28.9576 26.8441 29.1469 26.6947 29.2962C26.5454 29.4402 26.3614 29.5122 26.1427 29.5122ZM29.4685 23.7522C29.9858 23.7522 30.4311 23.8589 30.8045 24.0722C31.1778 24.2856 31.4658 24.5976 31.6685 25.0082C31.8711 25.4136 31.9725 25.9202 31.9725 26.5282C31.9725 27.1736 31.8498 27.7202 31.6045 28.1682C31.3645 28.6162 31.0311 28.9576 30.6045 29.1922C30.1778 29.4269 29.6818 29.5442 29.1165 29.5442C28.8231 29.5442 28.5405 29.5122 28.2685 29.4482C27.9965 29.3842 27.7618 29.2882 27.5645 29.1602L28.0445 28.2082C28.1991 28.3149 28.3645 28.3896 28.5405 28.4322C28.7165 28.4696 28.9005 28.4882 29.0925 28.4882C29.5725 28.4882 29.9538 28.3416 30.2365 28.0482C30.5245 27.7549 30.6685 27.3202 30.6685 26.7442C30.6685 26.6482 30.6658 26.5416 30.6605 26.4242C30.6551 26.3069 30.6418 26.1896 30.6205 26.0722L30.9725 26.4082C30.8818 26.6162 30.7538 26.7922 30.5885 26.9362C30.4231 27.0749 30.2311 27.1816 30.0125 27.2562C29.7938 27.3256 29.5485 27.3602 29.2765 27.3602C28.9191 27.3602 28.5938 27.2882 28.3005 27.1442C28.0125 27.0002 27.7805 26.7976 27.6045 26.5362C27.4338 26.2749 27.3485 25.9682 27.3485 25.6162C27.3485 25.2322 27.4418 24.9016 27.6285 24.6242C27.8205 24.3469 28.0765 24.1336 28.3965 23.9842C28.7218 23.8296 29.0791 23.7522 29.4685 23.7522ZM29.5485 24.7202C29.3618 24.7202 29.1991 24.7549 29.0605 24.8242C28.9218 24.8882 28.8125 24.9842 28.7325 25.1122C28.6525 25.2349 28.6125 25.3816 28.6125 25.5522C28.6125 25.8082 28.6978 26.0136 28.8685 26.1682C29.0445 26.3176 29.2765 26.3922 29.5645 26.3922C29.7511 26.3922 29.9165 26.3576 30.0605 26.2882C30.2098 26.2136 30.3245 26.1122 30.4045 25.9842C30.4845 25.8562 30.5245 25.7122 30.5245 25.5522C30.5245 25.3922 30.4845 25.2509 30.4045 25.1282C30.3298 25.0002 30.2205 24.9016 30.0765 24.8322C29.9325 24.7576 29.7565 24.7202 29.5485 24.7202ZM34.5622 23.7522C35.0796 23.7522 35.5249 23.8589 35.8982 24.0722C36.2716 24.2856 36.5596 24.5976 36.7622 25.0082C36.9649 25.4136 37.0662 25.9202 37.0662 26.5282C37.0662 27.1736 36.9436 27.7202 36.6982 28.1682C36.4582 28.6162 36.1249 28.9576 35.6982 29.1922C35.2716 29.4269 34.7756 29.5442 34.2102 29.5442C33.9169 29.5442 33.6342 29.5122 33.3622 29.4482C33.0902 29.3842 32.8556 29.2882 32.6582 29.1602L33.1382 28.2082C33.2929 28.3149 33.4582 28.3896 33.6342 28.4322C33.8102 28.4696 33.9942 28.4882 34.1862 28.4882C34.6662 28.4882 35.0476 28.3416 35.3302 28.0482C35.6182 27.7549 35.7622 27.3202 35.7622 26.7442C35.7622 26.6482 35.7596 26.5416 35.7542 26.4242C35.7489 26.3069 35.7356 26.1896 35.7142 26.0722L36.0662 26.4082C35.9756 26.6162 35.8476 26.7922 35.6822 26.9362C35.5169 27.0749 35.3249 27.1816 35.1062 27.2562C34.8876 27.3256 34.6422 27.3602 34.3702 27.3602C34.0129 27.3602 33.6876 27.2882 33.3942 27.1442C33.1062 27.0002 32.8742 26.7976 32.6982 26.5362C32.5276 26.2749 32.4422 25.9682 32.4422 25.6162C32.4422 25.2322 32.5356 24.9016 32.7222 24.6242C32.9142 24.3469 33.1702 24.1336 33.4902 23.9842C33.8156 23.8296 34.1729 23.7522 34.5622 23.7522ZM34.6422 24.7202C34.4556 24.7202 34.2929 24.7549 34.1542 24.8242C34.0156 24.8882 33.9062 24.9842 33.8262 25.1122C33.7462 25.2349 33.7062 25.3816 33.7062 25.5522C33.7062 25.8082 33.7916 26.0136 33.9622 26.1682C34.1382 26.3176 34.3702 26.3922 34.6582 26.3922C34.8449 26.3922 35.0102 26.3576 35.1542 26.2882C35.3036 26.2136 35.4182 26.1122 35.4982 25.9842C35.5782 25.8562 35.6182 25.7122 35.6182 25.5522C35.6182 25.3922 35.5782 25.2509 35.4982 25.1282C35.4236 25.0002 35.3142 24.9016 35.1702 24.8322C35.0262 24.7576 34.8502 24.7202 34.6422 24.7202Z" fill="white"/>
<path d="M53.2066 37.8601C52.8706 37.8601 52.5486 37.8161 52.2406 37.7281C51.9326 37.6361 51.6846 37.5181 51.4966 37.3741L51.8266 36.6421C52.0066 36.7701 52.2186 36.8761 52.4626 36.9601C52.7106 37.0401 52.9606 37.0801 53.2126 37.0801C53.4046 37.0801 53.5586 37.0621 53.6746 37.0261C53.7946 36.9861 53.8826 36.9321 53.9386 36.8641C53.9946 36.7961 54.0226 36.7181 54.0226 36.6301C54.0226 36.5181 53.9786 36.4301 53.8906 36.3661C53.8026 36.2981 53.6866 36.2441 53.5426 36.2041C53.3986 36.1601 53.2386 36.1201 53.0626 36.0841C52.8906 36.0441 52.7166 35.9961 52.5406 35.9401C52.3686 35.8841 52.2106 35.8121 52.0666 35.7241C51.9226 35.6361 51.8046 35.5201 51.7126 35.3761C51.6246 35.2321 51.5806 35.0481 51.5806 34.8241C51.5806 34.5841 51.6446 34.3661 51.7726 34.1701C51.9046 33.9701 52.1006 33.8121 52.3606 33.6961C52.6246 33.5761 52.9546 33.5161 53.3506 33.5161C53.6146 33.5161 53.8746 33.5481 54.1306 33.6121C54.3866 33.6721 54.6126 33.7641 54.8086 33.8881L54.5086 34.6261C54.3126 34.5141 54.1166 34.4321 53.9206 34.3801C53.7246 34.3241 53.5326 34.2961 53.3446 34.2961C53.1566 34.2961 53.0026 34.3181 52.8826 34.3621C52.7626 34.4061 52.6766 34.4641 52.6246 34.5361C52.5726 34.6041 52.5466 34.6841 52.5466 34.7761C52.5466 34.8841 52.5906 34.9721 52.6786 35.0401C52.7666 35.1041 52.8826 35.1561 53.0266 35.1961C53.1706 35.2361 53.3286 35.2761 53.5006 35.3161C53.6766 35.3561 53.8506 35.4021 54.0226 35.4541C54.1986 35.5061 54.3586 35.5761 54.5026 35.6641C54.6466 35.7521 54.7626 35.8681 54.8506 36.0121C54.9426 36.1561 54.9886 36.3381 54.9886 36.5581C54.9886 36.7941 54.9226 37.0101 54.7906 37.2061C54.6586 37.4021 54.4606 37.5601 54.1966 37.6801C53.9366 37.8001 53.6066 37.8601 53.2066 37.8601ZM56.9488 37.8361C56.6808 37.8361 56.4408 37.7841 56.2288 37.6801C56.0208 37.5761 55.8588 37.4181 55.7428 37.2061C55.6268 36.9901 55.5688 36.7161 55.5688 36.3841V34.5601H56.5048V36.2461C56.5048 36.5141 56.5608 36.7121 56.6728 36.8401C56.7888 36.9641 56.9508 37.0261 57.1588 37.0261C57.3028 37.0261 57.4308 36.9961 57.5428 36.9361C57.6548 36.8721 57.7428 36.7761 57.8068 36.6481C57.8708 36.5161 57.9028 36.3521 57.9028 36.1561V34.5601H58.8388V37.7881H57.9508V36.9001L58.1128 37.1581C58.0048 37.3821 57.8448 37.5521 57.6328 37.6681C57.4248 37.7801 57.1968 37.8361 56.9488 37.8361ZM61.6139 37.8361C61.3299 37.8361 61.0859 37.7761 60.8819 37.6561C60.6779 37.5361 60.5219 37.3541 60.4139 37.1101C60.3059 36.8621 60.2519 36.5501 60.2519 36.1741C60.2519 35.7941 60.3079 35.4821 60.4199 35.2381C60.5359 34.9941 60.6959 34.8121 60.8999 34.6921C61.1039 34.5721 61.3419 34.5121 61.6139 34.5121C61.9179 34.5121 62.1899 34.5801 62.4299 34.7161C62.6739 34.8521 62.8659 35.0441 63.0059 35.2921C63.1499 35.5401 63.2219 35.8341 63.2219 36.1741C63.2219 36.5101 63.1499 36.8021 63.0059 37.0501C62.8659 37.2981 62.6739 37.4921 62.4299 37.6321C62.1899 37.7681 61.9179 37.8361 61.6139 37.8361ZM59.7059 37.7881V33.3361H60.6419V35.2141L60.5819 36.1681L60.5999 37.1281V37.7881H59.7059ZM61.4519 37.0681C61.6079 37.0681 61.7459 37.0321 61.8659 36.9601C61.9899 36.8881 62.0879 36.7861 62.1599 36.6541C62.2359 36.5181 62.2739 36.3581 62.2739 36.1741C62.2739 35.9861 62.2359 35.8261 62.1599 35.6941C62.0879 35.5621 61.9899 35.4601 61.8659 35.3881C61.7459 35.3161 61.6079 35.2801 61.4519 35.2801C61.2959 35.2801 61.1559 35.3161 61.0319 35.3881C60.9079 35.4601 60.8099 35.5621 60.7379 35.6941C60.6659 35.8261 60.6299 35.9861 60.6299 36.1741C60.6299 36.3581 60.6659 36.5181 60.7379 36.6541C60.8099 36.7861 60.9079 36.8881 61.0319 36.9601C61.1559 37.0321 61.2959 37.0681 61.4519 37.0681ZM64.9345 37.8361C64.6585 37.8361 64.3925 37.8041 64.1365 37.7401C63.8845 37.6721 63.6845 37.5881 63.5365 37.4881L63.8485 36.8161C63.9965 36.9081 64.1705 36.9841 64.3705 37.0441C64.5745 37.1001 64.7745 37.1281 64.9705 37.1281C65.1865 37.1281 65.3385 37.1021 65.4265 37.0501C65.5185 36.9981 65.5645 36.9261 65.5645 36.8341C65.5645 36.7581 65.5285 36.7021 65.4565 36.6661C65.3885 36.6261 65.2965 36.5961 65.1805 36.5761C65.0645 36.5561 64.9365 36.5361 64.7965 36.5161C64.6605 36.4961 64.5225 36.4701 64.3825 36.4381C64.2425 36.4021 64.1145 36.3501 63.9985 36.2821C63.8825 36.2141 63.7885 36.1221 63.7165 36.0061C63.6485 35.8901 63.6145 35.7401 63.6145 35.5561C63.6145 35.3521 63.6725 35.1721 63.7885 35.0161C63.9085 34.8601 64.0805 34.7381 64.3045 34.6501C64.5285 34.5581 64.7965 34.5121 65.1085 34.5121C65.3285 34.5121 65.5525 34.5361 65.7805 34.5841C66.0085 34.6321 66.1985 34.7021 66.3505 34.7941L66.0385 35.4601C65.8825 35.3681 65.7245 35.3061 65.5645 35.2741C65.4085 35.2381 65.2565 35.2201 65.1085 35.2201C64.9005 35.2201 64.7485 35.2481 64.6525 35.3041C64.5565 35.3601 64.5085 35.4321 64.5085 35.5201C64.5085 35.6001 64.5425 35.6601 64.6105 35.7001C64.6825 35.7401 64.7765 35.7721 64.8925 35.7961C65.0085 35.8201 65.1345 35.8421 65.2705 35.8621C65.4105 35.8781 65.5505 35.9041 65.6905 35.9401C65.8305 35.9761 65.9565 36.0281 66.0685 36.0961C66.1845 36.1601 66.2785 36.2501 66.3505 36.3661C66.4225 36.4781 66.4585 36.6261 66.4585 36.8101C66.4585 37.0101 66.3985 37.1881 66.2785 37.3441C66.1585 37.4961 65.9845 37.6161 65.7565 37.7041C65.5325 37.7921 65.2585 37.8361 64.9345 37.8361ZM68.596 37.8361C68.248 37.8361 67.938 37.7661 67.666 37.6261C67.394 37.4821 67.18 37.2841 67.024 37.0321C66.872 36.7801 66.796 36.4941 66.796 36.1741C66.796 35.8501 66.872 35.5641 67.024 35.3161C67.18 35.0641 67.394 34.8681 67.666 34.7281C67.938 34.5841 68.248 34.5121 68.596 34.5121C68.936 34.5121 69.232 34.5841 69.484 34.7281C69.736 34.8681 69.922 35.0701 70.042 35.3341L69.316 35.7241C69.232 35.5721 69.126 35.4601 68.998 35.3881C68.874 35.3161 68.738 35.2801 68.59 35.2801C68.43 35.2801 68.286 35.3161 68.158 35.3881C68.03 35.4601 67.928 35.5621 67.852 35.6941C67.78 35.8261 67.744 35.9861 67.744 36.1741C67.744 36.3621 67.78 36.5221 67.852 36.6541C67.928 36.7861 68.03 36.8881 68.158 36.9601C68.286 37.0321 68.43 37.0681 68.59 37.0681C68.738 37.0681 68.874 37.0341 68.998 36.9661C69.126 36.8941 69.232 36.7801 69.316 36.6241L70.042 37.0201C69.922 37.2801 69.736 37.4821 69.484 37.6261C69.232 37.7661 68.936 37.8361 68.596 37.8361ZM70.5809 37.7881V34.5601H71.4749V35.4721L71.3489 35.2081C71.4449 34.9801 71.5989 34.8081 71.8109 34.6921C72.0229 34.5721 72.2809 34.5121 72.5849 34.5121V35.3761C72.5449 35.3721 72.5089 35.3701 72.4769 35.3701C72.4449 35.3661 72.4109 35.3641 72.3749 35.3641C72.1189 35.3641 71.9109 35.4381 71.7509 35.5861C71.5949 35.7301 71.5169 35.9561 71.5169 36.2641V37.7881H70.5809ZM73.1473 37.7881V34.5601H74.0833V37.7881H73.1473ZM73.6153 34.1101C73.4433 34.1101 73.3033 34.0601 73.1953 33.9601C73.0873 33.8601 73.0333 33.7361 73.0333 33.5881C73.0333 33.4401 73.0873 33.3161 73.1953 33.2161C73.3033 33.1161 73.4433 33.0661 73.6153 33.0661C73.7873 33.0661 73.9273 33.1141 74.0353 33.2101C74.1433 33.3021 74.1973 33.4221 74.1973 33.5701C74.1973 33.7261 74.1433 33.8561 74.0353 33.9601C73.9313 34.0601 73.7913 34.1101 73.6153 34.1101ZM76.86 37.8361C76.588 37.8361 76.35 37.7761 76.146 37.6561C75.942 37.5361 75.782 37.3541 75.666 37.1101C75.554 36.8621 75.498 36.5501 75.498 36.1741C75.498 35.7941 75.552 35.4821 75.66 35.2381C75.768 34.9941 75.924 34.8121 76.128 34.6921C76.332 34.5721 76.576 34.5121 76.86 34.5121C77.164 34.5121 77.436 34.5821 77.676 34.7221C77.92 34.8581 78.112 35.0501 78.252 35.2981C78.396 35.5461 78.468 35.8381 78.468 36.1741C78.468 36.5141 78.396 36.8081 78.252 37.0561C78.112 37.3041 77.92 37.4961 77.676 37.6321C77.436 37.7681 77.164 37.8361 76.86 37.8361ZM74.952 38.9521V34.5601H75.846V35.2201L75.828 36.1801L75.888 37.1341V38.9521H74.952ZM76.698 37.0681C76.854 37.0681 76.992 37.0321 77.112 36.9601C77.236 36.8881 77.334 36.7861 77.406 36.6541C77.482 36.5181 77.52 36.3581 77.52 36.1741C77.52 35.9861 77.482 35.8261 77.406 35.6941C77.334 35.5621 77.236 35.4601 77.112 35.3881C76.992 35.3161 76.854 35.2801 76.698 35.2801C76.542 35.2801 76.402 35.3161 76.278 35.3881C76.154 35.4601 76.056 35.5621 75.984 35.6941C75.912 35.8261 75.876 35.9861 75.876 36.1741C75.876 36.3581 75.912 36.5181 75.984 36.6541C76.056 36.7861 76.154 36.8881 76.278 36.9601C76.402 37.0321 76.542 37.0681 76.698 37.0681ZM80.4146 37.8361C80.0346 37.8361 79.7386 37.7401 79.5266 37.5481C79.3146 37.3521 79.2086 37.0621 79.2086 36.6781V33.8461H80.1446V36.6661C80.1446 36.8021 80.1806 36.9081 80.2526 36.9841C80.3246 37.0561 80.4226 37.0921 80.5466 37.0921C80.6946 37.0921 80.8206 37.0521 80.9246 36.9721L81.1766 37.6321C81.0806 37.7001 80.9646 37.7521 80.8286 37.7881C80.6966 37.8201 80.5586 37.8361 80.4146 37.8361ZM78.7106 35.3521V34.6321H80.9486V35.3521H78.7106ZM81.702 37.7881V34.5601H82.638V37.7881H81.702ZM82.17 34.1101C81.998 34.1101 81.858 34.0601 81.75 33.9601C81.642 33.8601 81.588 33.7361 81.588 33.5881C81.588 33.4401 81.642 33.3161 81.75 33.2161C81.858 33.1161 81.998 33.0661 82.17 33.0661C82.342 33.0661 82.482 33.1141 82.59 33.2101C82.698 33.3021 82.752 33.4221 82.752 33.5701C82.752 33.7261 82.698 33.8561 82.59 33.9601C82.486 34.0601 82.346 34.1101 82.17 34.1101ZM85.0427 37.8361C84.6987 37.8361 84.3927 37.7641 84.1247 37.6201C83.8607 37.4761 83.6507 37.2801 83.4947 37.0321C83.3427 36.7801 83.2667 36.4941 83.2667 36.1741C83.2667 35.8501 83.3427 35.5641 83.4947 35.3161C83.6507 35.0641 83.8607 34.8681 84.1247 34.7281C84.3927 34.5841 84.6987 34.5121 85.0427 34.5121C85.3827 34.5121 85.6867 34.5841 85.9547 34.7281C86.2227 34.8681 86.4327 35.0621 86.5847 35.3101C86.7367 35.5581 86.8127 35.8461 86.8127 36.1741C86.8127 36.4941 86.7367 36.7801 86.5847 37.0321C86.4327 37.2801 86.2227 37.4761 85.9547 37.6201C85.6867 37.7641 85.3827 37.8361 85.0427 37.8361ZM85.0427 37.0681C85.1987 37.0681 85.3387 37.0321 85.4627 36.9601C85.5867 36.8881 85.6847 36.7861 85.7567 36.6541C85.8287 36.5181 85.8647 36.3581 85.8647 36.1741C85.8647 35.9861 85.8287 35.8261 85.7567 35.6941C85.6847 35.5621 85.5867 35.4601 85.4627 35.3881C85.3387 35.3161 85.1987 35.2801 85.0427 35.2801C84.8867 35.2801 84.7467 35.3161 84.6227 35.3881C84.4987 35.4601 84.3987 35.5621 84.3227 35.6941C84.2507 35.8261 84.2147 35.9861 84.2147 36.1741C84.2147 36.3581 84.2507 36.5181 84.3227 36.6541C84.3987 36.7861 84.4987 36.8881 84.6227 36.9601C84.7467 37.0321 84.8867 37.0681 85.0427 37.0681ZM89.4003 34.5121C89.6563 34.5121 89.8843 34.5641 90.0843 34.6681C90.2883 34.7681 90.4483 34.9241 90.5643 35.1361C90.6803 35.3441 90.7383 35.6121 90.7383 35.9401V37.7881H89.8023V36.0841C89.8023 35.8241 89.7443 35.6321 89.6283 35.5081C89.5163 35.3841 89.3563 35.3221 89.1483 35.3221C89.0003 35.3221 88.8663 35.3541 88.7463 35.4181C88.6303 35.4781 88.5383 35.5721 88.4703 35.7001C88.4063 35.8281 88.3743 35.9921 88.3743 36.1921V37.7881H87.4383V34.5601H88.3323V35.4541L88.1643 35.1841C88.2803 34.9681 88.4463 34.8021 88.6623 34.6861C88.8783 34.5701 89.1243 34.5121 89.4003 34.5121Z" fill="#0A91E5"/>
</svg>
