<svg width="298" height="210" viewBox="0 0 298 210" fill="none" xmlns="http://www.w3.org/2000/svg">
<path d="M40.7194 36.7338L69.7298 66.5513L71.113 65.2055C75.0294 61.3952 78.9459 57.5848 82.8696 53.7672C84.6313 52.0532 86.6539 52.0592 88.3386 53.732C88.6285 54.03 88.9201 54.3297 89.2117 54.6294C90.8095 56.3378 90.7683 58.3169 89.0597 59.9862C84.5085 64.4305 79.9504 68.8653 75.3854 73.2904C69.9094 78.6182 64.4177 83.9298 58.9574 89.2737C57.7266 90.4712 56.3798 91.2994 54.7591 90.5635C52.9718 89.7556 51.5085 88.4647 51.2273 86.3417C51.0603 85.0858 51.6576 84.0679 52.5741 83.1832C56.5633 79.3264 60.53 75.4427 64.5143 71.5662L65.6477 70.4635L36.6374 40.646L35.5977 41.6576C31.65 45.4984 27.6813 49.3248 23.7652 53.1907C22.4881 54.4507 21.0541 55.1821 19.4317 54.3709C17.6999 53.495 16.1041 52.2039 16.1035 50.0349C16.1624 48.9965 16.597 48.0061 17.3262 47.2488C22.9579 41.6437 28.6787 36.1302 34.3733 30.5897C38.782 26.3004 43.1908 22.011 47.5995 17.7216C49.554 15.82 51.4531 15.824 53.3168 17.7174C53.549 17.9561 53.7812 18.1948 54.0152 18.4353C55.6429 20.1671 55.5917 22.1837 53.8336 23.9013C49.834 27.8136 45.8152 31.7026 41.8051 35.6041L40.7194 36.7338Z" fill="#00B3DF"/>
<path d="M26.3184 23.9649C29.2638 21.0993 32.2098 18.233 35.1564 15.3661C37.0361 13.5374 38.9358 13.5767 40.7827 15.4494C41.0772 15.7521 41.3699 16.053 41.6644 16.3557C43.1004 17.9119 43.1264 19.9542 41.597 21.4528C35.5752 27.3539 29.5318 33.2338 23.4665 39.0925C21.8843 40.6319 19.8329 40.5461 18.2727 39.0119C17.92 38.6494 17.5564 38.2975 17.2146 37.9244C15.7188 36.3029 15.728 34.2933 17.305 32.7413C20.2838 29.8114 23.3109 26.891 26.3184 23.9649Z" fill="#00B3DF"/>
<path d="M81.9684 81.3517C79.0818 84.1602 76.1965 86.9675 73.3123 89.7735C71.38 91.6535 69.4607 91.623 67.5828 89.7038C67.3183 89.432 67.0539 89.1601 66.7894 88.8883C65.3342 87.3233 65.2581 85.2773 66.7709 83.7913C72.8468 77.8234 78.9496 71.8858 85.0794 65.9784C86.5519 64.5457 88.5879 64.6815 90.0773 66.1321C90.4691 66.5129 90.8517 66.9061 91.2216 67.3082C92.7135 68.9256 92.6742 70.9077 91.07 72.4824C88.0515 75.451 85.0046 78.3977 81.9684 81.3517Z" fill="#00B3DF"/>
<path d="M24.2536 21.8332L22.1568 23.8733C20.8946 22.576 19.6275 21.364 18.4888 20.0739C17.606 19.0741 17.5165 17.9622 18.0928 17.5053C18.3663 17.2724 18.7892 17.2187 19.2794 17.3546C19.7695 17.4905 20.2919 17.8063 20.7449 18.2406C21.9062 19.3714 23.0183 20.5635 24.2536 21.8332Z" fill="#00B3DF"/>
<path d="M82.0337 85.4248L84.1309 83.3844C85.3696 84.6577 86.6017 85.8535 87.7431 87.1207C88.6193 88.0918 88.7703 89.2445 88.2287 89.7245C87.687 90.2045 86.5699 89.995 85.603 89.0718C84.3897 87.9149 83.254 86.679 82.0337 85.4248Z" fill="#00B3DF"/>
<path d="M152.189 135.348L221.881 96.7842L220.093 93.5511C215.027 84.3973 209.962 75.2435 204.888 66.0725C202.609 61.955 203.639 58.2221 207.578 55.9529C208.274 55.5676 208.975 55.18 209.675 54.7924C213.636 52.7017 217.271 53.7749 219.493 57.7718C225.41 68.4175 231.305 79.0712 237.179 89.7329C244.261 102.532 251.305 115.352 258.425 128.13C260.017 131.007 260.868 133.912 258.692 136.534C256.3 139.429 253.178 141.481 249.115 140.931C246.711 140.607 245.132 138.991 243.959 136.852C238.845 127.541 233.67 118.257 228.517 108.944L227.051 106.295L157.359 144.859L158.703 147.289C163.809 156.515 168.877 165.774 174.045 174.955C175.729 177.949 176.358 180.966 174.042 183.554C171.552 186.312 168.363 188.609 164.356 187.517C162.468 186.886 160.857 185.584 159.826 183.855C152.31 170.629 145.008 157.284 137.643 143.974C131.941 133.67 126.239 123.365 120.537 113.061C118.01 108.492 118.974 104.987 123.41 102.498C123.968 102.189 124.526 101.881 125.088 101.57C129.107 99.4356 132.806 100.546 135.093 104.659C140.304 114.018 145.463 123.4 150.649 132.773L152.189 135.348Z" fill="#00B3DF"/>
<path d="M121.349 155.515C117.54 148.631 113.73 141.745 109.919 134.858C107.488 130.465 108.518 126.976 112.907 124.508C113.615 124.116 114.318 123.727 115.026 123.336C118.624 121.467 122.409 122.448 124.407 126.028C132.273 140.124 140.089 154.249 147.855 168.404C149.901 172.103 148.709 175.849 145.089 177.957C144.242 178.426 143.409 178.921 142.547 179.364C138.799 181.31 135.091 180.281 133.019 176.586C129.108 169.607 125.239 162.545 121.349 155.515Z" fill="#00B3DF"/>
<path d="M255.387 81.6352C259.12 88.382 262.852 95.126 266.582 101.867C269.081 106.383 268.058 109.913 263.566 112.415C262.931 112.767 262.296 113.118 261.66 113.47C258.036 115.369 254.219 114.479 252.236 110.936C244.274 96.7064 236.381 82.4423 228.558 68.1435C226.653 64.7019 227.93 61.0097 231.359 58.9893C232.26 58.4575 233.179 57.9489 234.108 57.4682C237.848 55.5273 241.489 56.5985 243.59 60.3549C247.552 67.4261 251.46 74.5386 255.387 81.6352Z" fill="#00B3DF"/>
<path d="M116.371 158.255L119.083 163.156C116.051 164.834 113.174 166.564 110.217 168.017C107.926 169.144 105.827 168.749 105.273 167.454C104.981 166.832 105.095 166.024 105.593 165.187C106.091 164.35 106.937 163.544 107.968 162.926C110.642 161.351 113.404 159.897 116.371 158.255Z" fill="#00B3DF"/>
<path d="M262.942 83.5651L260.23 78.6635C263.206 77.0168 266.035 75.3434 268.951 73.8736C271.186 72.7444 273.392 73.0462 274.005 74.2885C274.619 75.5309 273.669 77.4888 271.477 78.8096C268.729 80.4679 265.874 81.9429 262.942 83.5651Z" fill="#00B3DF"/>
</svg>
