<svg width="77" height="170" viewBox="0 0 77 170" fill="none" xmlns="http://www.w3.org/2000/svg">
<path d="M27.9255 98.6501L25.075 97.91C18.8824 96.3022 12.6899 94.6944 6.49731 93.0866C5.19652 92.7489 4.55913 91.408 4.7411 89.425C4.78668 88.9054 4.90956 88.3816 5.10102 87.8911C5.29247 87.4005 5.54782 86.9551 5.8489 86.5866C10.245 80.9802 14.6458 75.378 19.0514 69.7801C21.2101 67.0326 23.3599 64.2691 25.5192 61.5195C32.3616 52.8076 39.2053 44.0967 46.0501 35.3869C51.7524 28.1235 57.4521 20.8549 63.1493 13.5811C66.2035 9.69057 69.2617 5.80495 72.324 1.92417C73.6006 0.302664 74.8855 -0.00716093 75.8775 1.06432C76.8286 2.09106 76.9422 3.91434 76.1099 5.95586C72.9299 13.7559 69.7269 21.5432 66.542 29.3397C63.8326 35.9683 61.1378 42.6076 58.4276 49.2337C55.5282 56.3261 52.6224 63.4168 49.7102 70.5058C49.5901 70.7997 49.503 71.1182 49.3712 71.5136L50.4777 71.8009C56.3967 73.3377 62.3162 74.8746 68.2361 76.4116C69.2578 76.6768 69.9122 77.4742 70.0515 78.9791C70.1912 80.5272 69.7135 81.906 68.7886 83.1345C61.5571 92.7489 54.3279 102.368 47.1009 111.991C41.132 119.94 35.1646 127.891 29.1986 135.843C23.2918 143.707 17.3833 151.575 11.473 159.449C9.25651 162.402 7.05174 165.371 4.83062 168.314C3.88543 169.565 2.86237 170.013 1.85773 169.479C0.818366 168.927 0.369443 167.642 0.644324 165.931C0.819607 164.84 1.30486 163.713 1.73546 162.656C5.66234 153.024 9.5998 143.399 13.5478 133.783C16.9115 125.562 20.273 117.335 23.6324 109.101C25.0426 105.654 26.4649 102.206 27.9255 98.6501Z" fill="#00B3DF"/>
</svg>
