<svg width="61" height="182" viewBox="0 0 61 182" fill="none" xmlns="http://www.w3.org/2000/svg">
<path d="M24.8344 106.838H21.8894C15.4915 106.838 9.0937 106.838 2.69583 106.838C1.35191 106.838 0.398021 105.7 0.0758194 103.735C-0.0106584 103.22 -0.0233394 102.683 0.0386962 102.16C0.100732 101.637 0.235968 101.142 0.434769 100.709C3.28088 94.1779 6.13266 87.6496 8.99008 81.1243C10.3891 77.9225 11.7754 74.7074 13.1744 71.5034C17.608 61.3515 22.043 51.2004 26.4794 41.05C30.1734 32.5867 33.8636 24.1189 37.5501 15.6468C39.5285 11.1137 41.5122 6.58422 43.501 2.05842C44.3291 0.168147 45.4949 -0.454628 46.7243 0.333169C47.9029 1.08796 48.471 2.82419 48.1785 5.00934C47.0607 13.3582 45.9175 21.7005 44.794 30.0472C43.8373 37.144 42.8975 44.2474 41.9394 51.342C40.9153 58.9353 39.8847 66.5287 38.8474 74.1221C38.805 74.4368 38.8008 74.7669 38.7725 75.1828H39.9158C46.031 75.1828 52.1467 75.1828 58.2629 75.1828C59.3185 75.1828 60.1523 75.7901 60.6653 77.2117C61.1896 78.675 61.0736 80.1296 60.4872 81.5511C55.9038 92.6742 51.3237 103.801 46.747 114.931C42.9672 124.125 39.1894 133.321 35.4134 142.517C31.6723 151.613 27.9307 160.714 24.1886 169.82C22.7854 173.235 21.3976 176.663 19.9873 180.07C19.3867 181.518 18.5091 182.209 17.4026 181.945C16.258 181.672 15.5005 180.541 15.3366 178.816C15.232 177.715 15.4185 176.503 15.5697 175.372C16.9499 165.061 18.3423 154.756 19.747 144.456C20.9369 135.654 22.1231 126.846 23.3054 118.032C23.8043 114.342 24.3144 110.647 24.8344 106.838Z" fill="#00B3DF"/>
</svg>
