<svg width="19" height="19" viewBox="0 0 19 19" fill="none" xmlns="http://www.w3.org/2000/svg">
<path d="M9.15786 7.28906C7.91121 7.28906 6.89697 8.32677 6.89697 9.60224C6.89697 10.8777 7.91121 11.9154 9.15786 11.9154C10.4045 11.9154 11.4187 10.8777 11.4187 9.60224C11.4187 8.32677 10.4045 7.28906 9.15786 7.28906ZM9.15786 10.8174C8.50296 10.8174 7.97016 10.2723 7.97016 9.60224C7.97016 8.93223 8.50296 8.38709 9.15786 8.38709C9.81272 8.38709 10.3455 8.93223 10.3455 9.60224C10.3455 10.2723 9.81275 10.8174 9.15786 10.8174Z" fill="#00B3DF"/>
<path d="M15.6334 2.9768C13.9037 1.20707 11.6039 0.232422 9.1579 0.232422C6.71177 0.232422 4.41199 1.20707 2.6823 2.97684C0.9526 4.74654 0 7.09951 0 9.60228C0 11.3953 0.496673 13.1381 1.43636 14.6421C2.26669 15.9712 3.40606 17.0612 4.74998 17.8172C4.70519 17.9904 4.66995 18.1666 4.64495 18.3454C4.62291 18.503 4.66881 18.6625 4.77073 18.7828C4.87264 18.903 5.02057 18.9721 5.17614 18.9721H13.1396C13.2952 18.9721 13.4431 18.903 13.545 18.7828C13.6469 18.6625 13.6928 18.503 13.6708 18.3454C13.6458 18.1666 13.6106 17.9904 13.5658 17.8172C14.9097 17.0612 16.0491 15.9712 16.8794 14.6421C17.8191 13.1381 18.3158 11.3953 18.3158 9.60228C18.3158 7.09954 17.3632 4.74657 15.6334 2.9768ZM5.85325 17.8741C6.32256 16.4523 7.64813 15.4438 9.1579 15.4438C10.6677 15.4438 11.9932 16.4524 12.4625 17.8741H5.85325ZM4.52171 9.60228C4.52171 6.9867 6.60152 4.85879 9.15793 4.85879C11.7143 4.85879 13.7941 6.9867 13.7941 9.60228C13.7941 12.2179 11.7143 14.3458 9.1579 14.3458C6.60152 14.3458 4.52171 12.2179 4.52171 9.60228ZM13.1664 16.7879C12.9099 16.3042 12.5694 15.8662 12.1574 15.4976C11.9296 15.2938 11.6839 15.1152 11.4247 14.9632C13.4483 14.064 14.8673 11.9997 14.8673 9.60228C14.8673 6.38125 12.3061 3.76076 9.1579 3.76076C6.00976 3.7608 3.44852 6.38125 3.44852 9.60228C3.44852 11.9997 4.86753 14.064 6.89114 14.9632C6.63189 15.1152 6.38624 15.2938 6.15836 15.4976C5.7464 15.8663 5.40591 16.3042 5.14935 16.7879C2.62159 15.3161 1.07319 12.6114 1.07319 9.60228C1.07319 5.04117 4.69997 1.33045 9.1579 1.33045C13.6158 1.33045 17.2426 5.04117 17.2426 9.60228C17.2426 12.6114 15.6942 15.3161 13.1664 16.7879Z" fill="#00B3DF"/>
</svg>
