<svg width="201" height="95" viewBox="0 0 201 95" fill="none" xmlns="http://www.w3.org/2000/svg">
<g clip-path="url(#clip0_285_1095)">
<path d="M53.7002 84.0789L54.1053 84.5683C56.8942 87.9044 59.683 91.2435 62.4719 94.5855C62.5572 94.7042 62.6707 94.7999 62.8022 94.8637C62.9336 94.9276 63.0789 94.9578 63.2249 94.9514C64.4931 94.925 65.7613 94.9294 67.0251 94.9514C67.3157 94.9514 67.4126 94.8897 67.4126 94.5811C67.4126 89.208 67.4126 83.8335 67.4126 78.4575C67.4126 78.1533 67.3201 78.0827 67.0295 78.0871C65.9022 78.0871 64.7749 78.1136 63.6476 78.0871C63.2073 78.0871 63.1368 78.2062 63.1412 78.6074C63.1412 81.9714 63.1412 85.3399 63.1412 88.7039C63.1412 88.8671 63.2161 89.0478 63.0575 89.2242C62.9827 89.1404 62.9078 89.0699 62.8418 88.9949C59.9355 85.4677 57.0321 81.9538 54.1317 78.4531C54.0492 78.3335 53.9375 78.2371 53.8073 78.1731C53.677 78.109 53.5325 78.0794 53.3876 78.0871C52.1722 78.1077 50.9583 78.1077 49.7459 78.0871C49.4333 78.0871 49.3056 78.1489 49.332 78.4884C49.332 83.8467 49.332 89.2021 49.332 94.5546C49.332 94.8897 49.4245 94.9603 49.7415 94.9558C50.8688 94.9558 51.9961 94.9294 53.1189 94.9558C53.5329 94.9558 53.6474 94.8544 53.643 94.4356C53.643 91.1906 53.643 87.95 53.643 84.7094C53.6035 84.498 53.6233 84.2797 53.7002 84.0789Z" fill="#FEFEFE"/>
<path d="M76.9063 85.5608C76.9063 83.1403 76.9063 80.8476 76.9063 78.5593C76.9063 78.1493 76.7918 78.0699 76.4087 78.0788C75.1992 78.1052 73.9853 78.1052 72.767 78.0788C72.4016 78.0788 72.3047 78.1625 72.3047 78.5197C72.3047 83.8427 72.3047 89.1644 72.3047 94.4845C72.3047 94.8064 72.3619 94.9254 72.745 94.9254C73.9956 94.899 75.2462 94.899 76.4968 94.9254C76.8535 94.9254 76.9371 94.8152 76.9371 94.4845C76.9371 93.0913 76.9371 91.7025 76.9371 90.3092C76.9227 90.1641 76.9478 90.0177 77.0099 89.8857C77.0719 89.7538 77.1685 89.6411 77.2894 89.5597C78.2978 88.8234 79.3018 88.0783 80.2749 87.2979C80.5964 87.0422 80.7153 87.1083 80.9619 87.4037C82.8377 89.8022 84.7356 92.183 86.6159 94.5771C86.6926 94.6908 86.7974 94.7827 86.9201 94.8437C87.0428 94.9047 87.1793 94.9329 87.3161 94.9254C89.0026 94.9254 90.6935 94.9254 92.3844 94.9254C92.5077 94.9254 92.6618 95.0004 92.7719 94.8328C89.8715 91.5614 86.9755 88.2899 84.0839 85.0185C83.8461 84.7495 83.8109 84.6173 84.1236 84.3836C85.3389 83.5018 86.5322 82.5539 87.7344 81.6324L92.2479 78.1978C92.1907 78.0743 92.1114 78.1052 92.0498 78.1052C90.1827 78.1052 88.3156 78.1052 86.453 78.1052C86.243 78.1081 86.0418 78.1899 85.8893 78.3345L80.4687 82.7126C79.3106 83.6252 78.1481 84.5555 76.9063 85.5608Z" fill="#FEFEFE"/>
<path d="M151.646 86.5263C151.646 89.1717 151.646 91.8435 151.646 94.5021C151.646 94.8284 151.703 94.943 152.086 94.943C153.334 94.9165 154.583 94.9165 155.834 94.943C156.19 94.943 156.274 94.8372 156.274 94.5021C156.274 92.4431 156.274 90.3797 156.274 88.3295C156.274 87.8886 156.406 87.7828 156.833 87.7872C159.665 87.7872 162.496 87.7872 165.332 87.7872C165.658 87.7872 165.799 87.7299 165.772 87.3463C165.735 86.6958 165.735 86.0437 165.772 85.3932C165.799 84.9875 165.662 84.9082 165.279 84.9082C162.465 84.9082 159.647 84.9082 156.833 84.9302C156.349 84.9302 156.248 84.7935 156.265 84.3438C156.3 83.3915 156.305 82.4392 156.265 81.4912C156.265 81.0151 156.389 80.9181 156.846 80.9225C160.153 80.9225 163.452 80.9225 166.767 80.9225C167.208 80.9225 167.296 80.799 167.274 80.3978C167.241 79.7648 167.241 79.1305 167.274 78.4975C167.274 78.1272 167.186 78.0566 166.834 78.0566C161.946 78.0566 157.055 78.0566 152.161 78.0566C151.782 78.0566 151.721 78.1669 151.721 78.524C151.65 81.2091 151.646 83.8677 151.646 86.5263Z" fill="#FEFEFE"/>
<path d="M178.446 78.0876C175.579 78.0876 172.721 78.0876 169.846 78.0876C169.48 78.0876 169.361 78.167 169.379 78.5285C169.419 79.179 169.419 79.8312 169.379 80.4817C169.348 80.9226 169.511 80.9579 169.877 80.9535C171.779 80.9535 173.677 80.9535 175.579 80.9535C176.063 80.9535 176.143 81.0945 176.138 81.5398C176.138 85.8342 176.138 90.1329 176.138 94.4273C176.138 94.8682 176.262 94.9784 176.693 94.9651C177.867 94.9328 179.042 94.9328 180.216 94.9651C180.621 94.9651 180.735 94.8726 180.731 94.4537C180.731 90.1373 180.731 85.8254 180.731 81.509C180.731 81.0681 180.806 80.949 181.264 80.9535C183.197 80.9843 185.13 80.9535 187.068 80.9535C187.411 80.9535 187.508 80.8653 187.508 80.5126C187.475 79.8796 187.475 79.2453 187.508 78.6123C187.534 78.1714 187.433 78.0523 186.98 78.0568C184.108 78.1008 181.277 78.0876 178.446 78.0876Z" fill="#FEFEFE"/>
<path d="M123.49 86.6092C123.49 89.2546 123.49 91.8603 123.49 94.4836C123.49 94.8495 123.583 94.9509 123.931 94.9465C126.498 94.9465 129.065 94.9465 131.637 94.9465C134.098 94.9465 136.56 94.9465 139.026 94.9465C139.427 94.9465 139.528 94.8407 139.506 94.4527C139.468 93.8552 139.468 93.2558 139.506 92.6583C139.537 92.2174 139.427 92.0675 138.942 92.0719C135.512 92.0983 132.082 92.0719 128.651 92.0719C128.211 92.0719 128.075 91.9969 128.075 91.512C128.097 87.2353 128.074 82.9541 128.097 78.6774C128.097 78.3203 128.022 78.1969 127.656 78.2013C126.441 78.2277 125.225 78.2366 124.015 78.2013C123.574 78.2013 123.477 78.3468 123.477 78.7656C123.499 81.3978 123.49 84.0035 123.49 86.6092Z" fill="#FEFEFE"/>
<path d="M21.1981 86.6092C21.1981 88.9327 21.1981 91.2606 21.1981 93.5842C21.1981 94.0251 21.0088 94.585 21.2774 94.8539C21.546 95.1229 22.1096 94.9333 22.5456 94.9377C27.2617 94.9377 31.9778 94.9377 36.6939 94.9377C37.0638 94.9377 37.2267 94.8892 37.1959 94.4616C37.154 93.8288 37.154 93.194 37.1959 92.5613C37.2179 92.1557 37.0902 92.0675 36.6983 92.0719C33.2504 92.0719 29.7981 92.0719 26.3502 92.0719C25.9098 92.0719 25.7601 91.9969 25.7645 91.5075C25.7645 87.2441 25.7645 82.9806 25.7645 78.7215C25.7645 78.2806 25.65 78.1969 25.2405 78.2057C24.0471 78.2321 22.8494 78.2365 21.6517 78.2057C21.2421 78.2057 21.1629 78.3291 21.1629 78.7127C21.2069 81.3581 21.1981 83.9814 21.1981 86.6092Z" fill="#FEFEFE"/>
<path d="M142.65 86.5077C142.65 89.1531 142.65 91.8249 142.65 94.4836C142.65 94.8539 142.742 94.9553 143.09 94.9465C144.341 94.9244 145.591 94.9465 146.837 94.9465C147.128 94.9465 147.229 94.8892 147.229 94.5761C147.229 89.2031 147.229 83.8315 147.229 78.4614C147.229 78.1616 147.15 78.0778 146.851 78.0822C145.6 78.0822 144.35 78.1086 143.103 78.0822C142.663 78.0822 142.628 78.2277 142.632 78.5892C142.65 81.2214 142.65 83.8668 142.65 86.5077Z" fill="#FEFEFE"/>
<path d="M44.9195 86.5032C44.9195 83.8578 44.9195 81.1815 44.9195 78.5229C44.9195 78.1967 44.8623 78.082 44.4792 78.082C43.2286 78.1085 41.978 78.082 40.7318 78.082C40.3752 78.082 40.2915 78.1878 40.2915 78.5229C40.2915 83.8578 40.2915 89.1941 40.2915 94.5319C40.2915 94.9022 40.4192 94.9728 40.7318 94.9507C41.9648 94.9507 43.1978 94.9287 44.4264 94.9507C44.805 94.9507 44.8667 94.8449 44.8667 94.479C44.8931 91.8204 44.9195 89.1618 44.9195 86.5032Z" fill="#FEFEFE"/>
<path d="M53.7001 84.0794C53.618 84.2772 53.5922 84.4939 53.6252 84.7055C53.6252 87.9461 53.6252 91.1867 53.6252 94.4317C53.6252 94.8505 53.5151 94.9608 53.1012 94.9519C51.9783 94.9211 50.851 94.9299 49.7237 94.9519C49.4067 94.9519 49.3142 94.8858 49.3142 94.5507C49.3142 89.1953 49.3142 83.8399 49.3142 78.4844C49.3142 78.145 49.4155 78.0788 49.7281 78.0832C50.9406 78.1038 52.1544 78.1038 53.3698 78.0832C53.5147 78.0755 53.6592 78.1051 53.7895 78.1692C53.9197 78.2332 54.0315 78.3296 54.114 78.4492C57.0115 81.9764 59.9148 85.4903 62.824 88.991C62.8901 89.066 62.9649 89.1365 63.0398 89.2203C63.1983 89.0439 63.1235 88.8632 63.1235 88.7C63.1235 85.336 63.1235 81.9675 63.1235 78.6035C63.1235 78.2023 63.2071 78.07 63.6298 78.0832C64.7571 78.1141 65.8844 78.0832 67.0117 78.0832C67.3023 78.0832 67.3948 78.1494 67.3948 78.4536C67.3948 83.8296 67.3948 89.2041 67.3948 94.5772C67.3948 94.8858 67.2979 94.9519 67.0073 94.9475C65.7435 94.9475 64.4753 94.9255 63.2071 94.9475C63.0611 94.9539 62.9159 94.9237 62.7844 94.8599C62.653 94.796 62.5395 94.7003 62.4541 94.5816C59.6799 91.2337 56.8911 87.8947 54.0876 84.5644L53.7001 84.0794Z" fill="#020202"/>
<path d="M102.138 84.0794C102.056 84.2772 102.03 84.4939 102.063 84.7055C102.063 87.9461 102.063 91.1867 102.063 94.4317C102.063 94.8505 101.953 94.9608 101.539 94.9519C100.416 94.9211 99.289 94.9299 98.1617 94.9519C97.8447 94.9519 97.7522 94.8858 97.7522 94.5507C97.7522 89.1953 97.7522 83.8399 97.7522 78.4844C97.7522 78.145 97.8535 78.0788 98.1661 78.0832C99.3785 78.1038 100.592 78.1038 101.808 78.0832C101.953 78.0755 102.097 78.1051 102.227 78.1692C102.358 78.2332 102.469 78.3296 102.552 78.4492C105.449 81.9764 108.353 85.4903 111.262 88.991C111.328 89.066 111.403 89.1365 111.478 89.2203C111.636 89.0439 111.561 88.8632 111.561 88.7C111.561 85.336 111.561 81.9675 111.561 78.6035C111.561 78.2023 111.645 78.07 112.068 78.0832C113.195 78.1141 114.322 78.0832 115.45 78.0832C115.74 78.0832 115.833 78.1494 115.833 78.4536C115.833 83.8296 115.833 89.2041 115.833 94.5772C115.833 94.8858 115.736 94.9519 115.445 94.9475C114.181 94.9475 112.913 94.9255 111.645 94.9475C111.499 94.9539 111.354 94.9237 111.222 94.8599C111.091 94.796 110.977 94.7003 110.892 94.5816C108.118 91.2337 105.329 87.8947 102.526 84.5644L102.138 84.0794Z" fill="#020202"/>
<path d="M76.9064 85.5599C78.1482 84.5547 79.3107 83.6244 80.4688 82.6897L85.8894 78.3116C86.0419 78.1671 86.2431 78.0852 86.4531 78.0823C88.3157 78.0823 90.1828 78.0823 92.0499 78.0823C92.1115 78.0823 92.1908 78.0515 92.248 78.1749L87.7477 81.6227C86.5455 82.5442 85.3522 83.4745 84.1369 84.3739C83.8242 84.6076 83.8595 84.7399 84.0972 85.0088C86.983 88.2744 89.8614 91.5503 92.7324 94.8364C92.6223 95.0039 92.4682 94.9246 92.3449 94.929C90.654 94.929 88.963 94.929 87.2765 94.929C87.1397 94.9365 87.0033 94.9083 86.8806 94.8473C86.7579 94.7862 86.653 94.6944 86.5764 94.5807C84.6961 92.1866 82.7982 89.8058 80.9223 87.4073C80.6934 87.1119 80.5569 87.0458 80.2354 87.3015C79.2622 88.0819 78.2582 88.827 77.2498 89.5633C77.1289 89.6447 77.0323 89.7573 76.9703 89.8893C76.9083 90.0213 76.8831 90.1677 76.8976 90.3128C76.8976 91.706 76.8976 93.0949 76.8976 94.4881C76.8976 94.8188 76.8315 94.929 76.4572 94.929C75.2067 94.9055 73.9561 94.9055 72.7055 94.929C72.34 94.929 72.2651 94.8011 72.2651 94.4881C72.2651 89.165 72.2651 83.8434 72.2651 78.5232C72.2651 78.1485 72.362 78.0559 72.7275 78.0823C73.9429 78.1088 75.1567 78.1088 76.3692 78.0823C76.7523 78.0823 76.8712 78.1529 76.8668 78.5629C76.8932 80.8423 76.9064 83.1394 76.9064 85.5599Z" fill="#020202"/>
<path d="M151.646 86.5257C151.646 83.8803 151.646 81.2085 151.646 78.5455C151.646 78.1883 151.717 78.0781 152.086 78.0781C156.98 78.0781 161.871 78.0781 166.759 78.0781C167.133 78.0781 167.239 78.1707 167.199 78.519C167.166 79.152 167.166 79.7863 167.199 80.4193C167.221 80.8205 167.12 80.944 166.693 80.944C163.386 80.944 160.088 80.944 156.772 80.944C156.331 80.944 156.173 81.0365 156.191 81.5127C156.235 82.4606 156.23 83.413 156.191 84.3653C156.191 84.8062 156.274 84.9561 156.759 84.9517C159.572 84.9252 162.391 84.9517 165.204 84.9296C165.587 84.9296 165.724 85.009 165.698 85.4146C165.66 86.0652 165.66 86.7173 165.698 87.3678C165.698 87.7382 165.574 87.8087 165.257 87.8087C162.421 87.8087 159.59 87.8087 156.759 87.8087C156.318 87.8087 156.191 87.8969 156.199 88.351C156.226 90.41 156.199 92.4734 156.199 94.5236C156.199 94.8586 156.129 94.9645 155.759 94.9645C154.508 94.9409 153.259 94.9409 152.012 94.9645C151.646 94.9645 151.571 94.841 151.571 94.5236C151.651 91.865 151.646 89.1843 151.646 86.5257Z" fill="#020202"/>
<path d="M178.445 78.0879C181.277 78.0879 184.108 78.0879 186.944 78.0879C187.384 78.0879 187.499 78.2158 187.473 78.6434C187.439 79.2764 187.439 79.9107 187.473 80.5437C187.473 80.8876 187.389 80.9846 187.032 80.9846C185.095 80.9846 183.162 80.9846 181.228 80.9846C180.788 80.9846 180.691 81.1168 180.696 81.5401C180.696 85.8565 180.696 90.1685 180.696 94.4848C180.696 94.9257 180.586 95.0051 180.18 94.9963C179.006 94.9639 177.832 94.9639 176.658 94.9963C176.217 94.9963 176.103 94.9125 176.103 94.4584C176.103 90.1641 176.103 85.8653 176.103 81.571C176.103 81.1301 176.028 80.9758 175.544 80.9846C173.641 81.0199 171.743 80.9846 169.841 80.9846C169.476 80.9846 169.313 80.9361 169.344 80.5128C169.383 79.8624 169.383 79.2101 169.344 78.5597C169.344 78.1805 169.445 78.1188 169.81 78.1188C172.712 78.0967 175.579 78.0879 178.445 78.0879Z" fill="#020202"/>
<path d="M123.49 86.6089C123.49 84.0032 123.49 81.3975 123.49 78.7918C123.49 78.3509 123.565 78.2142 124.028 78.2274C125.239 78.2627 126.454 78.2539 127.669 78.2274C128.048 78.2274 128.11 78.3465 128.11 78.7036C128.11 82.9803 128.11 87.2614 128.088 91.5381C128.088 92.0231 128.22 92.1024 128.665 92.098C132.095 92.098 135.525 92.098 138.955 92.098C139.44 92.098 139.55 92.2347 139.519 92.6844C139.482 93.282 139.482 93.8813 139.519 94.4789C139.541 94.8669 139.44 94.9771 139.039 94.9727C136.573 94.9506 134.112 94.9727 131.65 94.9727C129.078 94.9727 126.511 94.9727 123.944 94.9727C123.574 94.9727 123.477 94.8757 123.504 94.5097C123.495 91.8644 123.49 89.219 123.49 86.6089Z" fill="#020202"/>
<path d="M21.1982 86.6104C21.1982 83.965 21.1982 81.3593 21.1982 78.736C21.1982 78.3524 21.2774 78.2201 21.6869 78.2289C22.8847 78.2598 24.0824 78.2554 25.2758 78.2289C25.6853 78.2289 25.8042 78.3215 25.7998 78.7448C25.7998 83.0082 25.7998 87.2717 25.7998 91.5308C25.7998 92.0202 25.9407 92.0995 26.3854 92.0951C29.8333 92.0951 33.2856 92.0951 36.7335 92.0951C37.1254 92.0951 37.2531 92.1789 37.2311 92.5845C37.1893 93.2172 37.1893 93.8521 37.2311 94.4848C37.262 94.9257 37.099 94.9609 36.7292 94.9609C32.0131 94.9609 27.297 94.9609 22.5809 94.9609C22.1405 94.9609 21.5813 95.1505 21.3127 94.8772C21.0441 94.6038 21.2378 94.0439 21.2334 93.6074C21.1938 91.2618 21.1982 88.9339 21.1982 86.6104Z" fill="#020202"/>
<path d="M142.65 86.508C142.65 83.8626 142.65 81.2172 142.65 78.5718C142.65 78.2103 142.69 78.056 143.121 78.0648C144.367 78.1001 145.618 78.0648 146.868 78.0648C147.168 78.0648 147.247 78.1442 147.247 78.444C147.247 83.8141 147.247 89.1857 147.247 94.5587C147.247 94.8718 147.146 94.9335 146.855 94.9291C145.609 94.9291 144.358 94.9071 143.108 94.9291C142.738 94.9291 142.668 94.8365 142.668 94.4662C142.65 91.8252 142.65 89.1666 142.65 86.508Z" fill="#020202"/>
<path d="M44.9197 86.5032C44.9197 89.1485 44.9197 91.8204 44.9197 94.479C44.9197 94.8449 44.8404 94.9596 44.4793 94.9507C43.2508 94.9243 42.0178 94.9287 40.7848 94.9507C40.4634 94.9507 40.3445 94.9022 40.3445 94.5319C40.3445 89.197 40.3445 83.8607 40.3445 78.5229C40.3445 78.1878 40.4149 78.082 40.7848 78.082C42.031 78.082 43.2816 78.1085 44.5322 78.082C44.8933 78.082 44.9725 78.2011 44.9725 78.5229C44.9153 81.1815 44.9197 83.8446 44.9197 86.5032Z" fill="#020202"/>
<path d="M68.8259 28.1152L68.87 28.1637L68.8215 28.124L68.8259 28.1152Z" fill="#D3B685"/>
<path d="M132.304 28.1211L132.258 28.1666C132.258 28.1666 132.258 28.1393 132.258 28.1348C132.258 28.1302 132.281 28.1348 132.295 28.1348L132.304 28.1211Z" fill="#D3B685"/>
<path d="M145.521 30.439C145.521 30.5625 145.473 30.6595 145.38 30.6198C145.116 30.5096 144.786 30.4611 144.684 30.1392C144.64 29.9982 144.812 29.9144 144.926 29.932C145.222 29.9805 145.367 30.2318 145.521 30.439Z" fill="#FEFEFE"/>
<path d="M130.954 68.5547C130.99 68.5856 131.007 68.5944 131.007 68.6076C131.028 68.7445 131.011 68.8845 130.957 69.0121C130.904 69.1397 130.816 69.25 130.703 69.3307C130.689 69.3415 130.673 69.3485 130.655 69.3511C130.637 69.3538 130.619 69.3519 130.603 69.3458C130.586 69.3396 130.571 69.3294 130.56 69.3159C130.548 69.3025 130.54 69.2863 130.536 69.2689C130.514 68.9383 130.761 68.7531 130.954 68.5547Z" fill="#FEFEFE"/>
<path d="M150.84 33.8921C151.047 33.6893 151.228 33.5878 151.452 33.773C151.501 33.8171 151.554 33.8877 151.492 33.9494C151.281 34.1478 151.083 34.0111 150.84 33.8921Z" fill="#FEFEFE"/>
<path d="M139.457 68.2472L139.413 68.3486C139.374 68.3336 139.336 68.3159 139.299 68.2957C139.299 68.2957 139.321 68.2207 139.334 68.2207C139.376 68.2214 139.418 68.2304 139.457 68.2472Z" fill="#FEFEFE"/>
<path d="M149.189 34.6625C149.189 34.6625 149.242 34.6052 149.246 34.6096C149.251 34.614 149.246 34.6757 149.224 34.6978L149.189 34.6625Z" fill="#FEFEFE"/>
<path d="M55.7432 30.6385C55.6287 30.6385 55.5274 30.5547 55.5759 30.4798C55.7344 30.2373 55.8973 29.9728 56.2232 29.9375C56.3377 29.9375 56.4962 30.0257 56.4434 30.1623C56.3157 30.4622 55.9898 30.5063 55.7432 30.6385Z" fill="#FEFEFE"/>
<path d="M70.0941 68.5547C70.1822 68.59 70.2262 68.59 70.2439 68.612C70.4112 68.806 70.6357 68.9735 70.5873 69.2689C70.5823 69.286 70.5733 69.3017 70.5609 69.3145C70.5486 69.3274 70.5333 69.337 70.5165 69.3426C70.4996 69.3483 70.4816 69.3497 70.464 69.3469C70.4464 69.344 70.4298 69.3369 70.4156 69.3263C70.3024 69.2343 70.2138 69.1157 70.1577 68.981C70.1016 68.8464 70.0798 68.6999 70.0941 68.5547Z" fill="#FEFEFE"/>
<path d="M69.5525 69.6745C69.5509 69.6613 69.5509 69.6479 69.5525 69.6348H69.5834L69.5261 69.67L69.5525 69.6745Z" fill="#FEFEFE"/>
<path d="M197.984 27.8479C198.235 27.0185 198.383 26.161 198.424 25.2951C198.376 24.9336 198.508 24.4442 197.984 24.1708C197.162 23.7505 196.344 23.3184 195.531 22.8746C195.232 22.707 195.091 22.7203 194.981 23.0906C193.713 26.7402 192.205 30.3016 190.467 33.7515C187.819 39.2819 184.866 44.6603 181.621 49.8619C181.383 50.2366 181.431 50.3953 181.836 50.5805C182.453 50.8627 183.038 51.2242 183.637 51.5417C184.236 51.8591 184.54 51.8679 185.104 51.3785C185.794 50.7502 186.409 50.0429 186.935 49.2711C189.686 45.3237 192.128 41.1699 194.241 36.8466C195.694 33.9411 197.173 31.0223 197.984 27.8479Z" fill="#020202"/>
<path d="M200.819 39.3153L196.288 36.9213C196.095 36.8155 195.949 36.8066 195.848 37.0624C195.24 38.385 194.562 39.6548 193.836 40.9026C193.69 41.1539 193.708 41.2905 193.99 41.436C195.381 42.1635 196.759 42.9086 198.142 43.6405C198.269 43.7211 198.419 43.7559 198.568 43.7391C198.717 43.7222 198.856 43.6548 198.961 43.5479C199.496 43.0189 199.981 42.4418 200.41 41.824C200.899 41.2156 200.916 40.5014 201.018 39.818C200.974 39.6416 201.057 39.4388 200.819 39.3153Z" fill="#020202"/>
<path d="M170.933 51.8099C171.142 51.8757 171.367 51.8616 171.565 51.7703C171.764 51.6791 171.922 51.5172 172.008 51.3161C173.537 48.5737 175.017 45.8034 176.446 43.0052C177.701 40.5626 178.895 38.0892 180.048 35.5937C181.013 33.5083 182.03 31.4449 182.959 29.3418C184.218 26.4804 185.469 23.6101 186.565 20.6693C187.763 17.4684 189.08 14.3116 189.802 10.9432C190.318 8.85889 190.549 6.71424 190.489 4.56781C190.432 3.58902 190.159 2.68959 189.053 2.36333C188.679 2.24869 188.318 2.08115 187.953 1.92243L184.13 0.410156C184.305 0.76308 184.461 1.12513 184.597 1.49476C184.742 2.57006 184.742 3.66005 184.597 4.73535C184.329 6.71288 183.937 8.67144 183.421 10.5993C182.955 12.5613 182.136 14.4174 181.62 16.3706C181.105 18.3238 179.934 20.1315 179.291 22.1023C178.322 24.8822 177.211 27.6106 175.962 30.2765C174.416 33.8037 172.946 37.3308 171.206 40.7566C170.524 42.0793 170.07 43.5519 169.361 44.8746C168.406 46.6382 167.543 48.4591 166.587 50.2315C165.464 52.3213 164.332 54.4024 163.016 56.3732C162.197 57.5989 161.461 58.9436 159.933 59.6138C161.109 60.0943 162.232 60.4955 163.32 61.0026C163.656 61.182 164.04 61.2476 164.417 61.1896C164.793 61.1316 165.14 60.953 165.407 60.6807C165.848 60.3002 166.259 59.886 166.635 59.4418C168.255 57.3839 169.726 55.2137 171.039 52.9474C171.272 52.5594 171.629 52.1846 170.933 51.8099Z" fill="#020202"/>
<path d="M186.31 38.0413C187.437 35.8941 188.512 33.7205 189.525 31.5072C191.189 27.7993 192.977 24.1398 194.069 20.1982C194.606 18.2627 195.139 16.3271 195.179 14.299C195.179 14.0521 195.179 13.8052 195.179 13.5627C195.117 12.7603 194.853 12.1121 194.012 11.7991C193.39 11.5686 192.783 11.3021 192.193 11.0011C191.823 10.8159 191.709 10.9526 191.634 11.2877C190.706 15.2844 189.444 19.1958 187.86 22.9803C185.764 28.1299 183.481 33.1944 181.013 38.1735C178.155 44.1277 174.944 49.905 171.396 55.4743C171.175 55.8094 171.277 55.9152 171.58 56.0387C172.047 56.2283 172.514 56.4223 172.963 56.6471C173.181 56.7589 173.426 56.8078 173.67 56.7883C173.914 56.7689 174.148 56.6818 174.346 56.5369C174.944 56.1299 175.475 55.6332 175.922 55.0643C179.158 50.9904 181.926 46.5655 184.174 41.8727C184.826 40.5632 185.627 39.3375 186.31 38.0413Z" fill="#020202"/>
<path d="M40.0009 58.7673C39.0008 57.5061 38.0844 56.1806 37.2575 54.7993C36.7555 53.9792 36.2712 53.1415 35.7956 52.3038C34.862 50.646 34.1046 48.8868 32.9421 47.3613C32.6877 46.9849 32.4793 46.5794 32.3212 46.1533C31.9558 45.2715 31.6695 44.35 31.2644 43.5079C29.274 39.2841 27.3468 35.0324 25.4827 30.7528C24.7873 29.0244 24.0054 27.3321 23.14 25.6825C22.3342 24.2496 22.1713 22.5609 21.5812 21.0442C20.5464 18.3988 19.5204 15.7535 18.6133 13.0772C17.5477 9.92922 16.6097 6.75476 16.3279 3.42158C16.2839 2.91455 16.3279 2.38989 15.729 2.13858C15.7075 2.13238 15.6877 2.12129 15.6712 2.10615C15.6546 2.09102 15.6418 2.07225 15.6337 2.05134C15.6256 2.03042 15.6224 2.00791 15.6244 1.98557C15.6265 1.96322 15.6336 1.94165 15.6454 1.92254C15.6588 1.89947 15.6769 1.87944 15.6985 1.8637C15.72 1.84795 15.7446 1.83684 15.7706 1.83104C15.7967 1.82525 15.8236 1.8249 15.8498 1.83002C15.876 1.83514 15.9008 1.84563 15.9228 1.86081C16.2751 2.04599 16.2971 1.83436 16.3191 1.56982C16.3539 1.02673 16.5434 0.504989 16.8651 0.0663589C16.7198 -0.0438653 16.6009 0.0354961 16.4952 0.0663589C14.8777 0.715947 13.247 1.36407 11.603 2.01071C11.4156 2.09472 11.2474 2.21632 11.1088 2.36799C10.9702 2.51966 10.8641 2.69817 10.7972 2.89251C10.6007 3.35894 10.4961 3.85895 10.4889 4.3651C10.4606 7.02442 10.8712 9.67016 11.7043 12.1954C12.0874 13.4035 12.4617 14.6204 12.88 15.8152C15.6057 23.597 18.9832 31.0967 22.5676 38.5081C22.622 38.6352 22.7153 38.7416 22.834 38.8121C22.9527 38.8826 23.0907 38.9136 23.2281 38.9005C22.7878 39.0813 22.9683 39.3414 23.0828 39.5575C25.7249 44.8482 28.411 50.0949 31.5418 55.1123C32.1055 55.9941 32.7484 56.8494 33.334 57.7312C34.0984 59 35.0984 60.1105 36.2799 61.0027C36.4754 61.1511 36.7083 61.2421 36.9525 61.2655C37.1967 61.2888 37.4426 61.2436 37.6626 61.135C38.7503 60.672 39.8643 60.2532 40.9476 59.8123C41.0753 59.7638 41.2162 59.755 41.2426 59.5566C40.723 59.486 40.4368 59.0363 40.0097 58.8114L40.0009 58.7673Z" fill="#020202"/>
<path d="M169.973 31.6865C169.066 33.4897 168.3 35.3768 166.988 36.9772C167.49 37.1756 167.979 37.3608 168.459 37.5592C168.592 37.6311 168.749 37.6468 168.894 37.603C169.04 37.5592 169.162 37.4594 169.234 37.3255C169.515 36.8846 169.828 36.4966 170.075 36.0557C172.629 31.4697 174.665 26.6135 176.147 21.5767C176.528 20.5042 176.748 19.3808 176.799 18.2435C176.808 18.1388 176.79 18.0334 176.747 17.9376C176.704 17.8417 176.637 17.7586 176.553 17.6962C176.468 17.6337 176.369 17.5941 176.265 17.5811C176.161 17.5681 176.055 17.5821 175.958 17.6218C175.896 17.6218 175.821 17.7232 175.799 17.6218C175.654 17.0839 175.125 17.2515 174.778 16.9826C174.81 17.4638 174.777 17.9473 174.681 18.4199C174.3 20.118 173.828 21.7943 173.267 23.4417C173.117 23.9134 172.954 24.0237 172.47 23.8517C168.177 22.3306 163.809 21.0344 159.436 19.7514C155.047 18.4715 150.58 17.4788 146.063 16.7797C143.346 16.3388 140.633 15.92 137.903 15.5893C135.657 15.3204 133.42 14.9985 131.17 14.7737C128.22 14.4738 125.265 14.2093 122.306 13.9977C119.501 13.7949 116.696 13.6229 113.887 13.5039C109.756 13.3231 105.621 13.2526 101.486 13.2702C98.0033 13.2702 94.5202 13.2702 91.0371 13.4201C88.3686 13.5215 85.6957 13.6406 83.0316 13.8037C80.2809 13.9683 77.5302 14.1696 74.7795 14.4077C72.8596 14.5782 70.9397 14.7678 69.0198 14.9765C66.7916 15.219 64.5591 15.4659 62.3398 15.7613C60.0103 16.0655 57.6941 16.427 55.3735 16.7709C52.9384 17.1369 50.4989 17.5116 48.1034 18.0936C43.8981 19.1165 39.7369 20.2981 35.602 21.6208C33.2682 22.3615 30.9388 23.1286 28.6093 23.8958C28.3627 23.9796 28.191 24.0369 28.0985 23.7283C27.4204 21.5238 26.5705 19.3854 26.4472 17.0222C25.9232 17.225 25.408 17.4411 24.884 17.6174C24.7448 17.6443 24.6212 17.724 24.5392 17.8398C24.4572 17.9556 24.4229 18.0986 24.4437 18.2391C24.4672 18.9583 24.5781 19.6719 24.7739 20.3642C26.131 25.2765 28.0041 30.0309 30.3619 34.5479C30.828 35.5099 31.3823 36.4265 32.0176 37.2858C32.2113 37.5416 32.4271 37.7267 32.7794 37.5636C33.2726 37.3564 33.7746 37.1712 34.281 36.9772C34.0168 36.6157 33.7437 36.2938 33.5236 35.9411C32.6921 34.5252 31.9352 33.0668 31.2558 31.5718C31.0929 31.2235 31.1765 31.1309 31.5156 30.9987C35.3906 29.601 39.2965 28.296 43.2464 27.1188C47.051 25.9812 50.8688 24.8702 54.7482 24.0325C58.817 23.1507 62.921 22.4849 67.0426 21.9118C69.5438 21.5635 72.0494 21.2504 74.5593 20.9947C77.7005 20.6773 80.8489 20.4201 84.0048 20.2231C87.4791 20.0115 90.9578 19.8792 94.4365 19.7822C98.7299 19.6544 103.023 19.7293 107.317 19.8307C109.162 19.8704 111.007 19.9542 112.852 20.0644C115.252 20.2055 117.652 20.3951 120.051 20.5626C123.341 20.7919 126.621 21.149 129.893 21.5502C132.76 21.903 135.618 22.3042 138.471 22.7715C141.73 23.3094 144.997 23.7856 148.203 24.588C155.503 26.4387 162.704 28.6593 169.78 31.2411C170.066 31.3205 170.097 31.4307 169.973 31.6865Z" fill="#020202"/>
<path d="M27.874 52.3215C22.7141 43.5476 18.1534 34.434 14.2233 25.0432C12.4619 20.8723 10.8326 16.6662 9.89909 12.1999C9.83303 11.8913 9.72295 11.8869 9.45874 12.0059C8.71896 12.3498 7.96597 12.6584 7.21738 12.9935C7.05809 13.0673 6.91637 13.1743 6.8017 13.3074C6.68703 13.4405 6.60205 13.5965 6.55246 13.7651C6.39802 14.3604 6.3415 14.9769 6.38513 15.5904C6.41155 17.5524 7.00602 19.4174 7.44196 21.3C7.76576 22.418 8.17653 23.5089 8.67052 24.5626C11.2002 30.7068 14.0758 36.7023 17.2837 42.5204C19.2499 46.2531 21.4563 49.854 23.8889 53.3003C24.6668 54.451 25.5988 55.4894 26.6586 56.3866C26.888 56.6116 27.1856 56.7537 27.5046 56.7904C27.8236 56.8271 28.1457 56.7564 28.42 56.5894C28.7999 56.3782 29.1978 56.2011 29.6089 56.0603C30.0493 55.906 30.0097 55.7164 29.7895 55.3769C29.1422 54.3893 28.4905 53.362 27.874 52.3215Z" fill="#020202"/>
<path d="M12.0127 36.1752C10.5111 33.2035 9.13725 30.1746 7.74576 27.15C7.27193 26.0472 6.85741 24.9199 6.50398 23.7727C6.36307 23.3539 6.21336 23.3318 5.87429 23.5346C5.20497 23.9094 4.55325 24.293 3.83549 24.606C3.21461 24.8794 2.93279 25.2894 3.02526 25.8053C3.10505 27.327 3.43844 28.8247 4.01163 30.2363C4.76021 32.3217 5.82145 34.2705 6.73737 36.281C7.61806 38.2121 8.93909 39.8963 9.87703 41.7878C11.0453 44.218 12.4136 46.5467 13.9678 48.7495C14.6175 49.7084 15.3674 50.5952 16.2048 51.3949C16.3818 51.5922 16.6253 51.717 16.8886 51.7455C17.152 51.774 17.4165 51.7041 17.6315 51.5492C18.2078 51.187 18.8081 50.8644 19.4281 50.5837C19.8993 50.3764 19.8685 50.1824 19.6263 49.8033C16.8389 45.4075 14.3641 40.8266 12.0127 36.1752Z" fill="#020202"/>
<path d="M5.20941 36.8587C5.01125 36.4795 4.83071 36.6206 4.59293 36.7485C3.18823 37.4936 1.79233 38.2431 0.37882 38.953C0.105806 39.0896 -0.0351031 39.2484 0.00893144 39.557C0.0353522 39.7113 0.0573662 39.8656 0.0881904 40.0199C0.374415 41.3823 1.25511 42.3787 2.14461 43.3752C2.20862 43.4636 2.28961 43.5383 2.38284 43.5949C2.47608 43.6515 2.57967 43.689 2.68754 43.705C2.79541 43.721 2.90539 43.7153 3.01103 43.6882C3.11666 43.6611 3.21583 43.6131 3.30271 43.5471C4.5665 42.8461 5.8391 42.1539 7.13371 41.5146C7.57406 41.2897 7.57406 41.0957 7.35389 40.721C6.62291 39.4556 5.89635 38.1682 5.20941 36.8587Z" fill="#020202"/>
<path d="M133.138 28.1666L133.185 28.1211C133.185 28.1211 133.157 28.1211 133.148 28.1211C133.138 28.1211 133.138 28.153 133.138 28.1666Z" fill="#D3B685"/>
<path d="M160.973 35.1576C160.944 33.7947 160.53 32.4677 159.779 31.3306C159.486 30.9356 159.092 30.6263 158.639 30.4348C158.186 30.2433 157.691 30.1766 157.203 30.2416C156.943 30.2945 156.789 30.3959 156.965 30.709C157.173 30.9735 157.334 31.2718 157.441 31.5908C147.141 26.6968 136.551 24.6599 125.296 27.949C126.071 28.4913 126.282 28.5045 127.057 28.2752C128.219 27.9273 129.424 27.7418 130.637 27.7241C130.443 27.8002 130.243 27.8592 130.038 27.9005C129.341 28.0295 128.693 28.3465 128.162 28.8175C128.048 28.9233 127.863 29.038 127.938 29.1967C128.013 29.3554 128.211 29.254 128.356 29.2188C129.62 28.9278 130.884 28.6235 132.152 28.337C132.282 28.3298 132.408 28.2941 132.522 28.2324C132.636 28.1706 132.735 28.0844 132.812 27.9798C133.046 27.6271 133.13 27.852 133.182 28.0989C133.742 28.1826 134.292 27.8961 134.944 28.046C133.417 28.5287 131.959 29.2074 130.606 30.0653C133.182 29.6244 135.736 29.2805 138.356 29.6641C140.611 29.9947 144.468 31.8068 145.226 33.0413H145.173L144.953 32.9002C141.685 31 138.246 29.9462 134.429 30.7487C133.164 30.9863 131.958 31.4701 130.879 32.1727C130.699 32.2918 130.487 32.402 130.664 32.7106C130.963 33.2293 131.18 33.7916 131.306 34.3772C131.346 34.5492 131.403 34.7388 131.659 34.6241C131.804 34.558 131.954 34.5404 131.976 34.7432C131.978 34.7748 131.972 34.8065 131.96 34.8357C131.948 34.8649 131.929 34.891 131.906 34.9119C131.882 34.9327 131.853 34.9478 131.823 34.9561C131.792 34.9643 131.76 34.9653 131.729 34.9592C131.351 34.871 131.483 35.14 131.491 35.2943C131.5 35.4486 131.557 35.6735 131.575 35.8675C131.593 36.0615 131.575 36.2422 131.575 36.4318C131.211 35.3178 130.63 34.2869 129.867 33.3985C129.655 33.1339 129.483 33.0281 129.202 33.4514C129.351 32.8341 129.36 32.8297 129.202 32.6577C126.467 29.5715 122.984 28.3855 118.942 28.6412C118.84 28.6412 118.695 28.672 118.655 28.7382C118.453 29.06 118.167 28.9895 117.907 28.8969C117.707 28.8272 117.493 28.8135 117.286 28.8572C116.542 28.9851 115.798 29.1041 115.062 29.2761C112.195 29.9506 109.778 31.3042 108.272 33.954C107.639 35.0311 107.143 36.1835 106.797 37.3842C106.604 37.8617 106.53 38.3793 106.581 38.892C106.995 38.1002 107.535 37.3809 108.18 36.7625C108.808 36.1648 109.598 35.7661 110.452 35.6162C111.729 35.3957 112.42 35.4442 112.97 35.7661C112.47 35.7984 111.975 35.8886 111.495 36.035C110.586 36.2747 109.788 36.8252 109.241 37.5914C108.875 38.1601 109.139 38.6363 109.813 38.6804C110.288 38.6718 110.758 38.5793 111.2 38.407C111.95 38.157 112.725 37.9943 113.512 37.922C115.432 37.7854 117.215 38.3409 119.135 38.9758C117.488 39.0111 115.982 38.9097 114.481 39.0904C112.868 39.2382 111.297 39.6868 109.848 40.4131C109.644 40.509 109.466 40.6545 109.332 40.8363C109.197 41.0182 109.11 41.2307 109.078 41.4548C109.046 41.6788 109.071 41.9073 109.149 42.1195C109.227 42.3318 109.357 42.5211 109.527 42.6705C109.873 43.0013 110.305 43.2288 110.773 43.3274C115.221 44.486 119.923 44.1767 124.182 42.4456C124.272 42.3823 124.377 42.3421 124.487 42.3282C124.596 42.3144 124.708 42.3275 124.811 42.3663C119.739 45.7876 114.243 45.9199 108.585 44.9455C108.616 45.1736 108.713 45.3878 108.862 45.5628C109.188 46.1492 109.628 46.4446 110.333 46.1977C110.521 46.149 110.718 46.1399 110.91 46.1712C111.118 46.2139 111.308 46.3227 111.449 46.4816C111.591 46.6404 111.679 46.8407 111.698 47.053C111.698 47.4939 111.258 47.2999 111.059 47.4145C110.954 47.4675 110.813 47.4145 110.694 47.5512C111.389 48.1666 112.178 48.6654 113.032 49.0282C114.937 49.9182 117.053 50.2543 119.14 49.9982C119.245 49.9982 119.413 50.0467 119.4 49.8351C119.4 49.7204 119.118 49.6058 119.347 49.5C119.447 49.4403 119.564 49.4148 119.68 49.4275C119.796 49.4403 119.905 49.4905 119.99 49.5705C120.245 49.91 120.527 49.791 120.831 49.7204C122.558 49.303 124.212 48.6251 125.736 47.71C126.176 47.4586 126.797 47.3881 126.903 46.7223C126.906 46.7095 126.912 46.6976 126.921 46.6879C126.93 46.6782 126.941 46.671 126.953 46.6669C126.966 46.6629 126.979 46.6623 126.992 46.665C127.005 46.6678 127.017 46.6739 127.026 46.6827C127.295 46.9207 127.467 46.6474 127.608 46.5328C128.929 45.5936 130.25 44.6678 131.659 43.8609C132.521 43.285 133.453 42.8227 134.433 42.4853C134.182 42.7543 133.922 43.01 133.684 43.2878C132.764 44.3547 132.874 45.7612 133.979 46.5019C135.013 47.1981 136.271 47.4783 137.502 47.2867C138.105 47.2073 138.7 47.0486 139.299 46.9207C139.279 46.98 139.24 47.0311 139.189 47.0662C139.14 47.1015 139.083 47.128 139.03 47.1588C138.14 47.696 137.152 48.0505 136.124 48.2019C135.096 48.3533 134.048 48.2985 133.041 48.0406C132.099 47.7872 131.173 47.472 130.272 47.0971C131.608 48.4969 133.419 49.3461 135.349 49.4779C137.234 49.6234 138.916 48.9577 140.523 48.0847C142.432 47.0322 144.067 45.5426 145.292 43.7375C145.678 43.1912 146.026 42.6181 146.331 42.0224C146.384 41.9122 146.472 41.7887 146.331 41.6917C146.19 41.5947 146.137 41.7182 146.045 41.7623L145.331 42.0929L145.292 42.0444C145.935 41.3831 146.331 40.5189 146.974 39.8399C147.066 39.7392 147.164 39.6449 147.269 39.5578C147.518 40.4953 147.518 41.4817 147.269 42.4192C146.941 43.5125 146.456 44.5522 145.829 45.5055C145.418 46.1348 145.141 46.8417 145.014 47.5826C144.886 48.3234 144.912 49.0825 145.089 49.813C145.579 51.7024 145.621 53.6802 145.213 55.5888C144.992 56.5279 144.772 57.4538 144.526 58.4017C145.036 57.6125 145.499 56.8012 145.93 55.9768C146.359 55.1291 146.708 54.2435 146.974 53.3314C147.238 52.4496 147.458 51.5678 147.701 50.686C147.419 54.7378 146.274 58.4943 143.737 61.7657L143.918 61.8495L146.164 59.645C145.995 60.1456 145.782 60.6297 145.525 61.0912C145.271 61.55 144.976 61.9853 144.645 62.3918C144.279 62.8547 144.244 63.0796 144.781 63.3265C144.781 63.3265 144.781 63.3882 144.825 63.4808C144.248 63.3062 143.63 63.3232 143.064 63.5293C142.289 63.763 142.002 63.4985 142.183 62.7137C142.231 62.4668 142.183 62.3962 141.923 62.3742C139.845 62.2066 138.035 62.987 136.137 64.0011H137.458C137.085 64.2551 136.661 64.4265 136.216 64.5037C135.122 64.6844 134.002 64.6272 132.931 64.3362C131.782 64.0937 130.76 64.5566 130.355 65.4781C130.276 65.6677 130.166 65.8573 130.377 66.0513C131.205 66.814 131.985 67.6385 133.174 67.8369C133.711 67.9251 134.235 68.1191 134.772 68.172C136.23 68.3219 137.691 68.6437 139.149 68.1235C139.526 68.0204 139.91 67.9467 140.298 67.903C139.685 68.3384 139.097 68.8079 138.537 69.3095C137.815 69.9444 137.185 70.6542 137.044 71.6595C137 71.9416 136.872 71.9064 136.679 71.8314C136.279 71.6464 135.864 71.4988 135.437 71.3905C134.909 71.3067 134.323 71.1392 133.935 71.7609C133.772 72.0298 133.579 71.8623 133.416 71.7212C132.832 71.1685 132.468 70.4231 132.39 69.6225C132.611 69.7085 132.811 69.8425 132.975 70.0149C133.229 70.2348 133.528 70.397 133.85 70.4906C134.173 70.5842 134.512 70.6068 134.844 70.557C135.176 70.5071 135.493 70.386 135.774 70.2019C136.055 70.0178 136.293 69.775 136.472 69.4902C136.604 69.2478 136.573 69.1596 136.282 69.1419C135.127 69.0462 133.98 68.8634 132.852 68.5952C131.284 68.2646 131.258 68.2734 130.765 69.8209C130.765 69.8915 130.721 69.9576 130.694 70.0237C130.566 70.3279 130.542 70.6662 130.627 70.9854C130.711 71.3046 130.899 71.5867 131.161 71.7873C132.274 72.8397 133.439 73.8344 134.653 74.7678C134.968 75.0395 135.356 75.2118 135.768 75.2628C136.18 75.3138 136.598 75.2413 136.969 75.0544C139.849 73.7713 142.65 72.334 145.446 70.8879C146.147 70.5075 146.726 69.9377 147.119 69.2433C148.114 67.6253 149.004 65.9454 149.92 64.2788C153.443 57.8711 156.672 51.3253 159.607 44.6413C160.638 42.3987 161.215 39.9744 161.307 37.5076C161.307 36.6964 160.973 35.9424 160.973 35.1576Z" fill="#D3B685"/>
<path d="M96.3123 38.433C96.0569 36.5945 95.0705 35.0381 94.3792 33.3671C93.8155 33.1643 93.6262 32.5867 93.2607 32.1899C91.7767 30.5718 89.848 29.8047 87.7916 29.3064C86.7832 29.0595 85.766 28.7112 84.7092 28.9714C84.5594 29.0066 84.3833 29.0111 84.2996 28.8215C84.216 28.6319 84.0398 28.6716 83.8901 28.6627C80.0151 28.4379 76.6288 29.4916 73.9339 32.4104C73.6741 32.6881 73.3967 32.9174 73.6565 33.3362C73.4011 33.3627 73.4892 33.1158 73.3483 33.0629C72.3856 34.0457 71.6925 35.2606 71.3359 36.5901C71.2892 36.2259 71.3026 35.8565 71.3755 35.4966C71.4107 35.2718 71.5957 34.9058 71.0717 34.972C71.0449 34.969 71.0191 34.9603 70.9959 34.9465C70.9728 34.9328 70.9528 34.9142 70.9373 34.8921C70.9219 34.87 70.9114 34.8448 70.9065 34.8183C70.9015 34.7918 70.9023 34.7645 70.9088 34.7383C70.9121 34.7159 70.9202 34.6945 70.9327 34.6756C70.9452 34.6567 70.9617 34.6408 70.9811 34.629C71.0004 34.6172 71.0221 34.6098 71.0446 34.6074C71.0671 34.6049 71.0899 34.6075 71.1113 34.6148C71.5516 34.8309 71.5517 34.487 71.6221 34.2225C71.7368 33.7607 71.9114 33.316 72.1417 32.8998C72.1904 32.8428 72.2246 32.7749 72.2416 32.7019C72.2585 32.6289 72.2577 32.5528 72.2391 32.4802C72.2205 32.4076 72.1848 32.3405 72.1349 32.2846C72.085 32.2287 72.0224 32.1856 71.9524 32.159C70.0352 30.9837 67.8137 30.4023 65.5674 30.4881C64.2177 30.55 62.8835 30.8023 61.6043 31.2376C60.3213 31.6692 59.0851 32.229 57.9142 32.9086L57.8657 32.8557C57.9154 32.786 57.9715 32.7211 58.0331 32.6617C61.318 29.9281 65.1314 29.1566 69.2795 29.6636C70.2835 29.787 71.283 29.9634 72.2826 30.1045C70.9257 29.2291 69.46 28.5354 67.9232 28.0411C68.0864 28.0164 68.2517 28.009 68.4164 28.019C68.8535 28.0867 69.2951 28.1206 69.7374 28.1204L69.7859 28.1601L69.7418 28.1116C69.7947 27.8427 69.8783 27.6707 70.1117 27.9926C70.1656 28.0824 70.2385 28.1593 70.3252 28.2179C70.4119 28.2766 70.5104 28.3155 70.6137 28.3321C71.807 28.5349 72.9828 28.8259 74.1365 29.1125C74.4051 29.1742 74.8102 29.4652 74.9335 29.1918C75.0568 28.9185 74.6165 28.7156 74.3699 28.5349C73.7446 28.0675 72.9828 27.9529 72.2606 27.7236C73.5112 27.7942 74.775 27.8515 75.9243 28.3365C76.6464 28.6363 77.0471 28.213 77.6856 27.9926C77.4655 27.9088 77.3686 27.8647 77.2673 27.8339C73.9772 26.9571 70.5991 26.4528 67.1966 26.3304C64.5883 26.2337 61.978 26.4588 59.4245 27.0006C56.1155 27.6307 52.8659 28.5407 49.7105 29.7209C48.2838 30.272 46.9099 30.9378 45.5448 31.6212L45.5184 31.5947C45.5184 31.2728 45.765 31.0568 45.8971 30.7923C46.0997 30.3867 46.0425 30.2367 45.5933 30.2456C44.4308 30.2456 43.4885 30.5806 42.8632 31.7402C41.8988 33.5038 41.7799 35.4526 41.6742 37.3572C41.5245 40.1261 42.4448 42.7185 43.5721 45.2272C45.7474 50.0771 48.0768 54.8476 50.512 59.5696C52.15 62.7485 53.885 65.87 55.6508 68.9695C56.1459 69.889 56.9157 70.6305 57.8525 71.0902C58.5042 71.3989 59.1339 71.7516 59.7812 72.0646C61.8552 73.0699 63.8808 74.1721 66.0077 75.0627C66.2944 75.2226 66.6185 75.3031 66.9466 75.2961C67.2747 75.2892 67.5951 75.1949 67.8748 75.023C69.4159 73.9735 70.834 72.7533 72.1021 71.3856C72.2134 71.271 72.2941 71.1301 72.3364 70.9759C72.3788 70.8217 72.3815 70.6593 72.3443 70.5038C72.2275 69.8626 72.0074 69.2446 71.6926 68.6741C71.6628 68.6011 71.6187 68.5347 71.5628 68.479C71.507 68.4233 71.4406 68.3794 71.3676 68.3498C71.2945 68.3202 71.2162 68.3056 71.1374 68.3067C71.0586 68.3079 70.9809 68.3249 70.9088 68.3567C69.5278 68.764 68.108 69.0256 66.6726 69.1371C66.338 69.1635 66.3204 69.2737 66.4833 69.5162C67.2099 70.5832 67.6194 70.6229 69.1958 70.473C69.7683 70.4201 69.9664 69.8293 70.4508 69.675C70.4651 69.9747 70.4203 70.2744 70.3187 70.5568C70.1379 71.0133 69.8547 71.4222 69.4908 71.7516C69.3059 71.9279 69.121 71.9764 68.98 71.7119C68.8391 71.4474 68.5397 71.3856 68.2711 71.3504C67.5489 71.2622 66.9501 71.5796 66.2895 71.7913C66.0385 71.8838 65.9064 71.9015 65.8932 71.5576C65.8477 71.2082 65.7177 70.8753 65.5145 70.5876C64.9949 69.6749 64.1627 69.0753 63.3612 68.4449C63.1278 68.2641 62.8945 68.0965 62.5906 68.3831C62.5554 67.9819 62.5906 67.854 63.031 67.9422C63.9381 68.1142 64.8144 68.4933 65.7699 68.3831C66.2411 68.3258 66.7167 68.3346 67.1878 68.2773C69.0945 68.0436 70.9924 67.7923 72.3751 66.2051C72.5065 66.1036 72.5937 65.9552 72.6183 65.7908C72.6429 65.6264 72.6031 65.4589 72.5072 65.3233C72.0228 64.4415 71.0937 64.0667 69.962 64.3048C69.1278 64.5158 68.2676 64.6049 67.408 64.5694C66.7445 64.5702 66.1014 64.3394 65.5894 63.9168H66.6902C66.4348 63.595 66.0605 63.7096 65.8095 63.5421C64.4273 62.6794 62.812 62.2666 61.1859 62.3605C60.7808 62.3605 60.6311 62.4222 60.7456 62.8675C60.7887 62.965 60.8019 63.073 60.7835 63.178C60.7651 63.283 60.7161 63.3801 60.6425 63.4571C60.5689 63.5341 60.4741 63.5875 60.3701 63.6105C60.2662 63.6335 60.1578 63.625 60.0586 63.5862C59.4169 63.3306 58.7107 63.2859 58.0419 63.4583C58.0385 63.4061 58.0527 63.3542 58.0822 63.3111C58.1118 63.2679 58.1549 63.2359 58.2048 63.2202C58.6451 63.0395 58.5923 62.8675 58.3061 62.5148C57.6115 61.6525 57.0639 60.6812 56.6856 59.6401L57.126 60.0325C57.6734 60.6287 58.2619 61.1856 58.8873 61.6991C58.9138 61.73 58.927 61.7961 58.9622 61.805C58.9974 61.8138 58.9886 61.805 59.0106 61.805C59.0326 61.805 59.0106 61.6903 58.9622 61.6506C58.9191 61.5554 58.8705 61.4626 58.8169 61.3729C57.1287 59.0008 55.9982 56.2772 55.5099 53.4059C55.3277 52.5047 55.2158 51.5908 55.1752 50.6723C55.7174 53.4411 56.8009 56.0752 58.3633 58.4233C58.2092 57.7046 58.0066 56.9992 57.8305 56.2893C57.2804 54.321 57.244 52.2443 57.7248 50.2579C57.9408 49.5555 58.0131 48.8167 57.9375 48.0856C57.8618 47.3546 57.6397 46.6464 57.2845 46.0032C56.7824 45.1594 56.3281 44.288 55.9238 43.3931C55.3672 42.2018 55.2562 40.85 55.6112 39.5838C56.4258 40.3245 56.8485 41.3209 57.5751 42.0792L57.5355 42.1233L56.7781 41.7706C56.6988 41.7309 56.6151 41.6604 56.5359 41.7221C56.4566 41.7838 56.4962 41.9161 56.5359 42.0087C56.5711 42.0902 56.6108 42.1697 56.6548 42.2468C58.1595 45.0804 60.5597 47.3348 63.4801 48.6574C64.9894 49.3982 66.6923 49.648 68.3503 49.3717C68.9537 49.2634 69.5441 49.0919 70.1117 48.8602C71.0433 48.474 71.8812 47.8922 72.5688 47.1539C72.5835 47.152 72.5983 47.152 72.6129 47.1539C72.6129 47.1539 72.6129 47.1319 72.6129 47.101V47.1672C72.4404 47.1553 72.2687 47.2002 72.1241 47.295C70.4684 47.9608 68.7951 48.5163 66.9677 48.2297C65.7611 48.0402 64.5942 47.7888 63.6342 46.96C63.8368 47.0085 64.0438 47.057 64.2419 47.1143C64.9698 47.3508 65.738 47.4373 66.5001 47.3683C67.2622 47.2994 68.0025 47.0764 68.6762 46.7131C69.896 46.0385 70.1822 44.8216 69.4468 43.6268C69.1826 43.1859 68.7555 42.9346 68.4824 42.5245C68.7455 42.5448 68.9982 42.6363 69.2134 42.7891C71.2512 43.8269 73.1998 45.0317 75.0392 46.3912C75.2638 46.5499 75.4795 46.8321 75.7481 46.7792C76.0168 46.7263 76.0652 46.7263 76.074 46.96C76.0828 47.1936 76.2281 47.1848 76.3426 47.2554C78.0894 48.3822 80.0059 49.2203 82.0187 49.7376C82.3489 49.817 82.644 49.9096 82.9302 49.5965C83.0179 49.5188 83.1283 49.4717 83.245 49.4621C83.3617 49.4526 83.4784 49.4812 83.5775 49.5436C83.8153 49.6759 83.3881 49.8126 83.5334 49.9845C86.6159 50.615 90.7111 49.1468 92.2259 47.5067C92.0178 47.4621 91.8077 47.4282 91.5962 47.4053C91.2351 47.3832 91.1338 47.2377 91.2747 46.8894C91.5345 46.2457 91.878 46.0782 92.7323 46.2722C93.0537 46.3427 93.3884 46.4088 93.613 46.1487C93.9318 45.8296 94.1768 45.4443 94.3307 45.02C94.203 44.9318 94.1061 44.9936 94.0005 45.02C90.4834 45.7636 86.8442 45.7048 83.3529 44.8481C82.6392 44.6627 81.9377 44.433 81.2525 44.1603C80.108 43.7078 79.0343 43.0931 78.0644 42.335L78.1084 42.2909C79.1696 42.6524 80.1912 43.1286 81.2877 43.3887C83.9966 44.0887 86.8151 44.2579 89.5882 43.8869C90.7111 43.7194 91.8604 43.6047 92.8908 43.058C93.1624 42.949 93.3957 42.7618 93.5611 42.5201C93.7264 42.2784 93.8165 41.993 93.8199 41.7001C93.8129 41.4099 93.7188 41.1286 93.55 40.8927C93.3811 40.6568 93.1453 40.4773 92.8732 40.3774C91.101 39.5471 89.1752 39.0966 87.2191 39.0547C86.1183 39.0062 85.0174 39.0547 83.9077 39.0547C84.4387 38.8332 84.9828 38.6447 85.537 38.4903C87.2415 37.9244 89.0668 37.8284 90.8212 38.2126C91.451 38.4326 92.0955 38.6079 92.7499 38.7372C93.1198 38.7681 93.5337 38.7946 93.7318 38.3977C93.93 38.0009 93.6922 37.6526 93.428 37.3528C92.7473 36.6574 91.8776 36.1775 90.9268 35.9728C90.5479 35.9483 90.175 35.865 89.8216 35.7259C92.8644 35.1483 94.9208 36.3211 96.3035 38.9004C96.3341 38.7463 96.3371 38.5881 96.3123 38.433Z" fill="#D3B685"/>
</g>
<defs>
<clipPath id="clip0_285_1095">
<rect width="201" height="95" fill="white"/>
</clipPath>
</defs>
</svg>
