<svg width="19" height="5" viewBox="0 0 19 5" fill="none" xmlns="http://www.w3.org/2000/svg">
<path fill-rule="evenodd" clip-rule="evenodd" d="M2.28947 0.274414C1.03026 0.274414 0 1.32852 0 2.61688C0 3.90524 1.03026 4.95935 2.28947 4.95935C3.54868 4.95935 4.57895 3.90524 4.57895 2.61688C4.57895 1.32852 3.54868 0.274414 2.28947 0.274414ZM16.0263 0.274415C14.7671 0.274415 13.7368 1.32852 13.7368 2.61688C13.7368 3.90524 14.7671 4.95935 16.0263 4.95935C17.2855 4.95935 18.3158 3.90524 18.3158 2.61688C18.3158 1.32852 17.2855 0.274415 16.0263 0.274415ZM9.1579 0.274415C7.89868 0.274415 6.86842 1.32852 6.86842 2.61688C6.86842 3.90524 7.89868 4.95935 9.1579 4.95935C10.4171 4.95935 11.4474 3.90524 11.4474 2.61688C11.4474 1.32852 10.4171 0.274415 9.1579 0.274415Z" fill="#00B3DF"/>
</svg>
