<svg width="97" height="97" viewBox="0 0 97 97" fill="none" xmlns="http://www.w3.org/2000/svg">
<path d="M68.9979 47.4573C68.9979 47.7588 69.0026 48.0603 68.9968 48.3616C68.988 48.8188 68.6338 49.1634 68.188 49.1567C67.7404 49.1501 67.3943 48.7834 67.4105 48.3208C67.4929 45.9687 67.0889 43.6979 66.2135 41.5076C65.4412 39.5753 64.3264 37.8514 62.8639 36.347C60.5932 34.0107 57.838 32.4836 54.6525 31.6823C54.4172 31.6232 54.1788 31.5758 53.9415 31.5253C53.5653 31.4453 53.3035 31.1438 53.2951 30.7788C53.287 30.4162 53.5267 30.0933 53.8966 30.0178C54.052 29.9862 54.2273 30 54.3846 30.0331C57.3802 30.6654 60.0783 31.9112 62.4331 33.8315C65.5638 36.385 67.5644 39.6268 68.5036 43.4983C68.8192 44.7994 68.9856 46.1198 68.9979 47.4573Z" fill="#00B3DF"/>
<path d="M57.4709 63.997C56.2035 64.012 54.9761 63.7951 53.7843 63.3731C52.7097 62.9923 51.7475 62.4113 50.7923 61.8116C48.2477 60.2139 46.0601 58.2244 44.0747 56.0097C42.9719 54.7795 41.8871 53.5353 40.9053 52.209C39.6298 50.4859 38.4746 48.6922 37.5583 46.7588C36.9973 45.5747 36.5228 44.3603 36.2497 43.0776C36.0494 42.138 35.9446 41.1922 36.0299 40.2314C36.1947 38.375 36.8543 36.7288 38.1838 35.3648C39.0007 34.5268 40.0028 34.0067 41.1338 33.6952C42.1033 33.4282 43.0851 33.3318 44.0867 33.4401C44.5708 33.4924 44.9537 33.7271 45.2612 34.0834C45.6488 34.5325 45.8546 35.0689 45.9902 35.6304C46.3788 37.2398 46.7748 38.8482 47.0549 40.4806C47.111 40.8068 47.1639 41.1336 47.2161 41.4605C47.2756 41.8342 47.1671 42.1561 46.9013 42.4303C46.6037 42.7374 46.2479 42.9609 45.8543 43.1301C45.354 43.3452 44.8522 43.5573 44.353 43.7747C44.2544 43.8175 44.1613 43.8746 44.071 43.9329C43.8037 44.1062 43.7194 44.3438 43.759 44.6578C43.8576 45.4402 44.198 46.1357 44.5345 46.8343C45.4782 48.7934 46.6913 50.573 48.2362 52.1313C49.1739 53.077 50.2089 53.9099 51.3101 54.6663C51.6121 54.8738 51.9071 55.0914 52.2055 55.3042C52.5068 55.5191 52.8412 55.6656 53.1959 55.775C53.5441 55.8823 53.8352 55.7959 54.0942 55.5599C54.3449 55.3313 54.5386 55.0619 54.7053 54.7713C54.9849 54.2846 55.2951 53.8189 55.7246 53.4425C55.8376 53.3436 55.9589 53.2529 56.083 53.1675C56.3845 52.9601 56.714 52.9236 57.0635 53.0294C57.8929 53.2804 58.713 53.5523 59.5064 53.9033C60.4905 54.3383 61.4976 54.725 62.4768 55.1697C63.0258 55.4192 63.5503 55.7263 64.0652 56.0398C64.4953 56.3015 64.6954 56.7027 64.7009 57.2103C64.7113 58.1867 64.4664 59.1024 64.0417 59.9745C63.361 61.3732 62.3615 62.4928 60.9642 63.25C60.0813 63.7286 59.1259 63.9539 58.1222 63.996C57.9054 64.0051 57.6879 63.9972 57.4706 63.9972L57.4709 63.997Z" fill="#00B3DF"/>
<path d="M64.3805 46.8924C64.3805 47.041 64.381 47.1895 64.3805 47.3384C64.3787 47.805 64.0367 48.1534 63.5813 48.1527C63.129 48.1519 62.7931 47.7961 62.7923 47.3297C62.7868 44.7457 62.0463 42.388 60.4592 40.3124C58.7549 38.0834 56.4815 36.6827 53.7258 36.0152C53.3369 35.9209 53.086 35.6177 53.0889 35.2356C53.0915 34.8872 53.3466 34.5786 53.7141 34.5037C53.8291 34.4802 53.9593 34.481 54.0738 34.5075C58.5935 35.5478 62.352 38.7708 63.7777 43.3368C64.1395 44.4959 64.339 45.6813 64.3808 46.8926L64.3805 46.8924Z" fill="#00B3DF"/>
<path d="M59.6966 46.4044C59.6588 46.5961 59.6515 46.8199 59.568 47.012C59.4267 47.3375 59.0352 47.4998 58.6989 47.418C58.3179 47.3252 58.0717 47.0186 58.0787 46.6257C58.0956 45.6804 57.9123 44.7746 57.4882 43.9259C56.6379 42.2242 55.2442 41.1788 53.372 40.7295C53.0332 40.6482 52.8013 40.4609 52.7251 40.1245C52.65 39.7926 52.7692 39.522 53.0496 39.3242C53.2445 39.1868 53.4664 39.1613 53.6965 39.2108C56.7007 39.8548 58.9814 42.1631 59.5328 45.1284C59.6095 45.5402 59.6408 45.9602 59.6969 46.4044H59.6966Z" fill="#00B3DF"/>
<path d="M82.4656 58.1397C82.5683 57.6794 82.6425 57.1837 82.7184 56.7105C82.7905 56.2709 82.8388 55.8277 82.8631 55.3828C83.1399 54.6688 82.9469 54.4854 83.1343 53.5968C83.3133 53.1122 83.4619 52.6169 83.5795 52.1138C83.6468 51.7783 83.6931 51.4388 83.7181 51.0975C83.7449 50.616 83.6539 50.5726 83.5166 51.1635C83.6104 49.3367 83.5569 47.5053 83.3568 45.687L83.2651 45.1096L83.1469 44.5353C83.063 44.1552 82.9961 43.7708 82.8869 43.3925C82.752 42.9468 82.7005 42.4801 82.7352 42.0158C82.4852 41.1948 82.4293 40.899 82.356 40.5943L82.2412 40.057C82.1695 39.7349 82.0795 39.4171 81.9716 39.1052C81.9163 38.809 81.8227 38.5211 81.6931 38.249C81.5117 37.8349 81.2531 37.3281 80.9904 36.8175C80.7277 36.3068 80.4297 35.8219 80.1904 35.4301C80.0175 35.1709 79.8594 34.9022 79.7168 34.6252L79.8778 34.8713L79.2189 33.5834C79.1196 33.3786 79.0231 33.1789 78.9266 32.9819C78.8302 32.7849 78.722 32.5974 78.6204 32.4084C78.4157 32.0265 78.2216 31.6392 77.9721 31.2634C77.7242 30.8547 77.4504 30.4622 77.1522 30.0885C76.9323 29.809 76.711 29.5281 76.4884 29.2459C76.2553 28.9719 76.0144 28.7034 75.7747 28.4308L75.4133 28.0253L75.0296 27.6348C74.7678 27.3825 74.5215 27.1114 74.2544 26.8593C73.1851 25.8504 72.0474 24.9166 70.8493 24.0646C70.1633 23.5909 69.4618 23.1466 68.753 22.7289L68.628 22.6318C68.3281 22.4027 68.012 22.1501 67.6684 21.9206C67.3249 21.691 66.9796 21.4416 66.6186 21.1977C66.2575 20.9539 65.8664 20.7331 65.4802 20.4884C65.3837 20.4293 65.2897 20.3647 65.1893 20.3096C65.0889 20.2544 64.9898 20.1979 64.888 20.1415C64.6871 20.0286 64.4849 19.917 64.2748 19.8108C64.0648 19.7047 63.869 19.5784 63.6577 19.4763C63.4464 19.3742 63.2376 19.2667 63.0276 19.1632C61.3857 18.3413 59.6824 17.6481 57.9332 17.09C57.3539 16.7918 57.7819 16.6528 58.4812 16.632C58.6547 16.6275 58.8455 16.6293 59.0418 16.6363C59.1399 16.6398 59.2407 16.6459 59.3337 16.6575C59.4267 16.669 59.5303 16.6803 59.6259 16.6919C59.9519 16.7324 60.2743 16.7979 60.5903 16.8876C60.698 16.9081 60.8205 16.9377 60.9376 16.962C60.454 16.7562 59.96 16.5585 59.4726 16.3594L57.9825 15.8315L57.8292 15.7879L57.6748 15.751L57.3647 15.6759L56.7444 15.5282C56.534 15.4764 56.3263 15.4219 56.1228 15.3819L55.4951 15.2635L54.8674 15.1452C54.6519 15.0988 54.4485 15.0641 54.2386 15.0388L52.9737 14.8605C52.8049 14.8331 52.6325 14.8231 52.4612 14.8063L51.9475 14.7614L51.4325 14.7152C51.2626 14.6997 51.09 14.6843 50.9177 14.6796L49.8846 14.6389C49.7122 14.6341 49.5411 14.62 49.3742 14.6283L48.8534 14.6286L47.8187 14.6383L46.7822 14.6957L46.2685 14.721C46.0977 14.7281 45.9246 14.7538 45.7539 14.7689L44.721 14.8766L45.8389 14.7077L46.1203 14.6641C46.2129 14.6518 46.3068 14.6435 46.4061 14.6377L46.9708 14.5756C47.1505 14.5511 47.3342 14.5279 47.5207 14.5073L47.8065 14.4808L48.0857 14.4611C48.4642 14.4383 48.8535 14.4206 49.2442 14.4094C49.4402 14.4005 49.6377 14.4036 49.8379 14.4092L50.4385 14.426C50.6414 14.4342 50.843 14.4411 51.0472 14.4506C51.2515 14.4601 51.4573 14.4841 51.6631 14.5029C52.0746 14.5431 52.4914 14.5832 52.9112 14.6364C54.6389 14.8921 56.342 15.2931 58.0024 15.8351L59.3922 16.2403C59.5094 16.2726 59.6215 16.3129 59.7361 16.3506L60.0776 16.4689L60.7592 16.7042C61.2164 16.8509 61.6534 17.0456 62.1019 17.2176L62.7682 17.485C62.9886 17.5777 63.2039 17.6811 63.4217 17.7792C63.4698 17.7995 63.5138 17.8159 63.5606 17.8349C61.4212 16.7197 59.178 15.8163 56.8629 15.1377C52.4542 14.1185 47.8903 13.961 43.4225 14.6738C43.7975 14.6007 44.1684 14.521 44.5434 14.4531L45.6771 14.276C46.0863 14.1943 46.5096 14.1521 46.9407 14.1071C47.3719 14.0621 47.8109 14.0143 48.2614 14.0113L48.9423 13.9962L49.2867 13.9899C49.402 13.9891 49.5159 13.987 49.6326 13.9928C50.0959 14.0109 50.5649 14.0336 51.0399 14.0611C53.0118 14.2254 54.9625 14.586 56.8629 15.1377C58.927 15.6115 60.9456 16.2649 62.8959 17.0904C64.8132 17.9084 66.6602 18.8824 68.4182 20.0026L67.9964 19.6976C67.9238 19.6459 67.854 19.5942 67.7814 19.5425C67.7089 19.4908 67.6338 19.4445 67.5601 19.3968C67.2609 19.2022 66.9604 19.0063 66.6545 18.8078C66.4936 18.7048 66.3512 18.6067 66.1918 18.5155C66.0324 18.4244 65.8757 18.3331 65.7162 18.2393C65.3974 18.057 65.0781 17.8734 64.7584 17.6884C64.4293 17.5222 64.1015 17.3554 63.775 17.1883C63.446 17.0247 63.122 16.8531 62.7881 16.7134C62.1228 16.4261 61.4771 16.1266 60.825 15.904C55.7769 14.0466 50.3639 13.4001 45.0216 14.0164C44.3746 14.0746 43.7381 14.1923 43.0999 14.2875C42.7813 14.3318 42.4686 14.4024 42.1491 14.4639L41.2066 14.6588C40.8938 14.7294 40.5854 14.8146 40.2741 14.8918L39.8099 15.0117C39.6556 15.0529 39.4986 15.0889 39.3471 15.1381L38.4314 15.4186L37.9743 15.5608C37.8227 15.6073 37.6741 15.667 37.524 15.7201C35.1226 16.5576 32.8186 17.6519 30.6522 18.984C30.3933 19.1689 30.1493 19.3709 29.9024 19.5622C29.6555 19.7536 29.4061 19.9477 29.154 20.1418C28.9019 20.3359 28.6697 20.5336 28.4281 20.7222C28.1865 20.9108 27.9408 21.0956 27.7005 21.2829L26.8706 21.9659L26.4451 22.3129L26.0228 22.6864L25.1754 23.4308L24.3618 24.2076C24.2318 24.3425 24.0883 24.4644 23.957 24.598L23.567 25.0027C23.3071 25.2725 23.0471 25.5423 22.7871 25.8121L22.07 26.6455L21.7212 27.0534L21.3978 27.4728C21.7697 27.2381 20.9008 28.3154 20.9443 28.3756C20.8424 28.5219 20.7552 28.6798 20.66 28.8327L20.3733 29.2977L20.0786 29.763C20.0297 29.8407 19.9729 29.9213 19.9292 29.9963L19.788 30.2374C19.5979 30.5589 19.4012 30.8819 19.2032 31.2062L19.0528 31.4514L18.9131 31.7018L18.627 32.2066L18.3397 32.7101C18.2922 32.7945 18.2434 32.8775 18.196 32.9645L18.0618 33.2254L17.5248 34.2689C17.4326 34.4402 17.3512 34.6219 17.2698 34.8036L17.0149 35.3383C16.8507 35.7004 16.6747 36.0641 16.5359 36.4377C16.369 36.8621 16.3098 36.8155 16.0894 37.2171L15.9887 37.6403L15.8988 38.074C15.8397 38.3639 15.7759 38.6571 15.7073 38.9534C15.6756 39.1024 15.636 39.2489 15.6083 39.3991L15.5201 39.8553C15.4605 40.1603 15.3987 40.4675 15.3347 40.777L15.2847 41.0098L15.2533 41.2396L15.1708 41.7142L15.002 42.6754L14.8627 43.6572C14.8092 43.9828 14.7531 44.3112 14.7317 44.6548L14.6209 45.6666L14.5938 45.9215L14.5826 46.1708L14.5472 46.6856L14.5106 47.2018C14.5006 47.3742 14.4813 47.5482 14.4806 47.7218L14.4524 48.7639C14.4491 48.9402 14.4392 49.1153 14.4411 49.2888L14.4511 49.8187L14.471 50.8785L14.5398 51.9307L14.5735 52.4575C14.59 52.6321 14.6119 52.8066 14.6297 52.9799L14.7703 54.0467C14.826 54.4021 14.8923 54.7574 14.9507 55.1128L15.0416 55.6478C15.0728 55.8261 15.1145 56.0016 15.151 56.1798C15.2226 56.5349 15.2969 56.8927 15.3712 57.2504L15.1355 56.2039C15.0965 56.0284 15.0496 55.861 15.0223 55.6759L14.9314 55.1409C14.8717 54.7842 14.8093 54.4276 14.7561 54.0668L14.6297 52.9799C14.606 52.7776 14.5705 52.5768 14.5547 52.3717L14.4982 51.7631L14.4431 51.1559L14.4135 50.8517L14.3998 50.5471L14.3359 49.3332C14.323 48.9279 14.3314 48.5276 14.3197 48.1183C14.3199 47.9155 14.3121 47.7129 14.3176 47.5101L14.338 46.9028L14.3571 46.2969C14.3652 46.094 14.3693 45.8925 14.3894 45.6907L14.4846 44.4818C14.4954 44.2788 14.5248 44.0782 14.5475 43.8763L14.6263 43.2733C14.5572 43.7609 14.4709 44.2448 14.4364 44.7344L14.3653 45.4645C14.3433 45.7035 14.3213 45.9424 14.3087 46.1904C14.286 46.6758 14.258 47.1614 14.2406 47.644L14.2386 49.0911C14.2794 51.0028 14.473 52.9082 14.8174 54.7892C14.907 55.2553 14.9808 55.727 15.1007 56.1833L15.2648 56.8774C15.3195 57.107 15.3702 57.3406 15.4394 57.5659C15.5699 58.022 15.6964 58.4795 15.8308 58.9342L16.2842 60.2842C16.9309 62.0818 17.7187 63.8256 18.6403 65.4991C19.5155 67.0912 20.5329 68.601 21.6801 70.0099C22.8008 71.3918 24.0323 72.6801 25.3621 73.8621C26.681 75.0118 28.084 76.0612 29.5596 77.0013C31.0296 77.9143 32.5638 78.7197 34.1501 79.4111C36.7007 80.5271 39.3491 81.4044 42.0614 82.0317C41.8121 82.0204 41.5627 82.009 41.3147 81.9963L41.9444 82.1531C42.1561 82.2035 42.3661 82.2368 42.5776 82.2793L43.2106 82.3976L43.5336 82.4486C43.6386 82.4692 43.7517 82.4923 43.8538 82.4971L45.1304 82.6632C45.343 82.6938 45.5566 82.7071 45.7716 82.7243L46.4139 82.7708C46.6288 82.7855 46.8438 82.8027 47.06 82.8133L47.7083 82.8266L48.3591 82.8372L48.6852 82.8419L49.0136 82.8305L50.3285 82.7786L51.658 82.6575C51.9822 82.6317 52.2992 82.5782 52.6243 82.5325C53.5417 82.4123 54.4314 82.229 55.3066 82.05L56.6007 81.7361C56.8184 81.6857 57.0226 81.6223 57.2322 81.5642L57.857 81.3857L58.1707 81.2952L58.3289 81.2499L58.4816 81.1967L59.0978 80.9867L59.7114 80.7793L59.8642 80.7262L60.0141 80.6677L60.3153 80.5496L60.9165 80.3146L61.2165 80.1978C61.3165 80.1589 61.4112 80.1253 61.5123 80.0745L62.6872 79.552C64.2526 78.8164 65.766 77.9749 67.2169 77.0334C68.7253 76.0374 70.1569 74.93 71.4999 73.7202L72.0052 73.2498C72.1745 73.093 72.3438 72.9362 72.4997 72.7664L73.4615 71.7682L74.3668 70.7206C74.4461 70.6383 74.5186 70.5469 74.5911 70.4581L74.806 70.1865L75.2372 69.6498C75.6492 69.0817 75.4293 69.156 75.2833 69.1401C75.2248 69.1333 75.1807 69.1142 75.1886 69.0359C76.7176 67.6166 78.0991 66.0463 79.3118 64.3488C80.6756 62.4534 81.7393 60.3592 82.4656 58.1397ZM63.1549 19.7307C63.2832 19.7893 63.4448 19.8566 63.6294 19.9486L64.2517 20.2724L64.9985 20.6642C65.261 20.8131 65.5344 20.9778 65.8199 21.1461C65.9449 21.2198 66.0709 21.2943 66.1978 21.3698C65.6148 21.0942 65.0331 20.839 64.4527 20.604L63.6479 20.0887C63.5137 19.9984 63.3732 19.9228 63.2352 19.8418C63.0972 19.7609 62.9578 19.6813 62.8198 19.6003C62.7797 19.5799 62.8998 19.6254 63.1549 19.7307ZM54.2881 17.3184C54.7039 17.3983 55.1162 17.4773 55.5249 17.5555C55.6273 17.5735 55.7285 17.5981 55.8296 17.6228C55.9308 17.6474 56.0387 17.6759 56.1318 17.6928C56.334 17.7368 56.535 17.7821 56.7359 17.8275C56.9369 17.8728 57.1376 17.9076 57.3347 17.9596C57.5318 18.0117 57.7288 18.0584 57.9258 18.1052C58.1228 18.1519 58.3198 18.1986 58.5154 18.2414L58.8108 18.3049C58.9079 18.3283 59.0052 18.3544 59.1011 18.3791C59.3668 18.4435 59.6288 18.5223 59.886 18.6152C60.0341 18.6668 60.1875 18.721 60.3463 18.7803C60.5051 18.8397 60.6629 18.9163 60.8285 18.9849C61.1532 19.1286 61.4913 19.2775 61.824 19.4238C62.1567 19.5701 62.4713 19.7379 62.7746 19.8741L63.1844 20.0323C63.3232 20.0854 63.4647 20.1411 63.6025 20.2061L64.4446 20.5962C64.0854 20.4504 63.7277 20.3112 63.3715 20.1865C63.2604 20.3396 64.4821 20.5439 64.4484 20.7976C63.4968 20.4113 62.5285 20.0566 61.5436 19.7337L60.8436 19.4338C60.2087 19.1473 59.542 18.9236 58.8827 18.676C56.9426 18.0934 54.958 17.6715 52.9488 17.4145L53.6318 17.516L53.9761 17.5693C54.0904 17.5884 54.2049 17.6155 54.3179 17.6386C54.7703 17.7336 55.2238 17.8194 55.6709 17.9225C56.1181 18.0256 56.5564 18.1461 56.9918 18.2587C57.1023 18.2845 57.2089 18.3197 57.3169 18.3509L57.6367 18.4484L58.2724 18.6394C58.3777 18.6706 58.4776 18.6967 58.5869 18.7344C58.6963 18.7722 58.7923 18.8049 58.8963 18.84L59.5046 19.0515L60.1048 19.2578C60.2342 19.3045 60.3611 19.3538 60.4852 19.4032C60.3307 19.3584 60.1787 19.3108 60.0242 19.2686C58.5077 18.8454 56.9543 18.5681 55.3852 18.4406L54.5131 18.2949C54.2354 18.2536 53.9961 18.2129 53.8604 18.1863C53.6837 18.1685 53.5062 18.1607 53.3286 18.1629L53.2435 18.1459C52.9483 18.0904 52.6517 18.0335 52.3592 17.9832L51.4625 17.8632C51.1584 17.8303 50.8646 17.7787 50.5634 17.7617C48.1724 17.53 45.7609 17.6335 43.3988 18.0692L42.4437 18.2988L41.9437 18.4153C41.7762 18.4568 41.6008 18.501 41.4361 18.5531C41.0893 18.6429 40.7412 18.7341 40.3813 18.8375L39.3196 19.1749L39.0509 19.2594L38.785 19.357L38.252 19.5537L37.7177 19.7516C37.5414 19.8184 37.3693 19.8998 37.1945 19.9732L36.6726 20.1988L36.4137 20.3109L36.2849 20.3662L36.1588 20.4295L35.161 20.9248C35.1107 20.9717 35.063 21.0212 35.0181 21.0732C34.8195 21.1577 34.6265 21.25 34.4307 21.3397C34.2697 21.4447 34.11 21.551 33.953 21.6599L33.7398 21.8082C33.6744 21.8545 33.617 21.9033 33.5647 21.9413L32.6006 22.5341C32.4342 22.6339 32.2812 22.7466 32.1229 22.8542L31.6507 23.1796C31.4937 23.2885 31.3327 23.3935 31.1797 23.5063L30.7264 23.8498L30.273 24.1934L30.0457 24.3672L29.8265 24.5488L28.947 25.2805L28.0949 26.0541C27.8093 26.2991 27.5391 26.5877 27.2606 26.8578L26.8442 27.2656C26.7143 27.4005 26.5752 27.5449 26.4387 27.6865L25.9058 28.3098L25.8007 28.4323L25.6946 28.5641C25.622 28.6538 25.5455 28.744 25.4651 28.8347C25.3056 29.0192 25.1341 29.2052 24.9627 29.3912C24.7913 29.5772 24.6279 29.771 24.4684 29.9555C24.3089 30.1399 24.1651 30.3162 24.0356 30.4749L24.6248 29.7419L24.7684 29.5604C24.8217 29.5051 24.875 29.4498 24.9189 29.3854L25.2224 29.0379C25.4235 28.8076 25.6178 28.5708 25.8216 28.3458L26.4413 27.6838C27.5271 26.4099 28.7123 25.2242 29.9857 24.1377C30.3082 23.884 30.6322 23.6316 30.964 23.3764C31.1271 23.2449 31.3066 23.1342 31.4806 23.0131L32.0145 22.6562L32.2881 22.4775C32.3797 22.4175 32.4768 22.3654 32.5725 22.3093L33.1546 21.9753L33.4562 21.8081C33.5572 21.7519 33.6596 21.6971 33.766 21.6487L34.4123 21.3454C34.5983 21.2218 34.7923 21.1107 34.9931 21.0127L35.148 20.9357C35.4322 20.6847 35.7427 20.4648 36.0739 20.28C36.1748 20.2193 36.2791 20.1643 36.3862 20.1152C36.4951 20.0615 36.6068 20.0078 36.7237 19.954C36.9575 19.8464 37.1992 19.7306 37.4636 19.6264C37.728 19.5222 37.9992 19.4298 38.2729 19.3267L38.6956 19.1824C38.8391 19.1334 38.9826 19.0844 39.129 19.046L40.0097 18.8072C40.1561 18.7687 40.301 18.7263 40.4462 18.6919L40.887 18.5963C40.4817 18.5388 41.7092 18.348 41.7223 18.1994C42.4706 17.963 43.2381 17.7687 43.9982 17.5984C44.124 17.5922 44.2524 17.5832 44.3767 17.5703L44.7248 17.4791C44.8462 17.4504 44.9743 17.4281 45.1077 17.4005C45.3704 17.3493 45.657 17.2977 45.9543 17.2512C46.2623 17.2026 46.5726 17.17 46.884 17.1533C47.2016 17.1316 47.5247 17.115 47.8466 17.1105C49.5414 17.099 51.2351 17.199 52.9169 17.4098C51.2261 17.1621 49.5175 17.056 47.8091 17.0926C47.2247 17.1122 46.652 17.1492 46.0912 17.2036C47.0844 17.0464 48.0852 16.941 49.0894 16.8876C50.8341 16.8539 52.5777 17.0014 54.2922 17.3276L54.2881 17.3184ZM44.0391 18.9281C44.3625 18.8626 44.6886 18.7943 45.0107 18.7301L45.999 18.5742C46.0729 18.5596 46.1483 18.5516 46.2275 18.5342C46.5363 18.5144 46.8452 18.499 47.1542 18.4881C47.2562 18.4849 47.3609 18.4843 47.4642 18.4824L47.2752 18.5084C47.2357 18.525 47.1568 18.553 47.0581 18.5879C46.0479 18.6536 45.0417 18.7702 44.0433 18.9373L44.0391 18.9281ZM46.016 18.986L45.8779 19.0402L45.1809 19.1126L46.016 18.986ZM41.5073 21.1451C41.2923 21.1981 41.0864 21.2416 40.8754 21.2958C40.8864 21.2634 40.906 21.2347 40.9321 21.2126L40.7698 21.3163C39.7944 21.5661 38.8323 21.865 37.8872 22.2119C36.0499 22.9548 34.3352 23.9704 32.8009 25.2244L32.6398 25.3294L32.2477 25.6149C31.9889 25.8078 31.7261 25.9968 31.4714 26.1936L30.7236 26.8076C30.4703 27.0084 30.2373 27.2313 30.0002 27.4477L29.6445 27.7735L29.4687 27.9371L29.301 28.1111L28.6355 28.8018C28.5251 28.9164 28.4146 29.0311 28.3162 29.1575L28.005 29.5183L27.695 29.8778C27.5858 29.9911 27.5009 30.1278 27.4026 30.2515L26.8323 31.0028C26.6142 31.3129 26.3203 31.6827 26.0196 32.0407C25.9377 32.1256 25.8746 32.2235 25.8048 32.3149L25.5978 32.5837C25.4646 32.7598 25.3379 32.9264 25.2281 33.0782L25.7502 32.2337C25.8337 32.0931 25.9252 31.9576 26.0168 31.8247L26.2863 31.4236C26.6325 30.8805 27.0261 30.3857 27.3953 29.8647C27.588 29.6134 27.7941 29.3698 27.9949 29.121L28.2993 28.7483C28.411 28.6323 28.5147 28.5085 28.6251 28.3885C28.8433 28.1486 29.0626 27.9048 29.2927 27.666C29.5228 27.4272 29.7716 27.2014 30.0203 26.9649C30.1164 26.8651 30.2139 26.764 30.3222 26.6732L30.6377 26.3944L31.2817 25.8314L31.9635 25.2994L32.3083 25.0333C32.4245 24.9424 32.5476 24.8633 32.6666 24.7803L33.4034 24.2858C33.5237 24.1988 33.6535 24.1261 33.7779 24.0483L34.1605 23.8161C34.666 23.4967 35.2029 23.2232 35.7369 22.9391C35.8038 22.9047 35.8694 22.8664 35.939 22.8347L36.1439 22.7382L36.5563 22.5451L36.9715 22.352C37.0398 22.3215 37.1094 22.2871 37.1791 22.258L37.3908 22.1707L38.2404 21.8291C38.3115 21.8013 38.3825 21.7709 38.4548 21.7444L38.6708 21.6688L39.1052 21.5177L39.5384 21.368C39.6108 21.3442 39.6832 21.3177 39.757 21.2951L39.9757 21.2302L40.8587 20.9728L41.0788 20.9091L41.2979 20.8601L41.7438 20.7538L42.1884 20.6463L42.4074 20.5972L42.55 20.5708C42.1414 20.7571 42.0304 20.9155 42.319 20.8294C42.0966 20.9117 41.8812 21.0137 41.6643 21.1064L41.735 21.0627L41.5073 21.1451ZM28.036 65.3097L28.3171 65.7445C28.19 65.6064 28.079 65.4838 27.9627 65.3588C27.8464 65.2337 27.7432 65.1004 27.6361 64.9738C27.529 64.8473 27.4207 64.722 27.3123 64.5968L27.1484 64.4077C27.0877 64.3492 27.0439 64.2758 26.9909 64.2091C26.7832 63.9413 26.5686 63.6643 26.3377 63.3637C26.1068 63.0632 25.8962 62.7172 25.6493 62.3414C25.3089 61.7169 24.9372 61.1897 24.636 60.6757C24.5555 60.5487 24.4789 60.4229 24.4024 60.2997C24.3655 60.2381 24.3259 60.1765 24.2916 60.1149C24.2573 60.0532 24.2243 59.9902 24.1913 59.9272C24.0595 59.6805 23.9448 59.4295 23.8342 59.1877C23.1182 57.5646 22.5678 55.8734 22.1916 54.1399C21.851 52.5579 21.601 50.9578 21.443 49.3473C21.5107 49.593 21.554 49.8448 21.5724 50.099L21.5935 50.304C21.5987 50.3715 21.6118 50.4362 21.621 50.4996C21.6406 50.6251 21.6546 50.7349 21.6816 50.8338C21.7187 50.9736 21.7532 51.1187 21.7838 51.2679C21.8145 51.417 21.8401 51.5822 21.8881 51.7403C21.9606 52.0703 22.033 52.4003 22.1115 52.7672C22.1899 53.1342 22.2869 53.5008 22.371 53.8862C22.4092 54.0816 22.4658 54.274 22.5172 54.4718C22.5686 54.6697 22.6227 54.8675 22.6742 55.0679C22.7013 55.1695 22.723 55.2711 22.7554 55.3726L22.8485 55.673L23.0389 56.2857C23.0727 56.3884 23.0998 56.4926 23.1361 56.5927L23.2465 56.8941L23.4646 57.4996C23.5319 57.6998 23.6153 57.905 23.705 58.0955C23.7947 58.286 23.8714 58.4874 23.9559 58.6806C24.0403 58.8739 24.134 59.063 24.2276 59.2494C24.3212 59.4359 24.4147 59.617 24.5082 59.7982L24.5951 59.9781C24.6267 60.0372 24.6622 60.0948 24.6898 60.15C24.7569 60.2667 24.8267 60.3834 24.8938 60.5001L25.0992 60.8515C25.1689 60.9681 25.2348 61.0862 25.3138 61.1987L25.7533 61.8823C25.8296 61.9949 25.8967 62.1116 25.9769 62.2201C26.0572 62.3286 26.1308 62.4386 26.2084 62.5498C29.0526 66.7582 33.0285 70.077 37.6772 72.1231C37.9203 72.2247 38.1635 72.3315 38.4185 72.4342C38.4813 72.4609 38.5441 72.4876 38.6055 72.5103C38.6669 72.533 38.7335 72.5556 38.7989 72.5796L39.1324 72.6981C39.1527 72.7176 39.1743 72.7384 39.2049 72.7471C39.3875 72.871 39.558 72.9911 39.7233 73.1139C39.6953 73.1025 39.6686 73.0924 39.6406 73.0837C39.4484 73.013 39.2537 72.945 39.0481 72.8639L38.7465 72.7529C38.6451 72.715 38.5505 72.6862 38.4435 72.6352C38.2445 72.55 38.0454 72.4649 37.8437 72.3772L37.5405 72.2515C37.4403 72.207 37.3362 72.1691 37.2372 72.118C36.9086 71.9809 36.5677 71.8215 36.2147 71.653C36.1264 71.6096 36.042 71.5621 35.9563 71.5107C35.8705 71.4592 35.7888 71.4144 35.6977 71.3604L35.171 71.048C34.9915 70.9453 34.8183 70.8252 34.6438 70.7065C34.4693 70.5878 34.2896 70.4718 34.1111 70.3519C34.0225 70.2925 33.93 70.2372 33.8427 70.1739C33.7554 70.1106 33.6654 70.0473 33.5781 69.984C33.4008 69.8573 33.2208 69.7308 33.0396 69.6082C32.9687 69.5566 32.8939 69.5105 32.8158 69.4705C32.747 69.4294 32.676 69.3922 32.603 69.3591C32.4694 69.3006 32.3642 69.2747 32.338 69.2938C32.1194 69.0831 31.8908 68.9071 31.682 68.7267C31.4732 68.5463 31.2764 68.3644 31.0771 68.1984L30.7877 67.9586C30.6973 67.8715 30.5991 67.7924 30.5074 67.7093C30.3188 67.5458 30.1329 67.3849 29.9403 67.2175L29.7975 67.0955L29.6625 66.9655C29.5735 66.8797 29.4844 66.7938 29.3926 66.7054C29.2131 66.5324 29.0296 66.3556 28.8407 66.1735C28.6517 65.9915 28.4861 65.7799 28.3045 65.5659C28.2137 65.4602 28.1202 65.3519 28.0293 65.2356C27.9383 65.1194 27.8552 64.9977 27.7667 64.8734C27.8675 65.02 27.9552 65.1747 28.0401 65.3189L28.036 65.3097ZM25.6547 66.2253C25.5921 66.1417 25.5283 66.0593 25.4658 65.9757C25.4032 65.892 25.368 65.8503 25.3217 65.7848L25.1869 65.5899L24.9798 65.2889L25.054 65.3604C25.1779 65.4928 25.3085 65.6186 25.4454 65.7375C25.5655 65.8532 25.6917 65.9411 25.8032 66.0198C25.8252 66.2023 25.7719 66.2603 25.6588 66.2345L25.6547 66.2253ZM35.6234 70.2248C35.5551 70.1902 35.4856 70.157 35.4187 70.1212C35.3517 70.0853 35.2874 70.0441 35.2204 70.0055C34.9511 69.8501 34.679 69.6842 34.4013 69.5051C34.1729 69.337 33.9431 69.1703 33.7148 69.0048L33.3708 68.7541L33.0425 68.4871L32.3858 67.9558C32.1742 67.7675 31.9653 67.5819 31.7564 67.3936C31.6552 67.296 31.5435 67.2093 31.4423 67.1118L31.14 66.8205L30.8377 66.5292L30.6906 66.3874C30.6393 66.338 30.5894 66.2899 30.5395 66.2418C30.1593 65.826 29.7648 65.4251 29.4228 64.9941L29.1531 64.6744L29.0202 64.5152C28.9703 64.467 28.9346 64.4041 28.8912 64.3492C28.7241 64.1284 28.5543 63.9075 28.3871 63.6866C28.345 63.6304 28.3016 63.5756 28.2608 63.5206L28.1436 63.3479L27.9065 63.005C27.7512 62.7773 27.5867 62.5537 27.4457 62.3138L27.007 61.6076C26.8648 61.3717 26.7356 61.1249 26.5986 60.8863L26.3957 60.5242C26.3311 60.4022 26.2717 60.2774 26.2098 60.1526L25.8381 59.4121C23.9563 55.3854 23.1562 50.9384 23.5165 46.5093C23.5084 46.1477 23.5027 45.7728 23.5034 45.3859C23.5041 44.9989 23.5496 44.6032 23.5804 44.1958C23.5323 44.4591 23.4817 44.7277 23.4259 44.999C23.3993 45.1347 23.3661 45.2717 23.3409 45.4113L23.2706 45.8327C23.2269 44.1892 23.4205 42.5482 23.8456 40.9602C24.3292 39.1297 25.0386 37.3664 25.9573 35.7111C26.0659 35.4958 26.1973 35.2919 26.3206 35.0856L26.6946 34.4652C26.7536 34.3608 26.8259 34.264 26.8916 34.1634L27.0928 33.8656C27.2282 33.6683 27.3596 33.4698 27.4964 33.2738L27.9231 32.7068L28.1338 32.4259L28.2385 32.2849L28.3499 32.1503L28.7944 31.6161L29.0134 31.351C29.0914 31.2701 29.1707 31.1878 29.2406 31.0991C30.342 29.8748 31.5305 28.7317 32.7966 27.6787C32.9584 27.5458 33.1216 27.4143 33.2888 27.284C32.5923 27.8772 32.468 28.1763 31.5997 28.9343L31.674 28.9382C29.3855 31.4647 27.5975 34.4028 26.4049 37.5965C25.1936 40.8313 24.5888 44.2617 24.6205 47.7162C24.6674 48.8722 24.7994 50.0451 24.9555 51.2283C25.13 52.4214 25.3668 53.6047 25.6648 54.7733C25.966 55.9516 26.3365 57.1112 26.7742 58.246C27.2169 59.3714 27.7306 60.4676 28.3121 61.528C28.9437 62.672 29.6506 63.7729 30.428 64.8233C30.8327 65.3433 31.2203 65.8755 31.6549 66.3645C31.8689 66.6123 32.0764 66.8643 32.2956 67.1041L32.9635 67.8101C33.7966 68.6829 34.6858 69.5006 35.6253 70.2578L35.6234 70.2248ZM34.0882 26.1708L33.8055 26.3642C33.6708 26.4581 33.532 26.5481 33.3987 26.6459L33.0041 26.9447L32.6082 27.2448L32.411 27.3955L32.2205 27.5554L31.4533 28.1922L30.7106 28.8658C30.4563 29.0838 30.2264 29.3305 29.983 29.5668L29.6213 29.9207C29.503 30.0434 29.3847 30.1662 29.2664 30.289L28.8022 30.8328L28.7048 30.934L28.6128 31.0483C28.5439 31.1198 28.4832 31.2044 28.4118 31.2839C28.2731 31.4441 28.1237 31.6072 27.9744 31.7703C27.8251 31.9334 27.6825 32.1029 27.545 32.2618C27.4075 32.4207 27.2806 32.5741 27.1679 32.7127L27.678 32.0778L27.8023 31.9192C27.8491 31.8706 27.8959 31.8221 27.9346 31.7657L28.1979 31.4627C28.3744 31.2634 28.5441 31.0575 28.7206 30.8608L29.261 30.2838C30.2072 29.1727 31.2406 28.139 32.3515 27.1925C32.6323 26.9714 32.9143 26.7489 33.2043 26.5289C33.3505 26.4096 33.5012 26.3181 33.6529 26.2119L34.1189 25.9013L34.3584 25.7445L34.4803 25.672L34.0882 26.1708ZM34.5618 25.6387L34.6155 25.6073L34.7113 25.5538C34.7556 25.5835 34.851 25.5115 34.8595 25.5405C34.8 25.6184 34.7182 25.7114 34.6299 25.8084C34.4989 25.885 34.376 25.9747 34.2491 26.0605C34.3189 25.9665 34.4314 25.8173 34.5646 25.6466L34.5618 25.6387ZM29.6599 33.8106C29.747 33.7202 29.8126 33.6143 29.8969 33.5187L30.1628 33.213C30.2564 33.1159 30.3378 33.007 30.422 32.9035C29.9111 33.7388 29.4464 34.6015 29.0301 35.4878L29.0994 35.2944C29.3146 34.7604 29.4959 34.2535 29.655 33.8319L29.6599 33.8106ZM30.276 32.4662C30.3709 32.3677 30.4658 32.2692 30.5593 32.1721C30.7465 31.9779 30.9311 31.7863 31.1023 31.5871L31.643 31.0259L31.8315 30.8303C31.5299 31.2334 31.2377 31.6455 30.9549 32.0668C30.5607 32.476 30.1847 32.8994 29.8272 33.3371C29.8855 33.1719 29.9285 33.0016 29.9555 32.8285L30.8099 31.4016L31.5486 30.2352C31.8016 29.8728 32.0504 29.5064 32.3358 29.1077C32.6414 28.7284 32.9633 28.2971 33.3865 27.8308C33.0902 27.9979 33.4828 27.5256 33.8261 27.1046C34.0631 26.8127 34.2746 26.5716 34.2319 26.5591C34.3601 26.4693 34.4883 26.3821 34.6192 26.2949C34.6099 26.423 34.5865 26.5496 34.5495 26.6725C34.4484 27.0772 34.3566 27.4805 35.1012 26.8427C34.7301 27.0469 34.7471 26.9644 34.9379 26.7555C35.2144 26.4606 35.5093 26.1835 35.8208 25.9257C35.9295 25.9264 36.2853 25.7516 36.8036 25.4081C37.2295 25.0796 37.0177 25.1644 37.0715 25.0653C37.3405 24.9239 37.8224 24.6183 37.8195 24.7455C38.0967 24.4092 38.4207 24.443 38.8099 24.139C38.8645 24.0824 38.9064 24.0551 38.9272 24.0335C39.3086 23.8807 39.6981 23.7358 40.0944 23.5973C37.1509 25.2498 34.5477 27.4455 32.4227 30.0681L31.9409 30.5195C31.8512 30.6126 31.7616 30.7057 31.6732 30.7974L31.4132 31.0672C31.2377 31.2493 31.0636 31.4301 30.9095 31.6224C30.592 32.0059 30.2729 32.3695 30.0046 32.7614L30.276 32.4662ZM39.3381 20.0903L39.3592 20.082L39.9664 19.8866C39.7569 19.9501 39.5476 20.0242 39.3368 20.0943L39.3381 20.0903ZM43.0787 20.8513C42.9394 20.9095 42.7828 20.9693 42.6209 21.0266C42.2801 21.0885 41.9409 21.1588 41.6031 21.2374C42.1094 21.0983 42.6013 20.9713 43.0748 20.8527L43.0787 20.8513ZM42.4141 20.9549C42.7319 20.8709 43.0524 20.7895 43.3454 20.7284C43.2943 20.7572 43.2326 20.7862 43.1669 20.8165C42.9146 20.8622 42.6637 20.9092 42.4129 20.9589L42.4141 20.9549ZM38.0536 15.9728L38.1787 15.932C38.3761 15.8622 38.5632 15.8031 38.7555 15.7413L38.171 15.9481L38.0209 15.9986L38.0536 15.9728ZM22.4377 29.9238C22.5353 29.7577 22.6437 29.602 22.7416 29.4544L23.0497 28.9943C23.4474 28.3708 23.8952 27.7981 24.324 27.2071C24.5452 26.9182 24.7798 26.6396 25.0116 26.3531L25.3614 25.9253C25.4914 25.7904 25.6119 25.6464 25.7378 25.5076C25.9978 25.2378 26.2416 24.9524 26.5015 24.6826C26.7615 24.4128 27.0507 24.1478 27.3345 23.8776C27.445 23.7629 27.5581 23.6455 27.682 23.5439L28.0444 23.2218L28.7823 22.5776L29.5646 21.9682L29.9617 21.6615C30.0949 21.5583 30.2364 21.4683 30.3737 21.3717L31.2097 20.7985C31.3496 20.6992 31.4978 20.6156 31.6419 20.5255L32.0808 20.2591C32.6597 19.8933 33.2714 19.5853 33.8879 19.2533C33.9654 19.2135 34.0414 19.1697 34.1189 19.1325L34.3554 19.0221L34.8283 18.8014L35.3025 18.5794C35.3813 18.5435 35.4601 18.5049 35.5403 18.4703L35.7836 18.3718L36.7581 17.9763C36.8397 17.9456 36.9199 17.911 37.0041 17.8803L37.2516 17.7936L37.7492 17.6202L38.2469 17.4494C38.3299 17.4201 38.4128 17.3907 38.4958 17.364L38.7488 17.2905L39.7597 16.995C39.8454 16.9709 39.9283 16.9442 40.0141 16.9227L40.2687 16.8611L40.7805 16.7378L41.291 16.6158C41.3768 16.597 41.4612 16.5742 41.5457 16.5568L41.8045 16.507L42.5301 16.3373L42.8916 16.2512L43.071 16.2082L43.2519 16.1743C43.7764 16.0866 44.2613 16.0127 44.7255 15.9658C45.1898 15.9189 45.6336 15.9147 46.0641 15.9028C46.1977 15.8885 46.3287 15.8821 46.4624 15.8756L46.2232 15.9052C47.517 15.9292 48.7352 16.0208 50.2624 16.1943L50.7268 16.1606L50.6472 16.3674C48.5904 16.425 46.4073 16.465 44.1843 16.7112C41.9457 16.9285 39.7438 17.4293 37.6316 18.2014L37.1237 18.391L36.6254 18.6028C36.2915 18.7468 35.9535 18.8815 35.6211 19.0321C34.9631 19.3476 34.2942 19.6447 33.6514 19.9957L33.1633 20.2538C33.082 20.2977 33.0006 20.339 32.9206 20.3841L32.6821 20.5263L31.7294 21.0911C31.5681 21.1828 31.4178 21.2929 31.2619 21.3925L30.7986 21.6978L30.3352 22.0058C30.181 22.1173 30.0294 22.2314 29.8869 22.3334C29.5902 22.5548 29.2882 22.7711 28.9915 22.9925L28.1328 23.6973C27.8378 23.9333 27.5761 24.1832 27.3025 24.4321L26.8974 24.8065L26.6942 24.9931L26.5018 25.1928L25.7389 25.9846C25.6089 26.1195 25.4854 26.2477 25.3715 26.3929L25.0149 26.8062L24.6595 27.2209C24.5296 27.3558 24.4356 27.5046 24.3243 27.6471L23.6713 28.5085C23.4157 28.8683 23.083 29.2891 22.7421 29.6943C22.6498 29.79 22.5765 29.904 22.4962 30.0062L22.2595 30.3167C22.107 30.5182 21.9621 30.709 21.8355 30.8836L22.4377 29.9238ZM22.2955 68.9093C22.1874 68.8647 22.086 68.8055 21.994 68.7333C21.85 68.6286 21.7145 68.5128 21.5886 68.3869C21.2917 68.1008 20.9398 67.7097 20.5534 67.2437C20.3687 67.0059 20.1744 66.7511 19.9813 66.487C19.882 66.3497 19.78 66.2124 19.6767 66.0712C19.5733 65.9299 19.483 65.7779 19.3834 65.6273C19.1882 65.3248 18.9902 65.0117 18.7881 64.6921C18.5859 64.3725 18.4166 64.0323 18.2314 63.6978C18.1367 63.526 18.0382 63.3581 17.9581 63.19L17.7021 62.6832C17.6207 62.5111 17.538 62.3403 17.4566 62.1709C17.3753 62.0014 17.294 61.8346 17.2258 61.6623C16.9467 60.9823 16.6629 60.3395 16.478 59.7373C16.3757 59.4384 16.2816 59.1552 16.1919 58.8945C16.1022 58.6337 16.0484 58.3843 15.9822 58.1721C15.3805 55.8515 14.9804 53.4833 14.7864 51.094L14.7581 50.8533L14.747 50.619L14.7223 50.1503L14.6742 49.209L14.6644 48.2657C14.6638 47.9503 14.6499 47.6352 14.6666 47.3235L14.6953 46.3834C14.7003 46.227 14.7027 46.0706 14.7117 45.9154L14.7453 45.4483L14.8127 44.5195C14.8179 44.4438 14.8217 44.3669 14.8374 44.2831L14.8661 44.0507L14.9185 43.5939C15.1754 43.3003 15.309 43.4291 15.3492 43.8762C15.3693 44.0985 15.3591 44.4061 15.3608 44.7771C15.3625 45.1481 15.3272 45.5953 15.3008 46.098C15.295 46.3526 15.2932 46.611 15.2761 46.8989L15.259 47.3299C15.2538 47.4757 15.238 47.6218 15.2449 47.7793L15.2403 48.7322L15.2287 49.2413C15.2372 49.4125 15.244 49.5855 15.249 49.7603L15.2838 50.8344L15.3685 51.9566C15.3839 52.1458 15.3915 52.3378 15.4203 52.5267L15.4869 53.1112L15.5589 53.7009L15.5963 53.9971C15.6114 54.0949 15.6291 54.1926 15.6391 54.2984L15.8445 55.4979C15.9222 55.898 16.0159 56.2978 16.1043 56.7003C16.1926 57.1029 16.3008 57.4984 16.4076 57.8953C16.5145 58.2923 16.62 58.6905 16.7558 59.0763C16.8916 59.4621 17.0154 59.8467 17.1446 60.2313L17.5816 61.347L17.6901 61.6207C17.7276 61.7114 17.7731 61.8046 17.8091 61.8888C17.8902 62.0658 17.9704 62.2419 18.0496 62.4171C18.2112 62.7653 18.3622 63.111 18.5418 63.4351C18.7215 63.7591 18.8853 64.0807 19.054 64.389C19.2228 64.6974 19.4072 64.9895 19.586 65.2685C19.9079 65.7959 20.2572 66.3062 20.6325 66.7971C20.7194 66.9103 20.8036 67.0201 20.8851 67.1264C20.9706 67.2295 21.0572 67.3286 21.1412 67.4251C21.3064 67.6138 21.4688 67.791 21.6283 67.9568C21.7702 68.1091 21.9202 68.2537 22.0777 68.3899C22.2204 68.5118 22.3671 68.6297 22.4892 68.7136C22.5301 68.9143 22.4504 68.9754 22.2903 68.9147L22.2955 68.9093ZM42.7294 77.6624L42.428 77.6321C42.2276 77.6159 42.03 77.605 41.8468 77.5924C41.6637 77.5799 41.4901 77.5764 41.3426 77.554C41.2173 77.5392 41.0933 77.5154 40.9715 77.4826C40.772 77.4438 40.5658 77.4012 40.3543 77.3561L40.0349 77.2851C39.9284 77.2605 39.8271 77.2306 39.7152 77.1955L39.0569 77.0009L38.7224 76.8997C38.6651 76.8808 38.6078 76.8647 38.5518 76.8471L38.385 76.7853C38.1595 76.7033 37.9378 76.6146 37.7031 76.5341L37.3575 76.4065C37.2427 76.3636 37.1253 76.3233 37.0117 76.2711C36.7833 76.1732 36.5471 76.0835 36.3224 75.9763C36.2076 75.928 36.0913 75.8785 35.9738 75.8303C35.8563 75.7821 35.7415 75.7365 35.6277 75.6789C35.2538 75.5268 34.8581 75.3379 34.4581 75.1398C34.3565 75.0914 34.26 75.0348 34.1622 74.977C34.0644 74.9191 33.9653 74.8626 33.8648 74.8048C33.6664 74.6866 33.4641 74.5671 33.2604 74.4462C33.0567 74.3254 32.8567 74.1899 32.6554 74.0558C32.4541 73.9217 32.2501 73.7849 32.0448 73.6496C31.9428 73.5799 31.837 73.5169 31.7294 73.4367C31.6219 73.3565 31.5279 73.292 31.4231 73.2144C31.219 73.0697 31.0135 72.9264 30.8001 72.7806C30.7189 72.7213 30.6333 72.6684 30.544 72.6223C30.4653 72.5747 30.3835 72.5324 30.2991 72.4956C30.1468 72.4294 30.0257 72.3985 29.9956 72.419C29.7381 72.1865 29.485 71.9764 29.2439 71.7675C29.0028 71.5586 28.7789 71.3533 28.5514 71.1627L28.2109 70.8814L27.8888 70.5944C27.6732 70.4076 27.4631 70.2259 27.2462 70.0377L27.0846 69.9002L26.9321 69.7533C26.8296 69.6544 26.727 69.5556 26.6231 69.4555C26.4166 69.2565 26.2061 69.0536 25.9901 68.8456C25.7742 68.6375 25.584 68.3919 25.374 68.1479C25.271 68.0253 25.164 67.9013 25.0595 67.7694C24.955 67.6375 24.8596 67.4961 24.7575 67.3535C24.8548 67.5227 24.9507 67.6932 25.056 67.8675L25.3781 68.3652C25.2388 68.2127 25.1035 68.0668 24.9723 67.9221C24.841 67.7774 24.7203 67.6272 24.5969 67.4824C24.4736 67.3375 24.353 67.1953 24.2298 67.0531L24.0428 66.8366C23.974 66.7703 23.9261 66.6877 23.8623 66.6106C23.6246 66.3009 23.3788 65.9834 23.1191 65.6344C22.8595 65.2853 22.6148 64.8883 22.3298 64.4602C21.9374 63.7439 21.5101 63.1501 21.161 62.5535C21.0695 62.4081 20.982 62.264 20.8945 62.1224C20.8508 62.0517 20.8057 61.9823 20.7659 61.9101C20.7262 61.838 20.6891 61.7684 20.6519 61.6962C20.5022 61.4114 20.3617 61.1304 20.2411 60.8477C19.4141 58.9824 18.7778 57.0384 18.3418 55.0453C17.9496 53.231 17.662 51.3957 17.4806 49.5485C17.5594 49.8298 17.6092 50.1184 17.6293 50.4098L17.659 50.6491C17.667 50.7271 17.6804 50.8024 17.6964 50.8803C17.719 51.0243 17.74 51.1564 17.7659 51.262C17.8086 51.4229 17.8424 51.5958 17.8853 51.7647C17.9282 51.9335 17.9569 52.1198 18.0054 52.3044C18.0959 52.6751 18.1802 53.0712 18.2635 53.4844C18.3468 53.8976 18.4635 54.3248 18.5592 54.7683C18.6045 54.9914 18.6696 55.2129 18.7282 55.4384L18.9042 56.1282C18.9355 56.2443 18.9615 56.3604 18.9955 56.4764L19.1027 56.8243C19.1747 57.0548 19.2453 57.2868 19.3173 57.5227C19.3539 57.6386 19.3853 57.7573 19.4285 57.8718L19.5543 58.2193L19.8059 58.9144C19.8845 59.1461 19.9841 59.3723 20.0798 59.5971L20.3681 60.2703C20.4597 60.4939 20.5737 60.7078 20.6798 60.9219C20.7859 61.1359 20.8958 61.3433 21.0017 61.552L21.105 61.7582C21.1394 61.8278 21.1804 61.8933 21.2188 61.9615L21.4516 62.3653L21.6885 62.7678C21.7691 62.9002 21.8433 63.0367 21.9331 63.1649C22.1037 63.4254 22.2755 63.6847 22.4447 63.9439C22.5319 64.0722 22.6086 64.206 22.6997 64.3302C22.7909 64.4544 22.8781 64.5827 22.9652 64.7083C26.2284 69.5372 30.7906 73.3452 36.1249 75.6923C36.4014 75.8079 36.6819 75.9246 36.9731 76.0465L37.1894 76.138C37.2629 76.1671 37.3362 76.1909 37.4122 76.2174L37.8553 76.3842C38.006 76.4357 38.1568 76.49 38.3102 76.5441C38.4636 76.5983 38.6131 76.6539 38.7702 76.696L39.7082 76.9677C40.0202 77.0654 40.3354 77.1272 40.6562 77.2074C40.8146 77.243 40.9717 77.2798 41.1287 77.3167C41.2858 77.3536 41.4416 77.3945 41.5997 77.4167L42.0438 77.4961C42.3127 77.5627 42.5817 77.6293 42.8518 77.6893C42.8103 77.6649 42.7665 77.6617 42.7294 77.6624ZM42.7429 72.1734C37.9053 69.9188 33.8443 66.2808 31.0732 61.7193C28.3022 57.1578 26.9456 51.8777 27.1749 46.5466C27.4043 41.2155 29.2094 36.0728 32.3619 31.7689C35.5144 27.465 39.8728 24.193 44.8859 22.3668C49.8991 20.5405 55.3418 20.2421 60.5261 21.5091C65.7103 22.776 70.4031 25.5516 74.0111 29.4847C77.6191 33.4179 79.9804 38.332 80.7962 43.6058C81.6121 48.8796 80.8459 54.2761 78.5946 59.1131C77.099 62.3256 74.9849 65.2117 72.3731 67.6064C69.7614 70.0012 66.7032 71.8577 63.3732 73.07C60.0432 74.2822 56.5067 74.8264 52.9658 74.6714C49.4248 74.5165 45.9487 73.6654 42.7361 72.1669L42.7429 72.1734ZM74.1141 70.2508C73.6917 70.7621 73.3541 71.1314 73.1562 71.245C72.9903 71.3037 73.0493 71.1264 73.242 70.8075C73.5109 70.5852 73.6976 70.4373 73.7708 70.3856L74.3083 69.863L74.5885 69.6127C74.4216 69.8291 74.2655 70.0533 74.1074 70.2443L74.1141 70.2508Z" fill="#00B3DF"/>
</svg>
