<svg width="131" height="217" viewBox="0 0 131 217" fill="none" xmlns="http://www.w3.org/2000/svg">
<path d="M0.0634766 47.5396L7.00431 34.5181V47.5396H0.0634766Z" fill="#018FB2"/>
<path d="M130.41 47.5396L123.469 34.5181V47.5396H130.41Z" fill="#018FB2"/>
<path d="M120.528 9.37483C118.608 7.4546 115.947 6.25446 113.007 6.25446H41.4885C37.0979 2.40399 31.3372 0.0537109 25.0365 0.0537109C11.2448 0.0537109 0.0634766 11.2351 0.0634766 25.0267C0.0634766 31.7275 2.71379 37.8183 7.01431 42.2988V206.359C7.01431 209.299 8.20446 211.959 10.1347 213.879C12.0549 215.8 14.7152 217 17.6556 217H113.017C115.957 217 118.618 215.81 120.538 213.879C122.458 211.959 123.658 209.299 123.658 206.359V16.8957C123.648 13.9554 122.458 11.2951 120.528 9.37483Z" fill="#00B3DF"/>
<path d="M112.917 9.91504H17.5556C14.7853 9.91504 12.295 11.5652 11.2149 14.1155C10.8548 14.9656 10.6748 15.8658 10.6748 16.7959V206.269C10.6748 208.109 11.3949 209.839 12.695 211.139C13.9952 212.439 15.7254 213.159 17.5656 213.159H112.927C114.767 213.159 116.498 212.439 117.798 211.139C119.098 209.839 119.818 208.109 119.818 206.269V16.8059C119.818 14.9656 119.098 13.2354 117.798 11.9353C116.488 10.6351 114.757 9.91504 112.917 9.91504Z" fill="white"/>
<path d="M45.5519 29.2624C47.9401 17.8777 40.6469 6.71252 29.2622 4.32436C17.8774 1.93621 6.71229 9.22939 4.32414 20.6141C1.93598 31.9989 9.22916 43.164 20.6139 45.5522C31.9986 47.9403 43.1638 40.6471 45.5519 29.2624Z" fill="white"/>
<path d="M24.9369 42.159C34.4484 42.159 42.159 34.4484 42.159 24.9369C42.159 15.4254 34.4484 7.71484 24.9369 7.71484C15.4254 7.71484 7.71484 15.4254 7.71484 24.9369C7.71484 34.4484 15.4254 42.159 24.9369 42.159Z" fill="#00B3DF"/>
<path opacity="0.2" d="M24.9369 10.6852C33.948 10.6852 41.3389 17.606 42.089 26.4271C42.129 25.937 42.159 25.447 42.159 24.9369C42.159 15.4258 34.4481 7.71484 24.9369 7.71484C15.4258 7.71484 7.71484 15.4258 7.71484 24.9369C7.71484 25.437 7.74485 25.937 7.78486 26.4271C8.53495 17.606 15.9258 10.6852 24.9369 10.6852Z" fill="#050000"/>
<path d="M130.409 47.5396H0.0634766V177.885H130.409V47.5396Z" fill="#00B3DF"/>
<path d="M0.0634766 177.885L7.01431 190.917V177.885H0.0634766Z" fill="#018FB2"/>
<path d="M20.3683 122.559C22.2183 122.559 23.0783 121.639 23.0783 120.569C23.0783 117.999 18.8383 119.069 18.8383 117.359C18.8383 116.749 19.3483 116.249 20.5383 116.249C21.1583 116.249 21.8483 116.429 22.4583 116.819L22.7883 116.019C22.2083 115.619 21.3583 115.399 20.5383 115.399C18.6983 115.399 17.8583 116.319 17.8583 117.399C17.8583 119.999 22.0983 118.919 22.0983 120.629C22.0983 121.239 21.5783 121.709 20.3683 121.709C19.4683 121.709 18.5783 121.369 18.0583 120.899L17.6883 121.679C18.2483 122.199 19.2983 122.559 20.3683 122.559ZM29.1893 119.859C29.1893 118.229 28.0993 117.129 26.5693 117.129C25.0393 117.129 23.9093 118.259 23.9093 119.829C23.9093 121.409 25.0493 122.539 26.7593 122.539C27.6393 122.539 28.3693 122.239 28.8493 121.679L28.3193 121.059C27.9293 121.489 27.4093 121.699 26.7893 121.699C25.7393 121.699 24.9893 121.079 24.8693 120.149H29.1693C29.1793 120.059 29.1893 119.939 29.1893 119.859ZM26.5693 117.939C27.4993 117.939 28.1693 118.569 28.2693 119.459H24.8693C24.9693 118.559 25.6493 117.939 26.5693 117.939ZM35.3123 119.859C35.3123 118.229 34.2223 117.129 32.6923 117.129C31.1623 117.129 30.0323 118.259 30.0323 119.829C30.0323 121.409 31.1723 122.539 32.8823 122.539C33.7623 122.539 34.4923 122.239 34.9723 121.679L34.4423 121.059C34.0523 121.489 33.5323 121.699 32.9123 121.699C31.8623 121.699 31.1123 121.079 30.9923 120.149H35.2923C35.3023 120.059 35.3123 119.939 35.3123 119.859ZM32.6923 117.939C33.6223 117.939 34.2923 118.569 34.3923 119.459H30.9923C31.0923 118.559 31.7723 117.939 32.6923 117.939ZM48.4109 115.479L46.4809 121.199L44.5509 115.479H43.6309L41.6609 121.169L39.7709 115.479H38.7409L41.0809 122.479H42.1509L44.0609 116.889L45.9709 122.479H47.0209L49.3609 115.479H48.4109ZM53.4207 117.129C52.6107 117.129 51.9507 117.419 51.5507 117.929V115.059H50.5907V122.479H51.5507V119.749C51.5507 118.599 52.2107 117.989 53.2307 117.989C54.1407 117.989 54.6607 118.499 54.6607 119.539V122.479H55.6207V119.429C55.6207 117.869 54.7107 117.129 53.4207 117.129ZM59.6966 122.539C61.2866 122.539 62.4466 121.409 62.4466 119.829C62.4466 118.249 61.2866 117.129 59.6966 117.129C58.1066 117.129 56.9366 118.249 56.9366 119.829C56.9366 121.409 58.1066 122.539 59.6966 122.539ZM59.6966 121.699C58.6766 121.699 57.9066 120.959 57.9066 119.829C57.9066 118.699 58.6766 117.969 59.6966 117.969C60.7166 117.969 61.4766 118.699 61.4766 119.829C61.4766 120.959 60.7166 121.699 59.6966 121.699ZM66.4598 122.479H67.4198V115.059H66.4598V122.479ZM69.7328 116.159C70.1128 116.159 70.3828 115.879 70.3828 115.519C70.3828 115.179 70.1028 114.909 69.7328 114.909C69.3628 114.909 69.0828 115.189 69.0828 115.539C69.0828 115.889 69.3628 116.159 69.7328 116.159ZM69.2528 122.479H70.2128V117.179H69.2528V122.479ZM76.0957 122.479H77.2757L74.8257 119.369L77.0557 117.179H75.8957L73.0057 119.819V115.059H72.0457V122.479H73.0057V121.029L74.1057 120.009L76.0957 122.479ZM82.7732 119.859C82.7732 118.229 81.6832 117.129 80.1532 117.129C78.6232 117.129 77.4932 118.259 77.4932 119.829C77.4932 121.409 78.6332 122.539 80.3432 122.539C81.2232 122.539 81.9532 122.239 82.4332 121.679L81.9032 121.059C81.5132 121.489 80.9932 121.699 80.3732 121.699C79.3232 121.699 78.5732 121.079 78.4532 120.149H82.7532C82.7632 120.059 82.7732 119.939 82.7732 119.859ZM80.1532 117.939C81.0832 117.939 81.7532 118.569 81.8532 119.459H78.4532C78.5532 118.559 79.2332 117.939 80.1532 117.939ZM85.6263 122.539C87.0363 122.539 87.9163 121.929 87.9163 120.969C87.9163 118.909 84.5563 119.929 84.5563 118.679C84.5563 118.259 84.9663 117.949 85.8063 117.949C86.3263 117.949 86.8563 118.059 87.3363 118.369L87.7463 117.609C87.2863 117.309 86.5063 117.129 85.8163 117.129C84.4563 117.129 83.6063 117.769 83.6063 118.719C83.6063 120.829 86.9563 119.799 86.9563 120.989C86.9563 121.439 86.5863 121.709 85.6963 121.709C85.0063 121.709 84.2863 121.479 83.8363 121.159L83.4363 121.919C83.8763 122.269 84.7463 122.539 85.6263 122.539ZM95.5516 117.179L93.7216 121.419L91.8716 117.179H90.8716L93.2116 122.469L93.0416 122.839C92.7816 123.449 92.4916 123.659 92.0316 123.659C91.6716 123.659 91.3416 123.519 91.0816 123.269L90.6716 123.989C91.0016 124.309 91.5216 124.479 92.0316 124.479C92.8416 124.479 93.4516 124.129 93.9216 123.009L96.4916 117.179H95.5516ZM99.5111 122.539C101.101 122.539 102.261 121.409 102.261 119.829C102.261 118.249 101.101 117.129 99.5111 117.129C97.9211 117.129 96.7511 118.249 96.7511 119.829C96.7511 121.409 97.9211 122.539 99.5111 122.539ZM99.5111 121.699C98.4911 121.699 97.7211 120.959 97.7211 119.829C97.7211 118.699 98.4911 117.969 99.5111 117.969C100.531 117.969 101.291 118.699 101.291 119.829C101.291 120.959 100.531 121.699 99.5111 121.699ZM107.569 117.179V119.919C107.569 121.059 106.929 121.679 105.929 121.679C105.019 121.679 104.499 121.159 104.499 120.119V117.179H103.539V120.229C103.539 121.789 104.449 122.539 105.819 122.539C106.569 122.539 107.229 122.229 107.619 121.679V122.479H108.529V117.179H107.569Z" fill="white"/>
<path d="M15.1859 118.555C15.1859 119.375 14.5259 120.035 13.7058 120.035C12.8857 120.035 12.2256 119.375 12.2256 118.555C12.2256 117.735 12.8857 117.074 13.7058 117.074C14.5259 117.074 15.1859 117.745 15.1859 118.555Z" fill="white"/>
<path d="M130.409 177.885L123.648 190.917V177.885H130.409Z" fill="#018FB2"/>
<path d="M96.1654 204.508H34.3079C32.4477 204.508 30.9375 202.998 30.9375 201.138V189.247C30.9375 187.386 32.4477 185.866 34.3179 185.866H96.1753C98.0356 185.866 99.5558 187.376 99.5558 189.247V201.138C99.5358 202.998 98.0256 204.508 96.1654 204.508Z" fill="#00B3DF"/>
<path d="M51.598 30.9243V23.2443L52.438 24.0843H49.918V22.5243H53.542V30.9243H51.598ZM58.9276 30.9243V22.5243H60.5356L64.1116 28.4523H63.2596L66.7756 22.5243H68.3716L68.3956 30.9243H66.5716L66.5596 25.3203H66.8956L64.0876 30.0363H63.2116L60.3436 25.3203H60.7516V30.9243H58.9276ZM73.3286 31.0203C72.6406 31.0203 72.0286 30.8763 71.4926 30.5883C70.9646 30.3003 70.5446 29.9083 70.2326 29.4123C69.9286 28.9083 69.7766 28.3363 69.7766 27.6963C69.7766 27.0483 69.9286 26.4763 70.2326 25.9803C70.5446 25.4763 70.9646 25.0843 71.4926 24.8043C72.0286 24.5163 72.6406 24.3723 73.3286 24.3723C74.0086 24.3723 74.6166 24.5163 75.1526 24.8043C75.6886 25.0843 76.1086 25.4723 76.4126 25.9683C76.7166 26.4643 76.8686 27.0403 76.8686 27.6963C76.8686 28.3363 76.7166 28.9083 76.4126 29.4123C76.1086 29.9083 75.6886 30.3003 75.1526 30.5883C74.6166 30.8763 74.0086 31.0203 73.3286 31.0203ZM73.3286 29.4843C73.6406 29.4843 73.9206 29.4123 74.1686 29.2683C74.4166 29.1243 74.6126 28.9203 74.7566 28.6563C74.9006 28.3843 74.9726 28.0643 74.9726 27.6963C74.9726 27.3203 74.9006 27.0003 74.7566 26.7363C74.6126 26.4723 74.4166 26.2683 74.1686 26.1243C73.9206 25.9803 73.6406 25.9083 73.3286 25.9083C73.0166 25.9083 72.7366 25.9803 72.4886 26.1243C72.2406 26.2683 72.0406 26.4723 71.8886 26.7363C71.7446 27.0003 71.6726 27.3203 71.6726 27.6963C71.6726 28.0643 71.7446 28.3843 71.8886 28.6563C72.0406 28.9203 72.2406 29.1243 72.4886 29.2683C72.7366 29.4123 73.0166 29.4843 73.3286 29.4843ZM82.0439 24.3723C82.5559 24.3723 83.0119 24.4763 83.4119 24.6843C83.8199 24.8843 84.1399 25.1963 84.3719 25.6203C84.6039 26.0363 84.7199 26.5723 84.7199 27.2283V30.9243H82.8479V27.5163C82.8479 26.9963 82.7319 26.6123 82.4999 26.3643C82.2759 26.1163 81.9559 25.9923 81.5399 25.9923C81.2439 25.9923 80.9759 26.0563 80.7359 26.1843C80.5039 26.3043 80.3199 26.4923 80.1839 26.7483C80.0559 27.0043 79.9919 27.3323 79.9919 27.7323V30.9243H78.1199V24.4683H79.9079V26.2563L79.5719 25.7163C79.8039 25.2843 80.1359 24.9523 80.5679 24.7203C80.9999 24.4883 81.4919 24.3723 82.0439 24.3723ZM89.0567 31.0203C88.2967 31.0203 87.7047 30.8283 87.2807 30.4443C86.8567 30.0523 86.6447 29.4723 86.6447 28.7043V23.0403H88.5167V28.6803C88.5167 28.9523 88.5887 29.1643 88.7327 29.3163C88.8767 29.4603 89.0727 29.5323 89.3207 29.5323C89.6167 29.5323 89.8687 29.4523 90.0767 29.2923L90.5807 30.6123C90.3887 30.7483 90.1567 30.8523 89.8847 30.9243C89.6207 30.9883 89.3447 31.0203 89.0567 31.0203ZM85.6487 26.0523V24.6123H90.1247V26.0523H85.6487ZM95.5556 24.3723C96.0676 24.3723 96.5236 24.4763 96.9236 24.6843C97.3316 24.8843 97.6516 25.1963 97.8836 25.6203C98.1156 26.0363 98.2316 26.5723 98.2316 27.2283V30.9243H96.3596V27.5163C96.3596 26.9963 96.2436 26.6123 96.0116 26.3643C95.7876 26.1163 95.4676 25.9923 95.0516 25.9923C94.7556 25.9923 94.4876 26.0563 94.2476 26.1843C94.0156 26.3043 93.8316 26.4923 93.6956 26.7483C93.5676 27.0043 93.5036 27.3323 93.5036 27.7323V30.9243H91.6316V22.0203H93.5036V26.2563L93.0836 25.7163C93.3156 25.2843 93.6476 24.9523 94.0796 24.7203C94.5116 24.4883 95.0036 24.3723 95.5556 24.3723Z" fill="#071F51"/>
<path d="M47.9374 198.724V193.124H50.6734C51.3774 193.124 51.9054 193.257 52.2574 193.524C52.6148 193.791 52.7934 194.143 52.7934 194.58C52.7934 194.873 52.7214 195.129 52.5774 195.348C52.4334 195.561 52.2361 195.727 51.9854 195.844C51.7348 195.961 51.4468 196.02 51.1214 196.02L51.2734 195.692C51.6254 195.692 51.9374 195.751 52.2094 195.868C52.4814 195.98 52.6921 196.148 52.8414 196.372C52.9961 196.596 53.0734 196.871 53.0734 197.196C53.0734 197.676 52.8841 198.052 52.5054 198.324C52.1268 198.591 51.5694 198.724 50.8334 198.724H47.9374ZM49.2254 197.748H50.7374C51.0734 197.748 51.3268 197.695 51.4974 197.588C51.6734 197.476 51.7614 197.3 51.7614 197.06C51.7614 196.825 51.6734 196.652 51.4974 196.54C51.3268 196.423 51.0734 196.364 50.7374 196.364H49.1294V195.42H50.5134C50.8281 195.42 51.0681 195.367 51.2334 195.26C51.4041 195.148 51.4894 194.98 51.4894 194.756C51.4894 194.537 51.4041 194.375 51.2334 194.268C51.0681 194.156 50.8281 194.1 50.5134 194.1H49.2254V197.748ZM55.7826 198.788C55.4253 198.788 55.1053 198.719 54.8226 198.58C54.5453 198.441 54.3293 198.231 54.1746 197.948C54.02 197.66 53.9426 197.295 53.9426 196.852V194.42H55.1906V196.668C55.1906 197.025 55.2653 197.289 55.4146 197.46C55.5693 197.625 55.7853 197.708 56.0626 197.708C56.2546 197.708 56.4253 197.668 56.5746 197.588C56.724 197.503 56.8413 197.375 56.9266 197.204C57.012 197.028 57.0546 196.809 57.0546 196.548V194.42H58.3026V198.724H57.1186V197.54L57.3346 197.884C57.1906 198.183 56.9773 198.409 56.6946 198.564C56.4173 198.713 56.1133 198.788 55.7826 198.788ZM60.0028 200.34C59.7788 200.34 59.5575 200.305 59.3388 200.236C59.1201 200.167 58.9415 200.071 58.8028 199.948L59.2588 199.06C59.3548 199.145 59.4641 199.212 59.5868 199.26C59.7148 199.308 59.8401 199.332 59.9628 199.332C60.1388 199.332 60.2775 199.289 60.3788 199.204C60.4855 199.124 60.5815 198.988 60.6668 198.796L60.8908 198.268L60.9868 198.132L62.5308 194.42H63.7308L61.7868 198.988C61.6481 199.335 61.4881 199.607 61.3068 199.804C61.1308 200.001 60.9335 200.14 60.7148 200.22C60.5015 200.3 60.2641 200.34 60.0028 200.34ZM60.7388 198.892L58.8188 194.42H60.1068L61.5948 198.02L60.7388 198.892ZM66.5937 198.724V193.124H67.6657L70.9697 197.156H70.4497V193.124H71.7297V198.724H70.6657L67.3537 194.692H67.8737V198.724H66.5937ZM75.0146 198.788C74.556 198.788 74.148 198.692 73.7906 198.5C73.4386 198.308 73.1586 198.047 72.9506 197.716C72.748 197.38 72.6466 196.999 72.6466 196.572C72.6466 196.14 72.748 195.759 72.9506 195.428C73.1586 195.092 73.4386 194.831 73.7906 194.644C74.148 194.452 74.556 194.356 75.0146 194.356C75.468 194.356 75.8733 194.452 76.2306 194.644C76.588 194.831 76.868 195.089 77.0706 195.42C77.2733 195.751 77.3746 196.135 77.3746 196.572C77.3746 196.999 77.2733 197.38 77.0706 197.716C76.868 198.047 76.588 198.308 76.2306 198.5C75.8733 198.692 75.468 198.788 75.0146 198.788ZM75.0146 197.764C75.2226 197.764 75.4093 197.716 75.5746 197.62C75.74 197.524 75.8706 197.388 75.9666 197.212C76.0626 197.031 76.1106 196.817 76.1106 196.572C76.1106 196.321 76.0626 196.108 75.9666 195.932C75.8706 195.756 75.74 195.62 75.5746 195.524C75.4093 195.428 75.2226 195.38 75.0146 195.38C74.8066 195.38 74.62 195.428 74.4546 195.524C74.2893 195.62 74.156 195.756 74.0546 195.932C73.9586 196.108 73.9106 196.321 73.9106 196.572C73.9106 196.817 73.9586 197.031 74.0546 197.212C74.156 197.388 74.2893 197.524 74.4546 197.62C74.62 197.716 74.8066 197.764 75.0146 197.764ZM79.0756 198.724L77.5236 194.42H78.6996L79.9876 198.124H79.4276L80.7716 194.42H81.8276L83.1316 198.124H82.5716L83.8996 194.42H85.0036L83.4436 198.724H82.2356L81.0916 195.548H81.4596L80.2756 198.724H79.0756Z" fill="white"/>
<path d="M16.2345 27.8078C16.2345 26.6798 15.2585 26.3838 14.3705 26.1758V24.8158C14.7705 24.8638 15.1865 24.9998 15.5945 25.2318L15.9945 24.2478C15.5545 23.9678 14.9705 23.8078 14.3705 23.7598V22.8878H13.5705V23.7758C12.3065 23.9198 11.6905 24.6478 11.6905 25.4958C11.6905 26.6398 12.6825 26.9358 13.5705 27.1518V28.4878C12.9945 28.4318 12.4185 28.2158 12.0185 27.9198L11.5785 28.8958C12.0185 29.2398 12.7785 29.4878 13.5705 29.5358V30.4078H14.3705V29.5118C15.6265 29.3598 16.2345 28.6398 16.2345 27.8078ZM12.9785 25.4318C12.9785 25.1678 13.1465 24.9358 13.5705 24.8398V25.9758C13.2185 25.8638 12.9785 25.7118 12.9785 25.4318ZM14.3705 28.4558V27.3518C14.7145 27.4718 14.9465 27.6238 14.9465 27.9038C14.9465 28.1598 14.7705 28.3678 14.3705 28.4558ZM16.4339 23.8478V24.8878H17.5539V29.4478H18.8499V23.8478H16.4339ZM21.7427 25.9518H21.2867L21.3747 24.8878H23.7107V23.8478H20.2947L20.0067 26.9998H21.4387C22.4547 26.9998 22.7427 27.2878 22.7427 27.7278C22.7427 28.1838 22.3427 28.4558 21.6947 28.4558C21.1107 28.4558 20.5267 28.2718 20.1027 27.9518L19.5907 28.9438C20.1347 29.3278 20.9507 29.5438 21.7267 29.5438C23.3267 29.5438 24.0547 28.6798 24.0547 27.6878C24.0547 26.6958 23.3987 25.9518 21.7427 25.9518ZM25.3166 29.5118C25.7486 29.5118 26.0926 29.1838 26.0926 28.7278C26.0926 28.2638 25.7486 27.9598 25.3166 27.9598C24.8846 27.9598 24.5406 28.2638 24.5406 28.7278C24.5406 29.1838 24.8846 29.5118 25.3166 29.5118ZM28.6423 23.7518C27.4583 23.7518 26.5223 24.4718 26.5223 25.6158C26.5223 26.6718 27.3703 27.3598 28.4503 27.3598C29.0343 27.3598 29.5143 27.1838 29.8423 26.8558C29.8023 27.9358 29.1943 28.4878 28.2663 28.4878C27.8823 28.4878 27.5223 28.4158 27.2183 28.2078L26.7383 29.1598C27.1303 29.4078 27.6983 29.5438 28.2903 29.5438C29.9863 29.5438 31.1463 28.4638 31.1463 26.5278C31.1463 24.7198 30.1943 23.7518 28.6423 23.7518ZM28.7383 26.3918C28.1623 26.3918 27.7863 26.0638 27.7863 25.5518C27.7863 25.0398 28.1703 24.7198 28.7223 24.7198C29.3383 24.7198 29.6983 25.0718 29.6983 25.5518C29.6983 26.0398 29.3063 26.3918 28.7383 26.3918ZM33.7361 23.7518C32.5521 23.7518 31.6161 24.4718 31.6161 25.6158C31.6161 26.6718 32.4641 27.3598 33.5441 27.3598C34.1281 27.3598 34.6081 27.1838 34.9361 26.8558C34.8961 27.9358 34.2881 28.4878 33.3601 28.4878C32.9761 28.4878 32.6161 28.4158 32.3121 28.2078L31.8321 29.1598C32.2241 29.4078 32.7921 29.5438 33.3841 29.5438C35.0801 29.5438 36.2401 28.4638 36.2401 26.5278C36.2401 24.7198 35.2881 23.7518 33.7361 23.7518ZM33.8321 26.3918C33.2561 26.3918 32.8801 26.0638 32.8801 25.5518C32.8801 25.0398 33.2641 24.7198 33.8161 24.7198C34.4321 24.7198 34.7921 25.0718 34.7921 25.5518C34.7921 26.0398 34.4001 26.3918 33.8321 26.3918Z" fill="white"/>
<path d="M52.4112 37.8591C52.0752 37.8591 51.7532 37.8151 51.4452 37.7271C51.1372 37.6351 50.8892 37.5171 50.7012 37.3731L51.0312 36.6411C51.2112 36.7691 51.4232 36.8751 51.6672 36.9591C51.9152 37.0391 52.1652 37.0791 52.4172 37.0791C52.6092 37.0791 52.7632 37.0611 52.8792 37.0251C52.9992 36.9851 53.0872 36.9311 53.1432 36.8631C53.1992 36.7951 53.2272 36.7171 53.2272 36.6291C53.2272 36.5171 53.1832 36.4291 53.0952 36.3651C53.0072 36.2971 52.8912 36.2431 52.7472 36.2031C52.6032 36.1591 52.4432 36.1191 52.2672 36.0831C52.0952 36.0431 51.9212 35.9951 51.7452 35.9391C51.5732 35.8831 51.4152 35.8111 51.2712 35.7231C51.1272 35.6351 51.0092 35.5191 50.9172 35.3751C50.8292 35.2311 50.7852 35.0471 50.7852 34.8231C50.7852 34.5831 50.8492 34.3651 50.9772 34.1691C51.1092 33.9691 51.3052 33.8111 51.5652 33.6951C51.8292 33.5751 52.1592 33.5151 52.5552 33.5151C52.8192 33.5151 53.0792 33.5471 53.3352 33.6111C53.5912 33.6711 53.8172 33.7631 54.0132 33.8871L53.7132 34.6251C53.5172 34.5131 53.3212 34.4311 53.1252 34.3791C52.9292 34.3231 52.7372 34.2951 52.5492 34.2951C52.3612 34.2951 52.2072 34.3171 52.0872 34.3611C51.9672 34.4051 51.8812 34.4631 51.8292 34.5351C51.7772 34.6031 51.7512 34.6831 51.7512 34.7751C51.7512 34.8831 51.7952 34.9711 51.8832 35.0391C51.9712 35.1031 52.0872 35.1551 52.2312 35.1951C52.3752 35.2351 52.5332 35.2751 52.7052 35.3151C52.8812 35.3551 53.0552 35.4011 53.2272 35.4531C53.4032 35.5051 53.5632 35.5751 53.7072 35.6631C53.8512 35.7511 53.9672 35.8671 54.0552 36.0111C54.1472 36.1551 54.1932 36.3371 54.1932 36.5571C54.1932 36.7931 54.1272 37.0091 53.9952 37.2051C53.8632 37.4011 53.6652 37.5591 53.4012 37.6791C53.1412 37.7991 52.8112 37.8591 52.4112 37.8591ZM56.1534 37.8351C55.8854 37.8351 55.6454 37.7831 55.4334 37.6791C55.2254 37.5751 55.0634 37.4171 54.9474 37.2051C54.8314 36.9891 54.7734 36.7151 54.7734 36.3831V34.5591H55.7094V36.2451C55.7094 36.5131 55.7654 36.7111 55.8774 36.8391C55.9934 36.9631 56.1554 37.0251 56.3634 37.0251C56.5074 37.0251 56.6354 36.9951 56.7474 36.9351C56.8594 36.8711 56.9474 36.7751 57.0114 36.6471C57.0754 36.5151 57.1074 36.3511 57.1074 36.1551V34.5591H58.0434V37.7871H57.1554V36.8991L57.3174 37.1571C57.2094 37.3811 57.0494 37.5511 56.8374 37.6671C56.6294 37.7791 56.4014 37.8351 56.1534 37.8351ZM60.8185 37.8351C60.5345 37.8351 60.2905 37.7751 60.0865 37.6551C59.8825 37.5351 59.7265 37.3531 59.6185 37.1091C59.5105 36.8611 59.4565 36.5491 59.4565 36.1731C59.4565 35.7931 59.5125 35.4811 59.6245 35.2371C59.7405 34.9931 59.9005 34.8111 60.1045 34.6911C60.3085 34.5711 60.5465 34.5111 60.8185 34.5111C61.1225 34.5111 61.3945 34.5791 61.6345 34.7151C61.8785 34.8511 62.0705 35.0431 62.2105 35.2911C62.3545 35.5391 62.4265 35.8331 62.4265 36.1731C62.4265 36.5091 62.3545 36.8011 62.2105 37.0491C62.0705 37.2971 61.8785 37.4911 61.6345 37.6311C61.3945 37.7671 61.1225 37.8351 60.8185 37.8351ZM58.9105 37.7871V33.3351H59.8465V35.2131L59.7865 36.1671L59.8045 37.1271V37.7871H58.9105ZM60.6565 37.0671C60.8125 37.0671 60.9505 37.0311 61.0705 36.9591C61.1945 36.8871 61.2925 36.7851 61.3645 36.6531C61.4405 36.5171 61.4785 36.3571 61.4785 36.1731C61.4785 35.9851 61.4405 35.8251 61.3645 35.6931C61.2925 35.5611 61.1945 35.4591 61.0705 35.3871C60.9505 35.3151 60.8125 35.2791 60.6565 35.2791C60.5005 35.2791 60.3605 35.3151 60.2365 35.3871C60.1125 35.4591 60.0145 35.5611 59.9425 35.6931C59.8705 35.8251 59.8345 35.9851 59.8345 36.1731C59.8345 36.3571 59.8705 36.5171 59.9425 36.6531C60.0145 36.7851 60.1125 36.8871 60.2365 36.9591C60.3605 37.0311 60.5005 37.0671 60.6565 37.0671ZM64.1391 37.8351C63.8631 37.8351 63.5971 37.8031 63.3411 37.7391C63.0891 37.6711 62.8891 37.5871 62.7411 37.4871L63.0531 36.8151C63.2011 36.9071 63.3751 36.9831 63.5751 37.0431C63.7791 37.0991 63.9791 37.1271 64.1751 37.1271C64.3911 37.1271 64.5431 37.1011 64.6311 37.0491C64.7231 36.9971 64.7691 36.9251 64.7691 36.8331C64.7691 36.7571 64.7331 36.7011 64.6611 36.6651C64.5931 36.6251 64.5011 36.5951 64.3851 36.5751C64.2691 36.5551 64.1411 36.5351 64.0011 36.5151C63.8651 36.4951 63.7271 36.4691 63.5871 36.4371C63.4471 36.4011 63.3191 36.3491 63.2031 36.2811C63.0871 36.2131 62.9931 36.1211 62.9211 36.0051C62.8531 35.8891 62.8191 35.7391 62.8191 35.5551C62.8191 35.3511 62.8771 35.1711 62.9931 35.0151C63.1131 34.8591 63.2851 34.7371 63.5091 34.6491C63.7331 34.5571 64.0011 34.5111 64.3131 34.5111C64.5331 34.5111 64.7571 34.5351 64.9851 34.5831C65.2131 34.6311 65.4031 34.7011 65.5551 34.7931L65.2431 35.4591C65.0871 35.3671 64.9291 35.3051 64.7691 35.2731C64.6131 35.2371 64.4611 35.2191 64.3131 35.2191C64.1051 35.2191 63.9531 35.2471 63.8571 35.3031C63.7611 35.3591 63.7131 35.4311 63.7131 35.5191C63.7131 35.5991 63.7471 35.6591 63.8151 35.6991C63.8871 35.7391 63.9811 35.7711 64.0971 35.7951C64.2131 35.8191 64.3391 35.8411 64.4751 35.8611C64.6151 35.8771 64.7551 35.9031 64.8951 35.9391C65.0351 35.9751 65.1611 36.0271 65.2731 36.0951C65.3891 36.1591 65.4831 36.2491 65.5551 36.3651C65.6271 36.4771 65.6631 36.6251 65.6631 36.8091C65.6631 37.0091 65.6031 37.1871 65.4831 37.3431C65.3631 37.4951 65.1891 37.6151 64.9611 37.7031C64.7371 37.7911 64.4631 37.8351 64.1391 37.8351ZM67.8006 37.8351C67.4526 37.8351 67.1426 37.7651 66.8706 37.6251C66.5986 37.4811 66.3846 37.2831 66.2286 37.0311C66.0766 36.7791 66.0006 36.4931 66.0006 36.1731C66.0006 35.8491 66.0766 35.5631 66.2286 35.3151C66.3846 35.0631 66.5986 34.8671 66.8706 34.7271C67.1426 34.5831 67.4526 34.5111 67.8006 34.5111C68.1406 34.5111 68.4366 34.5831 68.6886 34.7271C68.9406 34.8671 69.1266 35.0691 69.2466 35.3331L68.5206 35.7231C68.4366 35.5711 68.3306 35.4591 68.2026 35.3871C68.0786 35.3151 67.9426 35.2791 67.7946 35.2791C67.6346 35.2791 67.4906 35.3151 67.3626 35.3871C67.2346 35.4591 67.1326 35.5611 67.0566 35.6931C66.9846 35.8251 66.9486 35.9851 66.9486 36.1731C66.9486 36.3611 66.9846 36.5211 67.0566 36.6531C67.1326 36.7851 67.2346 36.8871 67.3626 36.9591C67.4906 37.0311 67.6346 37.0671 67.7946 37.0671C67.9426 37.0671 68.0786 37.0331 68.2026 36.9651C68.3306 36.8931 68.4366 36.7791 68.5206 36.6231L69.2466 37.0191C69.1266 37.2791 68.9406 37.4811 68.6886 37.6251C68.4366 37.7651 68.1406 37.8351 67.8006 37.8351ZM69.7855 37.7871V34.5591H70.6795V35.4711L70.5535 35.2071C70.6495 34.9791 70.8035 34.8071 71.0155 34.6911C71.2275 34.5711 71.4855 34.5111 71.7895 34.5111V35.3751C71.7495 35.3711 71.7135 35.3691 71.6815 35.3691C71.6495 35.3651 71.6155 35.3631 71.5795 35.3631C71.3235 35.3631 71.1155 35.4371 70.9555 35.5851C70.7995 35.7291 70.7215 35.9551 70.7215 36.2631V37.7871H69.7855ZM72.3519 37.7871V34.5591H73.2879V37.7871H72.3519ZM72.8199 34.1091C72.6479 34.1091 72.5079 34.0591 72.3999 33.9591C72.2919 33.8591 72.2379 33.7351 72.2379 33.5871C72.2379 33.4391 72.2919 33.3151 72.3999 33.2151C72.5079 33.1151 72.6479 33.0651 72.8199 33.0651C72.9919 33.0651 73.1319 33.1131 73.2399 33.2091C73.3479 33.3011 73.4019 33.4211 73.4019 33.5691C73.4019 33.7251 73.3479 33.8551 73.2399 33.9591C73.1359 34.0591 72.9959 34.1091 72.8199 34.1091ZM76.0646 37.8351C75.7926 37.8351 75.5546 37.7751 75.3506 37.6551C75.1466 37.5351 74.9866 37.3531 74.8706 37.1091C74.7586 36.8611 74.7026 36.5491 74.7026 36.1731C74.7026 35.7931 74.7566 35.4811 74.8646 35.2371C74.9726 34.9931 75.1286 34.8111 75.3326 34.6911C75.5366 34.5711 75.7806 34.5111 76.0646 34.5111C76.3686 34.5111 76.6406 34.5811 76.8806 34.7211C77.1246 34.8571 77.3166 35.0491 77.4566 35.2971C77.6006 35.5451 77.6726 35.8371 77.6726 36.1731C77.6726 36.5131 77.6006 36.8071 77.4566 37.0551C77.3166 37.3031 77.1246 37.4951 76.8806 37.6311C76.6406 37.7671 76.3686 37.8351 76.0646 37.8351ZM74.1566 38.9511V34.5591H75.0506V35.2191L75.0326 36.1791L75.0926 37.1331V38.9511H74.1566ZM75.9026 37.0671C76.0586 37.0671 76.1966 37.0311 76.3166 36.9591C76.4406 36.8871 76.5386 36.7851 76.6106 36.6531C76.6866 36.5171 76.7246 36.3571 76.7246 36.1731C76.7246 35.9851 76.6866 35.8251 76.6106 35.6931C76.5386 35.5611 76.4406 35.4591 76.3166 35.3871C76.1966 35.3151 76.0586 35.2791 75.9026 35.2791C75.7466 35.2791 75.6066 35.3151 75.4826 35.3871C75.3586 35.4591 75.2606 35.5611 75.1886 35.6931C75.1166 35.8251 75.0806 35.9851 75.0806 36.1731C75.0806 36.3571 75.1166 36.5171 75.1886 36.6531C75.2606 36.7851 75.3586 36.8871 75.4826 36.9591C75.6066 37.0311 75.7466 37.0671 75.9026 37.0671ZM79.6192 37.8351C79.2392 37.8351 78.9432 37.7391 78.7312 37.5471C78.5192 37.3511 78.4132 37.0611 78.4132 36.6771V33.8451H79.3492V36.6651C79.3492 36.8011 79.3852 36.9071 79.4572 36.9831C79.5292 37.0551 79.6272 37.0911 79.7512 37.0911C79.8992 37.0911 80.0252 37.0511 80.1292 36.9711L80.3812 37.6311C80.2852 37.6991 80.1692 37.7511 80.0332 37.7871C79.9012 37.8191 79.7632 37.8351 79.6192 37.8351ZM77.9152 35.3511V34.6311H80.1532V35.3511H77.9152ZM80.9066 37.7871V34.5591H81.8426V37.7871H80.9066ZM81.3746 34.1091C81.2026 34.1091 81.0626 34.0591 80.9546 33.9591C80.8466 33.8591 80.7926 33.7351 80.7926 33.5871C80.7926 33.4391 80.8466 33.3151 80.9546 33.2151C81.0626 33.1151 81.2026 33.0651 81.3746 33.0651C81.5466 33.0651 81.6866 33.1131 81.7946 33.2091C81.9026 33.3011 81.9566 33.4211 81.9566 33.5691C81.9566 33.7251 81.9026 33.8551 81.7946 33.9591C81.6906 34.0591 81.5506 34.1091 81.3746 34.1091ZM84.2473 37.8351C83.9033 37.8351 83.5973 37.7631 83.3293 37.6191C83.0653 37.4751 82.8553 37.2791 82.6993 37.0311C82.5473 36.7791 82.4713 36.4931 82.4713 36.1731C82.4713 35.8491 82.5473 35.5631 82.6993 35.3151C82.8553 35.0631 83.0653 34.8671 83.3293 34.7271C83.5973 34.5831 83.9033 34.5111 84.2473 34.5111C84.5873 34.5111 84.8913 34.5831 85.1593 34.7271C85.4273 34.8671 85.6373 35.0611 85.7893 35.3091C85.9413 35.5571 86.0173 35.8451 86.0173 36.1731C86.0173 36.4931 85.9413 36.7791 85.7893 37.0311C85.6373 37.2791 85.4273 37.4751 85.1593 37.6191C84.8913 37.7631 84.5873 37.8351 84.2473 37.8351ZM84.2473 37.0671C84.4033 37.0671 84.5433 37.0311 84.6673 36.9591C84.7913 36.8871 84.8893 36.7851 84.9613 36.6531C85.0333 36.5171 85.0693 36.3571 85.0693 36.1731C85.0693 35.9851 85.0333 35.8251 84.9613 35.6931C84.8893 35.5611 84.7913 35.4591 84.6673 35.3871C84.5433 35.3151 84.4033 35.2791 84.2473 35.2791C84.0913 35.2791 83.9513 35.3151 83.8273 35.3871C83.7033 35.4591 83.6033 35.5611 83.5273 35.6931C83.4553 35.8251 83.4193 35.9851 83.4193 36.1731C83.4193 36.3571 83.4553 36.5171 83.5273 36.6531C83.6033 36.7851 83.7033 36.8871 83.8273 36.9591C83.9513 37.0311 84.0913 37.0671 84.2473 37.0671ZM88.6049 34.5111C88.8609 34.5111 89.0889 34.5631 89.2889 34.6671C89.4929 34.7671 89.6529 34.9231 89.7689 35.1351C89.8849 35.3431 89.9429 35.6111 89.9429 35.9391V37.7871H89.0069V36.0831C89.0069 35.8231 88.9489 35.6311 88.8329 35.5071C88.7209 35.3831 88.5609 35.3211 88.3529 35.3211C88.2049 35.3211 88.0709 35.3531 87.9509 35.4171C87.8349 35.4771 87.7429 35.5711 87.6749 35.6991C87.6109 35.8271 87.5789 35.9911 87.5789 36.1911V37.7871H86.6429V34.5591H87.5369V35.4531L87.3689 35.1831C87.4849 34.9671 87.6509 34.8011 87.8669 34.6851C88.0829 34.5691 88.3289 34.5111 88.6049 34.5111Z" fill="#0A91E5"/>
</svg>
