<svg width="263" height="569" viewBox="0 0 263 569" fill="none" xmlns="http://www.w3.org/2000/svg">
<path d="M0.128906 95.8741L14.1266 69.6133V95.8741H0.128906Z" fill="#018FB2"/>
<path d="M263 95.8741L249.002 69.6133V95.8741H263Z" fill="#018FB2"/>
<path d="M243.072 18.9065C239.2 15.0339 233.834 12.6136 227.905 12.6136H83.6715C74.817 4.84826 63.1993 0.108398 50.4925 0.108398C22.6786 0.108398 0.128906 22.658 0.128906 50.472C0.128906 63.9856 5.47385 76.2689 14.1468 85.3049V416.168C14.1468 422.097 16.547 427.463 20.4397 431.335C24.3123 435.208 29.6774 437.628 35.6073 437.628H227.925C233.855 437.628 239.22 435.228 243.092 431.335C246.965 427.463 249.385 422.097 249.385 416.168V34.0741C249.365 28.1442 246.965 22.7791 243.072 18.9065Z" fill="#00B3DF"/>
<path d="M227.723 19.9961H35.406C29.819 19.9961 24.7968 23.3241 22.6184 28.4673C21.8923 30.1818 21.5293 31.997 21.5293 33.8728V415.986C21.5293 419.698 22.9815 423.187 25.6036 425.809C28.2256 428.431 31.715 429.883 35.4262 429.883H227.744C231.455 429.883 234.944 428.431 237.566 425.809C240.188 423.187 241.64 419.698 241.64 415.986V33.893C241.64 30.1818 240.188 26.6924 237.566 24.0704C234.924 21.4483 231.435 19.9961 227.723 19.9961Z" fill="white"/>
<path d="M91.8655 59.0132C96.6818 36.0534 81.9735 13.5364 59.0136 8.72015C36.0538 3.90391 13.5368 18.6122 8.72058 41.5721C3.90433 64.5319 18.6126 87.0489 41.5725 91.8651C64.5323 96.6814 87.0493 81.9731 91.8655 59.0132Z" fill="white"/>
<path d="M50.2912 85.0228C69.4732 85.0228 85.0233 69.4727 85.0233 50.2907C85.0233 31.1087 69.4732 15.5586 50.2912 15.5586C31.1092 15.5586 15.5591 31.1087 15.5591 50.2907C15.5591 69.4727 31.1092 85.0228 50.2912 85.0228Z" fill="#00B3DF"/>
<path opacity="0.2" d="M50.2912 21.549C68.464 21.549 83.3694 35.5064 84.8821 53.296C84.9628 52.3077 85.0233 51.3193 85.0233 50.2907C85.0233 31.1094 69.4725 15.5586 50.2912 15.5586C31.1099 15.5586 15.5591 31.1094 15.5591 50.2907C15.5591 51.2992 15.6196 52.3077 15.7003 53.296C17.213 35.5064 32.1184 21.549 50.2912 21.549Z" fill="#050000"/>
<path d="M263 95.874H0.128906V358.745H263V95.874Z" fill="#00B3DF"/>
<path d="M0.128906 358.745L14.1468 385.026V358.745H0.128906Z" fill="#018FB2"/>
<path d="M263 358.745L249.365 385.026V358.745H263Z" fill="#018FB2"/>
<path d="M193.939 412.436H69.1897C65.4382 412.436 62.3926 409.39 62.3926 405.639V381.657C62.3926 377.906 65.4382 374.84 69.2099 374.84H193.959C197.711 374.84 200.776 377.885 200.776 381.657V405.639C200.736 409.39 197.69 412.436 193.939 412.436Z" fill="#00B3DF"/>
<path d="M192.546 568.596H67.7972C64.0456 568.596 61 565.551 61 561.799V537.817C61 534.066 64.0456 531 67.8173 531H192.566C196.318 531 199.384 534.046 199.384 537.817V561.799C199.344 565.551 196.298 568.596 192.546 568.596Z" fill="#00B3DF"/>
<path d="M102.707 52.165V42.565L103.757 43.615H100.607V41.665H105.137V52.165H102.707ZM111.869 52.165V41.665H113.879L118.349 49.075H117.284L121.679 41.665H123.674L123.704 52.165H121.424L121.409 45.16H121.829L118.319 51.055H117.224L113.639 45.16H114.149V52.165H111.869ZM129.87 52.285C129.01 52.285 128.245 52.105 127.575 51.745C126.915 51.385 126.39 50.895 126 50.275C125.62 49.645 125.43 48.93 125.43 48.13C125.43 47.32 125.62 46.605 126 45.985C126.39 45.355 126.915 44.865 127.575 44.515C128.245 44.155 129.01 43.975 129.87 43.975C130.72 43.975 131.48 44.155 132.15 44.515C132.82 44.865 133.345 45.35 133.725 45.97C134.105 46.59 134.295 47.31 134.295 48.13C134.295 48.93 134.105 49.645 133.725 50.275C133.345 50.895 132.82 51.385 132.15 51.745C131.48 52.105 130.72 52.285 129.87 52.285ZM129.87 50.365C130.26 50.365 130.61 50.275 130.92 50.095C131.23 49.915 131.475 49.66 131.655 49.33C131.835 48.99 131.925 48.59 131.925 48.13C131.925 47.66 131.835 47.26 131.655 46.93C131.475 46.6 131.23 46.345 130.92 46.165C130.61 45.985 130.26 45.895 129.87 45.895C129.48 45.895 129.13 45.985 128.82 46.165C128.51 46.345 128.26 46.6 128.07 46.93C127.89 47.26 127.8 47.66 127.8 48.13C127.8 48.59 127.89 48.99 128.07 49.33C128.26 49.66 128.51 49.915 128.82 50.095C129.13 50.275 129.48 50.365 129.87 50.365ZM140.764 43.975C141.404 43.975 141.974 44.105 142.474 44.365C142.984 44.615 143.384 45.005 143.674 45.535C143.964 46.055 144.109 46.725 144.109 47.545V52.165H141.769V47.905C141.769 47.255 141.624 46.775 141.334 46.465C141.054 46.155 140.654 46 140.134 46C139.764 46 139.429 46.08 139.129 46.24C138.839 46.39 138.609 46.625 138.439 46.945C138.279 47.265 138.199 47.675 138.199 48.175V52.165H135.859V44.095H138.094V46.33L137.674 45.655C137.964 45.115 138.379 44.7 138.919 44.41C139.459 44.12 140.074 43.975 140.764 43.975ZM149.53 52.285C148.58 52.285 147.84 52.045 147.31 51.565C146.78 51.075 146.515 50.35 146.515 49.39V42.31H148.855V49.36C148.855 49.7 148.945 49.965 149.125 50.155C149.305 50.335 149.55 50.425 149.86 50.425C150.23 50.425 150.545 50.325 150.805 50.125L151.435 51.775C151.195 51.945 150.905 52.075 150.565 52.165C150.235 52.245 149.89 52.285 149.53 52.285ZM145.27 46.075V44.275H150.865V46.075H145.27ZM157.654 43.975C158.294 43.975 158.864 44.105 159.364 44.365C159.874 44.615 160.274 45.005 160.564 45.535C160.854 46.055 160.999 46.725 160.999 47.545V52.165H158.659V47.905C158.659 47.255 158.514 46.775 158.224 46.465C157.944 46.155 157.544 46 157.024 46C156.654 46 156.319 46.08 156.019 46.24C155.729 46.39 155.499 46.625 155.329 46.945C155.169 47.265 155.089 47.675 155.089 48.175V52.165H152.749V41.035H155.089V46.33L154.564 45.655C154.854 45.115 155.269 44.7 155.809 44.41C156.349 44.12 156.964 43.975 157.654 43.975Z" fill="#071F51"/>
<path d="M97.245 399V388.5H102.375C103.695 388.5 104.685 388.75 105.345 389.25C106.015 389.75 106.35 390.41 106.35 391.23C106.35 391.78 106.215 392.26 105.945 392.67C105.675 393.07 105.305 393.38 104.835 393.6C104.365 393.82 103.825 393.93 103.215 393.93L103.5 393.315C104.16 393.315 104.745 393.425 105.255 393.645C105.765 393.855 106.16 394.17 106.44 394.59C106.73 395.01 106.875 395.525 106.875 396.135C106.875 397.035 106.52 397.74 105.81 398.25C105.1 398.75 104.055 399 102.675 399H97.245ZM99.66 397.17H102.495C103.125 397.17 103.6 397.07 103.92 396.87C104.25 396.66 104.415 396.33 104.415 395.88C104.415 395.44 104.25 395.115 103.92 394.905C103.6 394.685 103.125 394.575 102.495 394.575H99.48V392.805H102.075C102.665 392.805 103.115 392.705 103.425 392.505C103.745 392.295 103.905 391.98 103.905 391.56C103.905 391.15 103.745 390.845 103.425 390.645C103.115 390.435 102.665 390.33 102.075 390.33H99.66V397.17ZM111.955 399.12C111.285 399.12 110.685 398.99 110.155 398.73C109.635 398.47 109.23 398.075 108.94 397.545C108.65 397.005 108.505 396.32 108.505 395.49V390.93H110.845V395.145C110.845 395.815 110.985 396.31 111.265 396.63C111.555 396.94 111.96 397.095 112.48 397.095C112.84 397.095 113.16 397.02 113.44 396.87C113.72 396.71 113.94 396.47 114.1 396.15C114.26 395.82 114.34 395.41 114.34 394.92V390.93H116.68V399H114.46V396.78L114.865 397.425C114.595 397.985 114.195 398.41 113.665 398.7C113.145 398.98 112.575 399.12 111.955 399.12ZM119.868 402.03C119.448 402.03 119.033 401.965 118.623 401.835C118.213 401.705 117.878 401.525 117.618 401.295L118.473 399.63C118.653 399.79 118.858 399.915 119.088 400.005C119.328 400.095 119.563 400.14 119.793 400.14C120.123 400.14 120.383 400.06 120.573 399.9C120.773 399.75 120.953 399.495 121.113 399.135L121.533 398.145L121.713 397.89L124.608 390.93H126.858L123.213 399.495C122.953 400.145 122.653 400.655 122.313 401.025C121.983 401.395 121.613 401.655 121.203 401.805C120.803 401.955 120.358 402.03 119.868 402.03ZM121.248 399.315L117.648 390.93H120.063L122.853 397.68L121.248 399.315ZM132.225 399V388.5H134.235L140.43 396.06H139.455V388.5H141.855V399H139.86L133.65 391.44H134.625V399H132.225ZM148.015 399.12C147.155 399.12 146.39 398.94 145.72 398.58C145.06 398.22 144.535 397.73 144.145 397.11C143.765 396.48 143.575 395.765 143.575 394.965C143.575 394.155 143.765 393.44 144.145 392.82C144.535 392.19 145.06 391.7 145.72 391.35C146.39 390.99 147.155 390.81 148.015 390.81C148.865 390.81 149.625 390.99 150.295 391.35C150.965 391.7 151.49 392.185 151.87 392.805C152.25 393.425 152.44 394.145 152.44 394.965C152.44 395.765 152.25 396.48 151.87 397.11C151.49 397.73 150.965 398.22 150.295 398.58C149.625 398.94 148.865 399.12 148.015 399.12ZM148.015 397.2C148.405 397.2 148.755 397.11 149.065 396.93C149.375 396.75 149.62 396.495 149.8 396.165C149.98 395.825 150.07 395.425 150.07 394.965C150.07 394.495 149.98 394.095 149.8 393.765C149.62 393.435 149.375 393.18 149.065 393C148.755 392.82 148.405 392.73 148.015 392.73C147.625 392.73 147.275 392.82 146.965 393C146.655 393.18 146.405 393.435 146.215 393.765C146.035 394.095 145.945 394.495 145.945 394.965C145.945 395.425 146.035 395.825 146.215 396.165C146.405 396.495 146.655 396.75 146.965 396.93C147.275 397.11 147.625 397.2 148.015 397.2ZM155.629 399L152.719 390.93H154.924L157.339 397.875H156.289L158.809 390.93H160.789L163.234 397.875H162.184L164.674 390.93H166.744L163.819 399H161.554L159.409 393.045H160.099L157.879 399H155.629Z" fill="white"/>
<path d="M103.66 557V543H106.34L112.3 552.88H110.88L116.74 543H119.4L119.44 557H116.4L116.38 547.66H116.94L112.26 555.52H110.8L106.02 547.66H106.7V557H103.66ZM127.662 557.16C126.515 557.16 125.495 556.92 124.602 556.44C123.722 555.96 123.022 555.307 122.502 554.48C121.995 553.64 121.742 552.687 121.742 551.62C121.742 550.54 121.995 549.587 122.502 548.76C123.022 547.92 123.722 547.267 124.602 546.8C125.495 546.32 126.515 546.08 127.662 546.08C128.795 546.08 129.808 546.32 130.702 546.8C131.595 547.267 132.295 547.913 132.802 548.74C133.308 549.567 133.562 550.527 133.562 551.62C133.562 552.687 133.308 553.64 132.802 554.48C132.295 555.307 131.595 555.96 130.702 556.44C129.808 556.92 128.795 557.16 127.662 557.16ZM127.662 554.6C128.182 554.6 128.648 554.48 129.062 554.24C129.475 554 129.802 553.66 130.042 553.22C130.282 552.767 130.402 552.233 130.402 551.62C130.402 550.993 130.282 550.46 130.042 550.02C129.802 549.58 129.475 549.24 129.062 549C128.648 548.76 128.182 548.64 127.662 548.64C127.142 548.64 126.675 548.76 126.262 549C125.848 549.24 125.515 549.58 125.262 550.02C125.022 550.46 124.902 550.993 124.902 551.62C124.902 552.233 125.022 552.767 125.262 553.22C125.515 553.66 125.848 554 126.262 554.24C126.675 554.48 127.142 554.6 127.662 554.6ZM135.647 557V546.24H138.627V549.28L138.207 548.4C138.527 547.64 139.04 547.067 139.747 546.68C140.454 546.28 141.314 546.08 142.327 546.08V548.96C142.194 548.947 142.074 548.94 141.967 548.94C141.86 548.927 141.747 548.92 141.627 548.92C140.774 548.92 140.08 549.167 139.547 549.66C139.027 550.14 138.767 550.893 138.767 551.92V557H135.647ZM149.444 557.16C148.217 557.16 147.137 556.92 146.204 556.44C145.284 555.96 144.571 555.307 144.064 554.48C143.557 553.64 143.304 552.687 143.304 551.62C143.304 550.54 143.551 549.587 144.044 548.76C144.551 547.92 145.237 547.267 146.104 546.8C146.971 546.32 147.951 546.08 149.044 546.08C150.097 546.08 151.044 546.307 151.884 546.76C152.737 547.2 153.411 547.84 153.904 548.68C154.397 549.507 154.644 550.5 154.644 551.66C154.644 551.78 154.637 551.92 154.624 552.08C154.611 552.227 154.597 552.367 154.584 552.5H145.844V550.68H152.944L151.744 551.22C151.744 550.66 151.631 550.173 151.404 549.76C151.177 549.347 150.864 549.027 150.464 548.8C150.064 548.56 149.597 548.44 149.064 548.44C148.531 548.44 148.057 548.56 147.644 548.8C147.244 549.027 146.931 549.353 146.704 549.78C146.477 550.193 146.364 550.687 146.364 551.26V551.74C146.364 552.327 146.491 552.847 146.744 553.3C147.011 553.74 147.377 554.08 147.844 554.32C148.324 554.547 148.884 554.66 149.524 554.66C150.097 554.66 150.597 554.573 151.024 554.4C151.464 554.227 151.864 553.967 152.224 553.62L153.884 555.42C153.391 555.98 152.771 556.413 152.024 556.72C151.277 557.013 150.417 557.16 149.444 557.16Z" fill="white"/>
<path d="M26.3626 56.7542V45.0018H27.6129V56.7542H26.3626ZM26.8127 55.4039C26.1126 55.4039 25.4416 55.3123 24.7998 55.1289C24.158 54.9372 23.6412 54.6913 23.2495 54.3912L23.9371 52.8659C24.3122 53.1326 24.754 53.3535 25.2624 53.5285C25.7792 53.6952 26.3001 53.7786 26.8252 53.7786C27.2253 53.7786 27.5462 53.7411 27.7879 53.6661C28.038 53.5827 28.2214 53.4702 28.338 53.3285C28.4547 53.1868 28.5131 53.0243 28.5131 52.8409C28.5131 52.6075 28.4214 52.4242 28.238 52.2908C28.0547 52.1491 27.8129 52.0366 27.5129 51.9532C27.2128 51.8615 26.8794 51.7782 26.5127 51.7032C26.1543 51.6198 25.7917 51.5198 25.4249 51.4031C25.0665 51.2864 24.7373 51.1364 24.4372 50.953C24.1372 50.7696 23.8913 50.5279 23.6996 50.2279C23.5162 49.9278 23.4245 49.5444 23.4245 49.0776C23.4245 48.5775 23.5579 48.1233 23.8246 47.7148C24.0997 47.2981 24.5081 46.9688 25.0499 46.7271C25.6 46.4771 26.2876 46.3521 27.1128 46.3521C27.6629 46.3521 28.2047 46.4187 28.7381 46.5521C29.2716 46.6771 29.7425 46.8688 30.1509 47.1272L29.5258 48.665C29.1174 48.4317 28.709 48.2608 28.3005 48.1524C27.8921 48.0357 27.492 47.9774 27.1003 47.9774C26.7085 47.9774 26.3876 48.0232 26.1376 48.1149C25.8875 48.2066 25.7083 48.3275 25.6 48.4775C25.4916 48.6192 25.4374 48.7859 25.4374 48.9776C25.4374 49.2026 25.5291 49.386 25.7125 49.5277C25.8959 49.6611 26.1376 49.7694 26.4377 49.8528C26.7377 49.9361 27.0669 50.0195 27.4254 50.1028C27.7921 50.1862 28.1547 50.282 28.5131 50.3904C28.8798 50.4988 29.2132 50.6446 29.5133 50.828C29.8134 51.0114 30.0551 51.2531 30.2384 51.5531C30.4301 51.8532 30.526 52.2324 30.526 52.6909C30.526 53.1826 30.3885 53.6327 30.1134 54.0412C29.8384 54.4496 29.4258 54.7788 28.8757 55.0289C28.3339 55.2789 27.6462 55.4039 26.8127 55.4039ZM34.1613 55.4039C33.5529 55.4039 32.9486 55.3248 32.3484 55.1664C31.7483 54.9997 31.2399 54.7663 30.8231 54.4662L31.6108 52.9159C31.9442 53.1576 32.3318 53.3493 32.7735 53.491C33.2153 53.6327 33.6612 53.7036 34.1113 53.7036C34.6198 53.7036 35.0198 53.6036 35.3116 53.4035C35.6033 53.2035 35.7492 52.9284 35.7492 52.5783C35.7492 52.2449 35.62 51.9824 35.3616 51.7907C35.1032 51.599 34.6864 51.5031 34.1113 51.5031H33.1861V50.1653L35.6241 47.4023L35.8492 48.1274H31.2607V46.5021H37.387V47.8149L34.9615 50.5779L33.9363 49.9903H34.5239C35.5991 49.9903 36.4118 50.232 36.9619 50.7155C37.512 51.1989 37.7871 51.8199 37.7871 52.5783C37.7871 53.0701 37.6579 53.5327 37.3995 53.9661C37.1411 54.3912 36.7452 54.7371 36.2118 55.0039C35.6783 55.2706 34.9948 55.4039 34.1613 55.4039ZM41.5758 55.4039C40.9673 55.4039 40.363 55.3248 39.7629 55.1664C39.1711 54.9997 38.6627 54.7663 38.2376 54.4662L39.0377 52.9159C39.3711 53.1576 39.7545 53.3493 40.188 53.491C40.6297 53.6327 41.0757 53.7036 41.5257 53.7036C42.0342 53.7036 42.4343 53.6036 42.726 53.4035C43.0177 53.2035 43.1636 52.9243 43.1636 52.5658C43.1636 52.3408 43.1052 52.1408 42.9886 51.9657C42.8719 51.7907 42.6635 51.6573 42.3634 51.5656C42.0717 51.474 41.6591 51.4281 41.1257 51.4281H38.8877L39.3378 46.5021H44.6764V48.1274H40.0629L41.1132 47.2022L40.8006 50.7155L39.7504 49.7903H41.6008C42.4676 49.7903 43.1636 49.9111 43.6887 50.1528C44.2221 50.3862 44.6097 50.7071 44.8514 51.1155C45.0932 51.524 45.214 51.9866 45.214 52.5033C45.214 53.0201 45.0848 53.4994 44.8264 53.9411C44.568 54.3746 44.168 54.7288 43.6262 55.0039C43.0927 55.2706 42.4093 55.4039 41.5758 55.4039ZM47.186 55.3539C46.8526 55.3539 46.565 55.2414 46.3233 55.0164C46.0899 54.783 45.9733 54.4871 45.9733 54.1287C45.9733 53.7703 46.0899 53.4827 46.3233 53.266C46.565 53.0409 46.8526 52.9284 47.186 52.9284C47.5277 52.9284 47.8153 53.0409 48.0487 53.266C48.2821 53.4827 48.3988 53.7703 48.3988 54.1287C48.3988 54.4871 48.2821 54.783 48.0487 55.0164C47.8153 55.2414 47.5277 55.3539 47.186 55.3539ZM52.3836 46.3521C53.1921 46.3521 53.8881 46.5188 54.4715 46.8522C55.055 47.1856 55.5051 47.6732 55.8218 48.315C56.1385 48.9484 56.2969 49.7403 56.2969 50.6905C56.2969 51.699 56.1052 52.5533 55.7218 53.2535C55.3467 53.9536 54.8257 54.4871 54.1589 54.8538C53.4921 55.2206 52.717 55.4039 51.8335 55.4039C51.375 55.4039 50.9333 55.3539 50.5082 55.2539C50.0831 55.1539 49.7164 55.0039 49.408 54.8038L50.1581 53.316C50.3998 53.4827 50.6582 53.5994 50.9333 53.6661C51.2083 53.7244 51.4959 53.7536 51.796 53.7536C52.5461 53.7536 53.1421 53.5244 53.5838 53.066C54.0339 52.6075 54.259 51.9282 54.259 51.028C54.259 50.878 54.2548 50.7113 54.2465 50.5279C54.2381 50.3446 54.2173 50.1612 54.1839 49.9778L54.7341 50.5029C54.5924 50.828 54.3923 51.103 54.1339 51.3281C53.8755 51.5448 53.5755 51.7115 53.2337 51.8282C52.892 51.9365 52.5086 51.9907 52.0835 51.9907C51.5251 51.9907 51.0166 51.8782 50.5582 51.6532C50.1081 51.4281 49.7455 51.1114 49.4705 50.703C49.2037 50.2945 49.0704 49.8153 49.0704 49.2652C49.0704 48.665 49.2162 48.1483 49.508 47.7148C49.808 47.2814 50.2081 46.948 50.7082 46.7146C51.2167 46.4729 51.7751 46.3521 52.3836 46.3521ZM52.5086 47.8649C52.2169 47.8649 51.9627 47.919 51.7459 48.0274C51.5292 48.1274 51.3584 48.2775 51.2333 48.4775C51.1083 48.6692 51.0458 48.8984 51.0458 49.1651C51.0458 49.5652 51.1792 49.8861 51.4459 50.1278C51.7209 50.3612 52.0835 50.4779 52.5336 50.4779C52.8253 50.4779 53.0837 50.4237 53.3088 50.3154C53.5421 50.1987 53.7214 50.0403 53.8464 49.8403C53.9714 49.6402 54.0339 49.4152 54.0339 49.1651C54.0339 48.9151 53.9714 48.6942 53.8464 48.5025C53.7297 48.3025 53.5588 48.1483 53.3338 48.0399C53.1087 47.9232 52.8337 47.8649 52.5086 47.8649ZM60.3442 46.3521C61.1527 46.3521 61.8487 46.5188 62.4321 46.8522C63.0156 47.1856 63.4657 47.6732 63.7824 48.315C64.0992 48.9484 64.2575 49.7403 64.2575 50.6905C64.2575 51.699 64.0658 52.5533 63.6824 53.2535C63.3073 53.9536 62.7864 54.4871 62.1196 54.8538C61.4528 55.2206 60.6776 55.4039 59.7941 55.4039C59.3357 55.4039 58.8939 55.3539 58.4688 55.2539C58.0437 55.1539 57.677 55.0039 57.3686 54.8038L58.1187 53.316C58.3605 53.4827 58.6189 53.5994 58.8939 53.6661C59.169 53.7244 59.4565 53.7536 59.7566 53.7536C60.5067 53.7536 61.1027 53.5244 61.5445 53.066C61.9946 52.6075 62.2196 51.9282 62.2196 51.028C62.2196 50.878 62.2154 50.7113 62.2071 50.5279C62.1988 50.3446 62.1779 50.1612 62.1446 49.9778L62.6947 50.5029C62.553 50.828 62.353 51.103 62.0946 51.3281C61.8362 51.5448 61.5361 51.7115 61.1944 51.8282C60.8527 51.9365 60.4692 51.9907 60.0442 51.9907C59.4857 51.9907 58.9773 51.8782 58.5188 51.6532C58.0687 51.4281 57.7062 51.1114 57.4311 50.703C57.1644 50.2945 57.031 49.8153 57.031 49.2652C57.031 48.665 57.1769 48.1483 57.4686 47.7148C57.7687 47.2814 58.1688 46.948 58.6689 46.7146C59.1773 46.4729 59.7358 46.3521 60.3442 46.3521ZM60.4692 47.8649C60.1775 47.8649 59.9233 47.919 59.7066 48.0274C59.4899 48.1274 59.319 48.2775 59.194 48.4775C59.0689 48.6692 59.0064 48.8984 59.0064 49.1651C59.0064 49.5652 59.1398 49.8861 59.4065 50.1278C59.6816 50.3612 60.0442 50.4779 60.4942 50.4779C60.786 50.4779 61.0444 50.4237 61.2694 50.3154C61.5028 50.1987 61.682 50.0403 61.807 49.8403C61.932 49.6402 61.9946 49.4152 61.9946 49.1651C61.9946 48.9151 61.932 48.6942 61.807 48.5025C61.6903 48.3025 61.5195 48.1483 61.2944 48.0399C61.0694 47.9232 60.7943 47.8649 60.4692 47.8649Z" fill="white"/>
<path d="M104.278 64.9769C103.83 64.9769 103.401 64.9182 102.99 64.8009C102.58 64.6782 102.249 64.5209 101.998 64.3289L102.438 63.3529C102.678 63.5235 102.961 63.6649 103.286 63.7769C103.617 63.8835 103.95 63.9369 104.286 63.9369C104.542 63.9369 104.748 63.9129 104.902 63.8649C105.062 63.8115 105.18 63.7395 105.254 63.6489C105.329 63.5582 105.366 63.4542 105.366 63.3369C105.366 63.1875 105.308 63.0702 105.19 62.9849C105.073 62.8942 104.918 62.8222 104.726 62.7689C104.534 62.7102 104.321 62.6569 104.086 62.6089C103.857 62.5555 103.625 62.4915 103.39 62.4169C103.161 62.3422 102.95 62.2462 102.758 62.1289C102.566 62.0115 102.409 61.8569 102.286 61.6649C102.169 61.4729 102.11 61.2275 102.11 60.9289C102.11 60.6089 102.196 60.3182 102.366 60.0569C102.542 59.7902 102.804 59.5795 103.15 59.4249C103.502 59.2649 103.942 59.1849 104.47 59.1849C104.822 59.1849 105.169 59.2275 105.51 59.3129C105.852 59.3929 106.153 59.5155 106.414 59.6809L106.014 60.6649C105.753 60.5155 105.492 60.4062 105.23 60.3369C104.969 60.2622 104.713 60.2249 104.462 60.2249C104.212 60.2249 104.006 60.2542 103.846 60.3129C103.686 60.3715 103.572 60.4489 103.502 60.5449C103.433 60.6355 103.398 60.7422 103.398 60.8649C103.398 61.0089 103.457 61.1262 103.574 61.2169C103.692 61.3022 103.846 61.3715 104.038 61.4249C104.23 61.4782 104.441 61.5315 104.67 61.5849C104.905 61.6382 105.137 61.6995 105.366 61.7689C105.601 61.8382 105.814 61.9315 106.006 62.0489C106.198 62.1662 106.353 62.3209 106.47 62.5129C106.593 62.7049 106.654 62.9475 106.654 63.2409C106.654 63.5555 106.566 63.8435 106.39 64.1049C106.214 64.3662 105.95 64.5769 105.598 64.7369C105.252 64.8969 104.812 64.9769 104.278 64.9769ZM109.268 64.9449C108.911 64.9449 108.591 64.8755 108.308 64.7369C108.031 64.5982 107.815 64.3875 107.66 64.1049C107.505 63.8169 107.428 63.4515 107.428 63.0089V60.5769H108.676V62.8249C108.676 63.1822 108.751 63.4462 108.9 63.6169C109.055 63.7822 109.271 63.8649 109.548 63.8649C109.74 63.8649 109.911 63.8249 110.06 63.7449C110.209 63.6595 110.327 63.5315 110.412 63.3609C110.497 63.1849 110.54 62.9662 110.54 62.7049V60.5769H111.788V64.8809H110.604V63.6969L110.82 64.0409C110.676 64.3395 110.463 64.5662 110.18 64.7209C109.903 64.8702 109.599 64.9449 109.268 64.9449ZM115.488 64.9449C115.109 64.9449 114.784 64.8649 114.512 64.7049C114.24 64.5449 114.032 64.3022 113.888 63.9769C113.744 63.6462 113.672 63.2302 113.672 62.7289C113.672 62.2222 113.747 61.8062 113.896 61.4809C114.051 61.1555 114.264 60.9129 114.536 60.7529C114.808 60.5929 115.125 60.5129 115.488 60.5129C115.893 60.5129 116.256 60.6035 116.576 60.7849C116.901 60.9662 117.157 61.2222 117.344 61.5529C117.536 61.8835 117.632 62.2755 117.632 62.7289C117.632 63.1769 117.536 63.5662 117.344 63.8969C117.157 64.2275 116.901 64.4862 116.576 64.6729C116.256 64.8542 115.893 64.9449 115.488 64.9449ZM112.944 64.8809V58.9449H114.192V61.4489L114.112 62.7209L114.136 64.0009V64.8809H112.944ZM115.272 63.9209C115.48 63.9209 115.664 63.8729 115.824 63.7769C115.989 63.6809 116.12 63.5449 116.216 63.3689C116.317 63.1875 116.368 62.9742 116.368 62.7289C116.368 62.4782 116.317 62.2649 116.216 62.0889C116.12 61.9129 115.989 61.7769 115.824 61.6809C115.664 61.5849 115.48 61.5369 115.272 61.5369C115.064 61.5369 114.877 61.5849 114.712 61.6809C114.547 61.7769 114.416 61.9129 114.32 62.0889C114.224 62.2649 114.176 62.4782 114.176 62.7289C114.176 62.9742 114.224 63.1875 114.32 63.3689C114.416 63.5449 114.547 63.6809 114.712 63.7769C114.877 63.8729 115.064 63.9209 115.272 63.9209ZM119.916 64.9449C119.548 64.9449 119.193 64.9022 118.852 64.8169C118.516 64.7262 118.249 64.6142 118.052 64.4809L118.468 63.5849C118.665 63.7075 118.897 63.8089 119.164 63.8889C119.436 63.9635 119.702 64.0009 119.964 64.0009C120.252 64.0009 120.454 63.9662 120.572 63.8969C120.694 63.8275 120.756 63.7315 120.756 63.6089C120.756 63.5075 120.708 63.4329 120.612 63.3849C120.521 63.3315 120.398 63.2915 120.244 63.2649C120.089 63.2382 119.918 63.2115 119.732 63.1849C119.55 63.1582 119.366 63.1235 119.18 63.0809C118.993 63.0329 118.822 62.9635 118.668 62.8729C118.513 62.7822 118.388 62.6595 118.292 62.5049C118.201 62.3502 118.156 62.1502 118.156 61.9049C118.156 61.6329 118.233 61.3929 118.388 61.1849C118.548 60.9769 118.777 60.8142 119.076 60.6969C119.374 60.5742 119.732 60.5129 120.148 60.5129C120.441 60.5129 120.74 60.5449 121.044 60.6089C121.348 60.6729 121.601 60.7662 121.804 60.8889L121.388 61.7769C121.18 61.6542 120.969 61.5715 120.756 61.5289C120.548 61.4809 120.345 61.4569 120.148 61.4569C119.87 61.4569 119.668 61.4942 119.54 61.5689C119.412 61.6435 119.348 61.7395 119.348 61.8569C119.348 61.9635 119.393 62.0435 119.484 62.0969C119.58 62.1502 119.705 62.1929 119.86 62.2249C120.014 62.2569 120.182 62.2862 120.364 62.3129C120.55 62.3342 120.737 62.3689 120.924 62.4169C121.11 62.4649 121.278 62.5342 121.428 62.6249C121.582 62.7102 121.708 62.8302 121.804 62.9849C121.9 63.1342 121.948 63.3315 121.948 63.5769C121.948 63.8435 121.868 64.0809 121.708 64.2889C121.548 64.4915 121.316 64.6515 121.012 64.7689C120.713 64.8862 120.348 64.9449 119.916 64.9449ZM124.798 64.9449C124.334 64.9449 123.92 64.8515 123.558 64.6649C123.195 64.4729 122.91 64.2089 122.702 63.8729C122.499 63.5369 122.398 63.1555 122.398 62.7289C122.398 62.2969 122.499 61.9155 122.702 61.5849C122.91 61.2489 123.195 60.9875 123.558 60.8009C123.92 60.6089 124.334 60.5129 124.798 60.5129C125.251 60.5129 125.646 60.6089 125.982 60.8009C126.318 60.9875 126.566 61.2569 126.726 61.6089L125.758 62.1289C125.646 61.9262 125.504 61.7769 125.334 61.6809C125.168 61.5849 124.987 61.5369 124.79 61.5369C124.576 61.5369 124.384 61.5849 124.214 61.6809C124.043 61.7769 123.907 61.9129 123.806 62.0889C123.71 62.2649 123.662 62.4782 123.662 62.7289C123.662 62.9795 123.71 63.1929 123.806 63.3689C123.907 63.5449 124.043 63.6809 124.214 63.7769C124.384 63.8729 124.576 63.9209 124.79 63.9209C124.987 63.9209 125.168 63.8755 125.334 63.7849C125.504 63.6889 125.646 63.5369 125.758 63.3289L126.726 63.8569C126.566 64.2035 126.318 64.4729 125.982 64.6649C125.646 64.8515 125.251 64.9449 124.798 64.9449ZM127.444 64.8809V60.5769H128.636V61.7929L128.468 61.4409C128.596 61.1369 128.801 60.9075 129.084 60.7529C129.367 60.5929 129.711 60.5129 130.116 60.5129V61.6649C130.063 61.6595 130.015 61.6569 129.972 61.6569C129.929 61.6515 129.884 61.6489 129.836 61.6489C129.495 61.6489 129.217 61.7475 129.004 61.9449C128.796 62.1369 128.692 62.4382 128.692 62.8489V64.8809H127.444ZM130.866 64.8809V60.5769H132.114V64.8809H130.866ZM131.49 59.9769C131.261 59.9769 131.074 59.9102 130.93 59.7769C130.786 59.6435 130.714 59.4782 130.714 59.2809C130.714 59.0835 130.786 58.9182 130.93 58.7849C131.074 58.6515 131.261 58.5849 131.49 58.5849C131.719 58.5849 131.906 58.6489 132.05 58.7769C132.194 58.8995 132.266 59.0595 132.266 59.2569C132.266 59.4649 132.194 59.6382 132.05 59.7769C131.911 59.9102 131.725 59.9769 131.49 59.9769ZM135.816 64.9449C135.454 64.9449 135.136 64.8649 134.864 64.7049C134.592 64.5449 134.379 64.3022 134.224 63.9769C134.075 63.6462 134 63.2302 134 62.7289C134 62.2222 134.072 61.8062 134.216 61.4809C134.36 61.1555 134.568 60.9129 134.84 60.7529C135.112 60.5929 135.438 60.5129 135.816 60.5129C136.222 60.5129 136.584 60.6062 136.904 60.7929C137.23 60.9742 137.486 61.2302 137.672 61.5609C137.864 61.8915 137.96 62.2809 137.96 62.7289C137.96 63.1822 137.864 63.5742 137.672 63.9049C137.486 64.2355 137.23 64.4915 136.904 64.6729C136.584 64.8542 136.222 64.9449 135.816 64.9449ZM133.272 66.4329V60.5769H134.464V61.4569L134.44 62.7369L134.52 64.0089V66.4329H133.272ZM135.6 63.9209C135.808 63.9209 135.992 63.8729 136.152 63.7769C136.318 63.6809 136.448 63.5449 136.544 63.3689C136.646 63.1875 136.696 62.9742 136.696 62.7289C136.696 62.4782 136.646 62.2649 136.544 62.0889C136.448 61.9129 136.318 61.7769 136.152 61.6809C135.992 61.5849 135.808 61.5369 135.6 61.5369C135.392 61.5369 135.206 61.5849 135.04 61.6809C134.875 61.7769 134.744 61.9129 134.648 62.0889C134.552 62.2649 134.504 62.4782 134.504 62.7289C134.504 62.9742 134.552 63.1875 134.648 63.3689C134.744 63.5449 134.875 63.6809 135.04 63.7769C135.206 63.8729 135.392 63.9209 135.6 63.9209ZM140.556 64.9449C140.049 64.9449 139.654 64.8169 139.372 64.5609C139.089 64.2995 138.948 63.9129 138.948 63.4009V59.6249H140.196V63.3849C140.196 63.5662 140.244 63.7075 140.34 63.8089C140.436 63.9049 140.566 63.9529 140.732 63.9529C140.929 63.9529 141.097 63.8995 141.236 63.7929L141.572 64.6729C141.444 64.7635 141.289 64.8329 141.108 64.8809C140.932 64.9235 140.748 64.9449 140.556 64.9449ZM138.284 61.6329V60.6729H141.268V61.6329H138.284ZM142.272 64.8809V60.5769H143.52V64.8809H142.272ZM142.896 59.9769C142.667 59.9769 142.48 59.9102 142.336 59.7769C142.192 59.6435 142.12 59.4782 142.12 59.2809C142.12 59.0835 142.192 58.9182 142.336 58.7849C142.48 58.6515 142.667 58.5849 142.896 58.5849C143.126 58.5849 143.312 58.6489 143.456 58.7769C143.6 58.8995 143.672 59.0595 143.672 59.2569C143.672 59.4649 143.6 59.6382 143.456 59.7769C143.318 59.9102 143.131 59.9769 142.896 59.9769ZM146.727 64.9449C146.268 64.9449 145.86 64.8489 145.503 64.6569C145.151 64.4649 144.871 64.2035 144.663 63.8729C144.46 63.5369 144.359 63.1555 144.359 62.7289C144.359 62.2969 144.46 61.9155 144.663 61.5849C144.871 61.2489 145.151 60.9875 145.503 60.8009C145.86 60.6089 146.268 60.5129 146.727 60.5129C147.18 60.5129 147.585 60.6089 147.943 60.8009C148.3 60.9875 148.58 61.2462 148.783 61.5769C148.985 61.9075 149.087 62.2915 149.087 62.7289C149.087 63.1555 148.985 63.5369 148.783 63.8729C148.58 64.2035 148.3 64.4649 147.943 64.6569C147.585 64.8489 147.18 64.9449 146.727 64.9449ZM146.727 63.9209C146.935 63.9209 147.121 63.8729 147.287 63.7769C147.452 63.6809 147.583 63.5449 147.679 63.3689C147.775 63.1875 147.823 62.9742 147.823 62.7289C147.823 62.4782 147.775 62.2649 147.679 62.0889C147.583 61.9129 147.452 61.7769 147.287 61.6809C147.121 61.5849 146.935 61.5369 146.727 61.5369C146.519 61.5369 146.332 61.5849 146.167 61.6809C146.001 61.7769 145.868 61.9129 145.767 62.0889C145.671 62.2649 145.623 62.4782 145.623 62.7289C145.623 62.9742 145.671 63.1875 145.767 63.3689C145.868 63.5449 146.001 63.6809 146.167 63.7769C146.332 63.8729 146.519 63.9209 146.727 63.9209ZM152.537 60.5129C152.878 60.5129 153.182 60.5822 153.449 60.7209C153.721 60.8542 153.934 61.0622 154.089 61.3449C154.243 61.6222 154.321 61.9795 154.321 62.4169V64.8809H153.073V62.6089C153.073 62.2622 152.995 62.0062 152.841 61.8409C152.691 61.6755 152.478 61.5929 152.201 61.5929C152.003 61.5929 151.825 61.6355 151.665 61.7209C151.51 61.8009 151.387 61.9262 151.297 62.0969C151.211 62.2675 151.169 62.4862 151.169 62.7529V64.8809H149.921V60.5769H151.113V61.7689L150.889 61.4089C151.043 61.1209 151.265 60.8995 151.553 60.7449C151.841 60.5902 152.169 60.5129 152.537 60.5129Z" fill="#0A91E5"/>
<path d="M38.4686 134.856V124.356H42.5636C43.4836 124.356 44.2686 124.501 44.9186 124.791C45.5686 125.081 46.0686 125.501 46.4186 126.051C46.7686 126.601 46.9436 127.256 46.9436 128.016C46.9436 128.776 46.7686 129.431 46.4186 129.981C46.0686 130.521 45.5686 130.941 44.9186 131.241C44.2686 131.531 43.4836 131.676 42.5636 131.676H39.2936L39.9686 130.971V134.856H38.4686ZM39.9686 131.121L39.2936 130.371H42.5186C43.4786 130.371 44.2036 130.166 44.6936 129.756C45.1936 129.346 45.4436 128.766 45.4436 128.016C45.4436 127.266 45.1936 126.686 44.6936 126.276C44.2036 125.866 43.4786 125.661 42.5186 125.661H39.2936L39.9686 124.911V131.121ZM48.7908 134.856V126.906H50.1708V129.066L50.0358 128.526C50.2558 127.976 50.6258 127.556 51.1458 127.266C51.6658 126.976 52.3058 126.831 53.0658 126.831V128.226C53.0058 128.216 52.9458 128.211 52.8858 128.211C52.8358 128.211 52.7858 128.211 52.7358 128.211C51.9658 128.211 51.3558 128.441 50.9058 128.901C50.4558 129.361 50.2308 130.026 50.2308 130.896V134.856H48.7908ZM58.1723 134.946C57.3723 134.946 56.6623 134.771 56.0423 134.421C55.4223 134.071 54.9323 133.591 54.5723 132.981C54.2123 132.361 54.0323 131.661 54.0323 130.881C54.0323 130.091 54.2123 129.391 54.5723 128.781C54.9323 128.171 55.4223 127.696 56.0423 127.356C56.6623 127.006 57.3723 126.831 58.1723 126.831C58.9623 126.831 59.6673 127.006 60.2873 127.356C60.9173 127.696 61.4073 128.171 61.7573 128.781C62.1173 129.381 62.2973 130.081 62.2973 130.881C62.2973 131.671 62.1173 132.371 61.7573 132.981C61.4073 133.591 60.9173 134.071 60.2873 134.421C59.6673 134.771 58.9623 134.946 58.1723 134.946ZM58.1723 133.686C58.6823 133.686 59.1373 133.571 59.5373 133.341C59.9473 133.111 60.2673 132.786 60.4973 132.366C60.7273 131.936 60.8423 131.441 60.8423 130.881C60.8423 130.311 60.7273 129.821 60.4973 129.411C60.2673 128.991 59.9473 128.666 59.5373 128.436C59.1373 128.206 58.6823 128.091 58.1723 128.091C57.6623 128.091 57.2073 128.206 56.8073 128.436C56.4073 128.666 56.0873 128.991 55.8473 129.411C55.6073 129.821 55.4873 130.311 55.4873 130.881C55.4873 131.441 55.6073 131.936 55.8473 132.366C56.0873 132.786 56.4073 133.111 56.8073 133.341C57.2073 133.571 57.6623 133.686 58.1723 133.686ZM64.4988 134.856V126.201C64.4988 125.421 64.7238 124.801 65.1738 124.341C65.6338 123.871 66.2838 123.636 67.1238 123.636C67.4338 123.636 67.7288 123.676 68.0088 123.756C68.2988 123.826 68.5438 123.941 68.7438 124.101L68.3088 125.196C68.1588 125.076 67.9888 124.986 67.7988 124.926C67.6088 124.856 67.4088 124.821 67.1988 124.821C66.7788 124.821 66.4588 124.941 66.2388 125.181C66.0188 125.411 65.9088 125.756 65.9088 126.216V127.281L65.9388 127.941V134.856H64.4988ZM63.1488 128.091V126.906H68.2188V128.091H63.1488ZM69.5838 134.856V126.906H71.0238V134.856H69.5838ZM70.3038 125.376C70.0238 125.376 69.7888 125.286 69.5988 125.106C69.4188 124.926 69.3288 124.706 69.3288 124.446C69.3288 124.176 69.4188 123.951 69.5988 123.771C69.7888 123.591 70.0238 123.501 70.3038 123.501C70.5838 123.501 70.8138 123.591 70.9938 123.771C71.1838 123.941 71.2788 124.156 71.2788 124.416C71.2788 124.686 71.1888 124.916 71.0088 125.106C70.8288 125.286 70.5938 125.376 70.3038 125.376ZM73.7664 134.856V123.726H75.2064V134.856H73.7664ZM81.4958 134.946C80.6458 134.946 79.8958 134.771 79.2458 134.421C78.6058 134.071 78.1058 133.591 77.7458 132.981C77.3958 132.371 77.2208 131.671 77.2208 130.881C77.2208 130.091 77.3908 129.391 77.7308 128.781C78.0808 128.171 78.5558 127.696 79.1558 127.356C79.7658 127.006 80.4508 126.831 81.2108 126.831C81.9808 126.831 82.6608 127.001 83.2508 127.341C83.8408 127.681 84.3008 128.161 84.6308 128.781C84.9708 129.391 85.1408 130.106 85.1408 130.926C85.1408 130.986 85.1358 131.056 85.1258 131.136C85.1258 131.216 85.1208 131.291 85.1108 131.361H78.3458V130.326H84.3608L83.7758 130.686C83.7858 130.176 83.6808 129.721 83.4608 129.321C83.2408 128.921 82.9358 128.611 82.5458 128.391C82.1658 128.161 81.7208 128.046 81.2108 128.046C80.7108 128.046 80.2658 128.161 79.8758 128.391C79.4858 128.611 79.1808 128.926 78.9608 129.336C78.7408 129.736 78.6308 130.196 78.6308 130.716V130.956C78.6308 131.486 78.7508 131.961 78.9908 132.381C79.2408 132.791 79.5858 133.111 80.0258 133.341C80.4658 133.571 80.9708 133.686 81.5408 133.686C82.0108 133.686 82.4358 133.606 82.8158 133.446C83.2058 133.286 83.5458 133.046 83.8358 132.726L84.6308 133.656C84.2708 134.076 83.8208 134.396 83.2808 134.616C82.7508 134.836 82.1558 134.946 81.4958 134.946ZM91.3787 134.856V124.356H95.4737C96.3937 124.356 97.1787 124.501 97.8287 124.791C98.4787 125.081 98.9787 125.501 99.3287 126.051C99.6787 126.601 99.8537 127.256 99.8537 128.016C99.8537 128.776 99.6787 129.431 99.3287 129.981C98.9787 130.521 98.4787 130.941 97.8287 131.241C97.1787 131.531 96.3937 131.676 95.4737 131.676H92.2037L92.8787 130.971V134.856H91.3787ZM92.8787 131.121L92.2037 130.371H95.4287C96.3887 130.371 97.1137 130.166 97.6037 129.756C98.1037 129.346 98.3537 128.766 98.3537 128.016C98.3537 127.266 98.1037 126.686 97.6037 126.276C97.1137 125.866 96.3887 125.661 95.4287 125.661H92.2037L92.8787 124.911V131.121ZM106.709 134.856V133.176L106.634 132.861V129.996C106.634 129.386 106.454 128.916 106.094 128.586C105.744 128.246 105.214 128.076 104.504 128.076C104.034 128.076 103.574 128.156 103.124 128.316C102.674 128.466 102.294 128.671 101.984 128.931L101.384 127.851C101.794 127.521 102.284 127.271 102.854 127.101C103.434 126.921 104.039 126.831 104.669 126.831C105.759 126.831 106.599 127.096 107.189 127.626C107.779 128.156 108.074 128.966 108.074 130.056V134.856H106.709ZM104.099 134.946C103.509 134.946 102.989 134.846 102.539 134.646C102.099 134.446 101.759 134.171 101.519 133.821C101.279 133.461 101.159 133.056 101.159 132.606C101.159 132.176 101.259 131.786 101.459 131.436C101.669 131.086 102.004 130.806 102.464 130.596C102.934 130.386 103.564 130.281 104.354 130.281H106.874V131.316H104.414C103.694 131.316 103.209 131.436 102.959 131.676C102.709 131.916 102.584 132.206 102.584 132.546C102.584 132.936 102.739 133.251 103.049 133.491C103.359 133.721 103.789 133.836 104.339 133.836C104.879 133.836 105.349 133.716 105.749 133.476C106.159 133.236 106.454 132.886 106.634 132.426L106.919 133.416C106.729 133.886 106.394 134.261 105.914 134.541C105.434 134.811 104.829 134.946 104.099 134.946ZM114.219 137.856C113.489 137.856 112.779 137.751 112.089 137.541C111.409 137.341 110.854 137.051 110.424 136.671L111.114 135.561C111.484 135.881 111.939 136.131 112.479 136.311C113.019 136.501 113.584 136.596 114.174 136.596C115.114 136.596 115.804 136.376 116.244 135.936C116.684 135.496 116.904 134.826 116.904 133.926V132.246L117.054 130.671L116.979 129.081V126.906H118.344V133.776C118.344 135.176 117.994 136.206 117.294 136.866C116.594 137.526 115.569 137.856 114.219 137.856ZM114.039 134.526C113.269 134.526 112.579 134.366 111.969 134.046C111.369 133.716 110.889 133.261 110.529 132.681C110.179 132.101 110.004 131.431 110.004 130.671C110.004 129.901 110.179 129.231 110.529 128.661C110.889 128.081 111.369 127.631 111.969 127.311C112.579 126.991 113.269 126.831 114.039 126.831C114.719 126.831 115.339 126.971 115.899 127.251C116.459 127.521 116.904 127.941 117.234 128.511C117.574 129.081 117.744 129.801 117.744 130.671C117.744 131.531 117.574 132.246 117.234 132.816C116.904 133.386 116.459 133.816 115.899 134.106C115.339 134.386 114.719 134.526 114.039 134.526ZM114.204 133.266C114.734 133.266 115.204 133.156 115.614 132.936C116.024 132.716 116.344 132.411 116.574 132.021C116.814 131.631 116.934 131.181 116.934 130.671C116.934 130.161 116.814 129.711 116.574 129.321C116.344 128.931 116.024 128.631 115.614 128.421C115.204 128.201 114.734 128.091 114.204 128.091C113.674 128.091 113.199 128.201 112.779 128.421C112.369 128.631 112.044 128.931 111.804 129.321C111.574 129.711 111.459 130.161 111.459 130.671C111.459 131.181 111.574 131.631 111.804 132.021C112.044 132.411 112.369 132.716 112.779 132.936C113.199 133.156 113.674 133.266 114.204 133.266ZM124.635 134.946C123.785 134.946 123.035 134.771 122.385 134.421C121.745 134.071 121.245 133.591 120.885 132.981C120.535 132.371 120.36 131.671 120.36 130.881C120.36 130.091 120.53 129.391 120.87 128.781C121.22 128.171 121.695 127.696 122.295 127.356C122.905 127.006 123.59 126.831 124.35 126.831C125.12 126.831 125.8 127.001 126.39 127.341C126.98 127.681 127.44 128.161 127.77 128.781C128.11 129.391 128.28 130.106 128.28 130.926C128.28 130.986 128.275 131.056 128.265 131.136C128.265 131.216 128.26 131.291 128.25 131.361H121.485V130.326H127.5L126.915 130.686C126.925 130.176 126.82 129.721 126.6 129.321C126.38 128.921 126.075 128.611 125.685 128.391C125.305 128.161 124.86 128.046 124.35 128.046C123.85 128.046 123.405 128.161 123.015 128.391C122.625 128.611 122.32 128.926 122.1 129.336C121.88 129.736 121.77 130.196 121.77 130.716V130.956C121.77 131.486 121.89 131.961 122.13 132.381C122.38 132.791 122.725 133.111 123.165 133.341C123.605 133.571 124.11 133.686 124.68 133.686C125.15 133.686 125.575 133.606 125.955 133.446C126.345 133.286 126.685 133.046 126.975 132.726L127.77 133.656C127.41 134.076 126.96 134.396 126.42 134.616C125.89 134.836 125.295 134.946 124.635 134.946Z" fill="white"/>
<path d="M34.1348 132.26C34.1348 133.913 32.8036 135.245 31.1497 135.245C29.4958 135.245 28.1646 133.913 28.1646 132.26C28.1646 130.606 29.4958 129.274 31.1497 129.274C32.8036 129.274 34.1348 130.606 34.1348 132.26Z" fill="white"/>
<path d="M45.7775 149.3H45.0375L42.6375 153.23L40.2375 149.3H39.4475L42.2475 153.88V156.3H42.9775V153.88L45.7775 149.3ZM48.3295 156.35C49.8695 156.35 50.9995 155.23 50.9995 153.67C50.9995 152.11 49.8695 151 48.3295 151C46.7895 151 45.6495 152.11 45.6495 153.67C45.6495 155.23 46.7895 156.35 48.3295 156.35ZM48.3295 155.72C47.2095 155.72 46.3695 154.9 46.3695 153.67C46.3695 152.44 47.2095 151.62 48.3295 151.62C49.4495 151.62 50.2795 152.44 50.2795 153.67C50.2795 154.9 49.4495 155.72 48.3295 155.72ZM56.479 151.04V153.8C56.479 155 55.789 155.71 54.689 155.71C53.689 155.71 53.109 155.14 53.109 154.02V151.04H52.399V154.09C52.399 155.6 53.279 156.35 54.619 156.35C55.459 156.35 56.139 155.98 56.509 155.34V156.3H57.189V151.04H56.479ZM63.9747 156.35C64.8647 156.35 65.6147 155.99 66.0347 155.31L65.5047 154.95C65.1447 155.48 64.5847 155.72 63.9747 155.72C62.8247 155.72 61.9847 154.91 61.9847 153.67C61.9847 152.44 62.8247 151.62 63.9747 151.62C64.5847 151.62 65.1447 151.87 65.5047 152.4L66.0347 152.04C65.6147 151.35 64.8647 151 63.9747 151C62.4047 151 61.2647 152.1 61.2647 153.67C61.2647 155.24 62.4047 156.35 63.9747 156.35ZM69.2695 151C68.4395 151 67.6595 151.26 67.1295 151.71L67.4495 152.24C67.8795 151.86 68.5195 151.62 69.1995 151.62C70.1795 151.62 70.6895 152.11 70.6895 153.01V153.33H69.0195C67.5095 153.33 66.9895 154.01 66.9895 154.82C66.9895 155.73 67.7195 156.35 68.9095 156.35C69.7795 156.35 70.3995 156.02 70.7195 155.48V156.3H71.3995V153.04C71.3995 151.68 70.6295 151 69.2695 151ZM69.0195 155.79C68.1795 155.79 67.6895 155.41 67.6895 154.8C67.6895 154.26 68.0195 153.86 69.0395 153.86H70.6895V154.72C70.4095 155.41 69.8195 155.79 69.0195 155.79ZM76.0079 151C75.0979 151 74.3879 151.37 74.0079 152.01V151.04H73.3279V156.3H74.0379V153.54C74.0379 152.34 74.7479 151.64 75.8779 151.64C76.8779 151.64 77.4579 152.21 77.4579 153.32V156.3H78.1679V153.25C78.1679 151.74 77.2879 151 76.0079 151ZM89.2727 151C88.3227 151 87.5727 151.43 87.1927 152.11C86.8727 151.37 86.1927 151 85.3227 151C84.4427 151 83.7627 151.37 83.3927 152V151.04H82.7127V156.3H83.4227V153.54C83.4227 152.34 84.1127 151.64 85.1827 151.64C86.1427 151.64 86.7027 152.21 86.7027 153.32V156.3H87.4127V153.54C87.4127 152.34 88.0927 151.64 89.1727 151.64C90.1227 151.64 90.6827 152.21 90.6827 153.32V156.3H91.3927V153.25C91.3927 151.74 90.5527 151 89.2727 151ZM95.1581 151C94.3281 151 93.5481 151.26 93.0181 151.71L93.3381 152.24C93.7681 151.86 94.4081 151.62 95.0881 151.62C96.0681 151.62 96.5781 152.11 96.5781 153.01V153.33H94.9081C93.3981 153.33 92.8781 154.01 92.8781 154.82C92.8781 155.73 93.6081 156.35 94.7981 156.35C95.6681 156.35 96.2881 156.02 96.6081 155.48V156.3H97.2881V153.04C97.2881 151.68 96.5181 151 95.1581 151ZM94.9081 155.79C94.0681 155.79 93.5781 155.41 93.5781 154.8C93.5781 154.26 93.9081 153.86 94.9281 153.86H96.5781V154.72C96.2981 155.41 95.7081 155.79 94.9081 155.79ZM103.287 156.3H104.157L101.697 153.19L103.947 151.04H103.067L99.9266 153.91V148.88H99.2166V156.3H99.9266V154.8L101.167 153.66L103.287 156.3ZM109.598 153.67C109.598 152.09 108.528 151 107.048 151C105.568 151 104.478 152.11 104.478 153.67C104.478 155.23 105.598 156.35 107.238 156.35C108.068 156.35 108.798 156.05 109.268 155.49L108.868 155.03C108.468 155.49 107.898 155.72 107.258 155.72C106.108 155.72 105.268 154.99 105.188 153.89H109.588C109.588 153.81 109.598 153.73 109.598 153.67ZM107.048 151.61C108.078 151.61 108.828 152.33 108.918 153.36H105.188C105.278 152.33 106.028 151.61 107.048 151.61ZM117.38 151.04L115.4 155.51L113.42 151.04H112.68L115.03 156.29L114.8 156.8C114.5 157.46 114.18 157.68 113.71 157.68C113.33 157.68 113.01 157.54 112.75 157.28L112.42 157.81C112.74 158.13 113.21 158.29 113.7 158.29C114.45 158.29 115.01 157.96 115.45 156.93L118.08 151.04H117.38ZM121.083 156.35C122.623 156.35 123.753 155.23 123.753 153.67C123.753 152.11 122.623 151 121.083 151C119.543 151 118.403 152.11 118.403 153.67C118.403 155.23 119.543 156.35 121.083 156.35ZM121.083 155.72C119.963 155.72 119.123 154.9 119.123 153.67C119.123 152.44 119.963 151.62 121.083 151.62C122.203 151.62 123.033 152.44 123.033 153.67C123.033 154.9 122.203 155.72 121.083 155.72ZM129.233 151.04V153.8C129.233 155 128.543 155.71 127.443 155.71C126.443 155.71 125.863 155.14 125.863 154.02V151.04H125.153V154.09C125.153 155.6 126.033 156.35 127.373 156.35C128.213 156.35 128.893 155.98 129.263 155.34V156.3H129.943V151.04H129.233ZM132.611 152.07V151.04H131.931V156.3H132.641V153.62C132.641 152.38 133.311 151.68 134.411 151.68C134.461 151.68 134.521 151.69 134.581 151.69V151C133.611 151 132.941 151.37 132.611 152.07ZM140.712 156.35C142.252 156.35 143.382 155.23 143.382 153.67C143.382 152.11 142.252 151 140.712 151C139.172 151 138.032 152.11 138.032 153.67C138.032 155.23 139.172 156.35 140.712 156.35ZM140.712 155.72C139.592 155.72 138.752 154.9 138.752 153.67C138.752 152.44 139.592 151.62 140.712 151.62C141.832 151.62 142.662 152.44 142.662 153.67C142.662 154.9 141.832 155.72 140.712 155.72ZM151.755 151.04L150.085 155.51L148.405 151.04H147.795L146.105 155.51L144.455 151.04H143.775L145.755 156.3H146.425L148.085 151.99L149.745 156.3H150.415L152.405 151.04H151.755ZM156.154 151C155.244 151 154.534 151.37 154.154 152.01V151.04H153.474V156.3H154.184V153.54C154.184 152.34 154.894 151.64 156.024 151.64C157.024 151.64 157.604 152.21 157.604 153.32V156.3H158.314V153.25C158.314 151.74 157.434 151 156.154 151ZM165.569 151C164.699 151 163.969 151.38 163.539 152.08V151.04H162.859V158.24H163.569V155.31C164.009 155.99 164.729 156.35 165.569 156.35C167.069 156.35 168.189 155.27 168.189 153.67C168.189 152.08 167.069 151 165.569 151ZM165.519 155.72C164.399 155.72 163.559 154.9 163.559 153.67C163.559 152.45 164.399 151.62 165.519 151.62C166.629 151.62 167.479 152.45 167.479 153.67C167.479 154.9 166.629 155.72 165.519 155.72ZM170.316 152.07V151.04H169.636V156.3H170.346V153.62C170.346 152.38 171.016 151.68 172.116 151.68C172.166 151.68 172.226 151.69 172.286 151.69V151C171.316 151 170.646 151.37 170.316 152.07ZM175.673 156.35C177.213 156.35 178.343 155.23 178.343 153.67C178.343 152.11 177.213 151 175.673 151C174.133 151 172.993 152.11 172.993 153.67C172.993 155.23 174.133 156.35 175.673 156.35ZM175.673 155.72C174.553 155.72 173.713 154.9 173.713 153.67C173.713 152.44 174.553 151.62 175.673 151.62C176.793 151.62 177.623 152.44 177.623 153.67C177.623 154.9 176.793 155.72 175.673 155.72ZM179.913 150.39V151.04H178.973V151.64H179.913V156.3H180.623V151.64H182.223V151.04H180.603V150.42C180.603 149.77 180.923 149.43 181.533 149.43C181.833 149.43 182.113 149.52 182.313 149.69L182.553 149.16C182.293 148.94 181.893 148.83 181.503 148.83C180.473 148.83 179.913 149.45 179.913 150.39ZM184.343 148.88C184.053 148.88 183.823 149.11 183.823 149.38C183.823 149.66 184.053 149.89 184.343 149.89C184.643 149.89 184.863 149.66 184.863 149.37C184.863 149.1 184.633 148.88 184.343 148.88ZM183.983 156.3H184.693V151.04H183.983V156.3ZM186.678 156.3H187.388V148.88H186.678V156.3ZM193.953 153.67C193.953 152.09 192.883 151 191.403 151C189.923 151 188.833 152.11 188.833 153.67C188.833 155.23 189.953 156.35 191.593 156.35C192.423 156.35 193.153 156.05 193.623 155.49L193.223 155.03C192.823 155.49 192.253 155.72 191.613 155.72C190.463 155.72 189.623 154.99 189.543 153.89H193.943C193.943 153.81 193.953 153.73 193.953 153.67ZM191.403 151.61C192.433 151.61 193.183 152.33 193.273 153.36H189.543C189.633 152.33 190.383 151.61 191.403 151.61ZM43.1375 163C42.2675 163 41.5375 163.38 41.1075 164.08V163.04H40.4275V170.24H41.1375V167.31C41.5775 167.99 42.2975 168.35 43.1375 168.35C44.6375 168.35 45.7575 167.27 45.7575 165.67C45.7575 164.08 44.6375 163 43.1375 163ZM43.0875 167.72C41.9675 167.72 41.1275 166.9 41.1275 165.67C41.1275 164.45 41.9675 163.62 43.0875 163.62C44.1975 163.62 45.0475 164.45 45.0475 165.67C45.0475 166.9 44.1975 167.72 43.0875 167.72ZM49.0155 163C48.1855 163 47.4055 163.26 46.8755 163.71L47.1955 164.24C47.6255 163.86 48.2655 163.62 48.9455 163.62C49.9255 163.62 50.4355 164.11 50.4355 165.01V165.33H48.7655C47.2555 165.33 46.7355 166.01 46.7355 166.82C46.7355 167.73 47.4655 168.35 48.6555 168.35C49.5255 168.35 50.1455 168.02 50.4655 167.48V168.3H51.1455V165.04C51.1455 163.68 50.3755 163 49.0155 163ZM48.7655 167.79C47.9255 167.79 47.4355 167.41 47.4355 166.8C47.4355 166.26 47.7655 165.86 48.7855 165.86H50.4355V166.72C50.1555 167.41 49.5655 167.79 48.7655 167.79ZM57.2835 163.04V164.05C56.8435 163.36 56.0835 163 55.2035 163C53.7035 163 52.5635 164.03 52.5635 165.54C52.5635 167.05 53.7035 168.1 55.2035 168.1C56.0635 168.1 56.8135 167.75 57.2535 167.08V167.75C57.2535 169.05 56.6435 169.66 55.3135 169.66C54.5035 169.66 53.7435 169.39 53.2435 168.94L52.8835 169.48C53.4335 170 54.3735 170.29 55.3335 170.29C57.0735 170.29 57.9635 169.47 57.9635 167.66V163.04H57.2835ZM55.2735 167.47C54.1135 167.47 53.2835 166.68 53.2835 165.54C53.2835 164.4 54.1135 163.62 55.2735 163.62C56.4335 163.62 57.2735 164.4 57.2735 165.54C57.2735 166.68 56.4335 167.47 55.2735 167.47ZM64.539 165.67C64.539 164.09 63.469 163 61.989 163C60.509 163 59.419 164.11 59.419 165.67C59.419 167.23 60.539 168.35 62.179 168.35C63.009 168.35 63.739 168.05 64.209 167.49L63.809 167.03C63.409 167.49 62.839 167.72 62.199 167.72C61.049 167.72 60.209 166.99 60.129 165.89H64.529C64.529 165.81 64.539 165.73 64.539 165.67ZM61.989 163.61C63.019 163.61 63.769 164.33 63.859 165.36H60.129C60.219 164.33 60.969 163.61 61.989 163.61ZM71.1213 167.47C70.9213 167.65 70.6313 167.74 70.3413 167.74C69.7513 167.74 69.4313 167.4 69.4313 166.78V163.64H71.0313V163.04H69.4313V161.89H68.7213V163.04H67.7813V163.64H68.7213V166.82C68.7213 167.79 69.2713 168.35 70.2613 168.35C70.6713 168.35 71.0913 168.23 71.3713 167.98L71.1213 167.47ZM75.3438 163C74.4538 163 73.7638 163.35 73.3738 163.96V160.88H72.6638V168.3H73.3738V165.54C73.3738 164.34 74.0838 163.64 75.2138 163.64C76.2138 163.64 76.7938 164.21 76.7938 165.32V168.3H77.5038V165.25C77.5038 163.74 76.6238 163 75.3438 163ZM80.1114 164.07V163.04H79.4314V168.3H80.1414V165.62C80.1414 164.38 80.8114 163.68 81.9114 163.68C81.9614 163.68 82.0214 163.69 82.0814 163.69V163C81.1114 163 80.4414 163.37 80.1114 164.07ZM85.4681 168.35C87.0081 168.35 88.1381 167.23 88.1381 165.67C88.1381 164.11 87.0081 163 85.4681 163C83.9281 163 82.7881 164.11 82.7881 165.67C82.7881 167.23 83.9281 168.35 85.4681 168.35ZM85.4681 167.72C84.3481 167.72 83.5081 166.9 83.5081 165.67C83.5081 164.44 84.3481 163.62 85.4681 163.62C86.5881 163.62 87.4181 164.44 87.4181 165.67C87.4181 166.9 86.5881 167.72 85.4681 167.72ZM93.6177 163.04V165.8C93.6177 167 92.9277 167.71 91.8277 167.71C90.8277 167.71 90.2477 167.14 90.2477 166.02V163.04H89.5377V166.09C89.5377 167.6 90.4177 168.35 91.7577 168.35C92.5977 168.35 93.2777 167.98 93.6477 167.34V168.3H94.3277V163.04H93.6177ZM100.506 163.04V164.05C100.066 163.36 99.3062 163 98.4262 163C96.9262 163 95.7862 164.03 95.7862 165.54C95.7862 167.05 96.9262 168.1 98.4262 168.1C99.2862 168.1 100.036 167.75 100.476 167.08V167.75C100.476 169.05 99.8662 169.66 98.5362 169.66C97.7262 169.66 96.9662 169.39 96.4662 168.94L96.1062 169.48C96.6562 170 97.5962 170.29 98.5562 170.29C100.296 170.29 101.186 169.47 101.186 167.66V163.04H100.506ZM98.4962 167.47C97.3362 167.47 96.5062 166.68 96.5062 165.54C96.5062 164.4 97.3362 163.62 98.4962 163.62C99.6562 163.62 100.496 164.4 100.496 165.54C100.496 166.68 99.6562 167.47 98.4962 167.47ZM105.852 163C104.962 163 104.272 163.35 103.882 163.96V160.88H103.172V168.3H103.882V165.54C103.882 164.34 104.592 163.64 105.722 163.64C106.722 163.64 107.302 164.21 107.302 165.32V168.3H108.012V165.25C108.012 163.74 107.132 163 105.852 163ZM114.636 168.36C116.426 168.36 117.246 167.48 117.246 166.45C117.246 163.9 112.936 165.06 112.936 163.14C112.936 162.44 113.506 161.87 114.786 161.87C115.406 161.87 116.106 162.06 116.706 162.45L116.956 161.86C116.396 161.47 115.576 161.24 114.786 161.24C113.006 161.24 112.206 162.13 112.206 163.16C112.206 165.75 116.516 164.57 116.516 166.49C116.516 167.18 115.946 167.73 114.636 167.73C113.716 167.73 112.826 167.37 112.326 166.88L112.036 167.45C112.556 167.99 113.586 168.36 114.636 168.36ZM122.739 163.04V165.8C122.739 167 122.049 167.71 120.949 167.71C119.949 167.71 119.369 167.14 119.369 166.02V163.04H118.659V166.09C118.659 167.6 119.539 168.35 120.879 168.35C121.719 168.35 122.399 167.98 122.769 167.34V168.3H123.449V163.04H122.739ZM128.147 163C127.307 163 126.587 163.36 126.147 164.04V160.88H125.437V168.3H126.117V167.26C126.547 167.97 127.277 168.35 128.147 168.35C129.647 168.35 130.767 167.26 130.767 165.67C130.767 164.08 129.647 163 128.147 163ZM128.097 167.72C126.977 167.72 126.137 166.9 126.137 165.67C126.137 164.44 126.977 163.62 128.097 163.62C129.207 163.62 130.057 164.44 130.057 165.67C130.057 166.9 129.207 167.72 128.097 167.72ZM133.625 168.35C134.995 168.35 135.795 167.76 135.795 166.85C135.795 164.83 132.385 165.9 132.385 164.48C132.385 163.98 132.805 163.61 133.755 163.61C134.295 163.61 134.845 163.74 135.305 164.06L135.615 163.49C135.175 163.19 134.435 163 133.755 163C132.415 163 131.675 163.64 131.675 164.5C131.675 166.58 135.085 165.5 135.085 166.87C135.085 167.39 134.675 167.73 133.675 167.73C132.935 167.73 132.225 167.47 131.805 167.14L131.485 167.7C131.915 168.07 132.755 168.35 133.625 168.35ZM139.287 168.35C140.177 168.35 140.927 167.99 141.347 167.31L140.817 166.95C140.457 167.48 139.897 167.72 139.287 167.72C138.137 167.72 137.297 166.91 137.297 165.67C137.297 164.44 138.137 163.62 139.287 163.62C139.897 163.62 140.457 163.87 140.817 164.4L141.347 164.04C140.927 163.35 140.177 163 139.287 163C137.717 163 136.577 164.1 136.577 165.67C136.577 167.24 137.717 168.35 139.287 168.35ZM143.422 164.07V163.04H142.742V168.3H143.452V165.62C143.452 164.38 144.122 163.68 145.222 163.68C145.272 163.68 145.332 163.69 145.392 163.69V163C144.422 163 143.752 163.37 143.422 164.07ZM149.388 163C148.518 163 147.788 163.38 147.358 164.08V163.04H146.678V170.24H147.388V167.31C147.828 167.99 148.548 168.35 149.388 168.35C150.888 168.35 152.008 167.27 152.008 165.67C152.008 164.08 150.888 163 149.388 163ZM149.338 167.72C148.218 167.72 147.378 166.9 147.378 165.67C147.378 164.45 148.218 163.62 149.338 163.62C150.448 163.62 151.298 164.45 151.298 165.67C151.298 166.9 150.448 167.72 149.338 167.72ZM155.975 167.47C155.775 167.65 155.485 167.74 155.195 167.74C154.605 167.74 154.285 167.4 154.285 166.78V163.64H155.885V163.04H154.285V161.89H153.575V163.04H152.635V163.64H153.575V166.82C153.575 167.79 154.125 168.35 155.115 168.35C155.525 168.35 155.945 168.23 156.225 167.98L155.975 167.47ZM157.877 161.89C158.177 161.89 158.397 161.66 158.397 161.37C158.397 161.1 158.167 160.88 157.877 160.88C157.587 160.88 157.357 161.11 157.357 161.38C157.357 161.66 157.587 161.89 157.877 161.89ZM157.517 168.3H158.227V163.04H157.517V168.3ZM162.353 168.35C163.893 168.35 165.023 167.23 165.023 165.67C165.023 164.11 163.893 163 162.353 163C160.813 163 159.673 164.11 159.673 165.67C159.673 167.23 160.813 168.35 162.353 168.35ZM162.353 167.72C161.233 167.72 160.393 166.9 160.393 165.67C160.393 164.44 161.233 163.62 162.353 163.62C163.473 163.62 164.303 164.44 164.303 165.67C164.303 166.9 163.473 167.72 162.353 167.72ZM169.152 163C168.242 163 167.532 163.37 167.152 164.01V163.04H166.472V168.3H167.182V165.54C167.182 164.34 167.892 163.64 169.022 163.64C170.022 163.64 170.602 164.21 170.602 165.32V168.3H171.312V165.25C171.312 163.74 170.432 163 169.152 163Z" fill="white"/>
<path d="M46.8055 207.014C47.6305 206.609 48.2155 205.814 48.2155 204.674C48.2155 202.979 46.8655 201.959 44.4505 201.959H39.7405V212.459H44.7505C47.4055 212.459 48.7705 211.424 48.7705 209.624C48.7705 208.229 47.9905 207.344 46.8055 207.014ZM44.3155 203.174C45.8455 203.174 46.7155 203.744 46.7155 204.854C46.7155 205.964 45.8455 206.534 44.3155 206.534H41.2405V203.174H44.3155ZM44.6905 211.244H41.2405V207.749H44.6905C46.3555 207.749 47.2555 208.289 47.2555 209.504C47.2555 210.719 46.3555 211.244 44.6905 211.244ZM54.2881 212.549C56.6731 212.549 58.4131 210.854 58.4131 208.484C58.4131 206.114 56.6731 204.434 54.2881 204.434C51.9031 204.434 50.1481 206.114 50.1481 208.484C50.1481 210.854 51.9031 212.549 54.2881 212.549ZM54.2881 211.289C52.7581 211.289 51.6031 210.179 51.6031 208.484C51.6031 206.789 52.7581 205.694 54.2881 205.694C55.8181 205.694 56.9581 206.789 56.9581 208.484C56.9581 210.179 55.8181 211.289 54.2881 211.289ZM63.8096 212.549C66.1946 212.549 67.9346 210.854 67.9346 208.484C67.9346 206.114 66.1946 204.434 63.8096 204.434C61.4246 204.434 59.6696 206.114 59.6696 208.484C59.6696 210.854 61.4246 212.549 63.8096 212.549ZM63.8096 211.289C62.2796 211.289 61.1246 210.179 61.1246 208.484C61.1246 206.789 62.2796 205.694 63.8096 205.694C65.3396 205.694 66.4796 206.789 66.4796 208.484C66.4796 210.179 65.3396 211.289 63.8096 211.289ZM76.001 212.459H77.771L74.096 207.794L77.441 204.509H75.701L71.366 208.469V201.329H69.926V212.459H71.366V210.284L73.016 208.754L76.001 212.459ZM79.7867 202.979C80.3567 202.979 80.7617 202.559 80.7617 202.019C80.7617 201.509 80.3417 201.104 79.7867 201.104C79.2317 201.104 78.8117 201.524 78.8117 202.049C78.8117 202.574 79.2317 202.979 79.7867 202.979ZM79.0667 212.459H80.5067V204.509H79.0667V212.459ZM87.5011 204.434C86.2411 204.434 85.2211 204.899 84.6361 205.709V204.509H83.2561V212.459H84.6961V208.364C84.6961 206.639 85.6861 205.724 87.2161 205.724C88.5811 205.724 89.3611 206.489 89.3611 208.049V212.459H90.8011V207.884C90.8011 205.544 89.4361 204.434 87.5011 204.434ZM99.75 204.509V205.739C99.075 204.869 97.995 204.434 96.81 204.434C94.515 204.434 92.775 205.979 92.775 208.274C92.775 210.569 94.515 212.129 96.81 212.129C97.95 212.129 98.985 211.724 99.675 210.899V211.529C99.675 213.329 98.82 214.199 96.945 214.199C95.775 214.199 94.62 213.794 93.885 213.164L93.195 214.274C94.065 215.054 95.535 215.459 96.99 215.459C99.69 215.459 101.115 214.184 101.115 211.379V204.509H99.75ZM96.975 210.869C95.37 210.869 94.23 209.804 94.23 208.274C94.23 206.729 95.37 205.694 96.975 205.694C98.565 205.694 99.705 206.729 99.705 208.274C99.705 209.804 98.565 210.869 96.975 210.869ZM111.165 212.579C113.94 212.579 115.23 211.199 115.23 209.594C115.23 205.739 108.87 207.344 108.87 204.779C108.87 203.864 109.635 203.114 111.42 203.114C112.35 203.114 113.385 203.384 114.3 203.969L114.795 202.769C113.925 202.169 112.65 201.839 111.42 201.839C108.66 201.839 107.4 203.219 107.4 204.839C107.4 208.739 113.76 207.119 113.76 209.684C113.76 210.599 112.98 211.304 111.165 211.304C109.815 211.304 108.48 210.794 107.7 210.089L107.145 211.259C107.985 212.039 109.56 212.579 111.165 212.579ZM122.69 204.509L119.945 210.869L117.17 204.509H115.67L119.18 212.444L118.925 212.999C118.535 213.914 118.1 214.229 117.41 214.229C116.87 214.229 116.375 214.019 115.985 213.644L115.37 214.724C115.865 215.204 116.645 215.459 117.41 215.459C118.625 215.459 119.54 214.934 120.245 213.254L124.1 204.509H122.69ZM127.621 212.549C129.736 212.549 131.056 211.634 131.056 210.194C131.056 207.104 126.016 208.634 126.016 206.759C126.016 206.129 126.631 205.664 127.891 205.664C128.671 205.664 129.466 205.829 130.186 206.294L130.801 205.154C130.111 204.704 128.941 204.434 127.906 204.434C125.866 204.434 124.591 205.394 124.591 206.819C124.591 209.984 129.616 208.439 129.616 210.224C129.616 210.899 129.061 211.304 127.726 211.304C126.691 211.304 125.611 210.959 124.936 210.479L124.336 211.619C124.996 212.144 126.301 212.549 127.621 212.549ZM136.876 210.959C136.576 211.199 136.171 211.334 135.751 211.334C134.956 211.334 134.506 210.854 134.506 209.999V205.694H136.786V204.509H134.506V202.769H133.066V204.509H131.716V205.694H133.066V210.059C133.066 211.664 133.981 212.549 135.586 212.549C136.231 212.549 136.891 212.369 137.326 211.994L136.876 210.959ZM145.988 208.529C145.988 206.084 144.353 204.434 142.058 204.434C139.763 204.434 138.068 206.129 138.068 208.484C138.068 210.854 139.778 212.549 142.343 212.549C143.663 212.549 144.758 212.099 145.478 211.259L144.683 210.329C144.098 210.974 143.318 211.289 142.388 211.289C140.813 211.289 139.688 210.359 139.508 208.964H145.958C145.973 208.829 145.988 208.649 145.988 208.529ZM142.058 205.649C143.453 205.649 144.458 206.594 144.608 207.929H139.508C139.658 206.579 140.678 205.649 142.058 205.649ZM157.933 204.434C156.583 204.434 155.473 205.004 154.873 205.904C154.348 204.914 153.328 204.434 152.113 204.434C150.913 204.434 149.938 204.884 149.368 205.694V204.509H147.988V212.459H149.428V208.364C149.428 206.639 150.373 205.724 151.813 205.724C153.118 205.724 153.868 206.489 153.868 208.049V212.459H155.308V208.364C155.308 206.639 156.253 205.724 157.693 205.724C158.998 205.724 159.748 206.489 159.748 208.049V212.459H161.188V207.884C161.188 205.544 159.868 204.434 157.933 204.434Z" fill="white"/>
<path d="M31.4141 210.763C31.4141 212.417 30.0829 213.749 28.429 213.749C26.7751 213.749 25.4438 212.417 25.4438 210.763C25.4438 209.11 26.7751 207.778 28.429 207.778C30.0829 207.778 31.4141 209.11 31.4141 210.763Z" fill="white"/>
<path d="M45.7775 225.63H45.0375L42.6375 229.56L40.2375 225.63H39.4475L42.2475 230.21V232.63H42.9775V230.21L45.7775 225.63ZM48.3295 232.68C49.8695 232.68 50.9995 231.56 50.9995 230C50.9995 228.44 49.8695 227.33 48.3295 227.33C46.7895 227.33 45.6495 228.44 45.6495 230C45.6495 231.56 46.7895 232.68 48.3295 232.68ZM48.3295 232.05C47.2095 232.05 46.3695 231.23 46.3695 230C46.3695 228.77 47.2095 227.95 48.3295 227.95C49.4495 227.95 50.2795 228.77 50.2795 230C50.2795 231.23 49.4495 232.05 48.3295 232.05ZM56.479 227.37V230.13C56.479 231.33 55.789 232.04 54.689 232.04C53.689 232.04 53.109 231.47 53.109 230.35V227.37H52.399V230.42C52.399 231.93 53.279 232.68 54.619 232.68C55.459 232.68 56.139 232.31 56.509 231.67V232.63H57.189V227.37H56.479ZM63.9747 232.68C64.8647 232.68 65.6147 232.32 66.0347 231.64L65.5047 231.28C65.1447 231.81 64.5847 232.05 63.9747 232.05C62.8247 232.05 61.9847 231.24 61.9847 230C61.9847 228.77 62.8247 227.95 63.9747 227.95C64.5847 227.95 65.1447 228.2 65.5047 228.73L66.0347 228.37C65.6147 227.68 64.8647 227.33 63.9747 227.33C62.4047 227.33 61.2647 228.43 61.2647 230C61.2647 231.57 62.4047 232.68 63.9747 232.68ZM69.2695 227.33C68.4395 227.33 67.6595 227.59 67.1295 228.04L67.4495 228.57C67.8795 228.19 68.5195 227.95 69.1995 227.95C70.1795 227.95 70.6895 228.44 70.6895 229.34V229.66H69.0195C67.5095 229.66 66.9895 230.34 66.9895 231.15C66.9895 232.06 67.7195 232.68 68.9095 232.68C69.7795 232.68 70.3995 232.35 70.7195 231.81V232.63H71.3995V229.37C71.3995 228.01 70.6295 227.33 69.2695 227.33ZM69.0195 232.12C68.1795 232.12 67.6895 231.74 67.6895 231.13C67.6895 230.59 68.0195 230.19 69.0395 230.19H70.6895V231.05C70.4095 231.74 69.8195 232.12 69.0195 232.12ZM76.0079 227.33C75.0979 227.33 74.3879 227.7 74.0079 228.34V227.37H73.3279V232.63H74.0379V229.87C74.0379 228.67 74.7479 227.97 75.8779 227.97C76.8779 227.97 77.4579 228.54 77.4579 229.65V232.63H78.1679V229.58C78.1679 228.07 77.2879 227.33 76.0079 227.33ZM85.4227 227.33C84.5827 227.33 83.8627 227.69 83.4227 228.37V225.21H82.7127V232.63H83.3927V231.59C83.8227 232.3 84.5527 232.68 85.4227 232.68C86.9227 232.68 88.0427 231.59 88.0427 230C88.0427 228.41 86.9227 227.33 85.4227 227.33ZM85.3727 232.05C84.2527 232.05 83.4127 231.23 83.4127 230C83.4127 228.77 84.2527 227.95 85.3727 227.95C86.4827 227.95 87.3327 228.77 87.3327 230C87.3327 231.23 86.4827 232.05 85.3727 232.05ZM91.64 232.68C93.18 232.68 94.31 231.56 94.31 230C94.31 228.44 93.18 227.33 91.64 227.33C90.1 227.33 88.96 228.44 88.96 230C88.96 231.56 90.1 232.68 91.64 232.68ZM91.64 232.05C90.52 232.05 89.68 231.23 89.68 230C89.68 228.77 90.52 227.95 91.64 227.95C92.76 227.95 93.59 228.77 93.59 230C93.59 231.23 92.76 232.05 91.64 232.05ZM97.9095 232.68C99.4495 232.68 100.58 231.56 100.58 230C100.58 228.44 99.4495 227.33 97.9095 227.33C96.3695 227.33 95.2295 228.44 95.2295 230C95.2295 231.56 96.3695 232.68 97.9095 232.68ZM97.9095 232.05C96.7895 232.05 95.9495 231.23 95.9495 230C95.9495 228.77 96.7895 227.95 97.9095 227.95C99.0295 227.95 99.8595 228.77 99.8595 230C99.8595 231.23 99.0295 232.05 97.9095 232.05ZM106.099 232.63H106.969L104.509 229.52L106.759 227.37H105.879L102.739 230.24V225.21H102.029V232.63H102.739V231.13L103.979 229.99L106.099 232.63ZM114.372 227.37L112.392 231.84L110.412 227.37H109.672L112.022 232.62L111.792 233.13C111.492 233.79 111.172 234.01 110.702 234.01C110.322 234.01 110.002 233.87 109.742 233.61L109.412 234.14C109.732 234.46 110.202 234.62 110.692 234.62C111.442 234.62 112.002 234.29 112.442 233.26L115.072 227.37H114.372ZM118.076 232.68C119.616 232.68 120.746 231.56 120.746 230C120.746 228.44 119.616 227.33 118.076 227.33C116.536 227.33 115.396 228.44 115.396 230C115.396 231.56 116.536 232.68 118.076 232.68ZM118.076 232.05C116.956 232.05 116.116 231.23 116.116 230C116.116 228.77 116.956 227.95 118.076 227.95C119.196 227.95 120.026 228.77 120.026 230C120.026 231.23 119.196 232.05 118.076 232.05ZM126.225 227.37V230.13C126.225 231.33 125.535 232.04 124.435 232.04C123.435 232.04 122.855 231.47 122.855 230.35V227.37H122.145V230.42C122.145 231.93 123.025 232.68 124.365 232.68C125.205 232.68 125.885 232.31 126.255 231.67V232.63H126.935V227.37H126.225ZM129.604 228.4V227.37H128.924V232.63H129.634V229.95C129.634 228.71 130.304 228.01 131.404 228.01C131.454 228.01 131.514 228.02 131.574 228.02V227.33C130.604 227.33 129.934 227.7 129.604 228.4ZM138.074 231.8C137.874 231.98 137.584 232.07 137.294 232.07C136.704 232.07 136.384 231.73 136.384 231.11V227.97H137.984V227.37H136.384V226.22H135.674V227.37H134.734V227.97H135.674V231.15C135.674 232.12 136.224 232.68 137.214 232.68C137.624 232.68 138.044 232.56 138.324 232.31L138.074 231.8ZM140.297 228.4V227.37H139.617V232.63H140.327V229.95C140.327 228.71 140.997 228.01 142.097 228.01C142.147 228.01 142.207 228.02 142.267 228.02V227.33C141.297 227.33 140.627 227.7 140.297 228.4ZM145.383 227.33C144.553 227.33 143.773 227.59 143.243 228.04L143.563 228.57C143.993 228.19 144.633 227.95 145.313 227.95C146.293 227.95 146.803 228.44 146.803 229.34V229.66H145.133C143.623 229.66 143.103 230.34 143.103 231.15C143.103 232.06 143.833 232.68 145.023 232.68C145.893 232.68 146.513 232.35 146.833 231.81V232.63H147.513V229.37C147.513 228.01 146.743 227.33 145.383 227.33ZM145.133 232.12C144.293 232.12 143.803 231.74 143.803 231.13C143.803 230.59 144.133 230.19 145.153 230.19H146.803V231.05C146.523 231.74 145.933 232.12 145.133 232.12ZM149.801 226.22C150.101 226.22 150.321 225.99 150.321 225.7C150.321 225.43 150.091 225.21 149.801 225.21C149.511 225.21 149.281 225.44 149.281 225.71C149.281 225.99 149.511 226.22 149.801 226.22ZM149.441 232.63H150.151V227.37H149.441V232.63ZM154.807 227.33C153.897 227.33 153.187 227.7 152.807 228.34V227.37H152.127V232.63H152.837V229.87C152.837 228.67 153.547 227.97 154.677 227.97C155.677 227.97 156.257 228.54 156.257 229.65V232.63H156.967V229.58C156.967 228.07 156.087 227.33 154.807 227.33ZM161.574 227.33C160.664 227.33 159.954 227.7 159.574 228.34V227.37H158.894V232.63H159.604V229.87C159.604 228.67 160.314 227.97 161.444 227.97C162.444 227.97 163.024 228.54 163.024 229.65V232.63H163.734V229.58C163.734 228.07 162.854 227.33 161.574 227.33ZM170.271 230C170.271 228.42 169.201 227.33 167.721 227.33C166.241 227.33 165.151 228.44 165.151 230C165.151 231.56 166.271 232.68 167.911 232.68C168.741 232.68 169.471 232.38 169.941 231.82L169.541 231.36C169.141 231.82 168.571 232.05 167.931 232.05C166.781 232.05 165.941 231.32 165.861 230.22H170.261C170.261 230.14 170.271 230.06 170.271 230ZM167.721 227.94C168.751 227.94 169.501 228.66 169.591 229.69H165.861C165.951 228.66 166.701 227.94 167.721 227.94ZM172.397 228.4V227.37H171.717V232.63H172.427V229.95C172.427 228.71 173.097 228.01 174.197 228.01C174.247 228.01 174.307 228.02 174.367 228.02V227.33C173.397 227.33 172.727 227.7 172.397 228.4ZM183.485 231.8C183.285 231.98 182.995 232.07 182.705 232.07C182.115 232.07 181.795 231.73 181.795 231.11V227.97H183.395V227.37H181.795V226.22H181.085V227.37H180.145V227.97H181.085V231.15C181.085 232.12 181.635 232.68 182.625 232.68C183.035 232.68 183.455 232.56 183.735 232.31L183.485 231.8ZM187.707 227.33C186.817 227.33 186.127 227.68 185.737 228.29V225.21H185.027V232.63H185.737V229.87C185.737 228.67 186.447 227.97 187.577 227.97C188.577 227.97 189.157 228.54 189.157 229.65V232.63H189.867V229.58C189.867 228.07 188.987 227.33 187.707 227.33ZM192.475 228.4V227.37H191.795V232.63H192.505V229.95C192.505 228.71 193.175 228.01 194.275 228.01C194.325 228.01 194.385 228.02 194.445 228.02V227.33C193.475 227.33 192.805 227.7 192.475 228.4ZM197.831 232.68C199.371 232.68 200.501 231.56 200.501 230C200.501 228.44 199.371 227.33 197.831 227.33C196.291 227.33 195.151 228.44 195.151 230C195.151 231.56 196.291 232.68 197.831 232.68ZM197.831 232.05C196.711 232.05 195.871 231.23 195.871 230C195.871 228.77 196.711 227.95 197.831 227.95C198.951 227.95 199.781 228.77 199.781 230C199.781 231.23 198.951 232.05 197.831 232.05ZM205.981 227.37V230.13C205.981 231.33 205.291 232.04 204.191 232.04C203.191 232.04 202.611 231.47 202.611 230.35V227.37H201.901V230.42C201.901 231.93 202.781 232.68 204.121 232.68C204.961 232.68 205.641 232.31 206.011 231.67V232.63H206.691V227.37H205.981ZM212.869 227.37V228.38C212.429 227.69 211.669 227.33 210.789 227.33C209.289 227.33 208.149 228.36 208.149 229.87C208.149 231.38 209.289 232.43 210.789 232.43C211.649 232.43 212.399 232.08 212.839 231.41V232.08C212.839 233.38 212.229 233.99 210.899 233.99C210.089 233.99 209.329 233.72 208.829 233.27L208.469 233.81C209.019 234.33 209.959 234.62 210.919 234.62C212.659 234.62 213.549 233.8 213.549 231.99V227.37H212.869ZM210.859 231.8C209.699 231.8 208.869 231.01 208.869 229.87C208.869 228.73 209.699 227.95 210.859 227.95C212.019 227.95 212.859 228.73 212.859 229.87C212.859 231.01 212.019 231.8 210.859 231.8ZM218.215 227.33C217.325 227.33 216.635 227.68 216.245 228.29V225.21H215.535V232.63H216.245V229.87C216.245 228.67 216.955 227.97 218.085 227.97C219.085 227.97 219.665 228.54 219.665 229.65V232.63H220.375V229.58C220.375 228.07 219.495 227.33 218.215 227.33ZM42.5075 244.69C44.2975 244.69 45.1175 243.81 45.1175 242.78C45.1175 240.23 40.8075 241.39 40.8075 239.47C40.8075 238.77 41.3775 238.2 42.6575 238.2C43.2775 238.2 43.9775 238.39 44.5775 238.78L44.8275 238.19C44.2675 237.8 43.4475 237.57 42.6575 237.57C40.8775 237.57 40.0775 238.46 40.0775 239.49C40.0775 242.08 44.3875 240.9 44.3875 242.82C44.3875 243.51 43.8175 244.06 42.5075 244.06C41.5875 244.06 40.6975 243.7 40.1975 243.21L39.9075 243.78C40.4275 244.32 41.4575 244.69 42.5075 244.69ZM50.6098 239.37V242.13C50.6098 243.33 49.9198 244.04 48.8198 244.04C47.8198 244.04 47.2398 243.47 47.2398 242.35V239.37H46.5298V242.42C46.5298 243.93 47.4098 244.68 48.7498 244.68C49.5898 244.68 50.2698 244.31 50.6398 243.67V244.63H51.3198V239.37H50.6098ZM56.0184 239.33C55.1784 239.33 54.4584 239.69 54.0184 240.37V237.21H53.3084V244.63H53.9884V243.59C54.4184 244.3 55.1484 244.68 56.0184 244.68C57.5184 244.68 58.6384 243.59 58.6384 242C58.6384 240.41 57.5184 239.33 56.0184 239.33ZM55.9684 244.05C54.8484 244.05 54.0084 243.23 54.0084 242C54.0084 240.77 54.8484 239.95 55.9684 239.95C57.0784 239.95 57.9284 240.77 57.9284 242C57.9284 243.23 57.0784 244.05 55.9684 244.05ZM61.4957 244.68C62.8657 244.68 63.6657 244.09 63.6657 243.18C63.6657 241.16 60.2557 242.23 60.2557 240.81C60.2557 240.31 60.6757 239.94 61.6257 239.94C62.1657 239.94 62.7157 240.07 63.1757 240.39L63.4857 239.82C63.0457 239.52 62.3057 239.33 61.6257 239.33C60.2857 239.33 59.5457 239.97 59.5457 240.83C59.5457 242.91 62.9557 241.83 62.9557 243.2C62.9557 243.72 62.5457 244.06 61.5457 244.06C60.8057 244.06 60.0957 243.8 59.6757 243.47L59.3557 244.03C59.7857 244.4 60.6257 244.68 61.4957 244.68ZM67.1583 244.68C68.0483 244.68 68.7983 244.32 69.2183 243.64L68.6883 243.28C68.3283 243.81 67.7683 244.05 67.1583 244.05C66.0083 244.05 65.1683 243.24 65.1683 242C65.1683 240.77 66.0083 239.95 67.1583 239.95C67.7683 239.95 68.3283 240.2 68.6883 240.73L69.2183 240.37C68.7983 239.68 68.0483 239.33 67.1583 239.33C65.5883 239.33 64.4483 240.43 64.4483 242C64.4483 243.57 65.5883 244.68 67.1583 244.68ZM71.293 240.4V239.37H70.613V244.63H71.323V241.95C71.323 240.71 71.993 240.01 73.093 240.01C73.143 240.01 73.203 240.02 73.263 240.02V239.33C72.293 239.33 71.623 239.7 71.293 240.4ZM77.2586 239.33C76.3886 239.33 75.6586 239.71 75.2286 240.41V239.37H74.5486V246.57H75.2586V243.64C75.6986 244.32 76.4186 244.68 77.2586 244.68C78.7586 244.68 79.8786 243.6 79.8786 242C79.8786 240.41 78.7586 239.33 77.2586 239.33ZM77.2086 244.05C76.0886 244.05 75.2486 243.23 75.2486 242C75.2486 240.78 76.0886 239.95 77.2086 239.95C78.3186 239.95 79.1686 240.78 79.1686 242C79.1686 243.23 78.3186 244.05 77.2086 244.05ZM83.8459 243.8C83.6459 243.98 83.3559 244.07 83.0659 244.07C82.4759 244.07 82.1559 243.73 82.1559 243.11V239.97H83.7559V239.37H82.1559V238.22H81.4459V239.37H80.5059V239.97H81.4459V243.15C81.4459 244.12 81.9959 244.68 82.9859 244.68C83.3959 244.68 83.8159 244.56 84.0959 244.31L83.8459 243.8ZM85.7484 238.22C86.0484 238.22 86.2684 237.99 86.2684 237.7C86.2684 237.43 86.0384 237.21 85.7484 237.21C85.4584 237.21 85.2284 237.44 85.2284 237.71C85.2284 237.99 85.4584 238.22 85.7484 238.22ZM85.3884 244.63H86.0984V239.37H85.3884V244.63ZM90.224 244.68C91.764 244.68 92.894 243.56 92.894 242C92.894 240.44 91.764 239.33 90.224 239.33C88.684 239.33 87.544 240.44 87.544 242C87.544 243.56 88.684 244.68 90.224 244.68ZM90.224 244.05C89.104 244.05 88.264 243.23 88.264 242C88.264 240.77 89.104 239.95 90.224 239.95C91.344 239.95 92.174 240.77 92.174 242C92.174 243.23 91.344 244.05 90.224 244.05ZM97.0235 239.33C96.1135 239.33 95.4035 239.7 95.0235 240.34V239.37H94.3435V244.63H95.0535V241.87C95.0535 240.67 95.7635 239.97 96.8935 239.97C97.8935 239.97 98.4735 240.54 98.4735 241.65V244.63H99.1835V241.58C99.1835 240.07 98.3035 239.33 97.0235 239.33Z" fill="white"/>
<path d="M48.0775 271.895C48.9025 271.49 49.4875 270.695 49.4875 269.555C49.4875 267.86 48.1375 266.84 45.7225 266.84H41.0125V277.34H46.0225C48.6775 277.34 50.0425 276.305 50.0425 274.505C50.0425 273.11 49.2625 272.225 48.0775 271.895ZM45.5875 268.055C47.1175 268.055 47.9875 268.625 47.9875 269.735C47.9875 270.845 47.1175 271.415 45.5875 271.415H42.5125V268.055H45.5875ZM45.9625 276.125H42.5125V272.63H45.9625C47.6275 272.63 48.5275 273.17 48.5275 274.385C48.5275 275.6 47.6275 276.125 45.9625 276.125ZM55.56 277.43C57.945 277.43 59.685 275.735 59.685 273.365C59.685 270.995 57.945 269.315 55.56 269.315C53.175 269.315 51.42 270.995 51.42 273.365C51.42 275.735 53.175 277.43 55.56 277.43ZM55.56 276.17C54.03 276.17 52.875 275.06 52.875 273.365C52.875 271.67 54.03 270.575 55.56 270.575C57.09 270.575 58.23 271.67 58.23 273.365C58.23 275.06 57.09 276.17 55.56 276.17ZM65.0815 277.43C67.4665 277.43 69.2065 275.735 69.2065 273.365C69.2065 270.995 67.4665 269.315 65.0815 269.315C62.6965 269.315 60.9415 270.995 60.9415 273.365C60.9415 275.735 62.6965 277.43 65.0815 277.43ZM65.0815 276.17C63.5515 276.17 62.3965 275.06 62.3965 273.365C62.3965 271.67 63.5515 270.575 65.0815 270.575C66.6115 270.575 67.7515 271.67 67.7515 273.365C67.7515 275.06 66.6115 276.17 65.0815 276.17ZM73.478 277.43C75.593 277.43 76.913 276.515 76.913 275.075C76.913 271.985 71.873 273.515 71.873 271.64C71.873 271.01 72.488 270.545 73.748 270.545C74.528 270.545 75.323 270.71 76.043 271.175L76.658 270.035C75.968 269.585 74.798 269.315 73.763 269.315C71.723 269.315 70.448 270.275 70.448 271.7C70.448 274.865 75.473 273.32 75.473 275.105C75.473 275.78 74.918 276.185 73.583 276.185C72.548 276.185 71.468 275.84 70.793 275.36L70.193 276.5C70.853 277.025 72.158 277.43 73.478 277.43ZM82.7327 275.84C82.4327 276.08 82.0277 276.215 81.6077 276.215C80.8127 276.215 80.3627 275.735 80.3627 274.88V270.575H82.6427V269.39H80.3627V267.65H78.9227V269.39H77.5727V270.575H78.9227V274.94C78.9227 276.545 79.8377 277.43 81.4427 277.43C82.0877 277.43 82.7477 277.25 83.1827 276.875L82.7327 275.84Z" fill="white"/>
<path d="M35.2305 275.254C35.2305 276.908 33.8993 278.239 32.2454 278.239C30.5915 278.239 29.2603 276.908 29.2603 275.254C29.2603 273.6 30.5915 272.269 32.2454 272.269C33.8993 272.269 35.2305 273.62 35.2305 275.254Z" fill="white"/>
<path d="M45.7775 287.967H45.0375L42.6375 291.897L40.2375 287.967H39.4475L42.2475 292.547V294.967H42.9775V292.547L45.7775 287.967ZM48.3295 295.017C49.8695 295.017 50.9995 293.897 50.9995 292.337C50.9995 290.777 49.8695 289.667 48.3295 289.667C46.7895 289.667 45.6495 290.777 45.6495 292.337C45.6495 293.897 46.7895 295.017 48.3295 295.017ZM48.3295 294.387C47.2095 294.387 46.3695 293.567 46.3695 292.337C46.3695 291.107 47.2095 290.287 48.3295 290.287C49.4495 290.287 50.2795 291.107 50.2795 292.337C50.2795 293.567 49.4495 294.387 48.3295 294.387ZM56.479 289.707V292.467C56.479 293.667 55.789 294.377 54.689 294.377C53.689 294.377 53.109 293.807 53.109 292.687V289.707H52.399V292.757C52.399 294.267 53.279 295.017 54.619 295.017C55.459 295.017 56.139 294.647 56.509 294.007V294.967H57.189V289.707H56.479ZM63.9747 295.017C64.8647 295.017 65.6147 294.657 66.0347 293.977L65.5047 293.617C65.1447 294.147 64.5847 294.387 63.9747 294.387C62.8247 294.387 61.9847 293.577 61.9847 292.337C61.9847 291.107 62.8247 290.287 63.9747 290.287C64.5847 290.287 65.1447 290.537 65.5047 291.067L66.0347 290.707C65.6147 290.017 64.8647 289.667 63.9747 289.667C62.4047 289.667 61.2647 290.767 61.2647 292.337C61.2647 293.907 62.4047 295.017 63.9747 295.017ZM69.2695 289.667C68.4395 289.667 67.6595 289.927 67.1295 290.377L67.4495 290.907C67.8795 290.527 68.5195 290.287 69.1995 290.287C70.1795 290.287 70.6895 290.777 70.6895 291.677V291.997H69.0195C67.5095 291.997 66.9895 292.677 66.9895 293.487C66.9895 294.397 67.7195 295.017 68.9095 295.017C69.7795 295.017 70.3995 294.687 70.7195 294.147V294.967H71.3995V291.707C71.3995 290.347 70.6295 289.667 69.2695 289.667ZM69.0195 294.457C68.1795 294.457 67.6895 294.077 67.6895 293.467C67.6895 292.927 68.0195 292.527 69.0395 292.527H70.6895V293.387C70.4095 294.077 69.8195 294.457 69.0195 294.457ZM76.0079 289.667C75.0979 289.667 74.3879 290.037 74.0079 290.677V289.707H73.3279V294.967H74.0379V292.207C74.0379 291.007 74.7479 290.307 75.8779 290.307C76.8779 290.307 77.4579 290.877 77.4579 291.987V294.967H78.1679V291.917C78.1679 290.407 77.2879 289.667 76.0079 289.667ZM85.4227 289.667C84.5827 289.667 83.8627 290.027 83.4227 290.707V287.547H82.7127V294.967H83.3927V293.927C83.8227 294.637 84.5527 295.017 85.4227 295.017C86.9227 295.017 88.0427 293.927 88.0427 292.337C88.0427 290.747 86.9227 289.667 85.4227 289.667ZM85.3727 294.387C84.2527 294.387 83.4127 293.567 83.4127 292.337C83.4127 291.107 84.2527 290.287 85.3727 290.287C86.4827 290.287 87.3327 291.107 87.3327 292.337C87.3327 293.567 86.4827 294.387 85.3727 294.387ZM91.64 295.017C93.18 295.017 94.31 293.897 94.31 292.337C94.31 290.777 93.18 289.667 91.64 289.667C90.1 289.667 88.96 290.777 88.96 292.337C88.96 293.897 90.1 295.017 91.64 295.017ZM91.64 294.387C90.52 294.387 89.68 293.567 89.68 292.337C89.68 291.107 90.52 290.287 91.64 290.287C92.76 290.287 93.59 291.107 93.59 292.337C93.59 293.567 92.76 294.387 91.64 294.387ZM97.9095 295.017C99.4495 295.017 100.58 293.897 100.58 292.337C100.58 290.777 99.4495 289.667 97.9095 289.667C96.3695 289.667 95.2295 290.777 95.2295 292.337C95.2295 293.897 96.3695 295.017 97.9095 295.017ZM97.9095 294.387C96.7895 294.387 95.9495 293.567 95.9495 292.337C95.9495 291.107 96.7895 290.287 97.9095 290.287C99.0295 290.287 99.8595 291.107 99.8595 292.337C99.8595 293.567 99.0295 294.387 97.9095 294.387ZM106.099 294.967H106.969L104.509 291.857L106.759 289.707H105.879L102.739 292.577V287.547H102.029V294.967H102.739V293.467L103.979 292.327L106.099 294.967ZM114.372 289.707L112.392 294.177L110.412 289.707H109.672L112.022 294.957L111.792 295.467C111.492 296.127 111.172 296.347 110.702 296.347C110.322 296.347 110.002 296.207 109.742 295.947L109.412 296.477C109.732 296.797 110.202 296.957 110.692 296.957C111.442 296.957 112.002 296.627 112.442 295.597L115.072 289.707H114.372ZM118.076 295.017C119.616 295.017 120.746 293.897 120.746 292.337C120.746 290.777 119.616 289.667 118.076 289.667C116.536 289.667 115.396 290.777 115.396 292.337C115.396 293.897 116.536 295.017 118.076 295.017ZM118.076 294.387C116.956 294.387 116.116 293.567 116.116 292.337C116.116 291.107 116.956 290.287 118.076 290.287C119.196 290.287 120.026 291.107 120.026 292.337C120.026 293.567 119.196 294.387 118.076 294.387ZM126.225 289.707V292.467C126.225 293.667 125.535 294.377 124.435 294.377C123.435 294.377 122.855 293.807 122.855 292.687V289.707H122.145V292.757C122.145 294.267 123.025 295.017 124.365 295.017C125.205 295.017 125.885 294.647 126.255 294.007V294.967H126.935V289.707H126.225ZM129.604 290.737V289.707H128.924V294.967H129.634V292.287C129.634 291.047 130.304 290.347 131.404 290.347C131.454 290.347 131.514 290.357 131.574 290.357V289.667C130.604 289.667 129.934 290.037 129.604 290.737ZM138.074 294.137C137.874 294.317 137.584 294.407 137.294 294.407C136.704 294.407 136.384 294.067 136.384 293.447V290.307H137.984V289.707H136.384V288.557H135.674V289.707H134.734V290.307H135.674V293.487C135.674 294.457 136.224 295.017 137.214 295.017C137.624 295.017 138.044 294.897 138.324 294.647L138.074 294.137ZM140.297 290.737V289.707H139.617V294.967H140.327V292.287C140.327 291.047 140.997 290.347 142.097 290.347C142.147 290.347 142.207 290.357 142.267 290.357V289.667C141.297 289.667 140.627 290.037 140.297 290.737ZM145.383 289.667C144.553 289.667 143.773 289.927 143.243 290.377L143.563 290.907C143.993 290.527 144.633 290.287 145.313 290.287C146.293 290.287 146.803 290.777 146.803 291.677V291.997H145.133C143.623 291.997 143.103 292.677 143.103 293.487C143.103 294.397 143.833 295.017 145.023 295.017C145.893 295.017 146.513 294.687 146.833 294.147V294.967H147.513V291.707C147.513 290.347 146.743 289.667 145.383 289.667ZM145.133 294.457C144.293 294.457 143.803 294.077 143.803 293.467C143.803 292.927 144.133 292.527 145.153 292.527H146.803V293.387C146.523 294.077 145.933 294.457 145.133 294.457ZM149.801 288.557C150.101 288.557 150.321 288.327 150.321 288.037C150.321 287.767 150.091 287.547 149.801 287.547C149.511 287.547 149.281 287.777 149.281 288.047C149.281 288.327 149.511 288.557 149.801 288.557ZM149.441 294.967H150.151V289.707H149.441V294.967ZM154.807 289.667C153.897 289.667 153.187 290.037 152.807 290.677V289.707H152.127V294.967H152.837V292.207C152.837 291.007 153.547 290.307 154.677 290.307C155.677 290.307 156.257 290.877 156.257 291.987V294.967H156.967V291.917C156.967 290.407 156.087 289.667 154.807 289.667ZM161.574 289.667C160.664 289.667 159.954 290.037 159.574 290.677V289.707H158.894V294.967H159.604V292.207C159.604 291.007 160.314 290.307 161.444 290.307C162.444 290.307 163.024 290.877 163.024 291.987V294.967H163.734V291.917C163.734 290.407 162.854 289.667 161.574 289.667ZM170.271 292.337C170.271 290.757 169.201 289.667 167.721 289.667C166.241 289.667 165.151 290.777 165.151 292.337C165.151 293.897 166.271 295.017 167.911 295.017C168.741 295.017 169.471 294.717 169.941 294.157L169.541 293.697C169.141 294.157 168.571 294.387 167.931 294.387C166.781 294.387 165.941 293.657 165.861 292.557H170.261C170.261 292.477 170.271 292.397 170.271 292.337ZM167.721 290.277C168.751 290.277 169.501 290.997 169.591 292.027H165.861C165.951 290.997 166.701 290.277 167.721 290.277ZM172.397 290.737V289.707H171.717V294.967H172.427V292.287C172.427 291.047 173.097 290.347 174.197 290.347C174.247 290.347 174.307 290.357 174.367 290.357V289.667C173.397 289.667 172.727 290.037 172.397 290.737ZM42.9475 306.137C42.7475 306.317 42.4575 306.407 42.1675 306.407C41.5775 306.407 41.2575 306.067 41.2575 305.447V302.307H42.8575V301.707H41.2575V300.557H40.5475V301.707H39.6075V302.307H40.5475V305.487C40.5475 306.457 41.0975 307.017 42.0875 307.017C42.4975 307.017 42.9175 306.897 43.1975 306.647L42.9475 306.137ZM47.17 301.667C46.28 301.667 45.59 302.017 45.2 302.627V299.547H44.49V306.967H45.2V304.207C45.2 303.007 45.91 302.307 47.04 302.307C48.04 302.307 48.62 302.877 48.62 303.987V306.967H49.33V303.917C49.33 302.407 48.45 301.667 47.17 301.667ZM51.9376 302.737V301.707H51.2576V306.967H51.9676V304.287C51.9676 303.047 52.6376 302.347 53.7376 302.347C53.7876 302.347 53.8476 302.357 53.9076 302.357V301.667C52.9376 301.667 52.2676 302.037 51.9376 302.737ZM57.2943 307.017C58.8343 307.017 59.9643 305.897 59.9643 304.337C59.9643 302.777 58.8343 301.667 57.2943 301.667C55.7543 301.667 54.6143 302.777 54.6143 304.337C54.6143 305.897 55.7543 307.017 57.2943 307.017ZM57.2943 306.387C56.1743 306.387 55.3343 305.567 55.3343 304.337C55.3343 303.107 56.1743 302.287 57.2943 302.287C58.4143 302.287 59.2443 303.107 59.2443 304.337C59.2443 305.567 58.4143 306.387 57.2943 306.387ZM65.4438 301.707V304.467C65.4438 305.667 64.7538 306.377 63.6538 306.377C62.6538 306.377 62.0738 305.807 62.0738 304.687V301.707H61.3638V304.757C61.3638 306.267 62.2438 307.017 63.5838 307.017C64.4238 307.017 65.1038 306.647 65.4738 306.007V306.967H66.1538V301.707H65.4438ZM72.3323 301.707V302.717C71.8923 302.027 71.1323 301.667 70.2523 301.667C68.7523 301.667 67.6123 302.697 67.6123 304.207C67.6123 305.717 68.7523 306.767 70.2523 306.767C71.1123 306.767 71.8623 306.417 72.3023 305.747V306.417C72.3023 307.717 71.6923 308.327 70.3623 308.327C69.5523 308.327 68.7923 308.057 68.2923 307.607L67.9323 308.147C68.4823 308.667 69.4223 308.957 70.3823 308.957C72.1223 308.957 73.0123 308.137 73.0123 306.327V301.707H72.3323ZM70.3223 306.137C69.1623 306.137 68.3323 305.347 68.3323 304.207C68.3323 303.067 69.1623 302.287 70.3223 302.287C71.4823 302.287 72.3223 303.067 72.3223 304.207C72.3223 305.347 71.4823 306.137 70.3223 306.137ZM77.6778 301.667C76.7878 301.667 76.0978 302.017 75.7078 302.627V299.547H74.9978V306.967H75.7078V304.207C75.7078 303.007 76.4178 302.307 77.5478 302.307C78.5478 302.307 79.1278 302.877 79.1278 303.987V306.967H79.8378V303.917C79.8378 302.407 78.9578 301.667 77.6778 301.667ZM86.4626 307.027C88.2526 307.027 89.0726 306.147 89.0726 305.117C89.0726 302.567 84.7626 303.727 84.7626 301.807C84.7626 301.107 85.3326 300.537 86.6126 300.537C87.2326 300.537 87.9326 300.727 88.5326 301.117L88.7826 300.527C88.2226 300.137 87.4026 299.907 86.6126 299.907C84.8326 299.907 84.0326 300.797 84.0326 301.827C84.0326 304.417 88.3426 303.237 88.3426 305.157C88.3426 305.847 87.7726 306.397 86.4626 306.397C85.5426 306.397 84.6526 306.037 84.1526 305.547L83.8626 306.117C84.3826 306.657 85.4126 307.027 86.4626 307.027ZM94.5649 301.707V304.467C94.5649 305.667 93.8749 306.377 92.7749 306.377C91.7749 306.377 91.1949 305.807 91.1949 304.687V301.707H90.4849V304.757C90.4849 306.267 91.3649 307.017 92.7049 307.017C93.5449 307.017 94.2249 306.647 94.5949 306.007V306.967H95.2749V301.707H94.5649ZM99.9734 301.667C99.1334 301.667 98.4134 302.027 97.9734 302.707V299.547H97.2634V306.967H97.9434V305.927C98.3734 306.637 99.1034 307.017 99.9734 307.017C101.473 307.017 102.593 305.927 102.593 304.337C102.593 302.747 101.473 301.667 99.9734 301.667ZM99.9234 306.387C98.8034 306.387 97.9634 305.567 97.9634 304.337C97.9634 303.107 98.8034 302.287 99.9234 302.287C101.033 302.287 101.883 303.107 101.883 304.337C101.883 305.567 101.033 306.387 99.9234 306.387ZM105.451 307.017C106.821 307.017 107.621 306.427 107.621 305.517C107.621 303.497 104.211 304.567 104.211 303.147C104.211 302.647 104.631 302.277 105.581 302.277C106.121 302.277 106.671 302.407 107.131 302.727L107.441 302.157C107.001 301.857 106.261 301.667 105.581 301.667C104.241 301.667 103.501 302.307 103.501 303.167C103.501 305.247 106.911 304.167 106.911 305.537C106.911 306.057 106.501 306.397 105.501 306.397C104.761 306.397 104.051 306.137 103.631 305.807L103.311 306.367C103.741 306.737 104.581 307.017 105.451 307.017ZM111.113 307.017C112.003 307.017 112.753 306.657 113.173 305.977L112.643 305.617C112.283 306.147 111.723 306.387 111.113 306.387C109.963 306.387 109.123 305.577 109.123 304.337C109.123 303.107 109.963 302.287 111.113 302.287C111.723 302.287 112.283 302.537 112.643 303.067L113.173 302.707C112.753 302.017 112.003 301.667 111.113 301.667C109.543 301.667 108.403 302.767 108.403 304.337C108.403 305.907 109.543 307.017 111.113 307.017ZM115.248 302.737V301.707H114.568V306.967H115.278V304.287C115.278 303.047 115.948 302.347 117.048 302.347C117.098 302.347 117.158 302.357 117.218 302.357V301.667C116.248 301.667 115.578 302.037 115.248 302.737ZM121.214 301.667C120.344 301.667 119.614 302.047 119.184 302.747V301.707H118.504V308.907H119.214V305.977C119.654 306.657 120.374 307.017 121.214 307.017C122.714 307.017 123.834 305.937 123.834 304.337C123.834 302.747 122.714 301.667 121.214 301.667ZM121.164 306.387C120.044 306.387 119.204 305.567 119.204 304.337C119.204 303.117 120.044 302.287 121.164 302.287C122.274 302.287 123.124 303.117 123.124 304.337C123.124 305.567 122.274 306.387 121.164 306.387ZM127.801 306.137C127.601 306.317 127.311 306.407 127.021 306.407C126.431 306.407 126.111 306.067 126.111 305.447V302.307H127.711V301.707H126.111V300.557H125.401V301.707H124.461V302.307H125.401V305.487C125.401 306.457 125.951 307.017 126.941 307.017C127.351 307.017 127.771 306.897 128.051 306.647L127.801 306.137ZM129.704 300.557C130.004 300.557 130.224 300.327 130.224 300.037C130.224 299.767 129.994 299.547 129.704 299.547C129.414 299.547 129.184 299.777 129.184 300.047C129.184 300.327 129.414 300.557 129.704 300.557ZM129.344 306.967H130.054V301.707H129.344V306.967ZM134.179 307.017C135.719 307.017 136.849 305.897 136.849 304.337C136.849 302.777 135.719 301.667 134.179 301.667C132.639 301.667 131.499 302.777 131.499 304.337C131.499 305.897 132.639 307.017 134.179 307.017ZM134.179 306.387C133.059 306.387 132.219 305.567 132.219 304.337C132.219 303.107 133.059 302.287 134.179 302.287C135.299 302.287 136.129 303.107 136.129 304.337C136.129 305.567 135.299 306.387 134.179 306.387ZM140.979 301.667C140.069 301.667 139.359 302.037 138.979 302.677V301.707H138.299V306.967H139.009V304.207C139.009 303.007 139.719 302.307 140.849 302.307C141.849 302.307 142.429 302.877 142.429 303.987V306.967H143.139V303.917C143.139 302.407 142.259 301.667 140.979 301.667Z" fill="white"/>
</svg>
