<svg width="195" height="131" viewBox="0 0 195 131" fill="none" xmlns="http://www.w3.org/2000/svg">
<g filter="url(#filter0_d_2512_210)">
<path d="M8.52894 3.6H4.61894V0.199998H16.1789V3.6H12.2689V24H8.52894V3.6ZM17.9897 0.199998H23.5317C25.4584 0.199998 26.8637 0.653332 27.7477 1.56C28.6317 2.444 29.0737 3.81533 29.0737 5.674V7.136C29.0737 9.60667 28.2577 11.1707 26.6257 11.828V11.896C27.5324 12.168 28.167 12.7233 28.5297 13.562C28.915 14.4007 29.1077 15.5227 29.1077 16.928V21.11C29.1077 21.79 29.1304 22.3453 29.1757 22.776C29.221 23.184 29.3344 23.592 29.5157 24H25.7077C25.5717 23.6147 25.481 23.252 25.4357 22.912C25.3904 22.572 25.3677 21.96 25.3677 21.076V16.724C25.3677 15.636 25.1864 14.8767 24.8237 14.446C24.4837 14.0153 23.883 13.8 23.0217 13.8H21.7297V24H17.9897V0.199998ZM23.0897 10.4C23.8377 10.4 24.393 10.2073 24.7557 9.822C25.141 9.43667 25.3337 8.79067 25.3337 7.884V6.048C25.3337 5.18667 25.175 4.56333 24.8577 4.178C24.563 3.79267 24.087 3.6 23.4297 3.6H21.7297V10.4H23.0897ZM34.5926 0.199998H39.6586L43.5346 24H39.7946L39.1146 19.274V19.342H34.8646L34.1846 24H30.7166L34.5926 0.199998ZM38.6726 16.112L37.0066 4.348H36.9386L35.3066 16.112H38.6726ZM45.3491 0.199998H49.0891V24H45.3491V0.199998ZM51.8901 0.199998H56.5821L60.2201 14.446H60.2881V0.199998H63.6201V24H59.7781L55.2901 6.626H55.2221V24H51.8901V0.199998ZM66.3999 0.199998H76.5999V3.6H70.1399V9.89H75.2739V13.29H70.1399V20.6H76.5999V24H66.3999V0.199998ZM78.7514 0.199998H84.2934C86.2201 0.199998 87.6254 0.653332 88.5094 1.56C89.3934 2.444 89.8354 3.81533 89.8354 5.674V7.136C89.8354 9.60667 89.0194 11.1707 87.3874 11.828V11.896C88.2941 12.168 88.9288 12.7233 89.2914 13.562C89.6768 14.4007 89.8694 15.5227 89.8694 16.928V21.11C89.8694 21.79 89.8921 22.3453 89.9374 22.776C89.9828 23.184 90.0961 23.592 90.2774 24H86.4694C86.3334 23.6147 86.2428 23.252 86.1974 22.912C86.1521 22.572 86.1294 21.96 86.1294 21.076V16.724C86.1294 15.636 85.9481 14.8767 85.5854 14.446C85.2454 14.0153 84.6448 13.8 83.7834 13.8H82.4914V24H78.7514V0.199998ZM83.8514 10.4C84.5994 10.4 85.1548 10.2073 85.5174 9.822C85.9028 9.43667 86.0954 8.79067 86.0954 7.884V6.048C86.0954 5.18667 85.9368 4.56333 85.6194 4.178C85.3248 3.79267 84.8488 3.6 84.1914 3.6H82.4914V10.4H83.8514ZM97.0256 0.199998H100.63L102.296 18.492H102.364L104.132 0.199998H108.212L109.98 18.492H110.048L111.714 0.199998H114.944L112.53 24H107.872L106.172 7.952H106.104L104.404 24H99.4396L97.0256 0.199998ZM116.835 0.199998H127.035V3.6H120.575V9.89H125.709V13.29H120.575V20.6H127.035V24H116.835V0.199998ZM134.632 0.199998H139.97L142.35 17.234H142.418L144.798 0.199998H150.136V24H146.6V5.98H146.532L143.812 24H140.684L137.964 5.98H137.896V24H134.632V0.199998ZM155.817 0.199998H160.883L164.759 24H161.019L160.339 19.274V19.342H156.089L155.409 24H151.941L155.817 0.199998ZM159.897 16.112L158.231 4.348H158.163L156.531 16.112H159.897ZM166.574 0.199998H172.286C174.144 0.199998 175.538 0.698665 176.468 1.696C177.397 2.69333 177.862 4.15533 177.862 6.082V18.118C177.862 20.0447 177.397 21.5067 176.468 22.504C175.538 23.5013 174.144 24 172.286 24H166.574V0.199998ZM172.218 20.6C172.83 20.6 173.294 20.4187 173.612 20.056C173.952 19.6933 174.122 19.104 174.122 18.288V5.912C174.122 5.096 173.952 4.50667 173.612 4.144C173.294 3.78133 172.83 3.6 172.218 3.6H170.314V20.6H172.218ZM180.386 0.199998H190.586V3.6H184.126V9.89H189.26V13.29H184.126V20.6H190.586V24H180.386V0.199998ZM31.9018 49.2H35.6418V73H31.9018V49.2ZM41.3668 52.6H37.4568V49.2H49.0168V52.6H45.1068V73H41.3668V52.6ZM56.2729 49.2H66.4729V52.6H60.0129V58.89H65.1469V62.29H60.0129V69.6H66.4729V73H56.2729V49.2ZM71.5145 49.2H76.5805L80.4565 73H76.7165L76.0365 68.274V68.342H71.7865L71.1065 73H67.6385L71.5145 49.2ZM75.5945 65.112L73.9285 53.348H73.8605L72.2285 65.112H75.5945ZM87.0333 73.34C85.22 73.34 83.8487 72.83 82.9193 71.81C81.99 70.7673 81.5253 69.2827 81.5253 67.356V65.996H85.0613V67.628C85.0613 69.1693 85.7073 69.94 86.9993 69.94C87.634 69.94 88.11 69.7587 88.4273 69.396C88.7673 69.0107 88.9373 68.3987 88.9373 67.56C88.9373 66.5627 88.7107 65.69 88.2573 64.942C87.804 64.1713 86.9653 63.2533 85.7413 62.188C84.2 60.828 83.1233 59.604 82.5113 58.516C81.8993 57.4053 81.5933 56.1587 81.5933 54.776C81.5933 52.8947 82.0693 51.444 83.0213 50.424C83.9733 49.3813 85.356 48.86 87.1693 48.86C88.96 48.86 90.3087 49.3813 91.2153 50.424C92.1447 51.444 92.6093 52.9173 92.6093 54.844V55.83H89.0733V54.606C89.0733 53.79 88.9147 53.2007 88.5973 52.838C88.28 52.4527 87.8153 52.26 87.2033 52.26C85.9567 52.26 85.3333 53.0193 85.3333 54.538C85.3333 55.3993 85.56 56.204 86.0133 56.952C86.4893 57.7 87.3393 58.6067 88.5633 59.672C90.1273 61.032 91.204 62.2673 91.7933 63.378C92.3827 64.4887 92.6773 65.792 92.6773 67.288C92.6773 69.2373 92.19 70.7333 91.2153 71.776C90.2633 72.8187 88.8693 73.34 87.0333 73.34ZM94.8217 49.2H98.5617V73H94.8217V49.2ZM101.363 49.2H111.563V52.6H105.103V58.89H110.237V62.29H105.103V69.6H111.563V73H101.363V49.2ZM113.714 49.2H119.256C121.183 49.2 122.588 49.6533 123.472 50.56C124.356 51.444 124.798 52.8153 124.798 54.674V56.136C124.798 58.6067 123.982 60.1707 122.35 60.828V60.896C123.257 61.168 123.892 61.7233 124.254 62.562C124.64 63.4007 124.832 64.5227 124.832 65.928V70.11C124.832 70.79 124.855 71.3453 124.9 71.776C124.946 72.184 125.059 72.592 125.24 73H121.432C121.296 72.6147 121.206 72.252 121.16 71.912C121.115 71.572 121.092 70.96 121.092 70.076V65.724C121.092 64.636 120.911 63.8767 120.548 63.446C120.208 63.0153 119.608 62.8 118.746 62.8H117.454V73H113.714V49.2ZM118.814 59.4C119.562 59.4 120.118 59.2073 120.48 58.822C120.866 58.4367 121.058 57.7907 121.058 56.884V55.048C121.058 54.1867 120.9 53.5633 120.582 53.178C120.288 52.7927 119.812 52.6 119.154 52.6H117.454V59.4H118.814ZM132.873 49.2H142.767V52.6H136.613V59.23H141.441V62.63H136.613V73H132.873V49.2ZM149.966 73.34C148.13 73.34 146.725 72.8187 145.75 71.776C144.775 70.7333 144.288 69.26 144.288 67.356V54.844C144.288 52.94 144.775 51.4667 145.75 50.424C146.725 49.3813 148.13 48.86 149.966 48.86C151.802 48.86 153.207 49.3813 154.182 50.424C155.157 51.4667 155.644 52.94 155.644 54.844V67.356C155.644 69.26 155.157 70.7333 154.182 71.776C153.207 72.8187 151.802 73.34 149.966 73.34ZM149.966 69.94C151.258 69.94 151.904 69.158 151.904 67.594V54.606C151.904 53.042 151.258 52.26 149.966 52.26C148.674 52.26 148.028 53.042 148.028 54.606V67.594C148.028 69.158 148.674 69.94 149.966 69.94ZM158.173 49.2H163.715C165.642 49.2 167.047 49.6533 167.931 50.56C168.815 51.444 169.257 52.8153 169.257 54.674V56.136C169.257 58.6067 168.441 60.1707 166.809 60.828V60.896C167.716 61.168 168.351 61.7233 168.713 62.562C169.099 63.4007 169.291 64.5227 169.291 65.928V70.11C169.291 70.79 169.314 71.3453 169.359 71.776C169.405 72.184 169.518 72.592 169.699 73H165.891C165.755 72.6147 165.665 72.252 165.619 71.912C165.574 71.572 165.551 70.96 165.551 70.076V65.724C165.551 64.636 165.37 63.8767 165.007 63.446C164.667 63.0153 164.067 62.8 163.205 62.8H161.913V73H158.173V49.2ZM163.273 59.4C164.021 59.4 164.577 59.2073 164.939 58.822C165.325 58.4367 165.517 57.7907 165.517 56.884V55.048C165.517 54.1867 165.359 53.5633 165.041 53.178C164.747 52.7927 164.271 52.6 163.613 52.6H161.913V59.4H163.273ZM74.5819 111.868L70.0599 98.2H74.0379L76.5879 106.938H76.6559L79.2059 98.2H82.8439L78.3219 111.868V122H74.5819V111.868ZM89.3371 122.34C87.5011 122.34 86.0958 121.819 85.1211 120.776C84.1464 119.733 83.6591 118.26 83.6591 116.356V103.844C83.6591 101.94 84.1464 100.467 85.1211 99.424C86.0958 98.3813 87.5011 97.86 89.3371 97.86C91.1731 97.86 92.5784 98.3813 93.5531 99.424C94.5278 100.467 95.0151 101.94 95.0151 103.844V116.356C95.0151 118.26 94.5278 119.733 93.5531 120.776C92.5784 121.819 91.1731 122.34 89.3371 122.34ZM89.3371 118.94C90.6291 118.94 91.2751 118.158 91.2751 116.594V103.606C91.2751 102.042 90.6291 101.26 89.3371 101.26C88.0451 101.26 87.3991 102.042 87.3991 103.606V116.594C87.3991 118.158 88.0451 118.94 89.3371 118.94ZM102.984 122.34C101.171 122.34 99.7884 121.83 98.8364 120.81C97.8844 119.767 97.4084 118.283 97.4084 116.356V98.2H101.148V116.628C101.148 117.444 101.307 118.033 101.624 118.396C101.964 118.759 102.44 118.94 103.052 118.94C103.664 118.94 104.129 118.759 104.446 118.396C104.786 118.033 104.956 117.444 104.956 116.628V98.2H108.56V116.356C108.56 118.283 108.084 119.767 107.132 120.81C106.18 121.83 104.798 122.34 102.984 122.34ZM111.53 108.128V98.2H115.27V108.128L114.794 115.71H112.006L111.53 108.128ZM111.598 118.396H115.202V122H111.598V118.396ZM118.669 108.128V98.2H122.409V108.128L121.933 115.71H119.145L118.669 108.128ZM118.737 118.396H122.341V122H118.737V118.396ZM125.807 108.128V98.2H129.547V108.128L129.071 115.71H126.283L125.807 108.128ZM125.875 118.396H129.479V122H125.875V118.396Z" fill="black"/>
</g>
<defs>
<filter id="filter0_d_2512_210" x="0.619141" y="0.200195" width="193.967" height="130.14" filterUnits="userSpaceOnUse" color-interpolation-filters="sRGB">
<feFlood flood-opacity="0" result="BackgroundImageFix"/>
<feColorMatrix in="SourceAlpha" type="matrix" values="0 0 0 0 0 0 0 0 0 0 0 0 0 0 0 0 0 0 127 0" result="hardAlpha"/>
<feOffset dy="4"/>
<feGaussianBlur stdDeviation="2"/>
<feComposite in2="hardAlpha" operator="out"/>
<feColorMatrix type="matrix" values="0 0 0 0 0 0 0 0 0 0 0 0 0 0 0 0 0 0 0.25 0"/>
<feBlend mode="normal" in2="BackgroundImageFix" result="effect1_dropShadow_2512_210"/>
<feBlend mode="normal" in="SourceGraphic" in2="effect1_dropShadow_2512_210" result="shape"/>
</filter>
</defs>
</svg>
