<svg width="29" height="28" viewBox="0 0 29 28" fill="none" xmlns="http://www.w3.org/2000/svg">
<path fill-rule="evenodd" clip-rule="evenodd" d="M22.8118 20.544H9.49686C8.44568 20.544 7.59424 19.6926 7.59424 18.6414V5.32645C7.59424 4.27527 8.44568 3.42383 9.49686 3.42383H22.813C23.863 3.42383 24.7145 4.27527 24.7145 5.32645V18.6426C24.7145 19.6926 23.863 20.544 22.8118 20.544Z" stroke="#9797BD" stroke-width="1.5" stroke-linecap="round" stroke-linejoin="round"/>
<path d="M18.172 8.17867C19.2859 9.29262 19.2859 11.0994 18.172 12.2145C17.058 13.3284 15.2513 13.3284 14.1362 12.2145C13.0211 11.1005 13.0222 9.29376 14.1362 8.17867C15.2501 7.06357 17.0569 7.06471 18.172 8.17867Z" stroke="#9797BD" stroke-width="1.5" stroke-linecap="round" stroke-linejoin="round"/>
<path d="M21.2902 17.6153C21.1407 17.2398 20.909 16.902 20.6122 16.6269C20.1112 16.1613 19.4549 15.9033 18.7701 15.9033C17.6288 15.9033 14.6795 15.9033 13.5382 15.9033C12.8534 15.9033 12.1982 16.1624 11.696 16.6269C11.3993 16.902 11.1676 17.2398 11.0181 17.6153" stroke="#9797BD" stroke-width="1.5" stroke-linecap="round" stroke-linejoin="round"/>
<path d="M21.2901 20.5438V22.0652C21.2901 23.1164 20.4387 23.9679 19.3875 23.9679H6.07255C5.02137 23.9679 4.16992 23.1164 4.16992 22.0652V8.75028C4.16992 7.6991 5.02137 6.84766 6.07255 6.84766H7.59396" stroke="#9797BD" stroke-width="1.5" stroke-linecap="round" stroke-linejoin="round"/>
</svg>
