<svg width="265" height="143" viewBox="0 0 265 143" fill="none" xmlns="http://www.w3.org/2000/svg">
<path d="M10.5027 37.3H0.702734V0.549999H6.00274V31.95H10.5027V37.3ZM16.2285 4.2H11.9785V0.549999H16.2285V4.2ZM16.2285 37.3H11.9785V9.75H16.2285V37.3ZM31.7098 37.3H27.4098V17.25C27.4098 15.45 26.7264 14.55 25.3598 14.55C24.6931 14.55 24.1764 14.8333 23.8098 15.4C23.4431 15.9333 23.2598 16.55 23.2598 17.25V37.3H19.0098V9.75H23.2598V12.75C23.7264 11.95 24.4098 11.2167 25.3098 10.55C26.2431 9.85 27.1264 9.5 27.9598 9.5C29.5931 9.5 30.6764 10.45 31.2098 12.35C31.5431 13.4167 31.7098 15.0167 31.7098 17.15V37.3ZM47.4895 37.3H43.2395L41.2895 32.65C40.5895 30.95 39.7061 28.25 38.6395 24.55V37.3H34.4395V0.549999H38.6395V21.55C39.7728 17.95 40.7061 15.25 41.4395 13.45L42.8895 9.75H46.7895L41.8895 22.8L47.4895 37.3ZM70.4402 37.3H64.9402L62.1902 25.15C61.9236 23.9833 61.5236 22.2 60.9902 19.8C60.7569 18.7 60.2569 15.9 59.4902 11.4V37.3H55.3902V0.549999H60.5902L63.0902 12.05C63.5236 13.7833 64.1236 16.4167 64.8902 19.95C65.0902 20.9167 65.5236 23.4167 66.1902 27.45V0.549999H70.4402V37.3ZM89.116 37.3H79.316V0.549999H84.616V31.95H89.116V37.3ZM94.8418 4.2H90.5918V0.549999H94.8418V4.2ZM94.8418 37.3H90.5918V9.75H94.8418V37.3ZM105.373 14H102.573V37.3H98.273V14H96.623V9.75H98.273V7.1C98.273 2.73333 100.64 0.549999 105.373 0.549999V4.35C103.473 4.35 102.523 5.51666 102.523 7.85C102.523 8.08333 102.523 8.41667 102.523 8.85C102.556 9.25 102.573 9.55 102.573 9.75H105.373V14ZM114.88 37.3H113.83C111.397 37.3 109.797 36.7167 109.03 35.55C108.464 34.65 108.18 32.8833 108.18 30.25V14.05H106.53V9.75H108.18V0.549999H112.43V9.75H114.88V14.05H112.43V30C112.43 31.0333 112.58 31.75 112.88 32.15C113.18 32.55 113.847 32.7667 114.88 32.8V37.3ZM81.0457 54.65H77.3457V86.3H72.0457V54.65H68.2957V49.55H81.0457V54.65ZM91.309 70.3H87.859V65.45C87.859 64.7833 87.6757 64.2 87.309 63.7C86.9423 63.2 86.4257 62.95 85.759 62.95C84.3923 62.95 83.709 63.7833 83.709 65.45V86.3H79.459V58.75H83.459V61.4C84.459 59.4667 85.8923 58.5 87.759 58.5C90.1257 58.5 91.309 60.4 91.309 64.2V70.3ZM105.387 64.45V86.3H98.9867C96.5534 86.3 94.9034 85.9 94.0367 85.1C93.1701 84.3 92.7367 82.6667 92.7367 80.2C92.7367 79.9333 92.7201 79.5167 92.6867 78.95C92.6867 78.3833 92.6867 77.95 92.6867 77.65C92.6867 75.5167 92.9367 73.95 93.4367 72.95C94.1701 71.5167 95.5201 70.8 97.4867 70.8H101.187V64.5C101.187 63.3667 100.47 62.8 99.0367 62.8C97.7367 62.8 97.0701 63.3167 97.0367 64.35C97.0367 64.6833 97.0367 65.0833 97.0367 65.55V66.95H92.7367V65.65C92.7367 62.7167 93.1034 60.8 93.8367 59.9C94.6034 58.9667 96.3867 58.5 99.1867 58.5C101.587 58.5 103.22 58.9 104.087 59.7C104.953 60.5 105.387 62.0833 105.387 64.45ZM101.187 82.05V75.3H99.1867C98.6534 75.3 98.1534 75.4833 97.6867 75.85C97.2534 76.1833 97.0367 76.6 97.0367 77.1V80.55C97.0367 81.55 97.7534 82.05 99.1867 82.05H101.187ZM112.42 53.2H108.17V49.55H112.42V53.2ZM112.42 86.3H108.17V58.75H112.42V86.3ZM127.901 86.3H123.601V66.25C123.601 64.45 122.918 63.55 121.551 63.55C120.885 63.55 120.368 63.8333 120.001 64.4C119.635 64.9333 119.451 65.55 119.451 66.25V86.3H115.201V58.75H119.451V61.75C119.918 60.95 120.601 60.2167 121.501 59.55C122.435 58.85 123.318 58.5 124.151 58.5C125.785 58.5 126.868 59.45 127.401 61.35C127.735 62.4167 127.901 64.0167 127.901 66.15V86.3ZM142.981 80.2C142.981 82.7667 142.548 84.4667 141.681 85.3C140.848 86.1 139.164 86.5 136.631 86.5C134.198 86.5 132.531 86.0667 131.631 85.2C130.764 84.3 130.331 82.6333 130.331 80.2V65.4C130.331 62.7 130.714 60.9 131.481 60C132.348 58.9667 134.064 58.45 136.631 58.45C139.231 58.45 140.964 58.95 141.831 59.95C142.598 60.85 142.981 62.6667 142.981 65.4V74.25H134.581V79.9C134.581 81.3333 135.231 82.05 136.531 82.05C137.964 82.05 138.681 81.0167 138.681 78.95C138.681 78.85 138.681 78.7 138.681 78.5C138.681 78.3 138.681 78.15 138.681 78.05H142.981V80.2ZM138.681 64.65C138.681 63.3167 137.998 62.65 136.631 62.65C135.264 62.65 134.581 63.3167 134.581 64.65V69.7H138.681V64.65ZM157.532 80.2C157.532 82.7667 157.098 84.4667 156.232 85.3C155.398 86.1 153.715 86.5 151.182 86.5C148.748 86.5 147.082 86.0667 146.182 85.2C145.315 84.3 144.882 82.6333 144.882 80.2V65.4C144.882 62.7 145.265 60.9 146.032 60C146.898 58.9667 148.615 58.45 151.182 58.45C153.782 58.45 155.515 58.95 156.382 59.95C157.148 60.85 157.532 62.6667 157.532 65.4V74.25H149.132V79.9C149.132 81.3333 149.782 82.05 151.082 82.05C152.515 82.05 153.232 81.0167 153.232 78.95C153.232 78.85 153.232 78.7 153.232 78.5C153.232 78.3 153.232 78.15 153.232 78.05H157.532V80.2ZM153.232 64.65C153.232 63.3167 152.548 62.65 151.182 62.65C149.815 62.65 149.132 63.3167 149.132 64.65V69.7H153.232V64.65ZM123.235 122.25V128.5C123.235 131.3 122.652 133.2 121.485 134.2C120.452 135.033 118.502 135.45 115.635 135.45C112.568 135.45 110.618 135.083 109.785 134.35C108.785 133.517 108.285 131.567 108.285 128.5L108.335 121.2H113.535V127.6C113.535 129.467 114.235 130.4 115.635 130.4C116.368 130.4 116.968 130.083 117.435 129.45C117.802 128.85 117.985 128.167 117.985 127.4C117.985 126.9 117.985 126.133 117.985 125.1C117.952 124.067 117.935 123.3 117.935 122.8V122.45C117.935 121.35 117.785 120.6 117.485 120.2C117.285 119.9 116.585 119.417 115.385 118.75C111.918 116.783 109.868 115.3 109.235 114.3C108.602 113.267 108.285 110.95 108.285 107.35V106.15C108.285 102.883 108.735 100.767 109.635 99.8C110.568 98.8 112.602 98.3 115.735 98.3C118.835 98.3 120.852 98.7667 121.785 99.7C122.752 100.633 123.235 102.683 123.235 105.85V110H117.935V106C117.935 105.267 117.735 104.617 117.335 104.05C116.935 103.483 116.368 103.2 115.635 103.2C114.235 103.2 113.535 104.233 113.535 106.3V106.35V109.3C113.535 110.4 114.168 111.383 115.435 112.25C116.502 112.817 117.568 113.4 118.635 114C120.702 115.167 121.985 116.233 122.485 117.2C122.985 118.133 123.235 119.817 123.235 122.25ZM138.421 135.3H134.171V132.35C133.705 133.15 133.038 133.867 132.171 134.5C131.205 135.2 130.305 135.55 129.471 135.55C127.871 135.55 126.788 134.617 126.221 132.75C125.921 131.683 125.771 130.083 125.771 127.95V107.75H130.071V127.85C130.071 129.65 130.738 130.55 132.071 130.55C132.738 130.55 133.271 130.25 133.671 129.65C134.005 129.15 134.171 128.55 134.171 127.85V107.75H138.421V135.3ZM153.657 114.85V127.8C153.657 130 153.49 131.633 153.157 132.7C152.59 134.567 151.457 135.5 149.757 135.5C148.424 135.5 147.44 135.3 146.807 134.9C146.04 134.467 145.524 133.6 145.257 132.3V135.3H141.007V98.55H145.257V110.65C145.957 108.517 147.224 107.45 149.057 107.45C151.057 107.45 152.39 108.25 153.057 109.85C153.457 110.817 153.657 112.483 153.657 114.85ZM149.407 128.2V115.15C149.407 113.35 148.707 112.45 147.307 112.45C146.64 112.45 146.124 112.733 145.757 113.3C145.424 113.833 145.257 114.45 145.257 115.15V128.2C145.257 129.8 145.94 130.6 147.307 130.6C148.707 130.6 149.407 129.8 149.407 128.2ZM168.249 128.55C168.249 131.417 167.899 133.267 167.199 134.1C166.433 135.067 164.666 135.55 161.899 135.55C159.366 135.55 157.683 135.067 156.849 134.1C156.016 133.133 155.599 131.317 155.599 128.65V125.95H159.849V128.65C159.849 129.25 160.099 129.817 160.599 130.35C161.133 130.85 161.699 131.1 162.299 131.1C163.433 131.1 163.999 130.117 163.999 128.15C163.999 126.75 163.916 125.85 163.749 125.45C163.516 124.883 162.833 124.3 161.699 123.7L157.949 121.65C156.383 120.783 155.599 118.667 155.599 115.3V114.6C155.599 112.233 155.816 110.583 156.249 109.65C156.916 108.217 158.316 107.5 160.449 107.5C160.683 107.5 161.016 107.483 161.449 107.45C161.849 107.45 162.166 107.45 162.399 107.45C164.833 107.45 166.449 107.917 167.249 108.85C167.916 109.683 168.249 111.333 168.249 113.8V116.05H163.999V113.9C163.999 112.633 163.349 112 162.049 112C160.583 112 159.849 113.05 159.849 115.15C159.849 116.05 159.983 116.7 160.249 117.1C160.549 117.5 161.116 117.933 161.949 118.4L164.899 120.05C166.399 120.883 167.366 121.917 167.799 123.15C168.099 123.983 168.249 125.433 168.249 127.5V128.55ZM182.751 129.2C182.751 131.767 182.318 133.467 181.451 134.3C180.618 135.1 178.935 135.5 176.401 135.5C173.968 135.5 172.301 135.067 171.401 134.2C170.535 133.3 170.101 131.633 170.101 129.2V114.4C170.101 111.7 170.485 109.9 171.251 109C172.118 107.967 173.835 107.45 176.401 107.45C179.001 107.45 180.735 107.95 181.601 108.95C182.368 109.85 182.751 111.667 182.751 114.4V117.1H178.451V113.65C178.451 112.317 177.768 111.65 176.401 111.65C175.035 111.65 174.351 112.317 174.351 113.65V128.9C174.351 130.333 175.001 131.05 176.301 131.05C176.935 131.05 177.451 130.85 177.851 130.45C178.251 130.017 178.451 129.5 178.451 128.9V123H182.751V129.2ZM197.095 119.3H193.645V114.45C193.645 113.783 193.462 113.2 193.095 112.7C192.728 112.2 192.212 111.95 191.545 111.95C190.178 111.95 189.495 112.783 189.495 114.45V135.3H185.245V107.75H189.245V110.4C190.245 108.467 191.678 107.5 193.545 107.5C195.912 107.5 197.095 109.4 197.095 113.2V119.3ZM202.923 102.2H198.673V98.55H202.923V102.2ZM202.923 135.3H198.673V107.75H202.923V135.3ZM218.004 128.1C218.004 130.467 217.787 132.133 217.354 133.1C216.721 134.7 215.404 135.5 213.404 135.5C211.571 135.5 210.287 134.45 209.554 132.35V142.3H205.304V107.65H209.554V110.65C209.854 109.35 210.387 108.483 211.154 108.05C211.787 107.65 212.771 107.45 214.104 107.45C215.771 107.45 216.904 108.383 217.504 110.25C217.837 111.317 218.004 112.95 218.004 115.15V128.1ZM213.704 127.8V114.75C213.704 113.15 213.021 112.35 211.654 112.35C210.254 112.35 209.554 113.15 209.554 114.75V127.8C209.554 128.5 209.737 129.133 210.104 129.7C210.471 130.233 210.987 130.5 211.654 130.5C213.021 130.5 213.704 129.6 213.704 127.8ZM227.6 135.3H226.55C224.117 135.3 222.517 134.717 221.75 133.55C221.184 132.65 220.9 130.883 220.9 128.25V112.05H219.25V107.75H220.9V98.55H225.15V107.75H227.6V112.05H225.15V128C225.15 129.033 225.3 129.75 225.6 130.15C225.9 130.55 226.567 130.767 227.6 130.8V135.3ZM234.417 102.2H230.167V98.55H234.417V102.2ZM234.417 135.3H230.167V107.75H234.417V135.3ZM249.548 129.2C249.548 131.767 249.115 133.467 248.248 134.3C247.415 135.1 245.732 135.5 243.198 135.5C240.765 135.5 239.098 135.067 238.198 134.2C237.332 133.3 236.898 131.633 236.898 129.2V114.4C236.898 111.7 237.282 109.9 238.048 109C238.915 107.967 240.632 107.45 243.198 107.45C245.798 107.45 247.532 107.95 248.398 108.95C249.165 109.85 249.548 111.667 249.548 114.4V129.2ZM245.248 128.9V113.65C245.248 112.317 244.565 111.65 243.198 111.65C241.832 111.65 241.148 112.317 241.148 113.65V128.9C241.148 130.333 241.798 131.05 243.098 131.05C243.732 131.05 244.248 130.85 244.648 130.45C245.048 130.017 245.248 129.5 245.248 128.9ZM264.498 135.3H260.198V115.25C260.198 113.45 259.515 112.55 258.148 112.55C257.481 112.55 256.965 112.833 256.598 113.4C256.231 113.933 256.048 114.55 256.048 115.25V135.3H251.798V107.75H256.048V110.75C256.515 109.95 257.198 109.217 258.098 108.55C259.031 107.85 259.915 107.5 260.748 107.5C262.381 107.5 263.465 108.45 263.998 110.35C264.331 111.417 264.498 113.017 264.498 115.15V135.3Z" fill="#00B3DF"/>
</svg>
