<svg width="75" height="81" viewBox="0 0 75 81" fill="none" xmlns="http://www.w3.org/2000/svg">
<g clip-path="url(#clip0_2508_203)">
<path d="M12.2256 24.7514C12.2256 11.1527 23.4331 0.0443504 37.1969 0.0108174C50.9608 -0.0227156 62.3085 11.1616 62.2791 24.776C62.2565 38.3457 50.9676 49.4675 37.2263 49.463C23.4851 49.4585 12.2324 38.3345 12.2256 24.7514Z" fill="white"/>
<path d="M0 79.8958C0.158242 76.9155 0.704955 73.9678 1.6266 71.1258C4.39793 62.3424 9.57861 55.2915 17.2365 50.0246C17.8858 49.5775 18.3156 49.5775 18.9785 50.0581C30.1543 58.2469 44.7462 58.2648 55.9491 50.1006C56.6391 49.5999 57.0803 49.5507 57.7884 50.0492C67.4409 56.8229 73.0967 66.0005 74.7557 77.582C74.8643 78.3421 74.9231 79.1089 75.0023 79.8511C68.9235 81.3578 8.06513 81.3936 0 79.8958Z" fill="white"/>
</g>
<defs>
<clipPath id="clip0_2508_203">
<rect width="75" height="81" fill="white"/>
</clipPath>
</defs>
</svg>
