<svg width="90" height="98" viewBox="0 0 90 98" fill="none" xmlns="http://www.w3.org/2000/svg">
<g clip-path="url(#clip0_54_503)">
<path d="M14.6709 29.9469C14.6709 13.4941 28.1199 0.0543336 44.6365 0.0137629C61.1532 -0.0268079 74.7704 13.5049 74.7351 29.9766C74.708 46.3942 61.1613 59.8502 44.6718 59.8448C28.1823 59.8394 14.679 46.3807 14.6709 29.9469Z" fill="#00B3DF"/>
<path d="M0 96.6642C0.18989 93.0585 0.845946 89.4921 1.95192 86.0536C5.27751 75.4268 11.4943 66.8961 20.6838 60.5238C21.463 59.9829 21.9788 59.9829 22.7742 60.5644C36.1852 70.4718 53.6954 70.4934 67.1389 60.6158C67.9669 60.0099 68.4963 59.9504 69.3461 60.5536C80.9291 68.7489 87.716 79.8526 89.7068 93.8649C89.8371 94.7845 89.9077 95.7122 90.0027 96.6101C82.7081 98.4331 9.67815 98.4764 0 96.6642Z" fill="#00B3DF"/>
</g>
<defs>
<clipPath id="clip0_54_503">
<rect width="90" height="98" fill="white"/>
</clipPath>
</defs>
</svg>
