<svg width="15" height="15" viewBox="0 0 15 15" fill="none" xmlns="http://www.w3.org/2000/svg">
<g clip-path="url(#clip0_2515_264)">
<path d="M6.73375 0H8.26825C8.2956 0.0627141 8.35431 0.0573767 8.40769 0.0667171C11.5167 0.46702 13.9792 2.63332 14.7725 5.6476C14.8619 5.98519 14.8619 6.34079 15 6.66637V8.40101C14.9233 8.43704 14.9433 8.5111 14.9333 8.57314C14.3929 11.5854 12.6903 13.621 9.80274 14.6444C9.33038 14.8112 8.82467 14.8852 8.33496 15.0027H6.5336C6.4362 14.8899 6.29142 14.9133 6.16866 14.8866C3.11569 14.2314 1.15287 12.404 0.253525 9.41578C0.14611 9.05885 0.152115 8.67789 0 8.33363V6.6657C0.0927367 6.623 0.0620469 6.53227 0.0747231 6.46155C0.617133 3.41658 2.3431 1.3697 5.26598 0.357604C5.73767 0.194147 6.24338 0.117422 6.73375 0ZM12.5268 5.89245C12.5038 5.72938 12.427 5.57864 12.3086 5.46413C12.0544 5.21594 11.8056 4.96175 11.5527 4.71156C11.1184 4.28057 10.8308 4.2819 10.3932 4.71957C9.06552 6.04724 7.73251 7.37024 6.41752 8.71058C6.19468 8.93809 6.08393 8.91073 5.88378 8.69857C5.35004 8.13481 4.79362 7.58907 4.2392 7.04399C3.91095 6.72041 3.57737 6.72508 3.24845 7.04399C2.96958 7.31486 2.69337 7.58907 2.42316 7.86928C2.1156 8.18819 2.10826 8.52511 2.41849 8.83801C3.49798 9.92906 4.58213 11.0139 5.67095 12.0925C5.98385 12.402 6.32811 12.404 6.64169 12.0925C8.53111 10.2106 10.417 8.32562 12.2993 6.43753C12.3736 6.36793 12.4323 6.28336 12.4715 6.1894C12.5107 6.09544 12.5296 5.99423 12.5268 5.89245Z" fill="white"/>
<path d="M12.5271 5.89242C12.5298 5.99425 12.5109 6.09549 12.4715 6.18945C12.4322 6.28342 12.3734 6.36796 12.2989 6.4375C10.4157 8.32293 8.52988 10.2079 6.64134 12.0924C6.32777 12.404 5.98351 12.402 5.6706 12.0924C4.58178 11.0138 3.49785 9.92947 2.41881 8.83932C2.10858 8.52641 2.11592 8.18949 2.42349 7.87058C2.69035 7.59037 2.9699 7.31617 3.24878 7.04529C3.57769 6.72505 3.91128 6.72038 4.23952 7.04529C4.79394 7.59037 5.34836 8.13612 5.8841 8.69988C6.08425 8.90937 6.195 8.93939 6.41784 8.71189C7.73283 7.37154 9.06584 6.04854 10.3935 4.72087C10.8312 4.28321 11.1187 4.28187 11.5531 4.71287C11.8059 4.96305 12.0548 5.21725 12.309 5.46543C12.4271 5.5796 12.5038 5.72982 12.5271 5.89242Z" fill="#00B3DF"/>
</g>
<defs>
<clipPath id="clip0_2515_264">
<rect width="15" height="15" fill="white"/>
</clipPath>
</defs>
</svg>
