<svg width="78" height="101" viewBox="0 0 78 101" fill="none" xmlns="http://www.w3.org/2000/svg">
<path d="M8.20998 38.3943C5.43314 34.8939 3.66284 30.7127 3.08693 26.2944C1.31924 13.3538 11.9077 0.586133 25.0488 0.222931C34.2413 -0.031896 43.4546 -0.113909 52.6412 0.222931C61.8279 0.559772 68.6035 5.20231 72.6229 13.3246C76.6747 21.5259 75.8691 29.6013 70.6841 37.1582C69.964 38.2068 70.0142 38.7809 70.7342 39.7621C82.1578 55.3857 79.9061 77.6201 65.4223 90.584C54.1905 100.634 41.0317 103.486 26.7633 98.8147C12.4949 94.1428 3.69189 83.9322 0.764436 69.2518C-1.40165 58.3909 1.08315 48.3442 7.61386 39.3257C7.81453 39.0504 7.98274 38.7545 8.20998 38.3943ZM47.5979 39.6889C47.7336 40.5208 47.9726 41.0451 47.8487 41.4639C47.6569 42.1024 47.3264 43.0222 46.8512 43.1657C46.3761 43.3092 45.4997 42.7498 45.119 42.2548C44.6207 41.5299 44.2624 40.7194 44.0625 39.8647C43.2509 36.9825 43.3513 34.1472 44.818 31.4231C43.1348 32.6817 42.0159 34.5452 41.7016 36.6134C41.1409 39.768 41.9023 42.8142 42.4128 45.8897C42.6165 47.1228 42.7699 48.4233 42.5781 49.6389C42.4807 50.2598 41.6426 51.0507 41.0052 51.203C40.595 51.2997 39.9074 50.3946 39.4116 49.8761C39.2168 49.6711 39.2021 49.2903 39.0103 48.7045C38.8007 49.3431 38.783 49.7795 38.5558 50.0167C38.0954 50.5 37.4964 51.2264 36.9947 51.1884C36.493 51.1503 35.7729 50.4532 35.5191 49.882C35.224 49.2669 35.2536 48.4468 35.348 47.7467C35.6844 45.2834 36.2156 42.8435 36.4723 40.3772C36.8294 36.9444 36.2008 33.781 33.2734 31.4671C33.3761 31.8192 33.5084 32.1621 33.6688 32.4922C35.0027 35.8929 34.6987 39.1939 32.875 42.3192C32.5976 42.7966 31.6031 43.359 31.2785 43.1979C30.7561 42.946 30.3931 42.1581 30.1954 41.5254C30.0567 41.0831 30.3046 40.5178 30.3784 40.0111L29.8915 39.8529C29.5108 41.007 28.9206 42.1171 28.7553 43.2916C28.41 45.8165 29.6701 47.8785 30.9745 49.9377C32.1714 51.8255 33.2553 53.7815 34.2207 55.7957C34.625 56.6481 35.0234 58.0687 33.657 58.3675C32.2907 58.6662 32.2199 57.1958 31.969 56.2497C31.8215 55.6962 31.8333 55.1016 31.7388 54.1818C30.6499 56.2087 30.5259 57.9603 30.9627 59.7734C31.1781 60.6697 31.5529 61.5572 31.5883 62.4623C31.6119 62.9895 31.1132 63.5372 30.8506 64.0762C30.4699 63.6485 29.9918 63.2707 29.741 62.7786C29.5314 62.3715 29.5934 61.8267 29.5285 61.3463C29.2334 59.1729 29.0917 56.9527 28.5959 54.8379C28.2654 53.4174 27.4362 52.1139 26.8076 50.7021C26.8725 53.9241 26.9935 56.9293 26.9463 59.9198C26.9463 60.6287 26.3561 61.3287 26.0197 62.0317L24.8127 60.3504C24.7105 60.5806 24.6382 60.8227 24.5972 61.071C24.4792 63.1213 24.5028 65.1716 24.2431 67.1897C24.0602 68.5986 23.5408 69.9782 23.0627 71.3285C22.9712 71.5892 22.2069 71.8909 21.9826 71.7649C21.7926 71.6411 21.6345 71.4749 21.5207 71.2796C21.4069 71.0843 21.3408 70.8653 21.3275 70.6402C21.4127 69.9185 21.6118 69.2148 21.9177 68.5547C22.6997 66.7006 23.0332 64.7908 22.5079 62.8401C21.9826 60.8894 21.3275 58.9328 20.7136 56.982C20.1234 55.1045 19.6601 53.2387 21.6875 51.7771C20.15 52.0378 19.0847 52.8872 18.9814 54.3136C18.8456 56.2351 19.0463 58.1829 19.1053 60.119C19.1584 61.812 19.303 63.5109 19.2175 65.198C19.1968 65.6403 18.4738 66.0474 18.0724 66.4692C17.7596 65.942 17.1694 65.4001 17.1871 64.8875C17.2402 63.7833 17.6357 62.7024 17.8482 61.604C18.1079 60.245 18.0341 58.9445 16.9127 57.8637C17.3524 59.8788 16.4582 61.5045 15.5168 63.1125C14.2213 65.321 14.3364 67.4797 15.7381 69.5828C16.2782 70.397 16.9776 71.1205 17.4144 71.9787C17.6799 72.503 17.5885 73.2089 17.6563 73.8357C17.0455 73.6512 16.2605 73.6366 15.865 73.2499C15.1509 72.5382 14.6846 71.598 14.0413 70.6841C14.2951 80.47 20.9586 89.9484 26.2321 92.3913C24.6209 90.751 23.2575 89.1371 22.986 86.583C23.3489 86.9842 23.4758 87.2274 23.6736 87.324C24.1546 87.5554 24.671 87.7194 25.1727 87.9098C25.0606 87.3914 25.1137 86.7382 24.8097 86.3809C23.0391 84.2924 22.7145 82.166 24.2815 79.8198C24.6327 79.2926 24.7507 78.613 24.975 78.0038C25.1432 78.9089 25.0222 79.7612 24.9956 80.6399C24.9864 81.4224 25.0228 82.2048 25.1048 82.9832C25.1048 83.0007 25.7128 83.0388 25.7334 82.9832C25.9783 82.2275 26.3236 81.4513 26.3236 80.6868C26.303 79.0817 26.0285 77.4853 25.9577 75.8802C25.9134 74.9048 26.1672 73.991 26.9256 73.6805C26.9256 74.5592 26.6955 75.5375 26.967 76.343C27.9762 79.3248 29.1537 82.2392 27.5277 85.3879C27.386 85.6603 27.7844 86.208 27.929 86.6269C28.3038 86.3691 28.9294 86.1729 29.0091 85.8448C29.2658 84.6646 29.4443 83.4689 29.5432 82.2655C29.6377 81.3868 29.6465 80.473 29.7085 79.2955C30.7237 80.6604 31.184 80.0395 31.2312 79.1959C31.3316 77.1983 31.2637 75.189 31.2637 73.1855C31.8952 74.5124 32.214 75.9505 32.6153 77.3682C33.0019 78.7419 32.3763 80.388 33.8134 81.7998C35.1267 79.6997 32.9281 77.6406 34.2325 75.7162C34.3535 76.0911 34.3771 76.4514 34.566 76.6857C34.9199 77.0819 35.3015 77.4529 35.708 77.7958C35.8733 77.251 36.2982 76.6096 36.1536 76.179C35.7228 75.0074 35.0529 73.909 34.4627 72.7871C33.8725 71.6653 33.1111 70.523 32.6448 69.3133C32.4215 68.7974 32.3394 68.2321 32.4068 67.6746C32.4742 67.1171 32.6886 66.5871 33.0284 66.1382L34.0141 67.7726C34.561 67.3729 35.0797 66.9364 35.5664 66.4663C35.8172 66.1594 35.9565 65.7776 35.9618 65.3825C36.0031 63.7423 35.9795 62.102 35.9795 60.5525C37.2367 61.9672 37.7236 63.6866 37.4108 66.0298C37.1865 67.7199 36.8206 69.3982 36.7025 71.0912C36.7108 71.4372 36.7907 71.7778 36.9375 72.0918C37.0842 72.4058 37.2946 72.6863 37.5554 72.916C37.8062 73.124 38.6502 72.6231 39.1313 72.4796C39.5562 72.6788 40.1789 73.1826 40.4268 73.042C40.9137 72.7666 41.2826 72.1633 41.5157 71.6243C41.6692 71.264 41.5334 70.7456 41.4655 70.3326C41.2619 69.079 41.014 67.8371 40.8104 66.5864C40.3707 63.8916 40.958 61.6656 42.4571 60.4617C42.3391 60.8044 42.2181 61.068 42.162 61.3404C41.7075 63.3146 41.8492 65.2331 42.9145 66.9847C43.0645 67.1843 43.2543 67.3511 43.4721 67.4745C43.69 67.598 43.9311 67.6756 44.1805 67.7023C44.3842 67.7199 44.6674 67.0081 44.874 66.6069C44.9464 66.3779 44.9891 66.1407 45.0009 65.901C46.0722 67.7814 46.0043 69.1229 44.7589 71.2318C44.0831 72.3624 43.3041 73.4374 42.6666 74.5885C42.3134 75.2241 42.0822 75.9194 41.9849 76.6388C41.9377 77.002 42.345 77.418 42.5486 77.8105C42.8909 77.5176 43.3365 77.2774 43.546 76.9054C43.7556 76.5334 43.7379 76.0267 43.8736 75.2622C44.6025 76.8761 44.4107 78.1912 43.9799 79.5064C43.7143 80.3207 43.5519 81.0939 44.7678 81.6739C45.9925 78.903 45.0186 75.6283 47.0195 73.0742C46.6004 79.0114 46.6004 79.0114 47.6274 80.2269C47.8753 79.9487 48.1143 79.6821 48.6101 79.1198C48.6101 80.3705 48.554 81.3341 48.6248 82.289C48.6761 83.4008 48.8342 84.5051 49.097 85.5871C49.2091 86.0001 49.8761 86.2637 50.2774 86.5976C50.3866 86.0792 50.7466 85.4465 50.5725 85.0657C49.4157 82.5995 49.8613 80.2445 50.7171 77.8222C51.1598 76.5773 51.3074 75.227 51.5611 73.9705C52.5261 74.8111 52.3314 76.1087 52.2281 77.3506C52.1248 78.5925 51.8267 79.8667 51.8031 81.1291C51.8031 81.7442 52.1868 82.3739 52.4583 82.9744C52.4937 83.0535 53.0691 83.0095 53.078 82.9744C53.2298 82.3427 53.3109 81.6964 53.32 81.0471C53.2728 79.9985 53.1016 78.9557 52.9806 77.913C53.5384 78.736 53.7125 79.6206 54.161 80.3412C55.3415 82.2597 55.129 83.9878 53.8482 85.7658C53.4115 86.3721 53.258 87.1863 52.9924 87.9069L55.551 86.829L52.8567 91.8611C59.7297 87.4031 64.4042 76.4719 63.7608 70.8774C63.2739 71.6067 62.79 72.5821 62.061 73.3232C61.6863 73.7039 60.8806 73.6629 60.2668 73.8152C60.3376 73.2294 60.252 72.5704 60.5117 72.09C60.9691 71.2347 61.6685 70.5171 62.2027 69.6999C63.569 67.6086 63.811 65.4382 62.4978 63.2238C61.5328 61.5777 60.6622 59.914 61.0075 57.8724C59.9894 59.0001 59.8271 60.283 60.1222 61.6538C60.3376 62.6556 60.739 63.6427 60.7773 64.6444C60.8009 65.2478 60.2904 65.8717 60.0189 66.4868C59.5644 66.0123 58.7529 65.5583 58.7204 65.0603C58.623 63.423 58.8237 61.771 58.8798 60.1219C58.9477 58.1858 59.1365 56.238 58.9831 54.3166C58.8739 52.9165 57.8646 52.0231 56.2445 51.78C57.844 53.3881 58.0712 54.2404 57.4072 56.4255C56.9675 57.8724 56.4097 59.2813 55.9464 60.7195C55.0434 63.5021 54.9578 66.2437 56.215 68.9911C56.5455 69.7204 56.457 70.6548 56.4599 71.4925C56.4599 71.5892 55.5746 71.8616 55.492 71.7532C54.946 71.0532 54.2525 70.318 54.0902 69.5008C53.7951 67.9864 53.8246 66.4077 53.7125 64.8553C53.6003 63.3527 53.4793 61.8472 53.3642 60.3446L53.0691 60.3973C52.7858 60.9831 52.5045 61.5689 52.2251 62.1547L51.7264 62.0961C50.0413 58.4495 50.9591 54.6768 51.5877 50.7109C49.9322 52.3278 49.398 54.2492 49.0763 56.2087C48.734 58.3235 48.6337 60.4764 48.2914 62.5911C48.2028 63.1418 47.6008 63.6104 47.2349 64.1172C46.9398 63.4611 46.444 62.805 46.4322 62.143C46.4322 61.3521 46.8748 60.5613 47.049 59.7558C47.4444 57.9457 47.3824 56.1912 46.3466 54.4835C46.0515 55.6815 45.9158 56.7448 45.5351 57.7055C45.3964 58.0658 44.6497 58.4817 44.3015 58.3967C43.9533 58.3118 43.5874 57.6498 43.5372 57.2046C43.4858 56.6191 43.6025 56.0312 43.8736 55.5087C44.8209 53.6985 45.8862 51.947 46.8512 50.1456C47.651 48.6489 48.5924 47.1756 49.0793 45.5734C49.7344 43.5377 49.4216 41.5284 47.5979 39.6889ZM61.0223 30.108C61.2377 29.7946 61.5121 29.4607 61.7158 29.0916C65.9004 21.52 60.2609 12.0094 51.5552 11.9918C43.2923 11.9684 35.0293 11.9684 26.7663 11.9918C21.9472 12.0123 18.4148 14.2472 16.172 18.4357C14.1298 22.2435 14.599 27.3986 17.0927 30.067C31.7211 21.2974 46.3141 21.3209 61.0223 30.108Z" fill="#00B3DF"/>
<path d="M42.8341 28.2809C43.75 30.1217 43.9071 32.1326 43.5973 34.1581C43.3528 35.7615 42.8801 37.2359 42.4784 38.7338C41.9938 40.5366 41.4588 42.2895 40.9831 44.101C40.8469 44.6239 40.7883 45.2123 40.8141 45.7982C40.8393 46.2438 41.0246 46.9092 41.198 46.9913C41.3714 47.0733 41.7478 46.66 41.8175 46.2995C42.0086 45.3263 42.0842 44.2622 42.225 43.0751C42.7452 44.7928 42.7763 46.5486 42.5777 48.3514C42.4903 49.1575 42.2621 49.9489 42.268 50.7404C42.268 51.4028 42.5273 52.0594 42.6711 52.716C42.8549 52.2089 43.1572 51.7399 43.2017 51.1888C43.3736 49.0725 43.424 46.918 43.5959 44.8016C43.7574 42.8406 44.0256 40.9176 44.8571 39.2996C44.5414 43.2685 44.0805 47.044 44.9267 50.6935L45.1772 50.7521C45.3185 50.1658 45.4597 49.5796 45.601 48.9933L45.7492 48.9406C45.807 50.4443 45.8678 51.951 45.9241 53.4547C45.9804 55.0083 45.9626 56.5883 46.1138 58.1037C46.1953 58.9216 46.5436 59.6573 46.8177 60.3579C46.8592 60.4664 47.3038 60.1937 47.3038 60.097C47.3038 59.2587 47.3468 58.3236 47.1808 57.5937C46.5495 54.8442 46.588 52.1005 47.046 49.3158C47.2787 47.8765 47.5588 46.4666 47.7796 45.0185C48.113 42.8318 47.9989 41.9788 47.1957 40.3695C48.0093 40.6128 48.5161 41.5068 48.571 42.908C48.648 44.8309 48.5532 46.7802 48.5191 48.7178C48.4909 50.3681 48.3902 52.0213 48.4391 53.6599C48.4554 54.1582 48.8629 54.6126 49.0911 55.0875C49.2275 54.4719 49.4839 53.8475 49.472 53.2437C49.4528 52.2412 49.2512 51.2533 49.143 50.2508C48.9948 48.879 49.0778 47.5951 49.5876 46.4666C49.4142 48.5184 49.8514 50.1746 50.336 51.822C50.9896 54.0381 50.8681 56.2189 50.1878 58.3031C49.9196 59.1209 49.5684 59.8391 49.3386 60.695C49.2082 61.1757 49.2512 61.8382 49.2156 62.4215C49.5224 62.2691 49.9285 62.3101 50.1167 61.9291C50.4827 61.1875 50.7258 60.2113 50.9703 59.4814C51.2934 65.0802 48.9459 76.0197 45.4943 80.4812L46.8474 75.4452L45.5625 76.5239C45.7018 75.8028 45.7729 74.9879 45.9923 74.3812C46.6355 72.6019 46.7466 70.8636 46.1494 68.9524C45.9241 68.2313 45.8367 67.3461 45.5566 66.5224C45.6173 67.5659 45.7048 68.6095 45.727 69.6589C45.7224 70.3087 45.6817 70.9555 45.6055 71.5876C45.6055 71.6316 45.3091 71.6756 45.2942 71.5876C45.1579 70.9867 44.9608 70.3565 44.9652 69.7409C44.9771 68.4776 45.1253 67.223 45.1786 65.9596C45.232 64.6962 45.3268 63.4182 44.8437 62.5769C44.7103 63.8344 44.6422 65.1857 44.4199 66.4315C43.9901 68.8557 43.7663 71.2124 44.3472 73.6806C44.4376 74.0617 44.2568 74.6948 44.199 75.2136C43.9916 74.8795 43.6566 74.6274 43.6062 74.2024C43.4743 73.1196 43.3949 72.0144 43.3691 70.9017C43.3335 69.9461 43.3617 68.9817 43.3617 67.7301C43.1127 68.2929 42.9927 68.5596 42.8682 68.8381C42.3525 67.6216 42.3525 67.6216 42.5629 61.6799C41.5581 64.236 42.0472 67.5132 41.4321 70.2862C40.8215 69.6999 40.9031 68.9319 41.0364 68.117C41.2528 66.8009 41.3491 65.4789 40.9831 63.8696C40.9149 64.6259 40.9253 65.133 40.8186 65.514C40.7119 65.8951 40.4896 66.1237 40.3177 66.4198C40.2154 66.027 40.0109 65.6108 40.0346 65.2473C40.0835 64.5273 40.1995 63.8315 40.3769 63.1954C40.6971 62.0434 41.0883 60.9676 41.4277 59.8361C42.0531 57.7403 42.0872 56.3831 41.5492 54.5012C41.5433 54.7411 41.5218 54.9785 41.4855 55.2076C41.3817 55.6092 41.2395 56.3215 41.1372 56.3039C41.012 56.2772 40.8909 56.1995 40.7815 56.076C40.6721 55.9524 40.5767 55.7855 40.5014 55.5858C39.9664 53.827 39.8953 51.9129 40.1235 49.9372C40.1561 49.6617 40.2169 49.3978 40.2717 49.0578C39.5189 50.2626 39.2239 52.4903 39.4448 55.1871C39.547 56.4388 39.6715 57.6816 39.7738 58.9362C39.8079 59.3642 39.876 59.8684 39.799 60.2289C39.6819 60.7712 39.5026 61.3721 39.2521 61.6477C39.1276 61.7884 38.8075 61.2842 38.6015 61.0849C38.3599 61.2344 37.9361 61.7297 37.8101 61.5216C37.6791 61.2917 37.5735 61.011 37.4998 60.6968C37.4261 60.3826 37.3859 60.0417 37.3818 59.6954C37.4352 58.0011 37.6249 56.3215 37.7375 54.6302C37.8946 52.2851 37.6501 50.5645 37.0187 49.1487C37.0187 50.6993 37.0306 52.3408 37.0098 53.9824C37.0072 54.3778 36.9372 54.7599 36.8112 55.0669C36.5668 55.5375 36.3064 55.9743 36.0317 56.3743L35.5293 54.7386C35.3586 55.1879 35.2509 55.7183 35.2171 56.2762C35.1833 56.8341 35.2245 57.3998 35.3366 57.9161C35.5708 59.1268 35.9443 60.2348 36.2496 61.3926C36.5549 62.5505 36.8824 63.6087 37.0987 64.7871C37.1773 65.218 36.958 65.8599 36.875 66.4051C36.6708 66.0619 36.4792 65.6907 36.3014 65.2942C36.2066 65.0597 36.1947 64.7079 36.134 64.3239C35.4863 66.2498 36.5786 68.3105 35.9235 70.4122C35.2018 68.9993 35.516 67.3519 35.3218 65.9772C35.1203 64.5584 34.9602 63.1192 34.6431 61.7913C34.6431 63.7963 34.6771 65.8072 34.6268 67.8063C34.6045 68.6505 34.3719 69.2719 33.862 67.906C33.8309 69.0785 33.8265 69.9872 33.7791 70.8783C33.731 72.0784 33.6434 73.2711 33.5167 74.4486C33.4767 74.7769 33.1625 74.9733 32.9743 75.2312C32.9017 74.8121 32.7016 74.2639 32.7728 73.9913C33.5894 70.8402 32.998 67.9235 32.4912 64.9395C32.3548 64.1334 32.4704 63.1602 32.4704 62.275C32.0896 62.5857 31.9621 63.5002 31.9843 64.4764C32.0214 66.0827 32.1577 67.6803 32.1681 69.2866C32.1681 70.0517 31.9932 70.8284 31.8717 71.5847C31.8613 71.6521 31.556 71.614 31.556 71.5847C31.5149 70.8058 31.4966 70.0228 31.5012 69.2397C31.5145 68.3779 31.5753 67.5161 31.4908 66.6015C31.3782 67.2112 31.3189 67.8913 31.1426 68.4189C30.3556 70.764 30.5142 72.895 31.4078 74.985C31.556 75.3397 31.5338 75.9963 31.5901 76.5151C31.3382 76.3217 31.0788 76.1575 30.8373 75.9289C30.738 75.8321 30.6742 75.5888 30.492 75.1873C30.6268 77.7433 31.3115 79.3585 32.1222 81C29.4738 78.5553 26.1275 69.0697 26 59.2763C26.3157 60.1908 26.5572 61.1318 26.9159 61.8441C27.1145 62.2369 27.5087 62.2515 27.8155 62.4303C27.7814 61.803 27.8273 61.0966 27.6939 60.5719C27.4746 59.713 27.1234 58.989 26.8522 58.1741C26.1482 56.0694 26.0904 53.9091 26.741 51.6989C27.2138 50.0896 27.6628 48.4745 27.442 46.446C28.0052 47.5277 28.0422 48.8292 27.9118 50.1893C27.8051 51.2885 27.6065 52.3702 27.5798 53.4752C27.568 53.9882 27.8644 54.5305 28.0244 55.0581C28.226 54.636 28.5891 54.2286 28.5994 53.786C28.6424 52.0975 28.5698 50.3974 28.5431 48.7031C28.5135 46.7655 28.4127 44.8162 28.4809 42.8933C28.5327 41.4658 29.0737 40.6157 29.8399 40.3548C28.8217 41.8205 29.0618 43.6848 29.3508 45.5637C29.6472 47.5189 29.994 49.4506 30.2519 51.4263C30.5097 53.402 30.3408 55.2897 29.9555 57.1452C29.8019 57.8058 29.7019 58.5101 29.6591 59.2323C29.6658 59.4576 29.699 59.6768 29.7561 59.8722C29.8132 60.0677 29.8927 60.234 29.9881 60.3579C30.1007 60.4839 30.4846 60.182 30.5305 59.9211C30.7735 58.5698 31.0344 57.1892 31.1233 55.7792C31.2537 53.7567 31.2419 51.6989 31.3011 49.6558C31.3217 49.4074 31.358 49.1651 31.4093 48.9347L32.0155 50.6172C32.177 49.9137 32.4749 49.2132 32.4808 48.5038C32.5045 45.511 32.4438 42.5123 32.4112 39.279C32.7268 40.6919 33.1433 41.9963 33.3093 43.418C33.5582 45.5461 33.6309 47.7563 33.7776 49.9313C33.8102 50.4121 33.7776 50.9573 33.8843 51.3647C34.0102 51.8572 34.2503 52.2441 34.4415 52.6633C34.5734 52.1239 34.8239 51.5758 34.812 51.0481C34.7927 50.1424 34.606 49.2542 34.4978 48.3572C34.2785 46.5428 34.3407 44.7899 34.8876 42.7614C34.935 43.6818 34.9291 44.2769 35.0032 44.8309C35.1292 45.7836 35.1677 47.2463 35.8509 46.9502C36.5341 46.6542 36.337 45.2296 36.134 44.3765C35.6492 42.3608 35.1048 40.4032 34.5038 38.514C33.8487 36.4621 33.2159 34.3897 33.3893 31.8629C33.4693 30.6904 33.7613 29.5677 33.9569 28.4245L34.2014 28.5828C34.1644 29.0899 34.0399 29.6556 34.1095 30.0983C34.2088 30.7314 34.3911 31.5199 34.6534 31.772C34.8165 31.9303 35.3159 31.3675 35.4552 30.8926C36.3711 27.765 36.5237 24.4614 35.8539 21.0582C35.7733 20.7278 35.7068 20.3846 35.6553 20.0322C37.1254 22.348 37.4337 25.5137 37.2618 28.9492C37.1328 31.4173 36.8661 33.8591 36.6971 36.3243C36.6497 37.0249 36.6408 37.8456 36.7831 38.4612C36.9135 39.0328 37.2573 39.7334 37.5241 39.7686C37.7908 39.8037 38.0769 39.0739 38.3081 38.5961C38.4222 38.3586 38.4311 37.9219 38.5363 37.2828C38.6326 37.8691 38.64 38.2443 38.7378 38.4554C38.9868 38.9742 39.3307 39.88 39.5381 39.7832C39.8582 39.6308 40.2791 38.8394 40.328 38.2179C40.4244 37.0014 40.3473 35.7 40.245 34.4659C39.9887 31.388 39.6063 28.3395 39.8879 25.1825C40.0472 23.1169 40.6089 21.2567 41.4529 20C40.7119 22.7261 40.6659 25.5694 41.0735 28.448C41.1739 29.3034 41.3538 30.1145 41.604 30.8399C41.7952 31.3353 42.2428 31.8893 42.474 31.7515C42.7052 31.6137 42.8786 30.6875 42.9749 30.0484C43.0223 29.6381 42.9023 29.1134 42.8341 28.2809ZM38.4785 59.2499C38.9853 58.0422 38.9646 56.6381 38.4355 55.3806C38.2903 56.685 37.9628 57.9572 38.4785 59.2499Z" fill="url(#paint0_linear_2787_68)"/>
<defs>
<linearGradient id="paint0_linear_2787_68" x1="38.4978" y1="81.0293" x2="38.4978" y2="20.0088" gradientUnits="userSpaceOnUse">
<stop stop-color="#FFD400"/>
<stop offset="1" stop-color="#D48900"/>
</linearGradient>
</defs>
</svg>
