<svg width="152" height="48" viewBox="0 0 152 48" fill="none" xmlns="http://www.w3.org/2000/svg">
<path d="M63.155 18.0924L63.4602 15.9517C64.1233 11.301 64.7863 6.65027 65.4494 1.99957C65.5887 1.02266 66.6472 0.466089 68.3384 0.468223C68.7813 0.467236 69.2363 0.522703 69.671 0.630693C70.1058 0.738683 70.5095 0.896551 70.8537 1.09307C76.0684 3.94748 81.2801 6.80565 86.4888 9.66758C89.0448 11.0696 91.6133 12.4641 94.1712 13.8664C102.276 18.3102 110.38 22.755 118.483 27.2007C125.239 30.9038 132 34.6047 138.765 38.3034C142.384 40.2868 146 42.2735 149.612 44.2635C151.12 45.0929 151.525 46.0152 150.733 46.8142C149.974 47.5801 148.451 47.7842 146.637 47.3088C139.71 45.4921 132.791 43.6577 125.866 41.8372C119.979 40.2882 114.084 38.7507 108.198 37.2009C101.899 35.5432 95.5996 33.8807 89.3014 32.2135C89.0403 32.1448 88.7623 32.102 88.4144 32.0315L88.2959 32.8625C87.6621 37.3077 87.0283 41.7533 86.3944 46.1993C86.285 46.9666 85.6863 47.4997 84.4339 47.7016C83.1451 47.9067 81.93 47.6475 80.7916 47.0502C71.8832 42.3807 62.9715 37.7131 54.0563 33.0475C46.6921 29.1942 39.3264 25.3421 31.9593 21.4911C24.674 17.6777 17.3845 13.8633 10.0906 10.0479C7.355 8.61712 4.60657 7.19601 1.87907 5.76111C0.719809 5.15037 0.227863 4.42934 0.565308 3.65677C0.914124 2.85752 1.9468 2.44294 3.41918 2.53127C4.35821 2.58759 5.36177 2.86901 6.30027 3.11497C14.855 5.35831 23.404 7.60993 31.9475 9.86984C39.2497 11.7935 46.5572 13.715 53.87 15.6346C56.9315 16.4411 59.9955 17.2563 63.155 18.0924Z" fill="#00B3DF"/>
</svg>
