<svg width="23" height="23" viewBox="0 0 23 23" fill="none" xmlns="http://www.w3.org/2000/svg">
<path d="M11.5 0C5.14396 0 0 5.14342 0 11.5C0 17.856 5.14342 23 11.5 23C17.856 23 23 17.8566 23 11.5C23 5.14396 17.8566 0 11.5 0ZM20.0038 12.1738H21.6294C21.4784 14.4669 20.563 16.5542 19.1359 18.1829L18.4388 17.4858C18.1757 17.2226 17.749 17.2227 17.4858 17.4858C17.2227 17.749 17.2227 18.1756 17.4858 18.4388L18.1829 19.1358C16.5543 20.563 14.4669 21.4784 12.1738 21.6294V20.453C12.1738 20.0809 11.8721 19.7792 11.5 19.7792C11.1279 19.7792 10.8262 20.0809 10.8262 20.453V21.6294C8.53313 21.4784 6.4458 20.563 4.81711 19.1359L5.51416 18.4388C5.77731 18.1757 5.77731 17.749 5.51416 17.4858C5.25105 17.2227 4.82438 17.2227 4.56123 17.4858L3.86418 18.1829C2.43697 16.5543 1.52159 14.4669 1.37057 12.1738H2.54698C2.91911 12.1738 3.22081 11.8721 3.22081 11.5C3.22081 11.1279 2.91911 10.8262 2.54698 10.8262H1.37057C1.52159 8.53313 2.43697 6.4458 3.86413 4.81711L4.56119 5.51416C4.82434 5.77731 5.25096 5.77731 5.51412 5.51416C5.77722 5.25105 5.77722 4.82438 5.51412 4.56123L4.81706 3.86418C6.44575 2.43697 8.53313 1.52159 10.8262 1.37057V2.54698C10.8262 2.91911 11.1279 3.22081 11.5 3.22081C11.8721 3.22081 12.1738 2.91911 12.1738 2.54698V1.37057C14.4669 1.52159 16.5542 2.43697 18.1829 3.86413L17.4858 4.56123C17.2227 4.82438 17.2227 5.25101 17.4858 5.51416C17.7489 5.77731 18.1756 5.77736 18.4388 5.51416L19.1358 4.81706C20.563 6.44575 21.4784 8.53313 21.6294 10.8262H20.0038C19.6317 10.8262 19.33 11.1279 19.33 11.5C19.33 11.8721 19.6317 12.1738 20.0038 12.1738Z" fill="white"/>
<path d="M15.7519 10.8261H12.1738V5.24219C12.1738 4.87005 11.8721 4.56836 11.5 4.56836C11.1279 4.56836 10.8262 4.87005 10.8262 5.24219V11.4999C10.8262 11.872 11.1279 12.1737 11.5 12.1737H15.7519C16.124 12.1737 16.4257 11.872 16.4257 11.4999C16.4257 11.1278 16.1241 10.8261 15.7519 10.8261Z" fill="white"/>
</svg>
