<svg width="133" height="168" viewBox="0 0 133 168" fill="none" xmlns="http://www.w3.org/2000/svg">
<g clip-path="url(#clip0_315_1991)">
<path d="M26.4398 53.7101L18.7898 40.1801L38.2798 28.8701C46.2198 42.6001 53.9598 56.0501 61.7798 69.4601C63.3498 72.1501 63.0998 73.9501 60.1798 75.4601C56.3798 77.4601 52.6298 79.5801 49.0398 81.9401C45.7198 84.1201 43.6398 83.9401 41.6698 80.0801C38.5798 74.0801 34.9598 68.3701 31.5598 62.5301C11.0398 75.7401 0.449839 105.67 18.0598 131.03C20.0598 133.86 22.1998 136.86 24.9798 138.74C28.9798 141.44 29.2898 144.42 27.6398 148.33C27.2498 149.24 26.9798 150.2 26.6398 151.13C1.26984 138.47 -17.7002 87.8701 26.4398 53.7101Z" fill="#00B3DF"/>
<path d="M91.7899 167.23H24.9199C26.9799 159.4 28.9199 151.74 31.0899 144.23C31.4177 143.576 31.8992 143.012 32.4932 142.585C33.0871 142.158 33.7757 141.882 34.4999 141.78C50.3999 141.61 66.3099 141.63 82.2099 141.78C83.3499 141.78 85.2099 142.78 85.4999 143.72C87.7899 151.37 89.7099 159.18 91.7899 167.23Z" fill="#00B3DF"/>
<path d="M90.2301 150.18C86.6701 142.54 86.7001 142.57 92.1801 136.78C97.4349 131.458 101.26 124.895 103.3 117.7H91.6601C77.7401 117.7 63.8101 117.79 49.8901 117.57C48.2801 117.57 46.7001 115.75 45.1001 114.77C46.5601 114.04 48.0101 112.68 49.4801 112.67C75.6601 112.543 101.847 112.543 128.04 112.67C129.52 112.67 131.04 114.29 132.49 115.16C130.96 116 129.32 117.73 127.94 117.53C117.94 116.11 111.43 118.53 108.22 129.64C105.67 138.45 97.2201 145.93 90.2301 150.18Z" fill="#00B3DF"/>
<path d="M13.7902 14.17C11.6202 10.38 9.59019 7.17001 7.98019 3.76001C7.53019 2.81001 8.32019 1.27 8.54019 0C9.76019 0.37 11.5402 0.339983 12.1202 1.16998C14.3702 4.37998 16.2302 7.86998 18.3402 11.42C19.4599 10.9696 20.5375 10.4208 21.5602 9.78C24.8202 7.24 26.7902 8.41 28.5002 11.72C30.6002 15.78 33.0002 19.72 35.5002 24.07L15.9902 35.38C13.1902 30.53 10.3502 25.94 7.92019 21.15C7.44019 20.2 8.14019 18.15 8.99019 17.15C10.1402 15.87 11.9602 15.24 13.7902 14.17Z" fill="#00B3DF"/>
<path d="M69.5201 82.1001C68.1827 82.4207 66.8773 82.8625 65.6201 83.4201C61.1301 85.8801 56.7801 88.5801 52.2401 90.9301C51.2401 91.4501 49.6501 90.9301 48.3301 90.8201C48.7501 89.4401 48.7401 87.4001 49.6601 86.8201C54.2226 83.8372 58.9392 81.0967 63.7901 78.6101C64.7901 78.0701 66.6001 78.9601 68.0401 79.1901L69.5201 82.1001Z" fill="#00B3DF"/>
</g>
<defs>
<clipPath id="clip0_315_1991">
<rect width="132.49" height="167.23" fill="white"/>
</clipPath>
</defs>
</svg>
