<svg width="153" height="154" viewBox="0 0 153 154" fill="none" xmlns="http://www.w3.org/2000/svg">
<path d="M58.2423 52.5409L99.7368 95.1898L101.715 93.2649C107.317 87.8148 112.919 82.3646 118.531 76.9043C121.051 74.4527 123.944 74.4613 126.354 76.854C126.768 77.2801 127.185 77.7088 127.602 78.1375C129.888 80.5811 129.829 83.4119 127.385 85.7995C120.875 92.1563 114.356 98.4995 107.826 104.829C99.9936 112.449 92.1387 120.047 84.3287 127.69C82.5683 129.403 80.6419 130.588 78.3237 129.535C75.7673 128.38 73.6743 126.533 73.2721 123.497C73.0332 121.7 73.8876 120.244 75.1984 118.979C80.9044 113.462 86.578 107.907 92.2769 102.363L93.8981 100.785L52.4037 58.1366L50.9166 59.5835C45.2701 65.0771 39.5935 70.5501 33.9923 76.0797C32.1655 77.8819 30.1145 78.928 27.7939 77.7677C25.3169 76.515 23.0343 74.6682 23.0335 71.5659C23.1177 70.0805 23.7393 68.664 24.7823 67.5807C32.8376 59.5636 41.0202 51.6775 49.1653 43.7528C55.4712 37.6176 61.7772 31.4824 68.0831 25.3471C70.8787 22.6272 73.595 22.6329 76.2607 25.3412C76.5929 25.6826 76.925 26.024 77.2597 26.368C79.5879 28.845 79.5147 31.7295 76.9999 34.1861C71.2792 39.782 65.5311 45.3446 59.7953 50.9251L58.2423 52.5409Z" fill="#00B3DF"/>
<path d="M37.6442 34.2784C41.8571 30.1796 46.0709 26.0799 50.2855 21.9793C52.9741 19.3636 55.6913 19.4199 58.333 22.0985C58.7542 22.5314 59.1729 22.9618 59.5942 23.3948C61.648 25.6207 61.6853 28.5417 59.4977 30.6853C50.8846 39.1257 42.2404 47.5359 33.5651 55.9159C31.302 58.1177 28.3678 57.995 26.1363 55.8006C25.6318 55.2821 25.1116 54.7788 24.6228 54.245C22.4833 51.9259 22.4965 49.0514 24.7521 46.8316C29.0128 42.6408 33.3426 38.4637 37.6442 34.2784Z" fill="#00B3DF"/>
<path d="M117.242 116.36C113.113 120.377 108.986 124.393 104.861 128.406C102.097 131.095 99.352 131.052 96.666 128.307C96.2877 127.918 95.9094 127.529 95.5311 127.14C93.4497 124.902 93.3408 121.975 95.5047 119.85C104.195 111.314 112.924 102.821 121.692 94.3713C123.798 92.3222 126.71 92.5165 128.841 94.5912C129.401 95.1359 129.948 95.6984 130.477 96.2735C132.611 98.5869 132.555 101.422 130.26 103.674C125.943 107.92 121.585 112.135 117.242 116.36Z" fill="#00B3DF"/>
<path d="M34.6913 31.2292L31.6922 34.1472C29.8869 32.2917 28.0744 30.5581 26.4458 28.7127C25.183 27.2827 25.055 25.6924 25.8793 25.0388C26.2706 24.7058 26.8755 24.6289 27.5765 24.8233C28.2776 25.0177 29.0247 25.4694 29.6727 26.0906C31.3338 27.7079 32.9244 29.413 34.6913 31.2292Z" fill="#00B3DF"/>
<path d="M117.336 122.185L120.336 119.267C122.108 121.088 123.87 122.798 125.503 124.611C126.756 126 126.972 127.649 126.197 128.335C125.422 129.022 123.824 128.722 122.442 127.402C120.706 125.747 119.082 123.979 117.336 122.185Z" fill="#00B3DF"/>
</svg>
