<svg width="30" height="28" viewBox="0 0 30 28" fill="none" xmlns="http://www.w3.org/2000/svg">
<g clip-path="url(#clip0_292_137)">
<path d="M26.8594 11.2656H26.3125V8.80469C26.3125 7.59836 25.3309 6.61719 24.125 6.61719C23.7033 6.61719 23.309 6.73703 22.9749 6.94467C22.7512 5.97461 21.88 5.25 20.8438 5.25H20.8431C19.6374 5.25 18.6556 6.23117 18.6556 7.4375V11.2656H10.3444V7.4375C10.3444 6.23117 9.36258 5.25 8.15625 5.25C7.11996 5.25 6.24881 5.97461 6.02515 6.94467C5.69104 6.73703 5.29669 6.61719 4.875 6.61719C3.6691 6.61719 2.6875 7.59836 2.6875 8.80469V11.2656H2.14062C1.23615 11.2656 0.5 12.0018 0.5 12.9062V15.0938C0.5 15.9982 1.23615 16.7344 2.14062 16.7344H2.6875V19.1953C2.6875 20.4016 3.6691 21.3828 4.875 21.3828C5.29669 21.3828 5.69104 21.263 6.02515 21.0553C6.24881 22.0254 7.11996 22.75 8.15625 22.75H8.15689C9.36258 22.75 10.3444 21.7688 10.3444 20.5625V16.7344H18.6556V20.5625C18.6556 21.7688 19.6374 22.75 20.8438 22.75C21.88 22.75 22.7512 22.0254 22.9749 21.0553C23.309 21.263 23.7033 21.3828 24.125 21.3828C25.3309 21.3828 26.3125 20.4016 26.3125 19.1953V16.7344H26.8594C27.7639 16.7344 28.5 15.9982 28.5 15.0938V12.9062C28.5 12.0018 27.7639 11.2656 26.8594 11.2656ZM2.6875 15.6406H2.14062C1.8392 15.6406 1.59375 15.3952 1.59375 15.0938V12.9062C1.59375 12.6048 1.8392 12.3594 2.14062 12.3594H2.6875V15.6406ZM5.96875 19.1953C5.96875 19.4972 5.84634 19.7706 5.64832 19.9686C5.45029 20.1667 5.17685 20.2891 4.875 20.2891C4.27173 20.2891 3.78125 19.7986 3.78125 19.1953V8.80469C3.78125 8.20142 4.27173 7.71094 4.875 7.71094C5.47827 7.71094 5.96875 8.20142 5.96875 8.80469V19.1953ZM9.25064 20.5625C9.25064 21.1658 8.75952 21.6562 8.15689 21.6562H8.15625C7.55362 21.6562 7.0625 21.1658 7.0625 20.5625V7.4375C7.0625 6.83423 7.55362 6.34375 8.15689 6.34375C8.75952 6.34375 9.25064 6.83423 9.25064 7.4375V20.5625ZM18.6524 13.4531H14.8281C14.5263 13.4531 14.2812 13.6982 14.2812 14C14.2812 14.3018 14.5263 14.5469 14.8281 14.5469H18.6524V15.6406H10.3416V12.3594H18.6524V13.4531ZM21.9375 20.5625C21.9375 21.1658 21.4464 21.6562 20.8431 21.6562C20.2405 21.6562 19.7494 21.1658 19.7494 20.5625V14.028C19.7489 14.0399 19.7479 14.0519 19.7462 14.0634V13.9366C19.7479 13.9481 19.7489 13.9601 19.7494 13.972V7.4375C19.7494 6.83423 20.2405 6.34375 20.8431 6.34375H20.8438C21.4464 6.34375 21.9375 6.83423 21.9375 7.4375V20.5625ZM25.2188 19.1953C25.2188 19.7986 24.7283 20.2891 24.125 20.2891C23.5217 20.2891 23.0312 19.7986 23.0312 19.1953V8.80469C23.0312 8.20142 23.5217 7.71094 24.125 7.71094C24.7283 7.71094 25.2188 8.20142 25.2188 8.80469V19.1953ZM27.4062 15.0938C27.4062 15.3952 27.1608 15.6406 26.8594 15.6406H26.3125V12.3594H26.8594C27.1608 12.3594 27.4062 12.6048 27.4062 12.9062V15.0938Z" fill="black"/>
<path d="M12.6418 14.5469C12.3398 14.5469 12.0947 14.3021 12.0947 14C12.0947 13.6979 12.3393 13.4531 12.6414 13.4531H12.6418C12.9439 13.4531 13.1887 13.6979 13.1887 14C13.1887 14.3021 12.9439 14.5469 12.6418 14.5469Z" fill="black"/>
</g>
<defs>
<clipPath id="clip0_292_137">
<rect width="28" height="28" fill="white" transform="translate(0.5)"/>
</clipPath>
</defs>
</svg>
